<svg xmlns="http://www.w3.org/2000/svg" viewBox="0 0 270 270" width="270" height="270" font-family="Verdana,Arial,sans-serif"><rect x="14" y="14" width="74" height="74" rx="10" fill="#f8f9fd" stroke="#c3cae0" stroke-width="1.5"/><polygon points="51.0,28.0 57.1,42.6 72.9,43.9 60.8,54.2 64.5,69.6 51.0,61.4 37.5,69.6 41.2,54.2 29.1,43.9 44.9,42.6" stroke="#2b8a3e" stroke-width="4" fill="none" stroke-linejoin="round"/><rect x="98" y="14" width="74" height="74" rx="10" fill="#f8f9fd" stroke="#c3cae0" stroke-width="1.5"/><polygon points="158.0,51.0 143.4,57.1 142.1,72.9 131.8,60.8 116.4,64.5 124.7,51.0 116.4,37.5 131.8,41.2 142.1,29.1 143.4,44.9" stroke="#2b8a3e" stroke-width="4" fill="none" stroke-linejoin="round"/><rect x="182" y="14" width="74" height="74" rx="10" fill="#f8f9fd" stroke="#c3cae0" stroke-width="1.5"/><polygon points="219.0,74.0 212.9,59.4 197.1,58.1 209.2,47.8 205.5,32.4 219.0,40.6 232.5,32.4 228.8,47.8 240.9,58.1 225.1,59.4" stroke="#2b8a3e" stroke-width="4" fill="none" stroke-linejoin="round"/><rect x="14" y="98" width="74" height="74" rx="10" fill="#f8f9fd" stroke="#c3cae0" stroke-width="1.5"/><polygon points="51.0,112.0 57.1,126.6 72.9,127.9 60.8,138.2 64.5,153.6 51.0,145.3 37.5,153.6 41.2,138.2 29.1,127.9 44.9,126.6" stroke="#5f3dc4" stroke-width="4" fill="none" stroke-linejoin="round"/><rect x="98" y="98" width="74" height="74" rx="10" fill="#f8f9fd" stroke="#c3cae0" stroke-width="1.5"/><polygon points="158.0,135.0 143.4,141.1 142.1,156.9 131.8,144.8 116.4,148.5 124.7,135.0 116.4,121.5 131.8,125.2 142.1,113.1 143.4,128.9" stroke="#5f3dc4" stroke-width="4" fill="none" stroke-linejoin="round"/><rect x="182" y="98" width="74" height="74" rx="10" fill="#f8f9fd" stroke="#c3cae0" stroke-width="1.5"/><polygon points="219.0,158.0 212.9,143.4 197.1,142.1 209.2,131.8 205.5,116.4 219.0,124.7 232.5,116.4 228.8,131.8 240.9,142.1 225.1,143.4" stroke="#5f3dc4" stroke-width="4" fill="none" stroke-linejoin="round"/><rect x="14" y="182" width="74" height="74" rx="10" fill="#f8f9fd" stroke="#c3cae0" stroke-width="1.5"/><polygon points="51.0,196.0 57.1,210.6 72.9,211.9 60.8,222.2 64.5,237.6 51.0,229.3 37.5,237.6 41.2,222.2 29.1,211.9 44.9,210.6" stroke="#1c7ed6" stroke-width="4" fill="none" stroke-linejoin="round"/><rect x="98" y="182" width="74" height="74" rx="10" fill="#f8f9fd" stroke="#c3cae0" stroke-width="1.5"/><polygon points="158.0,219.0 143.4,225.1 142.1,240.9 131.8,228.8 116.4,232.5 124.7,219.0 116.4,205.5 131.8,209.2 142.1,197.1 143.4,212.9" stroke="#1c7ed6" stroke-width="4" fill="none" stroke-linejoin="round"/><rect x="185.0" y="185.0" width="68" height="68" rx="12" fill="#fff3bf" stroke="#f0b429" stroke-width="2"/><text x="219.0" y="219.0" font-size="37" fill="#b07908" text-anchor="middle" font-weight="bold" dominant-baseline="middle">?</text></svg>