<svg xmlns="http://www.w3.org/2000/svg" viewBox="0 0 270 270" width="270" height="270" font-family="Verdana,Arial,sans-serif"><rect x="14" y="14" width="74" height="74" rx="10" fill="#f8f9fd" stroke="#c3cae0" stroke-width="1.5"/><polygon points="51.0,38.4 62.0,44.7 62.0,57.3 51.0,63.6 40.0,57.3 40.0,44.7" stroke="#2C363B" stroke-width="4" fill="none" stroke-linejoin="round"/><rect x="98" y="14" width="74" height="74" rx="10" fill="#f8f9fd" stroke="#c3cae0" stroke-width="1.5"/><polygon points="135.0,38.4 146.0,57.3 124.0,57.3" stroke="#2C363B" stroke-width="4" fill="none" stroke-linejoin="round"/><rect x="182" y="14" width="74" height="74" rx="10" fill="#f8f9fd" stroke="#c3cae0" stroke-width="1.5"/><g transform="rotate(0 219.0 51.0)"><rect x="206.35" y="38.35" width="25.3" height="25.3" rx="3" stroke="#2C363B" stroke-width="4" fill="none"/></g><rect x="14" y="98" width="74" height="74" rx="10" fill="#f8f9fd" stroke="#c3cae0" stroke-width="1.5"/><polygon points="51.0,116.6 66.9,125.8 66.9,144.2 51.0,153.4 35.1,144.2 35.1,125.8" stroke="#2C363B" stroke-width="4" fill="none" stroke-linejoin="round"/><rect x="98" y="98" width="74" height="74" rx="10" fill="#f8f9fd" stroke="#c3cae0" stroke-width="1.5"/><polygon points="135.0,116.6 150.9,144.2 119.1,144.2" stroke="#2C363B" stroke-width="4" fill="none" stroke-linejoin="round"/><rect x="182" y="98" width="74" height="74" rx="10" fill="#f8f9fd" stroke="#c3cae0" stroke-width="1.5"/><g transform="rotate(0 219.0 135.0)"><rect x="200.6" y="116.6" width="36.800000000000004" height="36.800000000000004" rx="3" stroke="#2C363B" stroke-width="4" fill="none"/></g><rect x="14" y="182" width="74" height="74" rx="10" fill="#f8f9fd" stroke="#c3cae0" stroke-width="1.5"/><polygon points="51.0,193.7 72.9,206.3 72.9,231.7 51.0,244.3 29.1,231.7 29.1,206.3" stroke="#2C363B" stroke-width="4" fill="none" stroke-linejoin="round"/><rect x="98" y="182" width="74" height="74" rx="10" fill="#f8f9fd" stroke="#c3cae0" stroke-width="1.5"/><polygon points="135.0,193.7 156.9,231.7 113.1,231.7" stroke="#2C363B" stroke-width="4" fill="none" stroke-linejoin="round"/><rect x="185.0" y="185.0" width="68" height="68" rx="12" fill="#fff3bf" stroke="#f0b429" stroke-width="2"/><text x="219.0" y="219.0" font-size="37" fill="#b07908" text-anchor="middle" font-weight="bold" dominant-baseline="middle">?</text></svg>