<svg xmlns="http://www.w3.org/2000/svg" viewBox="0 0 270 270" width="270" height="270" font-family="Verdana,Arial,sans-serif"><rect x="14" y="14" width="74" height="74" rx="10" fill="#f8f9fd" stroke="#c3cae0" stroke-width="1.5"/><polygon points="51.0,28.0 70.9,39.5 70.9,62.5 51.0,74.0 31.1,62.5 31.1,39.5" stroke="#1f2933" stroke-width="4" fill="none" stroke-linejoin="round"/><rect x="98" y="14" width="74" height="74" rx="10" fill="#f8f9fd" stroke="#c3cae0" stroke-width="1.5"/><polygon points="151.3,34.7 151.3,67.3 118.7,67.3 118.7,34.7" stroke="#1f2933" stroke-width="4" fill="none" stroke-linejoin="round"/><rect x="182" y="14" width="74" height="74" rx="10" fill="#f8f9fd" stroke="#c3cae0" stroke-width="1.5"/><polygon points="219.0,28.0 225.1,42.6 240.9,43.9 228.8,54.2 232.5,69.6 219.0,61.4 205.5,69.6 209.2,54.2 197.1,43.9 212.9,42.6" stroke="#1f2933" stroke-width="4" fill="none" stroke-linejoin="round"/><rect x="14" y="98" width="74" height="74" rx="10" fill="#f8f9fd" stroke="#c3cae0" stroke-width="1.5"/><polygon points="51.0,112.0 70.9,123.5 70.9,146.5 51.0,158.0 31.1,146.5 31.1,123.5" stroke="#e8590c" stroke-width="4" fill="none" stroke-linejoin="round"/><rect x="98" y="98" width="74" height="74" rx="10" fill="#f8f9fd" stroke="#c3cae0" stroke-width="1.5"/><polygon points="151.3,118.7 151.3,151.3 118.7,151.3 118.7,118.7" stroke="#e8590c" stroke-width="4" fill="none" stroke-linejoin="round"/><rect x="182" y="98" width="74" height="74" rx="10" fill="#f8f9fd" stroke="#c3cae0" stroke-width="1.5"/><polygon points="219.0,112.0 225.1,126.6 240.9,127.9 228.8,138.2 232.5,153.6 219.0,145.3 205.5,153.6 209.2,138.2 197.1,127.9 212.9,126.6" stroke="#e8590c" stroke-width="4" fill="none" stroke-linejoin="round"/><rect x="14" y="182" width="74" height="74" rx="10" fill="#f8f9fd" stroke="#c3cae0" stroke-width="1.5"/><polygon points="51.0,196.0 70.9,207.5 70.9,230.5 51.0,242.0 31.1,230.5 31.1,207.5" stroke="#c92a2a" stroke-width="4" fill="none" stroke-linejoin="round"/><rect x="98" y="182" width="74" height="74" rx="10" fill="#f8f9fd" stroke="#c3cae0" stroke-width="1.5"/><polygon points="151.3,202.7 151.3,235.3 118.7,235.3 118.7,202.7" stroke="#c92a2a" stroke-width="4" fill="none" stroke-linejoin="round"/><rect x="185.0" y="185.0" width="68" height="68" rx="12" fill="#fff3bf" stroke="#f0b429" stroke-width="2"/><text x="219.0" y="219.0" font-size="37" fill="#b07908" text-anchor="middle" font-weight="bold" dominant-baseline="middle">?</text></svg>