<svg xmlns="http://www.w3.org/2000/svg" viewBox="0 0 270 270" width="270" height="270" font-family="Verdana,Arial,sans-serif"><rect x="14" y="14" width="74" height="74" rx="10" fill="#f8f9fd" stroke="#c3cae0" stroke-width="1.5"/><circle cx="51.0" cy="51.0" r="23.0" stroke="#c92a2a" stroke-width="4" fill="none"/><rect x="98" y="14" width="74" height="74" rx="10" fill="#f8f9fd" stroke="#c3cae0" stroke-width="1.5"/><circle cx="124.65" cy="51.0" r="8.693999999999999" stroke="#c92a2a" stroke-width="3" fill="none"/><circle cx="145.35" cy="51.0" r="8.693999999999999" stroke="#c92a2a" stroke-width="3" fill="none"/><rect x="182" y="14" width="74" height="74" rx="10" fill="#f8f9fd" stroke="#c3cae0" stroke-width="1.5"/><circle cx="208.65" cy="40.65" r="8.693999999999999" stroke="#c92a2a" stroke-width="3" fill="none"/><circle cx="229.35" cy="40.65" r="8.693999999999999" stroke="#c92a2a" stroke-width="3" fill="none"/><circle cx="208.65" cy="61.349999999999994" r="8.693999999999999" stroke="#c92a2a" stroke-width="3" fill="none"/><rect x="14" y="98" width="74" height="74" rx="10" fill="#f8f9fd" stroke="#c3cae0" stroke-width="1.5"/><polygon points="51.0,112.0 57.1,126.6 72.9,127.9 60.8,138.2 64.5,153.6 51.0,145.3 37.5,153.6 41.2,138.2 29.1,127.9 44.9,126.6" stroke="#c92a2a" stroke-width="4" fill="none" stroke-linejoin="round"/><rect x="98" y="98" width="74" height="74" rx="10" fill="#f8f9fd" stroke="#c3cae0" stroke-width="1.5"/><polygon points="124.7,126.3 126.9,131.8 132.9,132.3 128.4,136.2 129.8,142.0 124.7,138.9 119.5,142.0 120.9,136.2 116.4,132.3 122.4,131.8" stroke="#c92a2a" stroke-width="3" fill="none" stroke-linejoin="round"/><polygon points="145.3,126.3 147.6,131.8 153.6,132.3 149.1,136.2 150.5,142.0 145.3,138.9 140.2,142.0 141.6,136.2 137.1,132.3 143.1,131.8" stroke="#c92a2a" stroke-width="3" fill="none" stroke-linejoin="round"/><rect x="182" y="98" width="74" height="74" rx="10" fill="#f8f9fd" stroke="#c3cae0" stroke-width="1.5"/><polygon points="208.7,116.0 210.9,121.5 216.9,122.0 212.4,125.9 213.8,131.7 208.7,128.6 203.5,131.7 204.9,125.9 200.4,122.0 206.4,121.5" stroke="#c92a2a" stroke-width="3" fill="none" stroke-linejoin="round"/><polygon points="229.3,116.0 231.6,121.5 237.6,122.0 233.1,125.9 234.5,131.7 229.3,128.6 224.2,131.7 225.6,125.9 221.1,122.0 227.1,121.5" stroke="#c92a2a" stroke-width="3" fill="none" stroke-linejoin="round"/><polygon points="208.7,136.7 210.9,142.2 216.9,142.7 212.4,146.6 213.8,152.4 208.7,149.3 203.5,152.4 204.9,146.6 200.4,142.7 206.4,142.2" stroke="#c92a2a" stroke-width="3" fill="none" stroke-linejoin="round"/><rect x="14" y="182" width="74" height="74" rx="10" fill="#f8f9fd" stroke="#c3cae0" stroke-width="1.5"/><g transform="rotate(0 51.0 219.0)"><rect x="28.0" y="196.0" width="46.0" height="46.0" rx="3" stroke="#c92a2a" stroke-width="4" fill="none"/></g><rect x="98" y="182" width="74" height="74" rx="10" fill="#f8f9fd" stroke="#c3cae0" stroke-width="1.5"/><g transform="rotate(0 124.65 219.0)"><rect x="115.956" y="210.306" width="17.387999999999998" height="17.387999999999998" rx="3" stroke="#c92a2a" stroke-width="3" fill="none"/></g><g transform="rotate(0 145.35 219.0)"><rect x="136.656" y="210.306" width="17.387999999999998" height="17.387999999999998" rx="3" stroke="#c92a2a" stroke-width="3" fill="none"/></g><rect x="185.0" y="185.0" width="68" height="68" rx="12" fill="#fff3bf" stroke="#f0b429" stroke-width="2"/><text x="219.0" y="219.0" font-size="37" fill="#b07908" text-anchor="middle" font-weight="bold" dominant-baseline="middle">?</text></svg>