<svg xmlns="http://www.w3.org/2000/svg" viewBox="0 0 270 270" width="270" height="270" font-family="Verdana,Arial,sans-serif"><rect x="14" y="14" width="74" height="74" rx="10" fill="#f8f9fd" stroke="#c3cae0" stroke-width="1.5"/><polygon points="51.0,28.0 72.9,43.9 64.5,69.6 37.5,69.6 29.1,43.9" stroke="#2b8a3e" stroke-width="4" fill="none" stroke-linejoin="round"/><rect x="98" y="14" width="74" height="74" rx="10" fill="#f8f9fd" stroke="#c3cae0" stroke-width="1.5"/><polygon points="158.0,51.0 142.1,72.9 116.4,64.5 116.4,37.5 142.1,29.1" stroke="#2b8a3e" stroke-width="4" fill="none" stroke-linejoin="round"/><rect x="182" y="14" width="74" height="74" rx="10" fill="#f8f9fd" stroke="#c3cae0" stroke-width="1.5"/><polygon points="219.0,74.0 197.1,58.1 205.5,32.4 232.5,32.4 240.9,58.1" stroke="#2b8a3e" stroke-width="4" fill="none" stroke-linejoin="round"/><rect x="14" y="98" width="74" height="74" rx="10" fill="#f8f9fd" stroke="#c3cae0" stroke-width="1.5"/><polygon points="40.6,126.3 48.9,132.3 45.8,142.0 35.5,142.0 32.4,132.3" stroke="#2b8a3e" stroke-width="3" fill="none" stroke-linejoin="round"/><polygon points="61.3,126.3 69.6,132.3 66.5,142.0 56.2,142.0 53.1,132.3" stroke="#2b8a3e" stroke-width="3" fill="none" stroke-linejoin="round"/><rect x="98" y="98" width="74" height="74" rx="10" fill="#f8f9fd" stroke="#c3cae0" stroke-width="1.5"/><polygon points="133.3,135.0 127.3,143.3 117.6,140.1 117.6,129.9 127.3,126.7" stroke="#2b8a3e" stroke-width="3" fill="none" stroke-linejoin="round"/><polygon points="154.0,135.0 148.0,143.3 138.3,140.1 138.3,129.9 148.0,126.7" stroke="#2b8a3e" stroke-width="3" fill="none" stroke-linejoin="round"/><rect x="182" y="98" width="74" height="74" rx="10" fill="#f8f9fd" stroke="#c3cae0" stroke-width="1.5"/><polygon points="208.7,143.7 200.4,137.7 203.5,128.0 213.8,128.0 216.9,137.7" stroke="#2b8a3e" stroke-width="3" fill="none" stroke-linejoin="round"/><polygon points="229.3,143.7 221.1,137.7 224.2,128.0 234.5,128.0 237.6,137.7" stroke="#2b8a3e" stroke-width="3" fill="none" stroke-linejoin="round"/><rect x="14" y="182" width="74" height="74" rx="10" fill="#f8f9fd" stroke="#c3cae0" stroke-width="1.5"/><polygon points="40.6,200.0 48.9,206.0 45.8,215.7 35.5,215.7 32.4,206.0" stroke="#2b8a3e" stroke-width="3" fill="none" stroke-linejoin="round"/><polygon points="61.3,200.0 69.6,206.0 66.5,215.7 56.2,215.7 53.1,206.0" stroke="#2b8a3e" stroke-width="3" fill="none" stroke-linejoin="round"/><polygon points="40.6,220.7 48.9,226.7 45.8,236.4 35.5,236.4 32.4,226.7" stroke="#2b8a3e" stroke-width="3" fill="none" stroke-linejoin="round"/><rect x="98" y="182" width="74" height="74" rx="10" fill="#f8f9fd" stroke="#c3cae0" stroke-width="1.5"/><polygon points="133.3,208.7 127.3,216.9 117.6,213.8 117.6,203.5 127.3,200.4" stroke="#2b8a3e" stroke-width="3" fill="none" stroke-linejoin="round"/><polygon points="154.0,208.7 148.0,216.9 138.3,213.8 138.3,203.5 148.0,200.4" stroke="#2b8a3e" stroke-width="3" fill="none" stroke-linejoin="round"/><polygon points="133.3,229.3 127.3,237.6 117.6,234.5 117.6,224.2 127.3,221.1" stroke="#2b8a3e" stroke-width="3" fill="none" stroke-linejoin="round"/><rect x="185.0" y="185.0" width="68" height="68" rx="12" fill="#fff3bf" stroke="#f0b429" stroke-width="2"/><text x="219.0" y="219.0" font-size="37" fill="#b07908" text-anchor="middle" font-weight="bold" dominant-baseline="middle">?</text></svg>