<svg xmlns="http://www.w3.org/2000/svg" viewBox="0 0 270 270" width="270" height="270" font-family="Verdana,Arial,sans-serif"><rect x="14" y="14" width="74" height="74" rx="10" fill="#f8f9fd" stroke="#c3cae0" stroke-width="1.5"/><g transform="rotate(0 51.0 51.0)"><line x1="38.35" y1="51.0" x2="63.65" y2="51.0" stroke="#1f2933" stroke-width="4" stroke-linecap="round"/><polyline points="53.65,42.0 63.65,51.0 53.65,60.0" stroke="#1f2933" stroke-width="4" fill="none" stroke-linecap="round" stroke-linejoin="round"/></g><rect x="98" y="14" width="74" height="74" rx="10" fill="#f8f9fd" stroke="#c3cae0" stroke-width="1.5"/><g transform="rotate(0 135.0 51.0)"><line x1="116.6" y1="51.0" x2="153.4" y2="51.0" stroke="#1f2933" stroke-width="4" stroke-linecap="round"/><polyline points="143.4,42.0 153.4,51.0 143.4,60.0" stroke="#1f2933" stroke-width="4" fill="none" stroke-linecap="round" stroke-linejoin="round"/></g><rect x="182" y="14" width="74" height="74" rx="10" fill="#f8f9fd" stroke="#c3cae0" stroke-width="1.5"/><g transform="rotate(0 219.0 51.0)"><line x1="193.7" y1="51.0" x2="244.3" y2="51.0" stroke="#1f2933" stroke-width="4" stroke-linecap="round"/><polyline points="234.3,42.0 244.3,51.0 234.3,60.0" stroke="#1f2933" stroke-width="4" fill="none" stroke-linecap="round" stroke-linejoin="round"/></g><rect x="14" y="98" width="74" height="74" rx="10" fill="#f8f9fd" stroke="#c3cae0" stroke-width="1.5"/><g transform="rotate(90 51.0 135.0)"><line x1="38.35" y1="135.0" x2="63.65" y2="135.0" stroke="#1f2933" stroke-width="4" stroke-linecap="round"/><polyline points="53.65,126.0 63.65,135.0 53.65,144.0" stroke="#1f2933" stroke-width="4" fill="none" stroke-linecap="round" stroke-linejoin="round"/></g><rect x="98" y="98" width="74" height="74" rx="10" fill="#f8f9fd" stroke="#c3cae0" stroke-width="1.5"/><g transform="rotate(90 135.0 135.0)"><line x1="116.6" y1="135.0" x2="153.4" y2="135.0" stroke="#1f2933" stroke-width="4" stroke-linecap="round"/><polyline points="143.4,126.0 153.4,135.0 143.4,144.0" stroke="#1f2933" stroke-width="4" fill="none" stroke-linecap="round" stroke-linejoin="round"/></g><rect x="182" y="98" width="74" height="74" rx="10" fill="#f8f9fd" stroke="#c3cae0" stroke-width="1.5"/><g transform="rotate(90 219.0 135.0)"><line x1="193.7" y1="135.0" x2="244.3" y2="135.0" stroke="#1f2933" stroke-width="4" stroke-linecap="round"/><polyline points="234.3,126.0 244.3,135.0 234.3,144.0" stroke="#1f2933" stroke-width="4" fill="none" stroke-linecap="round" stroke-linejoin="round"/></g><rect x="14" y="182" width="74" height="74" rx="10" fill="#f8f9fd" stroke="#c3cae0" stroke-width="1.5"/><g transform="rotate(180 51.0 219.0)"><line x1="38.35" y1="219.0" x2="63.65" y2="219.0" stroke="#1f2933" stroke-width="4" stroke-linecap="round"/><polyline points="53.65,210.0 63.65,219.0 53.65,228.0" stroke="#1f2933" stroke-width="4" fill="none" stroke-linecap="round" stroke-linejoin="round"/></g><rect x="98" y="182" width="74" height="74" rx="10" fill="#f8f9fd" stroke="#c3cae0" stroke-width="1.5"/><g transform="rotate(180 135.0 219.0)"><line x1="116.6" y1="219.0" x2="153.4" y2="219.0" stroke="#1f2933" stroke-width="4" stroke-linecap="round"/><polyline points="143.4,210.0 153.4,219.0 143.4,228.0" stroke="#1f2933" stroke-width="4" fill="none" stroke-linecap="round" stroke-linejoin="round"/></g><rect x="185.0" y="185.0" width="68" height="68" rx="12" fill="#fff3bf" stroke="#f0b429" stroke-width="2"/><text x="219.0" y="219.0" font-size="37" fill="#b07908" text-anchor="middle" font-weight="bold" dominant-baseline="middle">?</text></svg>