<svg xmlns="http://www.w3.org/2000/svg" viewBox="0 0 270 270" width="270" height="270" font-family="Verdana,Arial,sans-serif"><rect x="14" y="14" width="74" height="74" rx="10" fill="#f8f9fd" stroke="#c3cae0" stroke-width="1.5"/><circle cx="51.0" cy="51.0" r="23.0" stroke="#2C363B" stroke-width="4" fill="none"/><rect x="98" y="14" width="74" height="74" rx="10" fill="#f8f9fd" stroke="#c3cae0" stroke-width="1.5"/><polygon points="151.3,34.7 151.3,67.3 118.7,67.3 118.7,34.7" stroke="#2C363B" stroke-width="4" fill="none" stroke-linejoin="round"/><rect x="182" y="14" width="74" height="74" rx="10" fill="#f8f9fd" stroke="#c3cae0" stroke-width="1.5"/><polygon points="219.0,28.0 225.1,42.6 240.9,43.9 228.8,54.2 232.5,69.6 219.0,61.4 205.5,69.6 209.2,54.2 197.1,43.9 212.9,42.6" stroke="#2C363B" stroke-width="4" fill="none" stroke-linejoin="round"/><rect x="14" y="98" width="74" height="74" rx="10" fill="#f8f9fd" stroke="#c3cae0" stroke-width="1.5"/><circle cx="40.65" cy="135.0" r="8.693999999999999" stroke="#2C363B" stroke-width="3" fill="none"/><circle cx="61.349999999999994" cy="135.0" r="8.693999999999999" stroke="#2C363B" stroke-width="3" fill="none"/><rect x="98" y="98" width="74" height="74" rx="10" fill="#f8f9fd" stroke="#c3cae0" stroke-width="1.5"/><polygon points="130.8,128.9 130.8,141.1 118.5,141.1 118.5,128.9" stroke="#2C363B" stroke-width="3" fill="none" stroke-linejoin="round"/><polygon points="151.5,128.9 151.5,141.1 139.2,141.1 139.2,128.9" stroke="#2C363B" stroke-width="3" fill="none" stroke-linejoin="round"/><rect x="182" y="98" width="74" height="74" rx="10" fill="#f8f9fd" stroke="#c3cae0" stroke-width="1.5"/><polygon points="208.7,126.3 210.9,131.8 216.9,132.3 212.4,136.2 213.8,142.0 208.7,138.9 203.5,142.0 204.9,136.2 200.4,132.3 206.4,131.8" stroke="#2C363B" stroke-width="3" fill="none" stroke-linejoin="round"/><polygon points="229.3,126.3 231.6,131.8 237.6,132.3 233.1,136.2 234.5,142.0 229.3,138.9 224.2,142.0 225.6,136.2 221.1,132.3 227.1,131.8" stroke="#2C363B" stroke-width="3" fill="none" stroke-linejoin="round"/><rect x="14" y="182" width="74" height="74" rx="10" fill="#f8f9fd" stroke="#c3cae0" stroke-width="1.5"/><circle cx="40.65" cy="208.65" r="8.693999999999999" stroke="#2C363B" stroke-width="3" fill="none"/><circle cx="61.349999999999994" cy="208.65" r="8.693999999999999" stroke="#2C363B" stroke-width="3" fill="none"/><circle cx="40.65" cy="229.35" r="8.693999999999999" stroke="#2C363B" stroke-width="3" fill="none"/><rect x="98" y="182" width="74" height="74" rx="10" fill="#f8f9fd" stroke="#c3cae0" stroke-width="1.5"/><polygon points="130.8,202.5 130.8,214.8 118.5,214.8 118.5,202.5" stroke="#2C363B" stroke-width="3" fill="none" stroke-linejoin="round"/><polygon points="151.5,202.5 151.5,214.8 139.2,214.8 139.2,202.5" stroke="#2C363B" stroke-width="3" fill="none" stroke-linejoin="round"/><polygon points="130.8,223.2 130.8,235.5 118.5,235.5 118.5,223.2" stroke="#2C363B" stroke-width="3" fill="none" stroke-linejoin="round"/><rect x="185.0" y="185.0" width="68" height="68" rx="12" fill="#fff3bf" stroke="#f0b429" stroke-width="2"/><text x="219.0" y="219.0" font-size="37" fill="#b07908" text-anchor="middle" font-weight="bold" dominant-baseline="middle">?</text></svg>