<svg xmlns="http://www.w3.org/2000/svg" viewBox="0 0 270 270" width="270" height="270" font-family="Verdana,Arial,sans-serif"><rect x="14" y="14" width="74" height="74" rx="10" fill="#f8f9fd" stroke="#c3cae0" stroke-width="1.5"/><polygon points="51.0,38.4 62.0,44.7 62.0,57.3 51.0,63.6 40.0,57.3 40.0,44.7" stroke="#5f3dc4" stroke-width="4" fill="none" stroke-linejoin="round"/><rect x="98" y="14" width="74" height="74" rx="10" fill="#f8f9fd" stroke="#c3cae0" stroke-width="1.5"/><polygon points="135.0,32.6 150.9,41.8 150.9,60.2 135.0,69.4 119.1,60.2 119.1,41.8" stroke="#5f3dc4" stroke-width="4" fill="none" stroke-linejoin="round"/><rect x="182" y="14" width="74" height="74" rx="10" fill="#f8f9fd" stroke="#c3cae0" stroke-width="1.5"/><polygon points="219.0,25.7 240.9,38.4 240.9,63.6 219.0,76.3 197.1,63.6 197.1,38.3" stroke="#5f3dc4" stroke-width="4" fill="none" stroke-linejoin="round"/><rect x="14" y="98" width="74" height="74" rx="10" fill="#f8f9fd" stroke="#c3cae0" stroke-width="1.5"/><polygon points="51.0,122.3 54.3,130.4 63.0,131.1 56.4,136.8 58.4,145.2 51.0,140.7 43.6,145.2 45.6,136.8 39.0,131.1 47.7,130.4" stroke="#5f3dc4" stroke-width="4" fill="none" stroke-linejoin="round"/><rect x="98" y="98" width="74" height="74" rx="10" fill="#f8f9fd" stroke="#c3cae0" stroke-width="1.5"/><polygon points="135.0,116.6 139.9,128.3 152.5,129.3 142.9,137.6 145.8,149.9 135.0,143.3 124.2,149.9 127.1,137.6 117.5,129.3 130.1,128.3" stroke="#5f3dc4" stroke-width="4" fill="none" stroke-linejoin="round"/><rect x="182" y="98" width="74" height="74" rx="10" fill="#f8f9fd" stroke="#c3cae0" stroke-width="1.5"/><polygon points="219.0,109.7 225.7,125.8 243.1,127.2 229.8,138.5 233.9,155.5 219.0,146.4 204.1,155.5 208.2,138.5 194.9,127.2 212.3,125.8" stroke="#5f3dc4" stroke-width="4" fill="none" stroke-linejoin="round"/><rect x="14" y="182" width="74" height="74" rx="10" fill="#f8f9fd" stroke="#c3cae0" stroke-width="1.5"/><polygon points="59.9,210.1 59.9,227.9 42.1,227.9 42.1,210.1" stroke="#5f3dc4" stroke-width="4" fill="none" stroke-linejoin="round"/><rect x="98" y="182" width="74" height="74" rx="10" fill="#f8f9fd" stroke="#c3cae0" stroke-width="1.5"/><polygon points="148.0,206.0 148.0,232.0 122.0,232.0 122.0,206.0" stroke="#5f3dc4" stroke-width="4" fill="none" stroke-linejoin="round"/><rect x="185.0" y="185.0" width="68" height="68" rx="12" fill="#fff3bf" stroke="#f0b429" stroke-width="2"/><text x="219.0" y="219.0" font-size="37" fill="#b07908" text-anchor="middle" font-weight="bold" dominant-baseline="middle">?</text></svg>