<svg xmlns="http://www.w3.org/2000/svg" viewBox="0 0 270 270" width="270" height="270" font-family="Verdana,Arial,sans-serif"><rect x="14" y="14" width="74" height="74" rx="10" fill="#f8f9fd" stroke="#c3cae0" stroke-width="1.5"/><g transform="rotate(0 51.0 51.0)"><line x1="38.35" y1="51.0" x2="63.65" y2="51.0" stroke="#1f2933" stroke-width="4" stroke-linecap="round"/><polyline points="53.65,42.0 63.65,51.0 53.65,60.0" stroke="#1f2933" stroke-width="4" fill="none" stroke-linecap="round" stroke-linejoin="round"/></g><rect x="98" y="14" width="74" height="74" rx="10" fill="#f8f9fd" stroke="#c3cae0" stroke-width="1.5"/><g transform="rotate(90 135.0 51.0)"><line x1="122.35" y1="51.0" x2="147.65" y2="51.0" stroke="#1f2933" stroke-width="4" stroke-linecap="round"/><polyline points="137.65,42.0 147.65,51.0 137.65,60.0" stroke="#1f2933" stroke-width="4" fill="none" stroke-linecap="round" stroke-linejoin="round"/></g><rect x="182" y="14" width="74" height="74" rx="10" fill="#f8f9fd" stroke="#c3cae0" stroke-width="1.5"/><g transform="rotate(180 219.0 51.0)"><line x1="206.35" y1="51.0" x2="231.65" y2="51.0" stroke="#1f2933" stroke-width="4" stroke-linecap="round"/><polyline points="221.65,42.0 231.65,51.0 221.65,60.0" stroke="#1f2933" stroke-width="4" fill="none" stroke-linecap="round" stroke-linejoin="round"/></g><rect x="14" y="98" width="74" height="74" rx="10" fill="#f8f9fd" stroke="#c3cae0" stroke-width="1.5"/><g transform="rotate(0 51.0 135.0)"><line x1="32.599999999999994" y1="135.0" x2="69.4" y2="135.0" stroke="#1f2933" stroke-width="4" stroke-linecap="round"/><polyline points="59.400000000000006,126.0 69.4,135.0 59.400000000000006,144.0" stroke="#1f2933" stroke-width="4" fill="none" stroke-linecap="round" stroke-linejoin="round"/></g><rect x="98" y="98" width="74" height="74" rx="10" fill="#f8f9fd" stroke="#c3cae0" stroke-width="1.5"/><g transform="rotate(90 135.0 135.0)"><line x1="116.6" y1="135.0" x2="153.4" y2="135.0" stroke="#1f2933" stroke-width="4" stroke-linecap="round"/><polyline points="143.4,126.0 153.4,135.0 143.4,144.0" stroke="#1f2933" stroke-width="4" fill="none" stroke-linecap="round" stroke-linejoin="round"/></g><rect x="182" y="98" width="74" height="74" rx="10" fill="#f8f9fd" stroke="#c3cae0" stroke-width="1.5"/><g transform="rotate(180 219.0 135.0)"><line x1="200.6" y1="135.0" x2="237.4" y2="135.0" stroke="#1f2933" stroke-width="4" stroke-linecap="round"/><polyline points="227.4,126.0 237.4,135.0 227.4,144.0" stroke="#1f2933" stroke-width="4" fill="none" stroke-linecap="round" stroke-linejoin="round"/></g><rect x="14" y="182" width="74" height="74" rx="10" fill="#f8f9fd" stroke="#c3cae0" stroke-width="1.5"/><g transform="rotate(0 51.0 219.0)"><line x1="25.7" y1="219.0" x2="76.3" y2="219.0" stroke="#1f2933" stroke-width="4" stroke-linecap="round"/><polyline points="66.3,210.0 76.3,219.0 66.3,228.0" stroke="#1f2933" stroke-width="4" fill="none" stroke-linecap="round" stroke-linejoin="round"/></g><rect x="98" y="182" width="74" height="74" rx="10" fill="#f8f9fd" stroke="#c3cae0" stroke-width="1.5"/><g transform="rotate(90 135.0 219.0)"><line x1="109.7" y1="219.0" x2="160.3" y2="219.0" stroke="#1f2933" stroke-width="4" stroke-linecap="round"/><polyline points="150.3,210.0 160.3,219.0 150.3,228.0" stroke="#1f2933" stroke-width="4" fill="none" stroke-linecap="round" stroke-linejoin="round"/></g><rect x="185.0" y="185.0" width="68" height="68" rx="12" fill="#fff3bf" stroke="#f0b429" stroke-width="2"/><text x="219.0" y="219.0" font-size="37" fill="#b07908" text-anchor="middle" font-weight="bold" dominant-baseline="middle">?</text></svg>