<svg xmlns="http://www.w3.org/2000/svg" viewBox="0 0 270 270" width="270" height="270" font-family="Verdana,Arial,sans-serif"><rect x="14" y="14" width="74" height="74" rx="10" fill="#f8f9fd" stroke="#c3cae0" stroke-width="1.5"/><circle cx="51.0" cy="51.0" r="12.65" stroke="#2C363B" stroke-width="4" fill="none"/><rect x="98" y="14" width="74" height="74" rx="10" fill="#f8f9fd" stroke="#c3cae0" stroke-width="1.5"/><polygon points="135.0,38.4 146.0,44.7 146.0,57.3 135.0,63.6 124.0,57.3 124.0,44.7" stroke="#2C363B" stroke-width="4" fill="none" stroke-linejoin="round"/><rect x="182" y="14" width="74" height="74" rx="10" fill="#f8f9fd" stroke="#c3cae0" stroke-width="1.5"/><polygon points="219.0,38.4 231.0,47.1 226.4,61.2 211.6,61.2 207.0,47.1" stroke="#2C363B" stroke-width="4" fill="none" stroke-linejoin="round"/><rect x="14" y="98" width="74" height="74" rx="10" fill="#f8f9fd" stroke="#c3cae0" stroke-width="1.5"/><circle cx="51.0" cy="135.0" r="18.400000000000002" stroke="#2C363B" stroke-width="4" fill="none"/><rect x="98" y="98" width="74" height="74" rx="10" fill="#f8f9fd" stroke="#c3cae0" stroke-width="1.5"/><polygon points="135.0,116.6 150.9,125.8 150.9,144.2 135.0,153.4 119.1,144.2 119.1,125.8" stroke="#2C363B" stroke-width="4" fill="none" stroke-linejoin="round"/><rect x="182" y="98" width="74" height="74" rx="10" fill="#f8f9fd" stroke="#c3cae0" stroke-width="1.5"/><polygon points="219.0,116.6 236.5,129.3 229.8,149.9 208.2,149.9 201.5,129.3" stroke="#2C363B" stroke-width="4" fill="none" stroke-linejoin="round"/><rect x="14" y="182" width="74" height="74" rx="10" fill="#f8f9fd" stroke="#c3cae0" stroke-width="1.5"/><circle cx="51.0" cy="219.0" r="25.3" stroke="#2C363B" stroke-width="4" fill="none"/><rect x="98" y="182" width="74" height="74" rx="10" fill="#f8f9fd" stroke="#c3cae0" stroke-width="1.5"/><polygon points="135.0,193.7 156.9,206.3 156.9,231.7 135.0,244.3 113.1,231.7 113.1,206.3" stroke="#2C363B" stroke-width="4" fill="none" stroke-linejoin="round"/><rect x="185.0" y="185.0" width="68" height="68" rx="12" fill="#fff3bf" stroke="#f0b429" stroke-width="2"/><text x="219.0" y="219.0" font-size="37" fill="#b07908" text-anchor="middle" font-weight="bold" dominant-baseline="middle">?</text></svg>