<svg xmlns="http://www.w3.org/2000/svg" viewBox="0 0 270 270" width="270" height="270" font-family="Verdana,Arial,sans-serif"><rect x="14" y="14" width="74" height="74" rx="10" fill="#f8f9fd" stroke="#c3cae0" stroke-width="1.5"/><polygon points="51.0,28.0 70.9,62.5 31.1,62.5" stroke="#1c7ed6" stroke-width="4" fill="none" stroke-linejoin="round"/><rect x="98" y="14" width="74" height="74" rx="10" fill="#f8f9fd" stroke="#c3cae0" stroke-width="1.5"/><polygon points="124.7,42.3 132.2,55.3 117.1,55.3" stroke="#1c7ed6" stroke-width="3" fill="none" stroke-linejoin="round"/><polygon points="145.3,42.3 152.9,55.3 137.8,55.3" stroke="#1c7ed6" stroke-width="3" fill="none" stroke-linejoin="round"/><rect x="182" y="14" width="74" height="74" rx="10" fill="#f8f9fd" stroke="#c3cae0" stroke-width="1.5"/><polygon points="208.7,32.0 216.2,45.0 201.1,45.0" stroke="#1c7ed6" stroke-width="3" fill="none" stroke-linejoin="round"/><polygon points="229.3,32.0 236.9,45.0 221.8,45.0" stroke="#1c7ed6" stroke-width="3" fill="none" stroke-linejoin="round"/><polygon points="208.7,52.7 216.2,65.7 201.1,65.7" stroke="#1c7ed6" stroke-width="3" fill="none" stroke-linejoin="round"/><rect x="14" y="98" width="74" height="74" rx="10" fill="#f8f9fd" stroke="#c3cae0" stroke-width="1.5"/><circle cx="51.0" cy="135.0" r="23.0" stroke="#1c7ed6" stroke-width="4" fill="none"/><rect x="98" y="98" width="74" height="74" rx="10" fill="#f8f9fd" stroke="#c3cae0" stroke-width="1.5"/><circle cx="124.65" cy="135.0" r="8.693999999999999" stroke="#1c7ed6" stroke-width="3" fill="none"/><circle cx="145.35" cy="135.0" r="8.693999999999999" stroke="#1c7ed6" stroke-width="3" fill="none"/><rect x="182" y="98" width="74" height="74" rx="10" fill="#f8f9fd" stroke="#c3cae0" stroke-width="1.5"/><circle cx="208.65" cy="124.65" r="8.693999999999999" stroke="#1c7ed6" stroke-width="3" fill="none"/><circle cx="229.35" cy="124.65" r="8.693999999999999" stroke="#1c7ed6" stroke-width="3" fill="none"/><circle cx="208.65" cy="145.35" r="8.693999999999999" stroke="#1c7ed6" stroke-width="3" fill="none"/><rect x="14" y="182" width="74" height="74" rx="10" fill="#f8f9fd" stroke="#c3cae0" stroke-width="1.5"/><polygon points="51.0,196.0 70.9,207.5 70.9,230.5 51.0,242.0 31.1,230.5 31.1,207.5" stroke="#1c7ed6" stroke-width="4" fill="none" stroke-linejoin="round"/><rect x="98" y="182" width="74" height="74" rx="10" fill="#f8f9fd" stroke="#c3cae0" stroke-width="1.5"/><polygon points="124.7,210.3 132.2,214.7 132.2,223.3 124.7,227.7 117.1,223.3 117.1,214.7" stroke="#1c7ed6" stroke-width="3" fill="none" stroke-linejoin="round"/><polygon points="145.3,210.3 152.9,214.7 152.9,223.3 145.3,227.7 137.8,223.3 137.8,214.7" stroke="#1c7ed6" stroke-width="3" fill="none" stroke-linejoin="round"/><rect x="185.0" y="185.0" width="68" height="68" rx="12" fill="#fff3bf" stroke="#f0b429" stroke-width="2"/><text x="219.0" y="219.0" font-size="37" fill="#b07908" text-anchor="middle" font-weight="bold" dominant-baseline="middle">?</text></svg>