<svg xmlns="http://www.w3.org/2000/svg" viewBox="0 0 270 270" width="270" height="270" font-family="Verdana,Arial,sans-serif"><rect x="14" y="14" width="74" height="74" rx="10" fill="#f8f9fd" stroke="#c3cae0" stroke-width="1.5"/><polygon points="51.0,28.0 72.9,43.9 64.5,69.6 37.5,69.6 29.1,43.9" stroke="#e8590c" stroke-width="4" fill="none" stroke-linejoin="round"/><rect x="98" y="14" width="74" height="74" rx="10" fill="#f8f9fd" stroke="#c3cae0" stroke-width="1.5"/><polygon points="124.7,42.3 132.9,48.3 129.8,58.0 119.5,58.0 116.4,48.3" stroke="#e8590c" stroke-width="3" fill="none" stroke-linejoin="round"/><polygon points="145.3,42.3 153.6,48.3 150.5,58.0 140.2,58.0 137.1,48.3" stroke="#e8590c" stroke-width="3" fill="none" stroke-linejoin="round"/><rect x="182" y="14" width="74" height="74" rx="10" fill="#f8f9fd" stroke="#c3cae0" stroke-width="1.5"/><polygon points="208.7,32.0 216.9,38.0 213.8,47.7 203.5,47.7 200.4,38.0" stroke="#e8590c" stroke-width="3" fill="none" stroke-linejoin="round"/><polygon points="229.3,32.0 237.6,38.0 234.5,47.7 224.2,47.7 221.1,38.0" stroke="#e8590c" stroke-width="3" fill="none" stroke-linejoin="round"/><polygon points="208.7,52.7 216.9,58.7 213.8,68.4 203.5,68.4 200.4,58.7" stroke="#e8590c" stroke-width="3" fill="none" stroke-linejoin="round"/><rect x="14" y="98" width="74" height="74" rx="10" fill="#f8f9fd" stroke="#c3cae0" stroke-width="1.5"/><polygon points="74.0,135.0 58.1,156.9 32.4,148.5 32.4,121.5 58.1,113.1" stroke="#e8590c" stroke-width="4" fill="none" stroke-linejoin="round"/><rect x="98" y="98" width="74" height="74" rx="10" fill="#f8f9fd" stroke="#c3cae0" stroke-width="1.5"/><polygon points="133.3,135.0 127.3,143.3 117.6,140.1 117.6,129.9 127.3,126.7" stroke="#e8590c" stroke-width="3" fill="none" stroke-linejoin="round"/><polygon points="154.0,135.0 148.0,143.3 138.3,140.1 138.3,129.9 148.0,126.7" stroke="#e8590c" stroke-width="3" fill="none" stroke-linejoin="round"/><rect x="182" y="98" width="74" height="74" rx="10" fill="#f8f9fd" stroke="#c3cae0" stroke-width="1.5"/><polygon points="217.3,124.7 211.3,132.9 201.6,129.8 201.6,119.5 211.3,116.4" stroke="#e8590c" stroke-width="3" fill="none" stroke-linejoin="round"/><polygon points="238.0,124.7 232.0,132.9 222.3,129.8 222.3,119.5 232.0,116.4" stroke="#e8590c" stroke-width="3" fill="none" stroke-linejoin="round"/><polygon points="217.3,145.3 211.3,153.6 201.6,150.5 201.6,140.2 211.3,137.1" stroke="#e8590c" stroke-width="3" fill="none" stroke-linejoin="round"/><rect x="14" y="182" width="74" height="74" rx="10" fill="#f8f9fd" stroke="#c3cae0" stroke-width="1.5"/><polygon points="51.0,242.0 29.1,226.1 37.5,200.4 64.5,200.4 72.9,226.1" stroke="#e8590c" stroke-width="4" fill="none" stroke-linejoin="round"/><rect x="98" y="182" width="74" height="74" rx="10" fill="#f8f9fd" stroke="#c3cae0" stroke-width="1.5"/><polygon points="124.7,227.7 116.4,221.7 119.5,212.0 129.8,212.0 132.9,221.7" stroke="#e8590c" stroke-width="3" fill="none" stroke-linejoin="round"/><polygon points="145.3,227.7 137.1,221.7 140.2,212.0 150.5,212.0 153.6,221.7" stroke="#e8590c" stroke-width="3" fill="none" stroke-linejoin="round"/><rect x="185.0" y="185.0" width="68" height="68" rx="12" fill="#fff3bf" stroke="#f0b429" stroke-width="2"/><text x="219.0" y="219.0" font-size="37" fill="#b07908" text-anchor="middle" font-weight="bold" dominant-baseline="middle">?</text></svg>