<svg xmlns="http://www.w3.org/2000/svg" viewBox="0 0 270 270" width="270" height="270" font-family="Verdana,Arial,sans-serif"><rect x="14" y="14" width="74" height="74" rx="10" fill="#f8f9fd" stroke="#c3cae0" stroke-width="1.5"/><polygon points="51.0,38.4 54.3,46.4 63.0,47.1 56.4,52.8 58.4,61.2 51.0,56.7 43.6,61.2 45.6,52.8 39.0,47.1 47.7,46.4" stroke="#e8590c" stroke-width="4" fill="none" stroke-linejoin="round"/><rect x="98" y="14" width="74" height="74" rx="10" fill="#f8f9fd" stroke="#c3cae0" stroke-width="1.5"/><polygon points="143.9,42.1 143.9,59.9 126.1,59.9 126.1,42.1" stroke="#e8590c" stroke-width="4" fill="none" stroke-linejoin="round"/><rect x="182" y="14" width="74" height="74" rx="10" fill="#f8f9fd" stroke="#c3cae0" stroke-width="1.5"/><polygon points="219.0,38.4 231.0,47.1 226.4,61.2 211.6,61.2 207.0,47.1" stroke="#e8590c" stroke-width="4" fill="none" stroke-linejoin="round"/><rect x="14" y="98" width="74" height="74" rx="10" fill="#f8f9fd" stroke="#c3cae0" stroke-width="1.5"/><polygon points="51.0,116.6 55.9,128.3 68.5,129.3 58.9,137.6 61.8,149.9 51.0,143.3 40.2,149.9 43.1,137.6 33.5,129.3 46.1,128.3" stroke="#e8590c" stroke-width="4" fill="none" stroke-linejoin="round"/><rect x="98" y="98" width="74" height="74" rx="10" fill="#f8f9fd" stroke="#c3cae0" stroke-width="1.5"/><polygon points="148.0,122.0 148.0,148.0 122.0,148.0 122.0,122.0" stroke="#e8590c" stroke-width="4" fill="none" stroke-linejoin="round"/><rect x="182" y="98" width="74" height="74" rx="10" fill="#f8f9fd" stroke="#c3cae0" stroke-width="1.5"/><polygon points="219.0,116.6 236.5,129.3 229.8,149.9 208.2,149.9 201.5,129.3" stroke="#e8590c" stroke-width="4" fill="none" stroke-linejoin="round"/><rect x="14" y="182" width="74" height="74" rx="10" fill="#f8f9fd" stroke="#c3cae0" stroke-width="1.5"/><polygon points="51.0,193.7 57.7,209.8 75.1,211.2 61.8,222.5 65.9,239.5 51.0,230.4 36.1,239.5 40.2,222.5 26.9,211.2 44.3,209.8" stroke="#e8590c" stroke-width="4" fill="none" stroke-linejoin="round"/><rect x="98" y="182" width="74" height="74" rx="10" fill="#f8f9fd" stroke="#c3cae0" stroke-width="1.5"/><polygon points="152.9,201.1 152.9,236.9 117.1,236.9 117.1,201.1" stroke="#e8590c" stroke-width="4" fill="none" stroke-linejoin="round"/><rect x="185.0" y="185.0" width="68" height="68" rx="12" fill="#fff3bf" stroke="#f0b429" stroke-width="2"/><text x="219.0" y="219.0" font-size="37" fill="#b07908" text-anchor="middle" font-weight="bold" dominant-baseline="middle">?</text></svg>