<svg xmlns="http://www.w3.org/2000/svg" viewBox="0 0 270 270" width="270" height="270" font-family="Verdana,Arial,sans-serif"><rect x="14" y="14" width="74" height="74" rx="10" fill="#f8f9fd" stroke="#c3cae0" stroke-width="1.5"/><polygon points="51.0,28.0 72.9,43.9 64.5,69.6 37.5,69.6 29.1,43.9" stroke="#2C363B" stroke-width="4" fill="none" stroke-linejoin="round"/><rect x="98" y="14" width="74" height="74" rx="10" fill="#f8f9fd" stroke="#c3cae0" stroke-width="1.5"/><polygon points="124.7,42.3 132.9,48.3 129.8,58.0 119.5,58.0 116.4,48.3" stroke="#2C363B" stroke-width="3" fill="none" stroke-linejoin="round"/><polygon points="145.3,42.3 153.6,48.3 150.5,58.0 140.2,58.0 137.1,48.3" stroke="#2C363B" stroke-width="3" fill="none" stroke-linejoin="round"/><rect x="182" y="14" width="74" height="74" rx="10" fill="#f8f9fd" stroke="#c3cae0" stroke-width="1.5"/><polygon points="208.7,32.0 216.9,38.0 213.8,47.7 203.5,47.7 200.4,38.0" stroke="#2C363B" stroke-width="3" fill="none" stroke-linejoin="round"/><polygon points="229.3,32.0 237.6,38.0 234.5,47.7 224.2,47.7 221.1,38.0" stroke="#2C363B" stroke-width="3" fill="none" stroke-linejoin="round"/><polygon points="208.7,52.7 216.9,58.7 213.8,68.4 203.5,68.4 200.4,58.7" stroke="#2C363B" stroke-width="3" fill="none" stroke-linejoin="round"/><rect x="14" y="98" width="74" height="74" rx="10" fill="#f8f9fd" stroke="#c3cae0" stroke-width="1.5"/><g transform="rotate(0 51.0 135.0)"><rect x="28.0" y="112.0" width="46.0" height="46.0" rx="3" stroke="#2C363B" stroke-width="4" fill="none"/></g><rect x="98" y="98" width="74" height="74" rx="10" fill="#f8f9fd" stroke="#c3cae0" stroke-width="1.5"/><g transform="rotate(0 124.65 135.0)"><rect x="115.956" y="126.306" width="17.387999999999998" height="17.387999999999998" rx="3" stroke="#2C363B" stroke-width="3" fill="none"/></g><g transform="rotate(0 145.35 135.0)"><rect x="136.656" y="126.306" width="17.387999999999998" height="17.387999999999998" rx="3" stroke="#2C363B" stroke-width="3" fill="none"/></g><rect x="182" y="98" width="74" height="74" rx="10" fill="#f8f9fd" stroke="#c3cae0" stroke-width="1.5"/><g transform="rotate(0 208.65 124.65)"><rect x="199.95600000000002" y="115.956" width="17.387999999999998" height="17.387999999999998" rx="3" stroke="#2C363B" stroke-width="3" fill="none"/></g><g transform="rotate(0 229.35 124.65)"><rect x="220.656" y="115.956" width="17.387999999999998" height="17.387999999999998" rx="3" stroke="#2C363B" stroke-width="3" fill="none"/></g><g transform="rotate(0 208.65 145.35)"><rect x="199.95600000000002" y="136.656" width="17.387999999999998" height="17.387999999999998" rx="3" stroke="#2C363B" stroke-width="3" fill="none"/></g><rect x="14" y="182" width="74" height="74" rx="10" fill="#f8f9fd" stroke="#c3cae0" stroke-width="1.5"/><polygon points="51.0,196.0 70.9,207.5 70.9,230.5 51.0,242.0 31.1,230.5 31.1,207.5" stroke="#2C363B" stroke-width="4" fill="none" stroke-linejoin="round"/><rect x="98" y="182" width="74" height="74" rx="10" fill="#f8f9fd" stroke="#c3cae0" stroke-width="1.5"/><polygon points="124.7,210.3 132.2,214.7 132.2,223.3 124.7,227.7 117.1,223.3 117.1,214.7" stroke="#2C363B" stroke-width="3" fill="none" stroke-linejoin="round"/><polygon points="145.3,210.3 152.9,214.7 152.9,223.3 145.3,227.7 137.8,223.3 137.8,214.7" stroke="#2C363B" stroke-width="3" fill="none" stroke-linejoin="round"/><rect x="185.0" y="185.0" width="68" height="68" rx="12" fill="#fff3bf" stroke="#f0b429" stroke-width="2"/><text x="219.0" y="219.0" font-size="37" fill="#b07908" text-anchor="middle" font-weight="bold" dominant-baseline="middle">?</text></svg>