<svg xmlns="http://www.w3.org/2000/svg" viewBox="0 0 270 270" width="270" height="270" font-family="Verdana,Arial,sans-serif"><rect x="14" y="14" width="74" height="74" rx="10" fill="#f8f9fd" stroke="#c3cae0" stroke-width="1.5"/><polygon points="51.0,28.0 57.1,42.6 72.9,43.9 60.8,54.2 64.5,69.6 51.0,61.4 37.5,69.6 41.2,54.2 29.1,43.9 44.9,42.6" stroke="#c92a2a" stroke-width="4" fill="none" stroke-linejoin="round"/><rect x="98" y="14" width="74" height="74" rx="10" fill="#f8f9fd" stroke="#c3cae0" stroke-width="1.5"/><polygon points="135.0,28.0 141.1,42.6 156.9,43.9 144.8,54.2 148.5,69.6 135.0,61.4 121.5,69.6 125.2,54.2 113.1,43.9 128.9,42.6" stroke="#1f2933" stroke-width="4" fill="none" stroke-linejoin="round"/><rect x="182" y="14" width="74" height="74" rx="10" fill="#f8f9fd" stroke="#c3cae0" stroke-width="1.5"/><polygon points="219.0,28.0 225.1,42.6 240.9,43.9 228.8,54.2 232.5,69.6 219.0,61.4 205.5,69.6 209.2,54.2 197.1,43.9 212.9,42.6" stroke="#e8590c" stroke-width="4" fill="none" stroke-linejoin="round"/><rect x="14" y="98" width="74" height="74" rx="10" fill="#f8f9fd" stroke="#c3cae0" stroke-width="1.5"/><polygon points="74.0,135.0 59.4,141.1 58.1,156.9 47.8,144.8 32.4,148.5 40.6,135.0 32.4,121.5 47.8,125.2 58.1,113.1 59.4,128.9" stroke="#c92a2a" stroke-width="4" fill="none" stroke-linejoin="round"/><rect x="98" y="98" width="74" height="74" rx="10" fill="#f8f9fd" stroke="#c3cae0" stroke-width="1.5"/><polygon points="158.0,135.0 143.4,141.1 142.1,156.9 131.8,144.8 116.4,148.5 124.7,135.0 116.4,121.5 131.8,125.2 142.1,113.1 143.4,128.9" stroke="#1f2933" stroke-width="4" fill="none" stroke-linejoin="round"/><rect x="182" y="98" width="74" height="74" rx="10" fill="#f8f9fd" stroke="#c3cae0" stroke-width="1.5"/><polygon points="242.0,135.0 227.4,141.1 226.1,156.9 215.8,144.8 200.4,148.5 208.7,135.0 200.4,121.5 215.8,125.2 226.1,113.1 227.4,128.9" stroke="#e8590c" stroke-width="4" fill="none" stroke-linejoin="round"/><rect x="14" y="182" width="74" height="74" rx="10" fill="#f8f9fd" stroke="#c3cae0" stroke-width="1.5"/><polygon points="51.0,242.0 44.9,227.4 29.1,226.1 41.2,215.8 37.5,200.4 51.0,208.7 64.5,200.4 60.8,215.8 72.9,226.1 57.1,227.4" stroke="#c92a2a" stroke-width="4" fill="none" stroke-linejoin="round"/><rect x="98" y="182" width="74" height="74" rx="10" fill="#f8f9fd" stroke="#c3cae0" stroke-width="1.5"/><polygon points="135.0,242.0 128.9,227.4 113.1,226.1 125.2,215.8 121.5,200.4 135.0,208.7 148.5,200.4 144.8,215.8 156.9,226.1 141.1,227.4" stroke="#1f2933" stroke-width="4" fill="none" stroke-linejoin="round"/><rect x="185.0" y="185.0" width="68" height="68" rx="12" fill="#fff3bf" stroke="#f0b429" stroke-width="2"/><text x="219.0" y="219.0" font-size="37" fill="#b07908" text-anchor="middle" font-weight="bold" dominant-baseline="middle">?</text></svg>