<svg xmlns="http://www.w3.org/2000/svg" viewBox="0 0 270 270" width="270" height="270" font-family="Verdana,Arial,sans-serif"><rect x="14" y="14" width="74" height="74" rx="10" fill="#f8f9fd" stroke="#c3cae0" stroke-width="1.5"/><circle cx="51.0" cy="51.0" r="23.0" stroke="#1f2933" stroke-width="4" fill="none"/><rect x="98" y="14" width="74" height="74" rx="10" fill="#f8f9fd" stroke="#c3cae0" stroke-width="1.5"/><circle cx="135.0" cy="51.0" r="23.0" stroke="#1c7ed6" stroke-width="4" fill="none"/><rect x="182" y="14" width="74" height="74" rx="10" fill="#f8f9fd" stroke="#c3cae0" stroke-width="1.5"/><circle cx="219.0" cy="51.0" r="23.0" stroke="#c92a2a" stroke-width="4" fill="none"/><rect x="14" y="98" width="74" height="74" rx="10" fill="#f8f9fd" stroke="#c3cae0" stroke-width="1.5"/><circle cx="40.65" cy="135.0" r="8.693999999999999" stroke="#1f2933" stroke-width="3" fill="none"/><circle cx="61.349999999999994" cy="135.0" r="8.693999999999999" stroke="#1f2933" stroke-width="3" fill="none"/><rect x="98" y="98" width="74" height="74" rx="10" fill="#f8f9fd" stroke="#c3cae0" stroke-width="1.5"/><circle cx="124.65" cy="135.0" r="8.693999999999999" stroke="#1c7ed6" stroke-width="3" fill="none"/><circle cx="145.35" cy="135.0" r="8.693999999999999" stroke="#1c7ed6" stroke-width="3" fill="none"/><rect x="182" y="98" width="74" height="74" rx="10" fill="#f8f9fd" stroke="#c3cae0" stroke-width="1.5"/><circle cx="208.65" cy="135.0" r="8.693999999999999" stroke="#c92a2a" stroke-width="3" fill="none"/><circle cx="229.35" cy="135.0" r="8.693999999999999" stroke="#c92a2a" stroke-width="3" fill="none"/><rect x="14" y="182" width="74" height="74" rx="10" fill="#f8f9fd" stroke="#c3cae0" stroke-width="1.5"/><circle cx="40.65" cy="208.65" r="8.693999999999999" stroke="#1f2933" stroke-width="3" fill="none"/><circle cx="61.349999999999994" cy="208.65" r="8.693999999999999" stroke="#1f2933" stroke-width="3" fill="none"/><circle cx="40.65" cy="229.35" r="8.693999999999999" stroke="#1f2933" stroke-width="3" fill="none"/><rect x="98" y="182" width="74" height="74" rx="10" fill="#f8f9fd" stroke="#c3cae0" stroke-width="1.5"/><circle cx="124.65" cy="208.65" r="8.693999999999999" stroke="#1c7ed6" stroke-width="3" fill="none"/><circle cx="145.35" cy="208.65" r="8.693999999999999" stroke="#1c7ed6" stroke-width="3" fill="none"/><circle cx="124.65" cy="229.35" r="8.693999999999999" stroke="#1c7ed6" stroke-width="3" fill="none"/><rect x="185.0" y="185.0" width="68" height="68" rx="12" fill="#fff3bf" stroke="#f0b429" stroke-width="2"/><text x="219.0" y="219.0" font-size="37" fill="#b07908" text-anchor="middle" font-weight="bold" dominant-baseline="middle">?</text></svg>