<svg xmlns="http://www.w3.org/2000/svg" viewBox="0 0 270 270" width="270" height="270" font-family="Verdana,Arial,sans-serif"><rect x="14" y="14" width="74" height="74" rx="10" fill="#f8f9fd" stroke="#c3cae0" stroke-width="1.5"/><polygon points="51.0,28.0 57.1,42.6 72.9,43.9 60.8,54.2 64.5,69.6 51.0,61.4 37.5,69.6 41.2,54.2 29.1,43.9 44.9,42.6" stroke="#c92a2a" stroke-width="4" fill="none" stroke-linejoin="round"/><rect x="98" y="14" width="74" height="74" rx="10" fill="#f8f9fd" stroke="#c3cae0" stroke-width="1.5"/><polygon points="158.0,51.0 143.4,57.1 142.1,72.9 131.8,60.8 116.4,64.5 124.7,51.0 116.4,37.5 131.8,41.2 142.1,29.1 143.4,44.9" stroke="#c92a2a" stroke-width="4" fill="none" stroke-linejoin="round"/><rect x="182" y="14" width="74" height="74" rx="10" fill="#f8f9fd" stroke="#c3cae0" stroke-width="1.5"/><polygon points="219.0,74.0 212.9,59.4 197.1,58.1 209.2,47.8 205.5,32.4 219.0,40.6 232.5,32.4 228.8,47.8 240.9,58.1 225.1,59.4" stroke="#c92a2a" stroke-width="4" fill="none" stroke-linejoin="round"/><rect x="14" y="98" width="74" height="74" rx="10" fill="#f8f9fd" stroke="#c3cae0" stroke-width="1.5"/><polygon points="40.6,126.3 42.9,131.8 48.9,132.3 44.4,136.2 45.8,142.0 40.6,138.9 35.5,142.0 36.9,136.2 32.4,132.3 38.4,131.8" stroke="#c92a2a" stroke-width="3" fill="none" stroke-linejoin="round"/><polygon points="61.3,126.3 63.6,131.8 69.6,132.3 65.1,136.2 66.5,142.0 61.3,138.9 56.2,142.0 57.6,136.2 53.1,132.3 59.1,131.8" stroke="#c92a2a" stroke-width="3" fill="none" stroke-linejoin="round"/><rect x="98" y="98" width="74" height="74" rx="10" fill="#f8f9fd" stroke="#c3cae0" stroke-width="1.5"/><polygon points="133.3,135.0 127.8,137.3 127.3,143.3 123.4,138.7 117.6,140.1 120.7,135.0 117.6,129.9 123.4,131.3 127.3,126.7 127.8,132.7" stroke="#c92a2a" stroke-width="3" fill="none" stroke-linejoin="round"/><polygon points="154.0,135.0 148.5,137.3 148.0,143.3 144.1,138.7 138.3,140.1 141.4,135.0 138.3,129.9 144.1,131.3 148.0,126.7 148.5,132.7" stroke="#c92a2a" stroke-width="3" fill="none" stroke-linejoin="round"/><rect x="182" y="98" width="74" height="74" rx="10" fill="#f8f9fd" stroke="#c3cae0" stroke-width="1.5"/><polygon points="208.7,143.7 206.4,138.2 200.4,137.7 204.9,133.8 203.5,128.0 208.7,131.1 213.8,128.0 212.4,133.8 216.9,137.7 210.9,138.2" stroke="#c92a2a" stroke-width="3" fill="none" stroke-linejoin="round"/><polygon points="229.3,143.7 227.1,138.2 221.1,137.7 225.6,133.8 224.2,128.0 229.3,131.1 234.5,128.0 233.1,133.8 237.6,137.7 231.6,138.2" stroke="#c92a2a" stroke-width="3" fill="none" stroke-linejoin="round"/><rect x="14" y="182" width="74" height="74" rx="10" fill="#f8f9fd" stroke="#c3cae0" stroke-width="1.5"/><polygon points="40.6,200.0 42.9,205.5 48.9,206.0 44.4,209.9 45.8,215.7 40.6,212.6 35.5,215.7 36.9,209.9 32.4,206.0 38.4,205.5" stroke="#c92a2a" stroke-width="3" fill="none" stroke-linejoin="round"/><polygon points="61.3,200.0 63.6,205.5 69.6,206.0 65.1,209.9 66.5,215.7 61.3,212.6 56.2,215.7 57.6,209.9 53.1,206.0 59.1,205.5" stroke="#c92a2a" stroke-width="3" fill="none" stroke-linejoin="round"/><polygon points="40.6,220.7 42.9,226.2 48.9,226.7 44.4,230.6 45.8,236.4 40.6,233.3 35.5,236.4 36.9,230.6 32.4,226.7 38.4,226.2" stroke="#c92a2a" stroke-width="3" fill="none" stroke-linejoin="round"/><rect x="98" y="182" width="74" height="74" rx="10" fill="#f8f9fd" stroke="#c3cae0" stroke-width="1.5"/><polygon points="133.3,208.7 127.8,210.9 127.3,216.9 123.4,212.4 117.6,213.8 120.7,208.7 117.6,203.5 123.4,204.9 127.3,200.4 127.8,206.4" stroke="#c92a2a" stroke-width="3" fill="none" stroke-linejoin="round"/><polygon points="154.0,208.7 148.5,210.9 148.0,216.9 144.1,212.4 138.3,213.8 141.4,208.7 138.3,203.5 144.1,204.9 148.0,200.4 148.5,206.4" stroke="#c92a2a" stroke-width="3" fill="none" stroke-linejoin="round"/><polygon points="133.3,229.3 127.8,231.6 127.3,237.6 123.4,233.1 117.6,234.5 120.7,229.3 117.6,224.2 123.4,225.6 127.3,221.1 127.8,227.1" stroke="#c92a2a" stroke-width="3" fill="none" stroke-linejoin="round"/><rect x="185.0" y="185.0" width="68" height="68" rx="12" fill="#fff3bf" stroke="#f0b429" stroke-width="2"/><text x="219.0" y="219.0" font-size="37" fill="#b07908" text-anchor="middle" font-weight="bold" dominant-baseline="middle">?</text></svg>