<svg xmlns="http://www.w3.org/2000/svg" viewBox="0 0 160 120" width="160" height="120" font-family="Verdana,Arial,sans-serif"><polygon points="61.1,57.0 56.9,46.9 46.0,46.0 54.3,38.9 51.8,28.3 61.1,34.0 70.4,28.3 67.9,38.9 76.2,46.0 65.3,46.9" stroke="#c92a2a" stroke-width="3" fill="none" stroke-linejoin="round"/><polygon points="98.9,57.0 94.7,46.9 83.8,46.0 92.1,38.9 89.6,28.3 98.9,34.0 108.2,28.3 105.7,38.9 114.0,46.0 103.1,46.9" stroke="#c92a2a" stroke-width="3" fill="none" stroke-linejoin="round"/><polygon points="61.1,94.8 56.9,84.7 46.0,83.8 54.3,76.7 51.8,66.1 61.1,71.8 70.4,66.1 67.9,76.7 76.2,83.8 65.3,84.7" stroke="#c92a2a" stroke-width="3" fill="none" stroke-linejoin="round"/></svg>