<svg xmlns="http://www.w3.org/2000/svg" viewBox="0 0 160 120" width="160" height="120" font-family="Verdana,Arial,sans-serif"><polygon points="77.0,41.1 66.9,45.3 66.0,56.2 58.9,47.9 48.3,50.4 54.0,41.1 48.3,31.8 58.9,34.3 66.0,26.0 66.9,36.9" stroke="#c92a2a" stroke-width="3" fill="none" stroke-linejoin="round"/><polygon points="114.8,41.1 104.7,45.3 103.8,56.2 96.7,47.9 86.1,50.4 91.8,41.1 86.1,31.8 96.7,34.3 103.8,26.0 104.7,36.9" stroke="#c92a2a" stroke-width="3" fill="none" stroke-linejoin="round"/><polygon points="77.0,78.9 66.9,83.1 66.0,94.0 58.9,85.7 48.3,88.2 54.0,78.9 48.3,69.6 58.9,72.1 66.0,63.8 66.9,74.7" stroke="#c92a2a" stroke-width="3" fill="none" stroke-linejoin="round"/></svg>