<svg xmlns="http://www.w3.org/2000/svg" viewBox="0 0 270 270" width="270" height="270" font-family="Verdana,Arial,sans-serif"><rect x="14" y="14" width="74" height="74" rx="10" fill="#f8f9fd" stroke="#c3cae0" stroke-width="1.5"/><g transform="rotate(0 51.0 51.0)"><line x1="28.0" y1="51.0" x2="74.0" y2="51.0" stroke="#2b8a3e" stroke-width="4" stroke-linecap="round"/><polyline points="64.0,42.0 74.0,51.0 64.0,60.0" stroke="#2b8a3e" stroke-width="4" fill="none" stroke-linecap="round" stroke-linejoin="round"/></g><rect x="98" y="14" width="74" height="74" rx="10" fill="#f8f9fd" stroke="#c3cae0" stroke-width="1.5"/><g transform="rotate(90 135.0 51.0)"><line x1="112.0" y1="51.0" x2="158.0" y2="51.0" stroke="#2b8a3e" stroke-width="4" stroke-linecap="round"/><polyline points="148.0,42.0 158.0,51.0 148.0,60.0" stroke="#2b8a3e" stroke-width="4" fill="none" stroke-linecap="round" stroke-linejoin="round"/></g><rect x="182" y="14" width="74" height="74" rx="10" fill="#f8f9fd" stroke="#c3cae0" stroke-width="1.5"/><g transform="rotate(180 219.0 51.0)"><line x1="196.0" y1="51.0" x2="242.0" y2="51.0" stroke="#2b8a3e" stroke-width="4" stroke-linecap="round"/><polyline points="232.0,42.0 242.0,51.0 232.0,60.0" stroke="#2b8a3e" stroke-width="4" fill="none" stroke-linecap="round" stroke-linejoin="round"/></g><rect x="14" y="98" width="74" height="74" rx="10" fill="#f8f9fd" stroke="#c3cae0" stroke-width="1.5"/><g transform="rotate(0 40.65 135.0)"><line x1="31.956" y1="135.0" x2="49.343999999999994" y2="135.0" stroke="#2b8a3e" stroke-width="3" stroke-linecap="round"/><polyline points="39.343999999999994,126.0 49.343999999999994,135.0 39.343999999999994,144.0" stroke="#2b8a3e" stroke-width="3" fill="none" stroke-linecap="round" stroke-linejoin="round"/></g><g transform="rotate(0 61.349999999999994 135.0)"><line x1="52.65599999999999" y1="135.0" x2="70.044" y2="135.0" stroke="#2b8a3e" stroke-width="3" stroke-linecap="round"/><polyline points="60.044,126.0 70.044,135.0 60.044,144.0" stroke="#2b8a3e" stroke-width="3" fill="none" stroke-linecap="round" stroke-linejoin="round"/></g><rect x="98" y="98" width="74" height="74" rx="10" fill="#f8f9fd" stroke="#c3cae0" stroke-width="1.5"/><g transform="rotate(90 124.65 135.0)"><line x1="115.956" y1="135.0" x2="133.344" y2="135.0" stroke="#2b8a3e" stroke-width="3" stroke-linecap="round"/><polyline points="123.344,126.0 133.344,135.0 123.344,144.0" stroke="#2b8a3e" stroke-width="3" fill="none" stroke-linecap="round" stroke-linejoin="round"/></g><g transform="rotate(90 145.35 135.0)"><line x1="136.656" y1="135.0" x2="154.04399999999998" y2="135.0" stroke="#2b8a3e" stroke-width="3" stroke-linecap="round"/><polyline points="144.04399999999998,126.0 154.04399999999998,135.0 144.04399999999998,144.0" stroke="#2b8a3e" stroke-width="3" fill="none" stroke-linecap="round" stroke-linejoin="round"/></g><rect x="182" y="98" width="74" height="74" rx="10" fill="#f8f9fd" stroke="#c3cae0" stroke-width="1.5"/><g transform="rotate(180 208.65 135.0)"><line x1="199.95600000000002" y1="135.0" x2="217.344" y2="135.0" stroke="#2b8a3e" stroke-width="3" stroke-linecap="round"/><polyline points="207.344,126.0 217.344,135.0 207.344,144.0" stroke="#2b8a3e" stroke-width="3" fill="none" stroke-linecap="round" stroke-linejoin="round"/></g><g transform="rotate(180 229.35 135.0)"><line x1="220.656" y1="135.0" x2="238.04399999999998" y2="135.0" stroke="#2b8a3e" stroke-width="3" stroke-linecap="round"/><polyline points="228.04399999999998,126.0 238.04399999999998,135.0 228.04399999999998,144.0" stroke="#2b8a3e" stroke-width="3" fill="none" stroke-linecap="round" stroke-linejoin="round"/></g><rect x="14" y="182" width="74" height="74" rx="10" fill="#f8f9fd" stroke="#c3cae0" stroke-width="1.5"/><g transform="rotate(0 40.65 208.65)"><line x1="31.956" y1="208.65" x2="49.343999999999994" y2="208.65" stroke="#2b8a3e" stroke-width="3" stroke-linecap="round"/><polyline points="39.343999999999994,199.65 49.343999999999994,208.65 39.343999999999994,217.65" stroke="#2b8a3e" stroke-width="3" fill="none" stroke-linecap="round" stroke-linejoin="round"/></g><g transform="rotate(0 61.349999999999994 208.65)"><line x1="52.65599999999999" y1="208.65" x2="70.044" y2="208.65" stroke="#2b8a3e" stroke-width="3" stroke-linecap="round"/><polyline points="60.044,199.65 70.044,208.65 60.044,217.65" stroke="#2b8a3e" stroke-width="3" fill="none" stroke-linecap="round" stroke-linejoin="round"/></g><g transform="rotate(0 40.65 229.35)"><line x1="31.956" y1="229.35" x2="49.343999999999994" y2="229.35" stroke="#2b8a3e" stroke-width="3" stroke-linecap="round"/><polyline points="39.343999999999994,220.35 49.343999999999994,229.35 39.343999999999994,238.35" stroke="#2b8a3e" stroke-width="3" fill="none" stroke-linecap="round" stroke-linejoin="round"/></g><rect x="98" y="182" width="74" height="74" rx="10" fill="#f8f9fd" stroke="#c3cae0" stroke-width="1.5"/><g transform="rotate(90 124.65 208.65)"><line x1="115.956" y1="208.65" x2="133.344" y2="208.65" stroke="#2b8a3e" stroke-width="3" stroke-linecap="round"/><polyline points="123.344,199.65 133.344,208.65 123.344,217.65" stroke="#2b8a3e" stroke-width="3" fill="none" stroke-linecap="round" stroke-linejoin="round"/></g><g transform="rotate(90 145.35 208.65)"><line x1="136.656" y1="208.65" x2="154.04399999999998" y2="208.65" stroke="#2b8a3e" stroke-width="3" stroke-linecap="round"/><polyline points="144.04399999999998,199.65 154.04399999999998,208.65 144.04399999999998,217.65" stroke="#2b8a3e" stroke-width="3" fill="none" stroke-linecap="round" stroke-linejoin="round"/></g><g transform="rotate(90 124.65 229.35)"><line x1="115.956" y1="229.35" x2="133.344" y2="229.35" stroke="#2b8a3e" stroke-width="3" stroke-linecap="round"/><polyline points="123.344,220.35 133.344,229.35 123.344,238.35" stroke="#2b8a3e" stroke-width="3" fill="none" stroke-linecap="round" stroke-linejoin="round"/></g><rect x="185.0" y="185.0" width="68" height="68" rx="12" fill="#fff3bf" stroke="#f0b429" stroke-width="2"/><text x="219.0" y="219.0" font-size="37" fill="#b07908" text-anchor="middle" font-weight="bold" dominant-baseline="middle">?</text></svg>