<svg xmlns="http://www.w3.org/2000/svg" viewBox="0 0 360 205" width="360" height="205" font-family="Verdana,Arial,sans-serif"><polygon points="60.0,23.0 87.7,71.0 32.3,71.0" stroke="#1c7ed6" stroke-width="4" fill="none" stroke-linejoin="round"/><g transform="rotate(0 180 55)"><line x1="154" y1="55" x2="206" y2="55" stroke="#828ba3" stroke-width="4" stroke-linecap="round"/><polyline points="196,46 206,55 196,64" stroke="#828ba3" stroke-width="4" fill="none" stroke-linecap="round" stroke-linejoin="round"/></g><polygon points="332.0,55.0 284.0,82.7 284.0,27.3" stroke="#1c7ed6" stroke-width="4" fill="none" stroke-linejoin="round"/><polygon points="60.0,118.0 68.5,138.4 90.4,140.1 73.7,154.4 78.8,175.9 60.0,164.4 41.2,175.9 46.3,154.4 29.6,140.1 51.5,138.4" stroke="#e8590c" stroke-width="4" fill="none" stroke-linejoin="round"/><g transform="rotate(0 180 150)"><line x1="154" y1="150" x2="206" y2="150" stroke="#828ba3" stroke-width="4" stroke-linecap="round"/><polyline points="196,141 206,150 196,159" stroke="#828ba3" stroke-width="4" fill="none" stroke-linecap="round" stroke-linejoin="round"/></g><rect x="268" y="118" width="64" height="64" rx="12" fill="#fff3bf" stroke="#f0b429" stroke-width="2"/><text x="300" y="150" font-size="35" fill="#b07908" text-anchor="middle" font-weight="bold" dominant-baseline="middle">?</text></svg>