<svg xmlns="http://www.w3.org/2000/svg" viewBox="0 0 270 270" width="270" height="270" font-family="Verdana,Arial,sans-serif"><rect x="14" y="14" width="74" height="74" rx="10" fill="#f8f9fd" stroke="#c3cae0" stroke-width="1.5"/><g transform="rotate(0 51.0 51.0)"><line x1="28.0" y1="51.0" x2="74.0" y2="51.0" stroke="#5f3dc4" stroke-width="4" stroke-linecap="round"/><polyline points="64.0,42.0 74.0,51.0 64.0,60.0" stroke="#5f3dc4" stroke-width="4" fill="none" stroke-linecap="round" stroke-linejoin="round"/></g><rect x="98" y="14" width="74" height="74" rx="10" fill="#f8f9fd" stroke="#c3cae0" stroke-width="1.5"/><g transform="rotate(0 124.65 51.0)"><line x1="115.956" y1="51.0" x2="133.344" y2="51.0" stroke="#5f3dc4" stroke-width="3" stroke-linecap="round"/><polyline points="123.344,42.0 133.344,51.0 123.344,60.0" stroke="#5f3dc4" stroke-width="3" fill="none" stroke-linecap="round" stroke-linejoin="round"/></g><g transform="rotate(0 145.35 51.0)"><line x1="136.656" y1="51.0" x2="154.04399999999998" y2="51.0" stroke="#5f3dc4" stroke-width="3" stroke-linecap="round"/><polyline points="144.04399999999998,42.0 154.04399999999998,51.0 144.04399999999998,60.0" stroke="#5f3dc4" stroke-width="3" fill="none" stroke-linecap="round" stroke-linejoin="round"/></g><rect x="182" y="14" width="74" height="74" rx="10" fill="#f8f9fd" stroke="#c3cae0" stroke-width="1.5"/><g transform="rotate(0 208.65 40.65)"><line x1="199.95600000000002" y1="40.65" x2="217.344" y2="40.65" stroke="#5f3dc4" stroke-width="3" stroke-linecap="round"/><polyline points="207.344,31.65 217.344,40.65 207.344,49.65" stroke="#5f3dc4" stroke-width="3" fill="none" stroke-linecap="round" stroke-linejoin="round"/></g><g transform="rotate(0 229.35 40.65)"><line x1="220.656" y1="40.65" x2="238.04399999999998" y2="40.65" stroke="#5f3dc4" stroke-width="3" stroke-linecap="round"/><polyline points="228.04399999999998,31.65 238.04399999999998,40.65 228.04399999999998,49.65" stroke="#5f3dc4" stroke-width="3" fill="none" stroke-linecap="round" stroke-linejoin="round"/></g><g transform="rotate(0 208.65 61.349999999999994)"><line x1="199.95600000000002" y1="61.349999999999994" x2="217.344" y2="61.349999999999994" stroke="#5f3dc4" stroke-width="3" stroke-linecap="round"/><polyline points="207.344,52.349999999999994 217.344,61.349999999999994 207.344,70.35" stroke="#5f3dc4" stroke-width="3" fill="none" stroke-linecap="round" stroke-linejoin="round"/></g><rect x="14" y="98" width="74" height="74" rx="10" fill="#f8f9fd" stroke="#c3cae0" stroke-width="1.5"/><g transform="rotate(90 51.0 135.0)"><line x1="28.0" y1="135.0" x2="74.0" y2="135.0" stroke="#5f3dc4" stroke-width="4" stroke-linecap="round"/><polyline points="64.0,126.0 74.0,135.0 64.0,144.0" stroke="#5f3dc4" stroke-width="4" fill="none" stroke-linecap="round" stroke-linejoin="round"/></g><rect x="98" y="98" width="74" height="74" rx="10" fill="#f8f9fd" stroke="#c3cae0" stroke-width="1.5"/><g transform="rotate(90 124.65 135.0)"><line x1="115.956" y1="135.0" x2="133.344" y2="135.0" stroke="#5f3dc4" stroke-width="3" stroke-linecap="round"/><polyline points="123.344,126.0 133.344,135.0 123.344,144.0" stroke="#5f3dc4" stroke-width="3" fill="none" stroke-linecap="round" stroke-linejoin="round"/></g><g transform="rotate(90 145.35 135.0)"><line x1="136.656" y1="135.0" x2="154.04399999999998" y2="135.0" stroke="#5f3dc4" stroke-width="3" stroke-linecap="round"/><polyline points="144.04399999999998,126.0 154.04399999999998,135.0 144.04399999999998,144.0" stroke="#5f3dc4" stroke-width="3" fill="none" stroke-linecap="round" stroke-linejoin="round"/></g><rect x="182" y="98" width="74" height="74" rx="10" fill="#f8f9fd" stroke="#c3cae0" stroke-width="1.5"/><g transform="rotate(90 208.65 124.65)"><line x1="199.95600000000002" y1="124.65" x2="217.344" y2="124.65" stroke="#5f3dc4" stroke-width="3" stroke-linecap="round"/><polyline points="207.344,115.65 217.344,124.65 207.344,133.65" stroke="#5f3dc4" stroke-width="3" fill="none" stroke-linecap="round" stroke-linejoin="round"/></g><g transform="rotate(90 229.35 124.65)"><line x1="220.656" y1="124.65" x2="238.04399999999998" y2="124.65" stroke="#5f3dc4" stroke-width="3" stroke-linecap="round"/><polyline points="228.04399999999998,115.65 238.04399999999998,124.65 228.04399999999998,133.65" stroke="#5f3dc4" stroke-width="3" fill="none" stroke-linecap="round" stroke-linejoin="round"/></g><g transform="rotate(90 208.65 145.35)"><line x1="199.95600000000002" y1="145.35" x2="217.344" y2="145.35" stroke="#5f3dc4" stroke-width="3" stroke-linecap="round"/><polyline points="207.344,136.35 217.344,145.35 207.344,154.35" stroke="#5f3dc4" stroke-width="3" fill="none" stroke-linecap="round" stroke-linejoin="round"/></g><rect x="14" y="182" width="74" height="74" rx="10" fill="#f8f9fd" stroke="#c3cae0" stroke-width="1.5"/><g transform="rotate(180 51.0 219.0)"><line x1="28.0" y1="219.0" x2="74.0" y2="219.0" stroke="#5f3dc4" stroke-width="4" stroke-linecap="round"/><polyline points="64.0,210.0 74.0,219.0 64.0,228.0" stroke="#5f3dc4" stroke-width="4" fill="none" stroke-linecap="round" stroke-linejoin="round"/></g><rect x="98" y="182" width="74" height="74" rx="10" fill="#f8f9fd" stroke="#c3cae0" stroke-width="1.5"/><g transform="rotate(180 124.65 219.0)"><line x1="115.956" y1="219.0" x2="133.344" y2="219.0" stroke="#5f3dc4" stroke-width="3" stroke-linecap="round"/><polyline points="123.344,210.0 133.344,219.0 123.344,228.0" stroke="#5f3dc4" stroke-width="3" fill="none" stroke-linecap="round" stroke-linejoin="round"/></g><g transform="rotate(180 145.35 219.0)"><line x1="136.656" y1="219.0" x2="154.04399999999998" y2="219.0" stroke="#5f3dc4" stroke-width="3" stroke-linecap="round"/><polyline points="144.04399999999998,210.0 154.04399999999998,219.0 144.04399999999998,228.0" stroke="#5f3dc4" stroke-width="3" fill="none" stroke-linecap="round" stroke-linejoin="round"/></g><rect x="185.0" y="185.0" width="68" height="68" rx="12" fill="#fff3bf" stroke="#f0b429" stroke-width="2"/><text x="219.0" y="219.0" font-size="37" fill="#b07908" text-anchor="middle" font-weight="bold" dominant-baseline="middle">?</text></svg>