<svg xmlns="http://www.w3.org/2000/svg" viewBox="0 0 360 205" width="360" height="205" font-family="Verdana,Arial,sans-serif"><polygon points="60.0,23.0 87.7,71.0 32.3,71.0" stroke="#c92a2a" stroke-width="4" fill="none" stroke-linejoin="round"/><g transform="rotate(0 180 55)"><line x1="154" y1="55" x2="206" y2="55" stroke="#828ba3" stroke-width="4" stroke-linecap="round"/><polyline points="196,46 206,55 196,64" stroke="#828ba3" stroke-width="4" fill="none" stroke-linecap="round" stroke-linejoin="round"/></g><polygon points="300.0,87.0 272.3,39.0 327.7,39.0" stroke="#c92a2a" stroke-width="4" fill="none" stroke-linejoin="round"/><g transform="rotate(0 60 150)"><line x1="28.0" y1="150" x2="92.0" y2="150" stroke="#e8590c" stroke-width="4" stroke-linecap="round"/><polyline points="82.0,141 92.0,150 82.0,159" stroke="#e8590c" stroke-width="4" fill="none" stroke-linecap="round" stroke-linejoin="round"/></g><g transform="rotate(0 180 150)"><line x1="154" y1="150" x2="206" y2="150" stroke="#828ba3" stroke-width="4" stroke-linecap="round"/><polyline points="196,141 206,150 196,159" stroke="#828ba3" stroke-width="4" fill="none" stroke-linecap="round" stroke-linejoin="round"/></g><rect x="268" y="118" width="64" height="64" rx="12" fill="#fff3bf" stroke="#f0b429" stroke-width="2"/><text x="300" y="150" font-size="35" fill="#b07908" text-anchor="middle" font-weight="bold" dominant-baseline="middle">?</text></svg>