<svg xmlns="http://www.w3.org/2000/svg" viewBox="0 0 270 270" width="270" height="270" font-family="Verdana,Arial,sans-serif"><rect x="14" y="14" width="74" height="74" rx="10" fill="#f8f9fd" stroke="#c3cae0" stroke-width="1.5"/><polygon points="51.0,38.4 54.3,46.4 63.0,47.1 56.4,52.8 58.4,61.2 51.0,56.7 43.6,61.2 45.6,52.8 39.0,47.1 47.7,46.4" stroke="#2C363B" stroke-width="4" fill="none" stroke-linejoin="round"/><rect x="98" y="14" width="74" height="74" rx="10" fill="#f8f9fd" stroke="#c3cae0" stroke-width="1.5"/><polygon points="135.0,38.4 147.0,47.1 142.4,61.2 127.6,61.2 123.0,47.1" stroke="#2C363B" stroke-width="4" fill="none" stroke-linejoin="round"/><rect x="182" y="14" width="74" height="74" rx="10" fill="#f8f9fd" stroke="#c3cae0" stroke-width="1.5"/><polygon points="227.9,42.1 227.9,59.9 210.1,59.9 210.1,42.1" stroke="#2C363B" stroke-width="4" fill="none" stroke-linejoin="round"/><rect x="14" y="98" width="74" height="74" rx="10" fill="#f8f9fd" stroke="#c3cae0" stroke-width="1.5"/><polygon points="51.0,116.6 55.9,128.3 68.5,129.3 58.9,137.6 61.8,149.9 51.0,143.3 40.2,149.9 43.1,137.6 33.5,129.3 46.1,128.3" stroke="#2C363B" stroke-width="4" fill="none" stroke-linejoin="round"/><rect x="98" y="98" width="74" height="74" rx="10" fill="#f8f9fd" stroke="#c3cae0" stroke-width="1.5"/><polygon points="135.0,116.6 152.5,129.3 145.8,149.9 124.2,149.9 117.5,129.3" stroke="#2C363B" stroke-width="4" fill="none" stroke-linejoin="round"/><rect x="182" y="98" width="74" height="74" rx="10" fill="#f8f9fd" stroke="#c3cae0" stroke-width="1.5"/><polygon points="232.0,122.0 232.0,148.0 206.0,148.0 206.0,122.0" stroke="#2C363B" stroke-width="4" fill="none" stroke-linejoin="round"/><rect x="14" y="182" width="74" height="74" rx="10" fill="#f8f9fd" stroke="#c3cae0" stroke-width="1.5"/><polygon points="51.0,193.7 57.7,209.8 75.1,211.2 61.8,222.5 65.9,239.5 51.0,230.4 36.1,239.5 40.2,222.5 26.9,211.2 44.3,209.8" stroke="#2C363B" stroke-width="4" fill="none" stroke-linejoin="round"/><rect x="98" y="182" width="74" height="74" rx="10" fill="#f8f9fd" stroke="#c3cae0" stroke-width="1.5"/><polygon points="135.0,193.7 159.1,211.2 149.9,239.5 120.1,239.5 110.9,211.2" stroke="#2C363B" stroke-width="4" fill="none" stroke-linejoin="round"/><rect x="185.0" y="185.0" width="68" height="68" rx="12" fill="#fff3bf" stroke="#f0b429" stroke-width="2"/><text x="219.0" y="219.0" font-size="37" fill="#b07908" text-anchor="middle" font-weight="bold" dominant-baseline="middle">?</text></svg>