<svg xmlns="http://www.w3.org/2000/svg" viewBox="0 0 270 270" width="270" height="270" font-family="Verdana,Arial,sans-serif"><rect x="14" y="14" width="74" height="74" rx="10" fill="#f8f9fd" stroke="#c3cae0" stroke-width="1.5"/><polygon points="51.0,28.0 72.9,43.9 64.5,69.6 37.5,69.6 29.1,43.9" stroke="#1c7ed6" stroke-width="4" fill="none" stroke-linejoin="round"/><rect x="98" y="14" width="74" height="74" rx="10" fill="#f8f9fd" stroke="#c3cae0" stroke-width="1.5"/><polygon points="135.0,28.0 156.9,43.9 148.5,69.6 121.5,69.6 113.1,43.9" stroke="#e8590c" stroke-width="4" fill="none" stroke-linejoin="round"/><rect x="182" y="14" width="74" height="74" rx="10" fill="#f8f9fd" stroke="#c3cae0" stroke-width="1.5"/><polygon points="219.0,28.0 240.9,43.9 232.5,69.6 205.5,69.6 197.1,43.9" stroke="#2b8a3e" stroke-width="4" fill="none" stroke-linejoin="round"/><rect x="14" y="98" width="74" height="74" rx="10" fill="#f8f9fd" stroke="#c3cae0" stroke-width="1.5"/><polygon points="67.3,118.7 67.3,151.3 34.7,151.3 34.7,118.7" stroke="#1c7ed6" stroke-width="4" fill="none" stroke-linejoin="round"/><rect x="98" y="98" width="74" height="74" rx="10" fill="#f8f9fd" stroke="#c3cae0" stroke-width="1.5"/><polygon points="151.3,118.7 151.3,151.3 118.7,151.3 118.7,118.7" stroke="#e8590c" stroke-width="4" fill="none" stroke-linejoin="round"/><rect x="182" y="98" width="74" height="74" rx="10" fill="#f8f9fd" stroke="#c3cae0" stroke-width="1.5"/><polygon points="235.3,118.7 235.3,151.3 202.7,151.3 202.7,118.7" stroke="#2b8a3e" stroke-width="4" fill="none" stroke-linejoin="round"/><rect x="14" y="182" width="74" height="74" rx="10" fill="#f8f9fd" stroke="#c3cae0" stroke-width="1.5"/><g transform="rotate(0 51.0 219.0)"><rect x="28.0" y="196.0" width="46.0" height="46.0" rx="3" stroke="#1c7ed6" stroke-width="4" fill="none"/></g><rect x="98" y="182" width="74" height="74" rx="10" fill="#f8f9fd" stroke="#c3cae0" stroke-width="1.5"/><g transform="rotate(0 135.0 219.0)"><rect x="112.0" y="196.0" width="46.0" height="46.0" rx="3" stroke="#e8590c" stroke-width="4" fill="none"/></g><rect x="185.0" y="185.0" width="68" height="68" rx="12" fill="#fff3bf" stroke="#f0b429" stroke-width="2"/><text x="219.0" y="219.0" font-size="37" fill="#b07908" text-anchor="middle" font-weight="bold" dominant-baseline="middle">?</text></svg>