<svg xmlns="http://www.w3.org/2000/svg" viewBox="0 0 270 270" width="270" height="270" font-family="Verdana,Arial,sans-serif"><rect x="14" y="14" width="74" height="74" rx="10" fill="#f8f9fd" stroke="#c3cae0" stroke-width="1.5"/><circle cx="51.0" cy="51.0" r="23.0" stroke="#c92a2a" stroke-width="4" fill="none"/><rect x="98" y="14" width="74" height="74" rx="10" fill="#f8f9fd" stroke="#c3cae0" stroke-width="1.5"/><polygon points="135.0,28.0 154.9,62.5 115.1,62.5" stroke="#c92a2a" stroke-width="4" fill="none" stroke-linejoin="round"/><rect x="182" y="14" width="74" height="74" rx="10" fill="#f8f9fd" stroke="#c3cae0" stroke-width="1.5"/><polygon points="219.0,28.0 238.9,39.5 238.9,62.5 219.0,74.0 199.1,62.5 199.1,39.5" stroke="#c92a2a" stroke-width="4" fill="none" stroke-linejoin="round"/><rect x="14" y="98" width="74" height="74" rx="10" fill="#f8f9fd" stroke="#c3cae0" stroke-width="1.5"/><circle cx="51.0" cy="135.0" r="23.0" stroke="#2b8a3e" stroke-width="4" fill="none"/><rect x="98" y="98" width="74" height="74" rx="10" fill="#f8f9fd" stroke="#c3cae0" stroke-width="1.5"/><polygon points="135.0,112.0 154.9,146.5 115.1,146.5" stroke="#2b8a3e" stroke-width="4" fill="none" stroke-linejoin="round"/><rect x="182" y="98" width="74" height="74" rx="10" fill="#f8f9fd" stroke="#c3cae0" stroke-width="1.5"/><polygon points="219.0,112.0 238.9,123.5 238.9,146.5 219.0,158.0 199.1,146.5 199.1,123.5" stroke="#2b8a3e" stroke-width="4" fill="none" stroke-linejoin="round"/><rect x="14" y="182" width="74" height="74" rx="10" fill="#f8f9fd" stroke="#c3cae0" stroke-width="1.5"/><circle cx="51.0" cy="219.0" r="23.0" stroke="#1c7ed6" stroke-width="4" fill="none"/><rect x="98" y="182" width="74" height="74" rx="10" fill="#f8f9fd" stroke="#c3cae0" stroke-width="1.5"/><polygon points="135.0,196.0 154.9,230.5 115.1,230.5" stroke="#1c7ed6" stroke-width="4" fill="none" stroke-linejoin="round"/><rect x="185.0" y="185.0" width="68" height="68" rx="12" fill="#fff3bf" stroke="#f0b429" stroke-width="2"/><text x="219.0" y="219.0" font-size="37" fill="#b07908" text-anchor="middle" font-weight="bold" dominant-baseline="middle">?</text></svg>