<svg xmlns="http://www.w3.org/2000/svg" viewBox="0 0 270 270" width="270" height="270" font-family="Verdana,Arial,sans-serif"><rect x="14" y="14" width="74" height="74" rx="10" fill="#f8f9fd" stroke="#c3cae0" stroke-width="1.5"/><polygon points="51.0,28.0 57.1,42.6 72.9,43.9 60.8,54.2 64.5,69.6 51.0,61.4 37.5,69.6 41.2,54.2 29.1,43.9 44.9,42.6" stroke="#2C363B" stroke-width="4" fill="none" stroke-linejoin="round"/><rect x="98" y="14" width="74" height="74" rx="10" fill="#f8f9fd" stroke="#c3cae0" stroke-width="1.5"/><polygon points="135.0,28.0 156.9,43.9 148.5,69.6 121.5,69.6 113.1,43.9" stroke="#2C363B" stroke-width="4" fill="none" stroke-linejoin="round"/><rect x="182" y="14" width="74" height="74" rx="10" fill="#f8f9fd" stroke="#c3cae0" stroke-width="1.5"/><polygon points="219.0,28.0 238.9,39.5 238.9,62.5 219.0,74.0 199.1,62.5 199.1,39.5" stroke="#2C363B" stroke-width="4" fill="none" stroke-linejoin="round"/><rect x="14" y="98" width="74" height="74" rx="10" fill="#f8f9fd" stroke="#c3cae0" stroke-width="1.5"/><polygon points="40.6,126.3 42.9,131.8 48.9,132.3 44.4,136.2 45.8,142.0 40.6,138.9 35.5,142.0 36.9,136.2 32.4,132.3 38.4,131.8" stroke="#2C363B" stroke-width="3" fill="none" stroke-linejoin="round"/><polygon points="61.3,126.3 63.6,131.8 69.6,132.3 65.1,136.2 66.5,142.0 61.3,138.9 56.2,142.0 57.6,136.2 53.1,132.3 59.1,131.8" stroke="#2C363B" stroke-width="3" fill="none" stroke-linejoin="round"/><rect x="98" y="98" width="74" height="74" rx="10" fill="#f8f9fd" stroke="#c3cae0" stroke-width="1.5"/><polygon points="124.7,126.3 132.9,132.3 129.8,142.0 119.5,142.0 116.4,132.3" stroke="#2C363B" stroke-width="3" fill="none" stroke-linejoin="round"/><polygon points="145.3,126.3 153.6,132.3 150.5,142.0 140.2,142.0 137.1,132.3" stroke="#2C363B" stroke-width="3" fill="none" stroke-linejoin="round"/><rect x="182" y="98" width="74" height="74" rx="10" fill="#f8f9fd" stroke="#c3cae0" stroke-width="1.5"/><polygon points="208.7,126.3 216.2,130.7 216.2,139.3 208.7,143.7 201.1,139.3 201.1,130.7" stroke="#2C363B" stroke-width="3" fill="none" stroke-linejoin="round"/><polygon points="229.3,126.3 236.9,130.7 236.9,139.3 229.3,143.7 221.8,139.3 221.8,130.7" stroke="#2C363B" stroke-width="3" fill="none" stroke-linejoin="round"/><rect x="14" y="182" width="74" height="74" rx="10" fill="#f8f9fd" stroke="#c3cae0" stroke-width="1.5"/><polygon points="40.6,200.0 42.9,205.5 48.9,206.0 44.4,209.9 45.8,215.7 40.6,212.6 35.5,215.7 36.9,209.9 32.4,206.0 38.4,205.5" stroke="#2C363B" stroke-width="3" fill="none" stroke-linejoin="round"/><polygon points="61.3,200.0 63.6,205.5 69.6,206.0 65.1,209.9 66.5,215.7 61.3,212.6 56.2,215.7 57.6,209.9 53.1,206.0 59.1,205.5" stroke="#2C363B" stroke-width="3" fill="none" stroke-linejoin="round"/><polygon points="40.6,220.7 42.9,226.2 48.9,226.7 44.4,230.6 45.8,236.4 40.6,233.3 35.5,236.4 36.9,230.6 32.4,226.7 38.4,226.2" stroke="#2C363B" stroke-width="3" fill="none" stroke-linejoin="round"/><rect x="98" y="182" width="74" height="74" rx="10" fill="#f8f9fd" stroke="#c3cae0" stroke-width="1.5"/><polygon points="124.7,200.0 132.9,206.0 129.8,215.7 119.5,215.7 116.4,206.0" stroke="#2C363B" stroke-width="3" fill="none" stroke-linejoin="round"/><polygon points="145.3,200.0 153.6,206.0 150.5,215.7 140.2,215.7 137.1,206.0" stroke="#2C363B" stroke-width="3" fill="none" stroke-linejoin="round"/><polygon points="124.7,220.7 132.9,226.7 129.8,236.4 119.5,236.4 116.4,226.7" stroke="#2C363B" stroke-width="3" fill="none" stroke-linejoin="round"/><rect x="185.0" y="185.0" width="68" height="68" rx="12" fill="#fff3bf" stroke="#f0b429" stroke-width="2"/><text x="219.0" y="219.0" font-size="37" fill="#b07908" text-anchor="middle" font-weight="bold" dominant-baseline="middle">?</text></svg>