<svg xmlns="http://www.w3.org/2000/svg" viewBox="0 0 270 270" width="270" height="270" font-family="Verdana,Arial,sans-serif"><rect x="14" y="14" width="74" height="74" rx="10" fill="#f8f9fd" stroke="#c3cae0" stroke-width="1.5"/><polygon points="51.0,28.0 72.9,43.9 64.5,69.6 37.5,69.6 29.1,43.9" stroke="#2b8a3e" stroke-width="4" fill="none" stroke-linejoin="round"/><rect x="98" y="14" width="74" height="74" rx="10" fill="#f8f9fd" stroke="#c3cae0" stroke-width="1.5"/><polygon points="124.7,42.3 132.9,48.3 129.8,58.0 119.5,58.0 116.4,48.3" stroke="#2b8a3e" stroke-width="3" fill="none" stroke-linejoin="round"/><polygon points="145.3,42.3 153.6,48.3 150.5,58.0 140.2,58.0 137.1,48.3" stroke="#2b8a3e" stroke-width="3" fill="none" stroke-linejoin="round"/><rect x="182" y="14" width="74" height="74" rx="10" fill="#f8f9fd" stroke="#c3cae0" stroke-width="1.5"/><polygon points="208.7,32.0 216.9,38.0 213.8,47.7 203.5,47.7 200.4,38.0" stroke="#2b8a3e" stroke-width="3" fill="none" stroke-linejoin="round"/><polygon points="229.3,32.0 237.6,38.0 234.5,47.7 224.2,47.7 221.1,38.0" stroke="#2b8a3e" stroke-width="3" fill="none" stroke-linejoin="round"/><polygon points="208.7,52.7 216.9,58.7 213.8,68.4 203.5,68.4 200.4,58.7" stroke="#2b8a3e" stroke-width="3" fill="none" stroke-linejoin="round"/><rect x="14" y="98" width="74" height="74" rx="10" fill="#f8f9fd" stroke="#c3cae0" stroke-width="1.5"/><polygon points="51.0,112.0 72.9,127.9 64.5,153.6 37.5,153.6 29.1,127.9" stroke="#1c7ed6" stroke-width="4" fill="none" stroke-linejoin="round"/><rect x="98" y="98" width="74" height="74" rx="10" fill="#f8f9fd" stroke="#c3cae0" stroke-width="1.5"/><polygon points="124.7,126.3 132.9,132.3 129.8,142.0 119.5,142.0 116.4,132.3" stroke="#1c7ed6" stroke-width="3" fill="none" stroke-linejoin="round"/><polygon points="145.3,126.3 153.6,132.3 150.5,142.0 140.2,142.0 137.1,132.3" stroke="#1c7ed6" stroke-width="3" fill="none" stroke-linejoin="round"/><rect x="182" y="98" width="74" height="74" rx="10" fill="#f8f9fd" stroke="#c3cae0" stroke-width="1.5"/><polygon points="208.7,116.0 216.9,122.0 213.8,131.7 203.5,131.7 200.4,122.0" stroke="#1c7ed6" stroke-width="3" fill="none" stroke-linejoin="round"/><polygon points="229.3,116.0 237.6,122.0 234.5,131.7 224.2,131.7 221.1,122.0" stroke="#1c7ed6" stroke-width="3" fill="none" stroke-linejoin="round"/><polygon points="208.7,136.7 216.9,142.7 213.8,152.4 203.5,152.4 200.4,142.7" stroke="#1c7ed6" stroke-width="3" fill="none" stroke-linejoin="round"/><rect x="14" y="182" width="74" height="74" rx="10" fill="#f8f9fd" stroke="#c3cae0" stroke-width="1.5"/><polygon points="51.0,196.0 72.9,211.9 64.5,237.6 37.5,237.6 29.1,211.9" stroke="#1f2933" stroke-width="4" fill="none" stroke-linejoin="round"/><rect x="98" y="182" width="74" height="74" rx="10" fill="#f8f9fd" stroke="#c3cae0" stroke-width="1.5"/><polygon points="124.7,210.3 132.9,216.3 129.8,226.0 119.5,226.0 116.4,216.3" stroke="#1f2933" stroke-width="3" fill="none" stroke-linejoin="round"/><polygon points="145.3,210.3 153.6,216.3 150.5,226.0 140.2,226.0 137.1,216.3" stroke="#1f2933" stroke-width="3" fill="none" stroke-linejoin="round"/><rect x="185.0" y="185.0" width="68" height="68" rx="12" fill="#fff3bf" stroke="#f0b429" stroke-width="2"/><text x="219.0" y="219.0" font-size="37" fill="#b07908" text-anchor="middle" font-weight="bold" dominant-baseline="middle">?</text></svg>