<svg xmlns="http://www.w3.org/2000/svg" viewBox="0 0 270 270" width="270" height="270" font-family="Verdana,Arial,sans-serif"><rect x="14" y="14" width="74" height="74" rx="10" fill="#f8f9fd" stroke="#c3cae0" stroke-width="1.5"/><g transform="rotate(0 51.0 51.0)"><line x1="28.0" y1="51.0" x2="74.0" y2="51.0" stroke="#e8590c" stroke-width="4" stroke-linecap="round"/><polyline points="64.0,42.0 74.0,51.0 64.0,60.0" stroke="#e8590c" stroke-width="4" fill="none" stroke-linecap="round" stroke-linejoin="round"/></g><rect x="98" y="14" width="74" height="74" rx="10" fill="#f8f9fd" stroke="#c3cae0" stroke-width="1.5"/><g transform="rotate(0 135.0 51.0)"><line x1="112.0" y1="51.0" x2="158.0" y2="51.0" stroke="#1c7ed6" stroke-width="4" stroke-linecap="round"/><polyline points="148.0,42.0 158.0,51.0 148.0,60.0" stroke="#1c7ed6" stroke-width="4" fill="none" stroke-linecap="round" stroke-linejoin="round"/></g><rect x="182" y="14" width="74" height="74" rx="10" fill="#f8f9fd" stroke="#c3cae0" stroke-width="1.5"/><g transform="rotate(0 219.0 51.0)"><line x1="196.0" y1="51.0" x2="242.0" y2="51.0" stroke="#1f2933" stroke-width="4" stroke-linecap="round"/><polyline points="232.0,42.0 242.0,51.0 232.0,60.0" stroke="#1f2933" stroke-width="4" fill="none" stroke-linecap="round" stroke-linejoin="round"/></g><rect x="14" y="98" width="74" height="74" rx="10" fill="#f8f9fd" stroke="#c3cae0" stroke-width="1.5"/><g transform="rotate(90 51.0 135.0)"><line x1="28.0" y1="135.0" x2="74.0" y2="135.0" stroke="#e8590c" stroke-width="4" stroke-linecap="round"/><polyline points="64.0,126.0 74.0,135.0 64.0,144.0" stroke="#e8590c" stroke-width="4" fill="none" stroke-linecap="round" stroke-linejoin="round"/></g><rect x="98" y="98" width="74" height="74" rx="10" fill="#f8f9fd" stroke="#c3cae0" stroke-width="1.5"/><g transform="rotate(90 135.0 135.0)"><line x1="112.0" y1="135.0" x2="158.0" y2="135.0" stroke="#1c7ed6" stroke-width="4" stroke-linecap="round"/><polyline points="148.0,126.0 158.0,135.0 148.0,144.0" stroke="#1c7ed6" stroke-width="4" fill="none" stroke-linecap="round" stroke-linejoin="round"/></g><rect x="182" y="98" width="74" height="74" rx="10" fill="#f8f9fd" stroke="#c3cae0" stroke-width="1.5"/><g transform="rotate(90 219.0 135.0)"><line x1="196.0" y1="135.0" x2="242.0" y2="135.0" stroke="#1f2933" stroke-width="4" stroke-linecap="round"/><polyline points="232.0,126.0 242.0,135.0 232.0,144.0" stroke="#1f2933" stroke-width="4" fill="none" stroke-linecap="round" stroke-linejoin="round"/></g><rect x="14" y="182" width="74" height="74" rx="10" fill="#f8f9fd" stroke="#c3cae0" stroke-width="1.5"/><g transform="rotate(180 51.0 219.0)"><line x1="28.0" y1="219.0" x2="74.0" y2="219.0" stroke="#e8590c" stroke-width="4" stroke-linecap="round"/><polyline points="64.0,210.0 74.0,219.0 64.0,228.0" stroke="#e8590c" stroke-width="4" fill="none" stroke-linecap="round" stroke-linejoin="round"/></g><rect x="98" y="182" width="74" height="74" rx="10" fill="#f8f9fd" stroke="#c3cae0" stroke-width="1.5"/><g transform="rotate(180 135.0 219.0)"><line x1="112.0" y1="219.0" x2="158.0" y2="219.0" stroke="#1c7ed6" stroke-width="4" stroke-linecap="round"/><polyline points="148.0,210.0 158.0,219.0 148.0,228.0" stroke="#1c7ed6" stroke-width="4" fill="none" stroke-linecap="round" stroke-linejoin="round"/></g><rect x="185.0" y="185.0" width="68" height="68" rx="12" fill="#fff3bf" stroke="#f0b429" stroke-width="2"/><text x="219.0" y="219.0" font-size="37" fill="#b07908" text-anchor="middle" font-weight="bold" dominant-baseline="middle">?</text></svg>