<svg xmlns="http://www.w3.org/2000/svg" viewBox="0 0 270 270" width="270" height="270" font-family="Verdana,Arial,sans-serif"><rect x="14" y="14" width="74" height="74" rx="10" fill="#f8f9fd" stroke="#c3cae0" stroke-width="1.5"/><circle cx="51.0" cy="51.0" r="23.0" stroke="#2C363B" stroke-width="4" fill="none"/><rect x="98" y="14" width="74" height="74" rx="10" fill="#f8f9fd" stroke="#c3cae0" stroke-width="1.5"/><polygon points="135.0,28.0 141.1,42.6 156.9,43.9 144.8,54.2 148.5,69.6 135.0,61.4 121.5,69.6 125.2,54.2 113.1,43.9 128.9,42.6" stroke="#2C363B" stroke-width="4" fill="none" stroke-linejoin="round"/><rect x="182" y="14" width="74" height="74" rx="10" fill="#f8f9fd" stroke="#c3cae0" stroke-width="1.5"/><g transform="rotate(0 219.0 51.0)"><rect x="196.0" y="28.0" width="46.0" height="46.0" rx="3" stroke="#2C363B" stroke-width="4" fill="none"/></g><rect x="14" y="98" width="74" height="74" rx="10" fill="#f8f9fd" stroke="#c3cae0" stroke-width="1.5"/><circle cx="40.65" cy="135.0" r="8.693999999999999" stroke="#2C363B" stroke-width="3" fill="none"/><circle cx="61.349999999999994" cy="135.0" r="8.693999999999999" stroke="#2C363B" stroke-width="3" fill="none"/><rect x="98" y="98" width="74" height="74" rx="10" fill="#f8f9fd" stroke="#c3cae0" stroke-width="1.5"/><polygon points="124.7,126.3 126.9,131.8 132.9,132.3 128.4,136.2 129.8,142.0 124.7,138.9 119.5,142.0 120.9,136.2 116.4,132.3 122.4,131.8" stroke="#2C363B" stroke-width="3" fill="none" stroke-linejoin="round"/><polygon points="145.3,126.3 147.6,131.8 153.6,132.3 149.1,136.2 150.5,142.0 145.3,138.9 140.2,142.0 141.6,136.2 137.1,132.3 143.1,131.8" stroke="#2C363B" stroke-width="3" fill="none" stroke-linejoin="round"/><rect x="182" y="98" width="74" height="74" rx="10" fill="#f8f9fd" stroke="#c3cae0" stroke-width="1.5"/><g transform="rotate(0 208.65 135.0)"><rect x="199.95600000000002" y="126.306" width="17.387999999999998" height="17.387999999999998" rx="3" stroke="#2C363B" stroke-width="3" fill="none"/></g><g transform="rotate(0 229.35 135.0)"><rect x="220.656" y="126.306" width="17.387999999999998" height="17.387999999999998" rx="3" stroke="#2C363B" stroke-width="3" fill="none"/></g><rect x="14" y="182" width="74" height="74" rx="10" fill="#f8f9fd" stroke="#c3cae0" stroke-width="1.5"/><circle cx="40.65" cy="208.65" r="8.693999999999999" stroke="#2C363B" stroke-width="3" fill="none"/><circle cx="61.349999999999994" cy="208.65" r="8.693999999999999" stroke="#2C363B" stroke-width="3" fill="none"/><circle cx="40.65" cy="229.35" r="8.693999999999999" stroke="#2C363B" stroke-width="3" fill="none"/><rect x="98" y="182" width="74" height="74" rx="10" fill="#f8f9fd" stroke="#c3cae0" stroke-width="1.5"/><polygon points="124.7,200.0 126.9,205.5 132.9,206.0 128.4,209.9 129.8,215.7 124.7,212.6 119.5,215.7 120.9,209.9 116.4,206.0 122.4,205.5" stroke="#2C363B" stroke-width="3" fill="none" stroke-linejoin="round"/><polygon points="145.3,200.0 147.6,205.5 153.6,206.0 149.1,209.9 150.5,215.7 145.3,212.6 140.2,215.7 141.6,209.9 137.1,206.0 143.1,205.5" stroke="#2C363B" stroke-width="3" fill="none" stroke-linejoin="round"/><polygon points="124.7,220.7 126.9,226.2 132.9,226.7 128.4,230.6 129.8,236.4 124.7,233.3 119.5,236.4 120.9,230.6 116.4,226.7 122.4,226.2" stroke="#2C363B" stroke-width="3" fill="none" stroke-linejoin="round"/><rect x="185.0" y="185.0" width="68" height="68" rx="12" fill="#fff3bf" stroke="#f0b429" stroke-width="2"/><text x="219.0" y="219.0" font-size="37" fill="#b07908" text-anchor="middle" font-weight="bold" dominant-baseline="middle">?</text></svg>