<svg xmlns="http://www.w3.org/2000/svg" viewBox="0 0 270 270" width="270" height="270" font-family="Verdana,Arial,sans-serif"><rect x="14" y="14" width="74" height="74" rx="10" fill="#f8f9fd" stroke="#c3cae0" stroke-width="1.5"/><polygon points="51.0,28.0 72.9,43.9 64.5,69.6 37.5,69.6 29.1,43.9" stroke="#2C363B" stroke-width="4" fill="none" stroke-linejoin="round"/><rect x="98" y="14" width="74" height="74" rx="10" fill="#f8f9fd" stroke="#c3cae0" stroke-width="1.5"/><polygon points="135.0,28.0 154.9,62.5 115.1,62.5" stroke="#2C363B" stroke-width="4" fill="none" stroke-linejoin="round"/><rect x="182" y="14" width="74" height="74" rx="10" fill="#f8f9fd" stroke="#c3cae0" stroke-width="1.5"/><polygon points="219.0,28.0 225.1,42.6 240.9,43.9 228.8,54.2 232.5,69.6 219.0,61.4 205.5,69.6 209.2,54.2 197.1,43.9 212.9,42.6" stroke="#2C363B" stroke-width="4" fill="none" stroke-linejoin="round"/><rect x="14" y="98" width="74" height="74" rx="10" fill="#f8f9fd" stroke="#c3cae0" stroke-width="1.5"/><polygon points="40.6,126.3 48.9,132.3 45.8,142.0 35.5,142.0 32.4,132.3" stroke="#2C363B" stroke-width="3" fill="none" stroke-linejoin="round"/><polygon points="61.3,126.3 69.6,132.3 66.5,142.0 56.2,142.0 53.1,132.3" stroke="#2C363B" stroke-width="3" fill="none" stroke-linejoin="round"/><rect x="98" y="98" width="74" height="74" rx="10" fill="#f8f9fd" stroke="#c3cae0" stroke-width="1.5"/><polygon points="124.7,126.3 132.2,139.3 117.1,139.3" stroke="#2C363B" stroke-width="3" fill="none" stroke-linejoin="round"/><polygon points="145.3,126.3 152.9,139.3 137.8,139.3" stroke="#2C363B" stroke-width="3" fill="none" stroke-linejoin="round"/><rect x="182" y="98" width="74" height="74" rx="10" fill="#f8f9fd" stroke="#c3cae0" stroke-width="1.5"/><polygon points="208.7,126.3 210.9,131.8 216.9,132.3 212.4,136.2 213.8,142.0 208.7,138.9 203.5,142.0 204.9,136.2 200.4,132.3 206.4,131.8" stroke="#2C363B" stroke-width="3" fill="none" stroke-linejoin="round"/><polygon points="229.3,126.3 231.6,131.8 237.6,132.3 233.1,136.2 234.5,142.0 229.3,138.9 224.2,142.0 225.6,136.2 221.1,132.3 227.1,131.8" stroke="#2C363B" stroke-width="3" fill="none" stroke-linejoin="round"/><rect x="14" y="182" width="74" height="74" rx="10" fill="#f8f9fd" stroke="#c3cae0" stroke-width="1.5"/><polygon points="40.6,200.0 48.9,206.0 45.8,215.7 35.5,215.7 32.4,206.0" stroke="#2C363B" stroke-width="3" fill="none" stroke-linejoin="round"/><polygon points="61.3,200.0 69.6,206.0 66.5,215.7 56.2,215.7 53.1,206.0" stroke="#2C363B" stroke-width="3" fill="none" stroke-linejoin="round"/><polygon points="40.6,220.7 48.9,226.7 45.8,236.4 35.5,236.4 32.4,226.7" stroke="#2C363B" stroke-width="3" fill="none" stroke-linejoin="round"/><rect x="98" y="182" width="74" height="74" rx="10" fill="#f8f9fd" stroke="#c3cae0" stroke-width="1.5"/><polygon points="124.7,200.0 132.2,213.0 117.1,213.0" stroke="#2C363B" stroke-width="3" fill="none" stroke-linejoin="round"/><polygon points="145.3,200.0 152.9,213.0 137.8,213.0" stroke="#2C363B" stroke-width="3" fill="none" stroke-linejoin="round"/><polygon points="124.7,220.7 132.2,233.7 117.1,233.7" stroke="#2C363B" stroke-width="3" fill="none" stroke-linejoin="round"/><rect x="185.0" y="185.0" width="68" height="68" rx="12" fill="#fff3bf" stroke="#f0b429" stroke-width="2"/><text x="219.0" y="219.0" font-size="37" fill="#b07908" text-anchor="middle" font-weight="bold" dominant-baseline="middle">?</text></svg>