<svg xmlns="http://www.w3.org/2000/svg" viewBox="0 0 270 270" width="270" height="270" font-family="Verdana,Arial,sans-serif"><rect x="14" y="14" width="74" height="74" rx="10" fill="#f8f9fd" stroke="#c3cae0" stroke-width="1.5"/><polygon points="51.0,28.0 70.9,62.5 31.1,62.5" stroke="#c92a2a" stroke-width="4" fill="none" stroke-linejoin="round"/><rect x="98" y="14" width="74" height="74" rx="10" fill="#f8f9fd" stroke="#c3cae0" stroke-width="1.5"/><polygon points="135.0,28.0 154.9,62.5 115.1,62.5" stroke="#2b8a3e" stroke-width="4" fill="none" stroke-linejoin="round"/><rect x="182" y="14" width="74" height="74" rx="10" fill="#f8f9fd" stroke="#c3cae0" stroke-width="1.5"/><polygon points="219.0,28.0 238.9,62.5 199.1,62.5" stroke="#5f3dc4" stroke-width="4" fill="none" stroke-linejoin="round"/><rect x="14" y="98" width="74" height="74" rx="10" fill="#f8f9fd" stroke="#c3cae0" stroke-width="1.5"/><polygon points="51.0,112.0 57.1,126.6 72.9,127.9 60.8,138.2 64.5,153.6 51.0,145.3 37.5,153.6 41.2,138.2 29.1,127.9 44.9,126.6" stroke="#c92a2a" stroke-width="4" fill="none" stroke-linejoin="round"/><rect x="98" y="98" width="74" height="74" rx="10" fill="#f8f9fd" stroke="#c3cae0" stroke-width="1.5"/><polygon points="135.0,112.0 141.1,126.6 156.9,127.9 144.8,138.2 148.5,153.6 135.0,145.3 121.5,153.6 125.2,138.2 113.1,127.9 128.9,126.6" stroke="#2b8a3e" stroke-width="4" fill="none" stroke-linejoin="round"/><rect x="182" y="98" width="74" height="74" rx="10" fill="#f8f9fd" stroke="#c3cae0" stroke-width="1.5"/><polygon points="219.0,112.0 225.1,126.6 240.9,127.9 228.8,138.2 232.5,153.6 219.0,145.3 205.5,153.6 209.2,138.2 197.1,127.9 212.9,126.6" stroke="#5f3dc4" stroke-width="4" fill="none" stroke-linejoin="round"/><rect x="14" y="182" width="74" height="74" rx="10" fill="#f8f9fd" stroke="#c3cae0" stroke-width="1.5"/><polygon points="51.0,196.0 70.9,207.5 70.9,230.5 51.0,242.0 31.1,230.5 31.1,207.5" stroke="#c92a2a" stroke-width="4" fill="none" stroke-linejoin="round"/><rect x="98" y="182" width="74" height="74" rx="10" fill="#f8f9fd" stroke="#c3cae0" stroke-width="1.5"/><polygon points="135.0,196.0 154.9,207.5 154.9,230.5 135.0,242.0 115.1,230.5 115.1,207.5" stroke="#2b8a3e" stroke-width="4" fill="none" stroke-linejoin="round"/><rect x="185.0" y="185.0" width="68" height="68" rx="12" fill="#fff3bf" stroke="#f0b429" stroke-width="2"/><text x="219.0" y="219.0" font-size="37" fill="#b07908" text-anchor="middle" font-weight="bold" dominant-baseline="middle">?</text></svg>