<svg xmlns="http://www.w3.org/2000/svg" viewBox="0 0 270 270" width="270" height="270" font-family="Verdana,Arial,sans-serif"><rect x="14" y="14" width="74" height="74" rx="10" fill="#f8f9fd" stroke="#c3cae0" stroke-width="1.5"/><polygon points="67.3,34.7 67.3,67.3 34.7,67.3 34.7,34.7" stroke="#2C363B" stroke-width="4" fill="none" stroke-linejoin="round"/><rect x="98" y="14" width="74" height="74" rx="10" fill="#f8f9fd" stroke="#c3cae0" stroke-width="1.5"/><polygon points="130.8,44.9 130.8,57.1 118.5,57.1 118.5,44.9" stroke="#2C363B" stroke-width="3" fill="none" stroke-linejoin="round"/><polygon points="151.5,44.9 151.5,57.1 139.2,57.1 139.2,44.9" stroke="#2C363B" stroke-width="3" fill="none" stroke-linejoin="round"/><rect x="182" y="14" width="74" height="74" rx="10" fill="#f8f9fd" stroke="#c3cae0" stroke-width="1.5"/><polygon points="214.8,34.5 214.8,46.8 202.5,46.8 202.5,34.5" stroke="#2C363B" stroke-width="3" fill="none" stroke-linejoin="round"/><polygon points="235.5,34.5 235.5,46.8 223.2,46.8 223.2,34.5" stroke="#2C363B" stroke-width="3" fill="none" stroke-linejoin="round"/><polygon points="214.8,55.2 214.8,67.5 202.5,67.5 202.5,55.2" stroke="#2C363B" stroke-width="3" fill="none" stroke-linejoin="round"/><rect x="14" y="98" width="74" height="74" rx="10" fill="#f8f9fd" stroke="#c3cae0" stroke-width="1.5"/><polygon points="51.0,112.0 72.9,127.9 64.5,153.6 37.5,153.6 29.1,127.9" stroke="#2C363B" stroke-width="4" fill="none" stroke-linejoin="round"/><rect x="98" y="98" width="74" height="74" rx="10" fill="#f8f9fd" stroke="#c3cae0" stroke-width="1.5"/><polygon points="124.7,126.3 132.9,132.3 129.8,142.0 119.5,142.0 116.4,132.3" stroke="#2C363B" stroke-width="3" fill="none" stroke-linejoin="round"/><polygon points="145.3,126.3 153.6,132.3 150.5,142.0 140.2,142.0 137.1,132.3" stroke="#2C363B" stroke-width="3" fill="none" stroke-linejoin="round"/><rect x="182" y="98" width="74" height="74" rx="10" fill="#f8f9fd" stroke="#c3cae0" stroke-width="1.5"/><polygon points="208.7,116.0 216.9,122.0 213.8,131.7 203.5,131.7 200.4,122.0" stroke="#2C363B" stroke-width="3" fill="none" stroke-linejoin="round"/><polygon points="229.3,116.0 237.6,122.0 234.5,131.7 224.2,131.7 221.1,122.0" stroke="#2C363B" stroke-width="3" fill="none" stroke-linejoin="round"/><polygon points="208.7,136.7 216.9,142.7 213.8,152.4 203.5,152.4 200.4,142.7" stroke="#2C363B" stroke-width="3" fill="none" stroke-linejoin="round"/><rect x="14" y="182" width="74" height="74" rx="10" fill="#f8f9fd" stroke="#c3cae0" stroke-width="1.5"/><polygon points="51.0,196.0 57.1,210.6 72.9,211.9 60.8,222.2 64.5,237.6 51.0,229.3 37.5,237.6 41.2,222.2 29.1,211.9 44.9,210.6" stroke="#2C363B" stroke-width="4" fill="none" stroke-linejoin="round"/><rect x="98" y="182" width="74" height="74" rx="10" fill="#f8f9fd" stroke="#c3cae0" stroke-width="1.5"/><polygon points="124.7,210.3 126.9,215.8 132.9,216.3 128.4,220.2 129.8,226.0 124.7,222.9 119.5,226.0 120.9,220.2 116.4,216.3 122.4,215.8" stroke="#2C363B" stroke-width="3" fill="none" stroke-linejoin="round"/><polygon points="145.3,210.3 147.6,215.8 153.6,216.3 149.1,220.2 150.5,226.0 145.3,222.9 140.2,226.0 141.6,220.2 137.1,216.3 143.1,215.8" stroke="#2C363B" stroke-width="3" fill="none" stroke-linejoin="round"/><rect x="185.0" y="185.0" width="68" height="68" rx="12" fill="#fff3bf" stroke="#f0b429" stroke-width="2"/><text x="219.0" y="219.0" font-size="37" fill="#b07908" text-anchor="middle" font-weight="bold" dominant-baseline="middle">?</text></svg>