<svg xmlns="http://www.w3.org/2000/svg" viewBox="0 0 360 205" width="360" height="205" font-family="Verdana,Arial,sans-serif"><polygon points="60.0,23.0 68.5,43.4 90.4,45.1 73.7,59.4 78.8,80.9 60.0,69.4 41.2,80.9 46.3,59.4 29.6,45.1 51.5,43.4" stroke="#1f2933" stroke-width="4" fill="none" stroke-linejoin="round"/><g transform="rotate(0 180 55)"><line x1="154" y1="55" x2="206" y2="55" stroke="#828ba3" stroke-width="4" stroke-linecap="round"/><polyline points="196,46 206,55 196,64" stroke="#828ba3" stroke-width="4" fill="none" stroke-linecap="round" stroke-linejoin="round"/></g><polygon points="300.0,37.4 304.7,48.6 316.7,49.6 307.5,57.4 310.3,69.2 300.0,62.9 289.7,69.2 292.5,57.4 283.3,49.6 295.3,48.6" stroke="#1f2933" stroke-width="4" fill="none" stroke-linejoin="round"/><polygon points="60.0,118.0 87.7,134.0 87.7,166.0 60.0,182.0 32.3,166.0 32.3,134.0" stroke="#5f3dc4" stroke-width="4" fill="none" stroke-linejoin="round"/><g transform="rotate(0 180 150)"><line x1="154" y1="150" x2="206" y2="150" stroke="#828ba3" stroke-width="4" stroke-linecap="round"/><polyline points="196,141 206,150 196,159" stroke="#828ba3" stroke-width="4" fill="none" stroke-linecap="round" stroke-linejoin="round"/></g><rect x="268" y="118" width="64" height="64" rx="12" fill="#fff3bf" stroke="#f0b429" stroke-width="2"/><text x="300" y="150" font-size="35" fill="#b07908" text-anchor="middle" font-weight="bold" dominant-baseline="middle">?</text></svg>