<svg xmlns="http://www.w3.org/2000/svg" viewBox="0 0 270 270" width="270" height="270" font-family="Verdana,Arial,sans-serif"><rect x="14" y="14" width="74" height="74" rx="10" fill="#f8f9fd" stroke="#c3cae0" stroke-width="1.5"/><polygon points="67.3,34.7 67.3,67.3 34.7,67.3 34.7,34.7" stroke="#2b8a3e" stroke-width="4" fill="none" stroke-linejoin="round"/><rect x="98" y="14" width="74" height="74" rx="10" fill="#f8f9fd" stroke="#c3cae0" stroke-width="1.5"/><polygon points="130.8,44.9 130.8,57.1 118.5,57.1 118.5,44.9" stroke="#2b8a3e" stroke-width="3" fill="none" stroke-linejoin="round"/><polygon points="151.5,44.9 151.5,57.1 139.2,57.1 139.2,44.9" stroke="#2b8a3e" stroke-width="3" fill="none" stroke-linejoin="round"/><rect x="182" y="14" width="74" height="74" rx="10" fill="#f8f9fd" stroke="#c3cae0" stroke-width="1.5"/><polygon points="214.8,34.5 214.8,46.8 202.5,46.8 202.5,34.5" stroke="#2b8a3e" stroke-width="3" fill="none" stroke-linejoin="round"/><polygon points="235.5,34.5 235.5,46.8 223.2,46.8 223.2,34.5" stroke="#2b8a3e" stroke-width="3" fill="none" stroke-linejoin="round"/><polygon points="214.8,55.2 214.8,67.5 202.5,67.5 202.5,55.2" stroke="#2b8a3e" stroke-width="3" fill="none" stroke-linejoin="round"/><rect x="14" y="98" width="74" height="74" rx="10" fill="#f8f9fd" stroke="#c3cae0" stroke-width="1.5"/><polygon points="67.3,118.7 67.3,151.3 34.7,151.3 34.7,118.7" stroke="#5f3dc4" stroke-width="4" fill="none" stroke-linejoin="round"/><rect x="98" y="98" width="74" height="74" rx="10" fill="#f8f9fd" stroke="#c3cae0" stroke-width="1.5"/><polygon points="130.8,128.9 130.8,141.1 118.5,141.1 118.5,128.9" stroke="#5f3dc4" stroke-width="3" fill="none" stroke-linejoin="round"/><polygon points="151.5,128.9 151.5,141.1 139.2,141.1 139.2,128.9" stroke="#5f3dc4" stroke-width="3" fill="none" stroke-linejoin="round"/><rect x="182" y="98" width="74" height="74" rx="10" fill="#f8f9fd" stroke="#c3cae0" stroke-width="1.5"/><polygon points="214.8,118.5 214.8,130.8 202.5,130.8 202.5,118.5" stroke="#5f3dc4" stroke-width="3" fill="none" stroke-linejoin="round"/><polygon points="235.5,118.5 235.5,130.8 223.2,130.8 223.2,118.5" stroke="#5f3dc4" stroke-width="3" fill="none" stroke-linejoin="round"/><polygon points="214.8,139.2 214.8,151.5 202.5,151.5 202.5,139.2" stroke="#5f3dc4" stroke-width="3" fill="none" stroke-linejoin="round"/><rect x="14" y="182" width="74" height="74" rx="10" fill="#f8f9fd" stroke="#c3cae0" stroke-width="1.5"/><polygon points="67.3,202.7 67.3,235.3 34.7,235.3 34.7,202.7" stroke="#1c7ed6" stroke-width="4" fill="none" stroke-linejoin="round"/><rect x="98" y="182" width="74" height="74" rx="10" fill="#f8f9fd" stroke="#c3cae0" stroke-width="1.5"/><polygon points="130.8,212.9 130.8,225.1 118.5,225.1 118.5,212.9" stroke="#1c7ed6" stroke-width="3" fill="none" stroke-linejoin="round"/><polygon points="151.5,212.9 151.5,225.1 139.2,225.1 139.2,212.9" stroke="#1c7ed6" stroke-width="3" fill="none" stroke-linejoin="round"/><rect x="185.0" y="185.0" width="68" height="68" rx="12" fill="#fff3bf" stroke="#f0b429" stroke-width="2"/><text x="219.0" y="219.0" font-size="37" fill="#b07908" text-anchor="middle" font-weight="bold" dominant-baseline="middle">?</text></svg>