<svg xmlns="http://www.w3.org/2000/svg" viewBox="0 0 160 120" width="160" height="120" font-family="Verdana,Arial,sans-serif"><polygon points="54.8,24.2 57.6,30.9 64.9,31.5 59.3,36.3 61.0,43.4 54.8,39.6 48.6,43.4 50.3,36.3 44.7,31.5 52.0,30.9" stroke="#2C363B" stroke-width="3" fill="none" stroke-linejoin="round"/><polygon points="80.0,24.2 82.8,30.9 90.1,31.5 84.5,36.3 86.2,43.4 80.0,39.6 73.8,43.4 75.5,36.3 69.9,31.5 77.2,30.9" stroke="#2C363B" stroke-width="3" fill="none" stroke-linejoin="round"/><polygon points="105.2,24.2 108.0,30.9 115.3,31.5 109.7,36.3 111.4,43.4 105.2,39.6 99.0,43.4 100.7,36.3 95.1,31.5 102.4,30.9" stroke="#2C363B" stroke-width="3" fill="none" stroke-linejoin="round"/><polygon points="54.8,49.4 57.6,56.1 64.9,56.7 59.3,61.5 61.0,68.6 54.8,64.8 48.6,68.6 50.3,61.5 44.7,56.7 52.0,56.1" stroke="#2C363B" stroke-width="3" fill="none" stroke-linejoin="round"/><polygon points="80.0,49.4 82.8,56.1 90.1,56.7 84.5,61.5 86.2,68.6 80.0,64.8 73.8,68.6 75.5,61.5 69.9,56.7 77.2,56.1" stroke="#2C363B" stroke-width="3" fill="none" stroke-linejoin="round"/><polygon points="105.2,49.4 108.0,56.1 115.3,56.7 109.7,61.5 111.4,68.6 105.2,64.8 99.0,68.6 100.7,61.5 95.1,56.7 102.4,56.1" stroke="#2C363B" stroke-width="3" fill="none" stroke-linejoin="round"/><polygon points="54.8,74.6 57.6,81.3 64.9,81.9 59.3,86.7 61.0,93.8 54.8,90.0 48.6,93.8 50.3,86.7 44.7,81.9 52.0,81.3" stroke="#2C363B" stroke-width="3" fill="none" stroke-linejoin="round"/></svg>