<svg xmlns="http://www.w3.org/2000/svg" viewBox="0 0 160 120" width="160" height="120" font-family="Verdana,Arial,sans-serif"><polygon points="54.8,36.8 57.6,43.5 64.9,44.1 59.3,48.9 61.0,56.0 54.8,52.2 48.6,56.0 50.3,48.9 44.7,44.1 52.0,43.5" stroke="#2C363B" stroke-width="3" fill="none" stroke-linejoin="round"/><polygon points="80.0,36.8 82.8,43.5 90.1,44.1 84.5,48.9 86.2,56.0 80.0,52.2 73.8,56.0 75.5,48.9 69.9,44.1 77.2,43.5" stroke="#2C363B" stroke-width="3" fill="none" stroke-linejoin="round"/><polygon points="105.2,36.8 108.0,43.5 115.3,44.1 109.7,48.9 111.4,56.0 105.2,52.2 99.0,56.0 100.7,48.9 95.1,44.1 102.4,43.5" stroke="#2C363B" stroke-width="3" fill="none" stroke-linejoin="round"/><polygon points="54.8,62.0 57.6,68.7 64.9,69.3 59.3,74.1 61.0,81.2 54.8,77.4 48.6,81.2 50.3,74.1 44.7,69.3 52.0,68.7" stroke="#2C363B" stroke-width="3" fill="none" stroke-linejoin="round"/><polygon points="80.0,62.0 82.8,68.7 90.1,69.3 84.5,74.1 86.2,81.2 80.0,77.4 73.8,81.2 75.5,74.1 69.9,69.3 77.2,68.7" stroke="#2C363B" stroke-width="3" fill="none" stroke-linejoin="round"/></svg>