<svg xmlns="http://www.w3.org/2000/svg" viewBox="0 0 360 120" width="360" height="120" font-family="Verdana,Arial,sans-serif"><polygon points="42.4,36.8 45.2,43.5 52.5,44.1 46.9,48.9 48.6,56.0 42.4,52.2 36.2,56.0 37.9,48.9 32.3,44.1 39.6,43.5" stroke="#2C363B" stroke-width="3" fill="none" stroke-linejoin="round"/><polygon points="67.6,36.8 70.4,43.5 77.7,44.1 72.1,48.9 73.8,56.0 67.6,52.2 61.4,56.0 63.1,48.9 57.5,44.1 64.8,43.5" stroke="#2C363B" stroke-width="3" fill="none" stroke-linejoin="round"/><polygon points="42.4,62.0 45.2,68.7 52.5,69.3 46.9,74.1 48.6,81.2 42.4,77.4 36.2,81.2 37.9,74.1 32.3,69.3 39.6,68.7" stroke="#2C363B" stroke-width="3" fill="none" stroke-linejoin="round"/><polygon points="67.6,62.0 70.4,68.7 77.7,69.3 72.1,74.1 73.8,81.2 67.6,77.4 61.4,81.2 63.1,74.1 57.5,69.3 64.8,68.7" stroke="#2C363B" stroke-width="3" fill="none" stroke-linejoin="round"/><polygon points="123.2,44.5 125.1,49.0 129.9,49.4 126.2,52.6 127.3,57.3 123.2,54.8 119.1,57.3 120.2,52.6 116.5,49.4 121.3,49.0" stroke="#2C363B" stroke-width="3" fill="none" stroke-linejoin="round"/><polygon points="140.0,44.5 141.9,49.0 146.7,49.4 143.0,52.6 144.1,57.3 140.0,54.8 135.9,57.3 137.0,52.6 133.3,49.4 138.1,49.0" stroke="#2C363B" stroke-width="3" fill="none" stroke-linejoin="round"/><polygon points="156.8,44.5 158.7,49.0 163.5,49.4 159.8,52.6 160.9,57.3 156.8,54.8 152.7,57.3 153.8,52.6 150.1,49.4 154.9,49.0" stroke="#2C363B" stroke-width="3" fill="none" stroke-linejoin="round"/><polygon points="123.2,61.3 125.1,65.8 129.9,66.2 126.2,69.4 127.3,74.1 123.2,71.6 119.1,74.1 120.2,69.4 116.5,66.2 121.3,65.8" stroke="#2C363B" stroke-width="3" fill="none" stroke-linejoin="round"/><polygon points="140.0,61.3 141.9,65.8 146.7,66.2 143.0,69.4 144.1,74.1 140.0,71.6 135.9,74.1 137.0,69.4 133.3,66.2 138.1,65.8" stroke="#2C363B" stroke-width="3" fill="none" stroke-linejoin="round"/><polygon points="208.2,44.5 210.1,49.0 214.9,49.4 211.2,52.6 212.3,57.3 208.2,54.8 204.1,57.3 205.2,52.6 201.5,49.4 206.3,49.0" stroke="#2C363B" stroke-width="3" fill="none" stroke-linejoin="round"/><polygon points="225.0,44.5 226.9,49.0 231.7,49.4 228.0,52.6 229.1,57.3 225.0,54.8 220.9,57.3 222.0,52.6 218.3,49.4 223.1,49.0" stroke="#2C363B" stroke-width="3" fill="none" stroke-linejoin="round"/><polygon points="241.8,44.5 243.7,49.0 248.5,49.4 244.8,52.6 245.9,57.3 241.8,54.8 237.7,57.3 238.8,52.6 235.1,49.4 239.9,49.0" stroke="#2C363B" stroke-width="3" fill="none" stroke-linejoin="round"/><polygon points="208.2,61.3 210.1,65.8 214.9,66.2 211.2,69.4 212.3,74.1 208.2,71.6 204.1,74.1 205.2,69.4 201.5,66.2 206.3,65.8" stroke="#2C363B" stroke-width="3" fill="none" stroke-linejoin="round"/><polygon points="225.0,61.3 226.9,65.8 231.7,66.2 228.0,69.4 229.1,74.1 225.0,71.6 220.9,74.1 222.0,69.4 218.3,66.2 223.1,65.8" stroke="#2C363B" stroke-width="3" fill="none" stroke-linejoin="round"/><polygon points="241.8,61.3 243.7,65.8 248.5,66.2 244.8,69.4 245.9,74.1 241.8,71.6 237.7,74.1 238.8,69.4 235.1,66.2 239.9,65.8" stroke="#2C363B" stroke-width="3" fill="none" stroke-linejoin="round"/><rect x="285" y="30" width="60" height="60" rx="12" fill="#fff3bf" stroke="#f0b429" stroke-width="2"/><text x="315" y="60" font-size="33" fill="#b07908" text-anchor="middle" font-weight="bold" dominant-baseline="middle">?</text></svg>