<svg xmlns="http://www.w3.org/2000/svg" viewBox="0 0 270 270" width="270" height="270" font-family="Verdana,Arial,sans-serif"><rect x="14" y="14" width="74" height="74" rx="10" fill="#f8f9fd" stroke="#c3cae0" stroke-width="1.5"/><polygon points="51.0,38.4 62.0,44.7 62.0,57.3 51.0,63.6 40.0,57.3 40.0,44.7" stroke="#2C363B" stroke-width="4" fill="none" stroke-linejoin="round"/><rect x="98" y="14" width="74" height="74" rx="10" fill="#f8f9fd" stroke="#c3cae0" stroke-width="1.5"/><polygon points="135.0,32.6 150.9,41.8 150.9,60.2 135.0,69.4 119.1,60.2 119.1,41.8" stroke="#2C363B" stroke-width="4" fill="none" stroke-linejoin="round"/><rect x="182" y="14" width="74" height="74" rx="10" fill="#f8f9fd" stroke="#c3cae0" stroke-width="1.5"/><polygon points="219.0,25.7 240.9,38.4 240.9,63.6 219.0,76.3 197.1,63.6 197.1,38.3" stroke="#2C363B" stroke-width="4" fill="none" stroke-linejoin="round"/><rect x="14" y="98" width="74" height="74" rx="10" fill="#f8f9fd" stroke="#c3cae0" stroke-width="1.5"/><polygon points="40.6,126.3 48.2,130.7 48.2,139.3 40.6,143.7 33.1,139.3 33.1,130.7" stroke="#2C363B" stroke-width="3" fill="none" stroke-linejoin="round"/><polygon points="61.3,126.3 68.9,130.7 68.9,139.3 61.3,143.7 53.8,139.3 53.8,130.7" stroke="#2C363B" stroke-width="3" fill="none" stroke-linejoin="round"/><rect x="98" y="98" width="74" height="74" rx="10" fill="#f8f9fd" stroke="#c3cae0" stroke-width="1.5"/><polygon points="124.7,126.3 132.2,130.7 132.2,139.3 124.7,143.7 117.1,139.3 117.1,130.7" stroke="#2C363B" stroke-width="3" fill="none" stroke-linejoin="round"/><polygon points="145.3,126.3 152.9,130.7 152.9,139.3 145.3,143.7 137.8,139.3 137.8,130.7" stroke="#2C363B" stroke-width="3" fill="none" stroke-linejoin="round"/><rect x="182" y="98" width="74" height="74" rx="10" fill="#f8f9fd" stroke="#c3cae0" stroke-width="1.5"/><polygon points="208.7,126.3 216.2,130.7 216.2,139.3 208.7,143.7 201.1,139.3 201.1,130.7" stroke="#2C363B" stroke-width="3" fill="none" stroke-linejoin="round"/><polygon points="229.3,126.3 236.9,130.7 236.9,139.3 229.3,143.7 221.8,139.3 221.8,130.7" stroke="#2C363B" stroke-width="3" fill="none" stroke-linejoin="round"/><rect x="14" y="182" width="74" height="74" rx="10" fill="#f8f9fd" stroke="#c3cae0" stroke-width="1.5"/><polygon points="40.6,200.0 48.2,204.3 48.2,213.0 40.6,217.3 33.1,213.0 33.1,204.3" stroke="#2C363B" stroke-width="3" fill="none" stroke-linejoin="round"/><polygon points="61.3,200.0 68.9,204.3 68.9,213.0 61.3,217.3 53.8,213.0 53.8,204.3" stroke="#2C363B" stroke-width="3" fill="none" stroke-linejoin="round"/><polygon points="40.6,220.7 48.2,225.0 48.2,233.7 40.6,238.0 33.1,233.7 33.1,225.0" stroke="#2C363B" stroke-width="3" fill="none" stroke-linejoin="round"/><rect x="98" y="182" width="74" height="74" rx="10" fill="#f8f9fd" stroke="#c3cae0" stroke-width="1.5"/><polygon points="124.7,200.0 132.2,204.3 132.2,213.0 124.7,217.3 117.1,213.0 117.1,204.3" stroke="#2C363B" stroke-width="3" fill="none" stroke-linejoin="round"/><polygon points="145.3,200.0 152.9,204.3 152.9,213.0 145.3,217.3 137.8,213.0 137.8,204.3" stroke="#2C363B" stroke-width="3" fill="none" stroke-linejoin="round"/><polygon points="124.7,220.7 132.2,225.0 132.2,233.7 124.7,238.0 117.1,233.7 117.1,225.0" stroke="#2C363B" stroke-width="3" fill="none" stroke-linejoin="round"/><rect x="185.0" y="185.0" width="68" height="68" rx="12" fill="#fff3bf" stroke="#f0b429" stroke-width="2"/><text x="219.0" y="219.0" font-size="37" fill="#b07908" text-anchor="middle" font-weight="bold" dominant-baseline="middle">?</text></svg>