<svg xmlns="http://www.w3.org/2000/svg" viewBox="0 0 270 270" width="270" height="270" font-family="Verdana,Arial,sans-serif"><rect x="14" y="14" width="74" height="74" rx="10" fill="#f8f9fd" stroke="#c3cae0" stroke-width="1.5"/><polygon points="67.3,34.7 67.3,67.3 34.7,67.3 34.7,34.7" stroke="#2C363B" stroke-width="4" fill="none" stroke-linejoin="round"/><rect x="98" y="14" width="74" height="74" rx="10" fill="#f8f9fd" stroke="#c3cae0" stroke-width="1.5"/><polygon points="130.8,44.9 130.8,57.1 118.5,57.1 118.5,44.9" stroke="#2C363B" stroke-width="3" fill="none" stroke-linejoin="round"/><polygon points="151.5,44.9 151.5,57.1 139.2,57.1 139.2,44.9" stroke="#2C363B" stroke-width="3" fill="none" stroke-linejoin="round"/><rect x="182" y="14" width="74" height="74" rx="10" fill="#f8f9fd" stroke="#c3cae0" stroke-width="1.5"/><polygon points="214.8,34.5 214.8,46.8 202.5,46.8 202.5,34.5" stroke="#2C363B" stroke-width="3" fill="none" stroke-linejoin="round"/><polygon points="235.5,34.5 235.5,46.8 223.2,46.8 223.2,34.5" stroke="#2C363B" stroke-width="3" fill="none" stroke-linejoin="round"/><polygon points="214.8,55.2 214.8,67.5 202.5,67.5 202.5,55.2" stroke="#2C363B" stroke-width="3" fill="none" stroke-linejoin="round"/><rect x="14" y="98" width="74" height="74" rx="10" fill="#f8f9fd" stroke="#c3cae0" stroke-width="1.5"/><polygon points="51.0,112.0 70.9,123.5 70.9,146.5 51.0,158.0 31.1,146.5 31.1,123.5" stroke="#2C363B" stroke-width="4" fill="none" stroke-linejoin="round"/><rect x="98" y="98" width="74" height="74" rx="10" fill="#f8f9fd" stroke="#c3cae0" stroke-width="1.5"/><polygon points="124.7,126.3 132.2,130.7 132.2,139.3 124.7,143.7 117.1,139.3 117.1,130.7" stroke="#2C363B" stroke-width="3" fill="none" stroke-linejoin="round"/><polygon points="145.3,126.3 152.9,130.7 152.9,139.3 145.3,143.7 137.8,139.3 137.8,130.7" stroke="#2C363B" stroke-width="3" fill="none" stroke-linejoin="round"/><rect x="182" y="98" width="74" height="74" rx="10" fill="#f8f9fd" stroke="#c3cae0" stroke-width="1.5"/><polygon points="208.7,116.0 216.2,120.3 216.2,129.0 208.7,133.3 201.1,129.0 201.1,120.3" stroke="#2C363B" stroke-width="3" fill="none" stroke-linejoin="round"/><polygon points="229.3,116.0 236.9,120.3 236.9,129.0 229.3,133.3 221.8,129.0 221.8,120.3" stroke="#2C363B" stroke-width="3" fill="none" stroke-linejoin="round"/><polygon points="208.7,136.7 216.2,141.0 216.2,149.7 208.7,154.0 201.1,149.7 201.1,141.0" stroke="#2C363B" stroke-width="3" fill="none" stroke-linejoin="round"/><rect x="14" y="182" width="74" height="74" rx="10" fill="#f8f9fd" stroke="#c3cae0" stroke-width="1.5"/><circle cx="51.0" cy="219.0" r="23.0" stroke="#2C363B" stroke-width="4" fill="none"/><rect x="98" y="182" width="74" height="74" rx="10" fill="#f8f9fd" stroke="#c3cae0" stroke-width="1.5"/><circle cx="124.65" cy="219.0" r="8.693999999999999" stroke="#2C363B" stroke-width="3" fill="none"/><circle cx="145.35" cy="219.0" r="8.693999999999999" stroke="#2C363B" stroke-width="3" fill="none"/><rect x="185.0" y="185.0" width="68" height="68" rx="12" fill="#fff3bf" stroke="#f0b429" stroke-width="2"/><text x="219.0" y="219.0" font-size="37" fill="#b07908" text-anchor="middle" font-weight="bold" dominant-baseline="middle">?</text></svg>