<svg xmlns="http://www.w3.org/2000/svg" viewBox="0 0 270 270" width="270" height="270" font-family="Verdana,Arial,sans-serif"><rect x="14" y="14" width="74" height="74" rx="10" fill="#f8f9fd" stroke="#c3cae0" stroke-width="1.5"/><g transform="rotate(0 51.0 51.0)"><rect x="38.35" y="38.35" width="25.3" height="25.3" rx="3" stroke="#2C363B" stroke-width="4" fill="none"/></g><rect x="98" y="14" width="74" height="74" rx="10" fill="#f8f9fd" stroke="#c3cae0" stroke-width="1.5"/><g transform="rotate(0 124.65 51.0)"><rect x="115.956" y="42.306" width="17.387999999999998" height="17.387999999999998" rx="3" stroke="#2C363B" stroke-width="3" fill="none"/></g><g transform="rotate(0 145.35 51.0)"><rect x="136.656" y="42.306" width="17.387999999999998" height="17.387999999999998" rx="3" stroke="#2C363B" stroke-width="3" fill="none"/></g><rect x="182" y="14" width="74" height="74" rx="10" fill="#f8f9fd" stroke="#c3cae0" stroke-width="1.5"/><g transform="rotate(0 208.65 40.65)"><rect x="199.95600000000002" y="31.956" width="17.387999999999998" height="17.387999999999998" rx="3" stroke="#2C363B" stroke-width="3" fill="none"/></g><g transform="rotate(0 229.35 40.65)"><rect x="220.656" y="31.956" width="17.387999999999998" height="17.387999999999998" rx="3" stroke="#2C363B" stroke-width="3" fill="none"/></g><g transform="rotate(0 208.65 61.349999999999994)"><rect x="199.95600000000002" y="52.65599999999999" width="17.387999999999998" height="17.387999999999998" rx="3" stroke="#2C363B" stroke-width="3" fill="none"/></g><rect x="14" y="98" width="74" height="74" rx="10" fill="#f8f9fd" stroke="#c3cae0" stroke-width="1.5"/><g transform="rotate(0 51.0 135.0)"><rect x="32.599999999999994" y="116.6" width="36.800000000000004" height="36.800000000000004" rx="3" stroke="#2C363B" stroke-width="4" fill="none"/></g><rect x="98" y="98" width="74" height="74" rx="10" fill="#f8f9fd" stroke="#c3cae0" stroke-width="1.5"/><g transform="rotate(0 124.65 135.0)"><rect x="115.956" y="126.306" width="17.387999999999998" height="17.387999999999998" rx="3" stroke="#2C363B" stroke-width="3" fill="none"/></g><g transform="rotate(0 145.35 135.0)"><rect x="136.656" y="126.306" width="17.387999999999998" height="17.387999999999998" rx="3" stroke="#2C363B" stroke-width="3" fill="none"/></g><rect x="182" y="98" width="74" height="74" rx="10" fill="#f8f9fd" stroke="#c3cae0" stroke-width="1.5"/><g transform="rotate(0 208.65 124.65)"><rect x="199.95600000000002" y="115.956" width="17.387999999999998" height="17.387999999999998" rx="3" stroke="#2C363B" stroke-width="3" fill="none"/></g><g transform="rotate(0 229.35 124.65)"><rect x="220.656" y="115.956" width="17.387999999999998" height="17.387999999999998" rx="3" stroke="#2C363B" stroke-width="3" fill="none"/></g><g transform="rotate(0 208.65 145.35)"><rect x="199.95600000000002" y="136.656" width="17.387999999999998" height="17.387999999999998" rx="3" stroke="#2C363B" stroke-width="3" fill="none"/></g><rect x="14" y="182" width="74" height="74" rx="10" fill="#f8f9fd" stroke="#c3cae0" stroke-width="1.5"/><g transform="rotate(0 51.0 219.0)"><rect x="25.7" y="193.7" width="50.6" height="50.6" rx="3" stroke="#2C363B" stroke-width="4" fill="none"/></g><rect x="98" y="182" width="74" height="74" rx="10" fill="#f8f9fd" stroke="#c3cae0" stroke-width="1.5"/><g transform="rotate(0 124.65 219.0)"><rect x="115.956" y="210.306" width="17.387999999999998" height="17.387999999999998" rx="3" stroke="#2C363B" stroke-width="3" fill="none"/></g><g transform="rotate(0 145.35 219.0)"><rect x="136.656" y="210.306" width="17.387999999999998" height="17.387999999999998" rx="3" stroke="#2C363B" stroke-width="3" fill="none"/></g><rect x="185.0" y="185.0" width="68" height="68" rx="12" fill="#fff3bf" stroke="#f0b429" stroke-width="2"/><text x="219.0" y="219.0" font-size="37" fill="#b07908" text-anchor="middle" font-weight="bold" dominant-baseline="middle">?</text></svg>