<svg xmlns="http://www.w3.org/2000/svg" viewBox="0 0 270 270" width="270" height="270" font-family="Verdana,Arial,sans-serif"><rect x="14" y="14" width="74" height="74" rx="10" fill="#f8f9fd" stroke="#c3cae0" stroke-width="1.5"/><polygon points="51.0,38.4 54.3,46.4 63.0,47.1 56.4,52.8 58.4,61.2 51.0,56.7 43.6,61.2 45.6,52.8 39.0,47.1 47.7,46.4" stroke="#2C363B" stroke-width="4" fill="none" stroke-linejoin="round"/><rect x="98" y="14" width="74" height="74" rx="10" fill="#f8f9fd" stroke="#c3cae0" stroke-width="1.5"/><polygon points="124.7,42.3 126.9,47.8 132.9,48.3 128.4,52.2 129.8,58.0 124.7,54.9 119.5,58.0 120.9,52.2 116.4,48.3 122.4,47.8" stroke="#2C363B" stroke-width="3" fill="none" stroke-linejoin="round"/><polygon points="145.3,42.3 147.6,47.8 153.6,48.3 149.1,52.2 150.5,58.0 145.3,54.9 140.2,58.0 141.6,52.2 137.1,48.3 143.1,47.8" stroke="#2C363B" stroke-width="3" fill="none" stroke-linejoin="round"/><rect x="182" y="14" width="74" height="74" rx="10" fill="#f8f9fd" stroke="#c3cae0" stroke-width="1.5"/><polygon points="208.7,32.0 210.9,37.5 216.9,38.0 212.4,41.9 213.8,47.7 208.7,44.6 203.5,47.7 204.9,41.9 200.4,38.0 206.4,37.5" stroke="#2C363B" stroke-width="3" fill="none" stroke-linejoin="round"/><polygon points="229.3,32.0 231.6,37.5 237.6,38.0 233.1,41.9 234.5,47.7 229.3,44.6 224.2,47.7 225.6,41.9 221.1,38.0 227.1,37.5" stroke="#2C363B" stroke-width="3" fill="none" stroke-linejoin="round"/><polygon points="208.7,52.7 210.9,58.2 216.9,58.7 212.4,62.6 213.8,68.4 208.7,65.3 203.5,68.4 204.9,62.6 200.4,58.7 206.4,58.2" stroke="#2C363B" stroke-width="3" fill="none" stroke-linejoin="round"/><rect x="14" y="98" width="74" height="74" rx="10" fill="#f8f9fd" stroke="#c3cae0" stroke-width="1.5"/><polygon points="51.0,116.6 55.9,128.3 68.5,129.3 58.9,137.6 61.8,149.9 51.0,143.3 40.2,149.9 43.1,137.6 33.5,129.3 46.1,128.3" stroke="#2C363B" stroke-width="4" fill="none" stroke-linejoin="round"/><rect x="98" y="98" width="74" height="74" rx="10" fill="#f8f9fd" stroke="#c3cae0" stroke-width="1.5"/><polygon points="124.7,126.3 126.9,131.8 132.9,132.3 128.4,136.2 129.8,142.0 124.7,138.9 119.5,142.0 120.9,136.2 116.4,132.3 122.4,131.8" stroke="#2C363B" stroke-width="3" fill="none" stroke-linejoin="round"/><polygon points="145.3,126.3 147.6,131.8 153.6,132.3 149.1,136.2 150.5,142.0 145.3,138.9 140.2,142.0 141.6,136.2 137.1,132.3 143.1,131.8" stroke="#2C363B" stroke-width="3" fill="none" stroke-linejoin="round"/><rect x="182" y="98" width="74" height="74" rx="10" fill="#f8f9fd" stroke="#c3cae0" stroke-width="1.5"/><polygon points="208.7,116.0 210.9,121.5 216.9,122.0 212.4,125.9 213.8,131.7 208.7,128.6 203.5,131.7 204.9,125.9 200.4,122.0 206.4,121.5" stroke="#2C363B" stroke-width="3" fill="none" stroke-linejoin="round"/><polygon points="229.3,116.0 231.6,121.5 237.6,122.0 233.1,125.9 234.5,131.7 229.3,128.6 224.2,131.7 225.6,125.9 221.1,122.0 227.1,121.5" stroke="#2C363B" stroke-width="3" fill="none" stroke-linejoin="round"/><polygon points="208.7,136.7 210.9,142.2 216.9,142.7 212.4,146.6 213.8,152.4 208.7,149.3 203.5,152.4 204.9,146.6 200.4,142.7 206.4,142.2" stroke="#2C363B" stroke-width="3" fill="none" stroke-linejoin="round"/><rect x="14" y="182" width="74" height="74" rx="10" fill="#f8f9fd" stroke="#c3cae0" stroke-width="1.5"/><polygon points="51.0,193.7 57.7,209.8 75.1,211.2 61.8,222.5 65.9,239.5 51.0,230.4 36.1,239.5 40.2,222.5 26.9,211.2 44.3,209.8" stroke="#2C363B" stroke-width="4" fill="none" stroke-linejoin="round"/><rect x="98" y="182" width="74" height="74" rx="10" fill="#f8f9fd" stroke="#c3cae0" stroke-width="1.5"/><polygon points="124.7,210.3 126.9,215.8 132.9,216.3 128.4,220.2 129.8,226.0 124.7,222.9 119.5,226.0 120.9,220.2 116.4,216.3 122.4,215.8" stroke="#2C363B" stroke-width="3" fill="none" stroke-linejoin="round"/><polygon points="145.3,210.3 147.6,215.8 153.6,216.3 149.1,220.2 150.5,226.0 145.3,222.9 140.2,226.0 141.6,220.2 137.1,216.3 143.1,215.8" stroke="#2C363B" stroke-width="3" fill="none" stroke-linejoin="round"/><rect x="185.0" y="185.0" width="68" height="68" rx="12" fill="#fff3bf" stroke="#f0b429" stroke-width="2"/><text x="219.0" y="219.0" font-size="37" fill="#b07908" text-anchor="middle" font-weight="bold" dominant-baseline="middle">?</text></svg>