<svg xmlns="http://www.w3.org/2000/svg" viewBox="0 0 270 270" width="270" height="270" font-family="Verdana,Arial,sans-serif"><rect x="14" y="14" width="74" height="74" rx="10" fill="#f8f9fd" stroke="#c3cae0" stroke-width="1.5"/><polygon points="51.0,38.4 63.0,47.1 58.4,61.2 43.6,61.2 39.0,47.1" stroke="#2C363B" stroke-width="4" fill="none" stroke-linejoin="round"/><rect x="98" y="14" width="74" height="74" rx="10" fill="#f8f9fd" stroke="#c3cae0" stroke-width="1.5"/><polygon points="135.0,32.6 152.5,45.3 145.8,65.9 124.2,65.9 117.5,45.3" stroke="#2C363B" stroke-width="4" fill="none" stroke-linejoin="round"/><rect x="182" y="14" width="74" height="74" rx="10" fill="#f8f9fd" stroke="#c3cae0" stroke-width="1.5"/><polygon points="219.0,25.7 243.1,43.2 233.9,71.5 204.1,71.5 194.9,43.2" stroke="#2C363B" stroke-width="4" fill="none" stroke-linejoin="round"/><rect x="14" y="98" width="74" height="74" rx="10" fill="#f8f9fd" stroke="#c3cae0" stroke-width="1.5"/><polygon points="40.6,126.3 48.9,132.3 45.8,142.0 35.5,142.0 32.4,132.3" stroke="#2C363B" stroke-width="3" fill="none" stroke-linejoin="round"/><polygon points="61.3,126.3 69.6,132.3 66.5,142.0 56.2,142.0 53.1,132.3" stroke="#2C363B" stroke-width="3" fill="none" stroke-linejoin="round"/><rect x="98" y="98" width="74" height="74" rx="10" fill="#f8f9fd" stroke="#c3cae0" stroke-width="1.5"/><polygon points="124.7,126.3 132.9,132.3 129.8,142.0 119.5,142.0 116.4,132.3" stroke="#2C363B" stroke-width="3" fill="none" stroke-linejoin="round"/><polygon points="145.3,126.3 153.6,132.3 150.5,142.0 140.2,142.0 137.1,132.3" stroke="#2C363B" stroke-width="3" fill="none" stroke-linejoin="round"/><rect x="182" y="98" width="74" height="74" rx="10" fill="#f8f9fd" stroke="#c3cae0" stroke-width="1.5"/><polygon points="208.7,126.3 216.9,132.3 213.8,142.0 203.5,142.0 200.4,132.3" stroke="#2C363B" stroke-width="3" fill="none" stroke-linejoin="round"/><polygon points="229.3,126.3 237.6,132.3 234.5,142.0 224.2,142.0 221.1,132.3" stroke="#2C363B" stroke-width="3" fill="none" stroke-linejoin="round"/><rect x="14" y="182" width="74" height="74" rx="10" fill="#f8f9fd" stroke="#c3cae0" stroke-width="1.5"/><polygon points="40.6,200.0 48.9,206.0 45.8,215.7 35.5,215.7 32.4,206.0" stroke="#2C363B" stroke-width="3" fill="none" stroke-linejoin="round"/><polygon points="61.3,200.0 69.6,206.0 66.5,215.7 56.2,215.7 53.1,206.0" stroke="#2C363B" stroke-width="3" fill="none" stroke-linejoin="round"/><polygon points="40.6,220.7 48.9,226.7 45.8,236.4 35.5,236.4 32.4,226.7" stroke="#2C363B" stroke-width="3" fill="none" stroke-linejoin="round"/><rect x="98" y="182" width="74" height="74" rx="10" fill="#f8f9fd" stroke="#c3cae0" stroke-width="1.5"/><polygon points="124.7,200.0 132.9,206.0 129.8,215.7 119.5,215.7 116.4,206.0" stroke="#2C363B" stroke-width="3" fill="none" stroke-linejoin="round"/><polygon points="145.3,200.0 153.6,206.0 150.5,215.7 140.2,215.7 137.1,206.0" stroke="#2C363B" stroke-width="3" fill="none" stroke-linejoin="round"/><polygon points="124.7,220.7 132.9,226.7 129.8,236.4 119.5,236.4 116.4,226.7" stroke="#2C363B" stroke-width="3" fill="none" stroke-linejoin="round"/><rect x="185.0" y="185.0" width="68" height="68" rx="12" fill="#fff3bf" stroke="#f0b429" stroke-width="2"/><text x="219.0" y="219.0" font-size="37" fill="#b07908" text-anchor="middle" font-weight="bold" dominant-baseline="middle">?</text></svg>