<svg xmlns="http://www.w3.org/2000/svg" viewBox="0 0 270 270" width="270" height="270" font-family="Verdana,Arial,sans-serif"><rect x="14" y="14" width="74" height="74" rx="10" fill="#f8f9fd" stroke="#c3cae0" stroke-width="1.5"/><polygon points="51.0,38.4 54.3,46.4 63.0,47.1 56.4,52.8 58.4,61.2 51.0,56.7 43.6,61.2 45.6,52.8 39.0,47.1 47.7,46.4" stroke="#2C363B" stroke-width="4" fill="none" stroke-linejoin="round"/><rect x="98" y="14" width="74" height="74" rx="10" fill="#f8f9fd" stroke="#c3cae0" stroke-width="1.5"/><polygon points="135.0,32.6 139.9,44.3 152.5,45.3 142.9,53.6 145.8,65.9 135.0,59.3 124.2,65.9 127.1,53.6 117.5,45.3 130.1,44.3" stroke="#2C363B" stroke-width="4" fill="none" stroke-linejoin="round"/><rect x="182" y="14" width="74" height="74" rx="10" fill="#f8f9fd" stroke="#c3cae0" stroke-width="1.5"/><polygon points="219.0,25.7 225.7,41.8 243.1,43.2 229.8,54.5 233.9,71.5 219.0,62.4 204.1,71.5 208.2,54.5 194.9,43.2 212.3,41.8" stroke="#2C363B" stroke-width="4" fill="none" stroke-linejoin="round"/><rect x="14" y="98" width="74" height="74" rx="10" fill="#f8f9fd" stroke="#c3cae0" stroke-width="1.5"/><polygon points="40.6,126.3 42.9,131.8 48.9,132.3 44.4,136.2 45.8,142.0 40.6,138.9 35.5,142.0 36.9,136.2 32.4,132.3 38.4,131.8" stroke="#2C363B" stroke-width="3" fill="none" stroke-linejoin="round"/><polygon points="61.3,126.3 63.6,131.8 69.6,132.3 65.1,136.2 66.5,142.0 61.3,138.9 56.2,142.0 57.6,136.2 53.1,132.3 59.1,131.8" stroke="#2C363B" stroke-width="3" fill="none" stroke-linejoin="round"/><rect x="98" y="98" width="74" height="74" rx="10" fill="#f8f9fd" stroke="#c3cae0" stroke-width="1.5"/><polygon points="124.7,126.3 126.9,131.8 132.9,132.3 128.4,136.2 129.8,142.0 124.7,138.9 119.5,142.0 120.9,136.2 116.4,132.3 122.4,131.8" stroke="#2C363B" stroke-width="3" fill="none" stroke-linejoin="round"/><polygon points="145.3,126.3 147.6,131.8 153.6,132.3 149.1,136.2 150.5,142.0 145.3,138.9 140.2,142.0 141.6,136.2 137.1,132.3 143.1,131.8" stroke="#2C363B" stroke-width="3" fill="none" stroke-linejoin="round"/><rect x="182" y="98" width="74" height="74" rx="10" fill="#f8f9fd" stroke="#c3cae0" stroke-width="1.5"/><polygon points="208.7,126.3 210.9,131.8 216.9,132.3 212.4,136.2 213.8,142.0 208.7,138.9 203.5,142.0 204.9,136.2 200.4,132.3 206.4,131.8" stroke="#2C363B" stroke-width="3" fill="none" stroke-linejoin="round"/><polygon points="229.3,126.3 231.6,131.8 237.6,132.3 233.1,136.2 234.5,142.0 229.3,138.9 224.2,142.0 225.6,136.2 221.1,132.3 227.1,131.8" stroke="#2C363B" stroke-width="3" fill="none" stroke-linejoin="round"/><rect x="14" y="182" width="74" height="74" rx="10" fill="#f8f9fd" stroke="#c3cae0" stroke-width="1.5"/><polygon points="40.6,200.0 42.9,205.5 48.9,206.0 44.4,209.9 45.8,215.7 40.6,212.6 35.5,215.7 36.9,209.9 32.4,206.0 38.4,205.5" stroke="#2C363B" stroke-width="3" fill="none" stroke-linejoin="round"/><polygon points="61.3,200.0 63.6,205.5 69.6,206.0 65.1,209.9 66.5,215.7 61.3,212.6 56.2,215.7 57.6,209.9 53.1,206.0 59.1,205.5" stroke="#2C363B" stroke-width="3" fill="none" stroke-linejoin="round"/><polygon points="40.6,220.7 42.9,226.2 48.9,226.7 44.4,230.6 45.8,236.4 40.6,233.3 35.5,236.4 36.9,230.6 32.4,226.7 38.4,226.2" stroke="#2C363B" stroke-width="3" fill="none" stroke-linejoin="round"/><rect x="98" y="182" width="74" height="74" rx="10" fill="#f8f9fd" stroke="#c3cae0" stroke-width="1.5"/><polygon points="124.7,200.0 126.9,205.5 132.9,206.0 128.4,209.9 129.8,215.7 124.7,212.6 119.5,215.7 120.9,209.9 116.4,206.0 122.4,205.5" stroke="#2C363B" stroke-width="3" fill="none" stroke-linejoin="round"/><polygon points="145.3,200.0 147.6,205.5 153.6,206.0 149.1,209.9 150.5,215.7 145.3,212.6 140.2,215.7 141.6,209.9 137.1,206.0 143.1,205.5" stroke="#2C363B" stroke-width="3" fill="none" stroke-linejoin="round"/><polygon points="124.7,220.7 126.9,226.2 132.9,226.7 128.4,230.6 129.8,236.4 124.7,233.3 119.5,236.4 120.9,230.6 116.4,226.7 122.4,226.2" stroke="#2C363B" stroke-width="3" fill="none" stroke-linejoin="round"/><rect x="185.0" y="185.0" width="68" height="68" rx="12" fill="#fff3bf" stroke="#f0b429" stroke-width="2"/><text x="219.0" y="219.0" font-size="37" fill="#b07908" text-anchor="middle" font-weight="bold" dominant-baseline="middle">?</text></svg>