<svg xmlns="http://www.w3.org/2000/svg" viewBox="0 0 160 120" width="160" height="120" font-family="Verdana,Arial,sans-serif"><polygon points="61.1,25.2 65.3,35.3 76.2,36.2 67.9,43.3 70.4,53.9 61.1,48.2 51.8,53.9 54.3,43.3 46.0,36.2 56.9,35.3" stroke="#2C363B" stroke-width="3" fill="none" stroke-linejoin="round"/><polygon points="98.9,25.2 103.1,35.3 114.0,36.2 105.7,43.3 108.2,53.9 98.9,48.2 89.6,53.9 92.1,43.3 83.8,36.2 94.7,35.3" stroke="#2C363B" stroke-width="3" fill="none" stroke-linejoin="round"/><polygon points="61.1,63.0 65.3,73.1 76.2,74.0 67.9,81.1 70.4,91.7 61.1,86.0 51.8,91.7 54.3,81.1 46.0,74.0 56.9,73.1" stroke="#2C363B" stroke-width="3" fill="none" stroke-linejoin="round"/></svg>