<svg xmlns="http://www.w3.org/2000/svg" viewBox="0 0 270 270" width="270" height="270" font-family="Verdana,Arial,sans-serif"><rect x="14" y="14" width="74" height="74" rx="10" fill="#f8f9fd" stroke="#c3cae0" stroke-width="1.5"/><polygon points="51.0,28.0 72.9,43.9 64.5,69.6 37.5,69.6 29.1,43.9" stroke="#2C363B" stroke-width="4" fill="none" stroke-linejoin="round"/><rect x="98" y="14" width="74" height="74" rx="10" fill="#f8f9fd" stroke="#c3cae0" stroke-width="1.5"/><polygon points="124.7,42.3 132.9,48.3 129.8,58.0 119.5,58.0 116.4,48.3" stroke="#2C363B" stroke-width="3" fill="none" stroke-linejoin="round"/><polygon points="145.3,42.3 153.6,48.3 150.5,58.0 140.2,58.0 137.1,48.3" stroke="#2C363B" stroke-width="3" fill="none" stroke-linejoin="round"/><rect x="182" y="14" width="74" height="74" rx="10" fill="#f8f9fd" stroke="#c3cae0" stroke-width="1.5"/><polygon points="208.7,32.0 216.9,38.0 213.8,47.7 203.5,47.7 200.4,38.0" stroke="#2C363B" stroke-width="3" fill="none" stroke-linejoin="round"/><polygon points="229.3,32.0 237.6,38.0 234.5,47.7 224.2,47.7 221.1,38.0" stroke="#2C363B" stroke-width="3" fill="none" stroke-linejoin="round"/><polygon points="208.7,52.7 216.9,58.7 213.8,68.4 203.5,68.4 200.4,58.7" stroke="#2C363B" stroke-width="3" fill="none" stroke-linejoin="round"/><rect x="14" y="98" width="74" height="74" rx="10" fill="#f8f9fd" stroke="#c3cae0" stroke-width="1.5"/><polygon points="51.0,112.0 70.9,123.5 70.9,146.5 51.0,158.0 31.1,146.5 31.1,123.5" stroke="#2C363B" stroke-width="4" fill="none" stroke-linejoin="round"/><rect x="98" y="98" width="74" height="74" rx="10" fill="#f8f9fd" stroke="#c3cae0" stroke-width="1.5"/><polygon points="124.7,126.3 132.2,130.7 132.2,139.3 124.7,143.7 117.1,139.3 117.1,130.7" stroke="#2C363B" stroke-width="3" fill="none" stroke-linejoin="round"/><polygon points="145.3,126.3 152.9,130.7 152.9,139.3 145.3,143.7 137.8,139.3 137.8,130.7" stroke="#2C363B" stroke-width="3" fill="none" stroke-linejoin="round"/><rect x="182" y="98" width="74" height="74" rx="10" fill="#f8f9fd" stroke="#c3cae0" stroke-width="1.5"/><polygon points="208.7,116.0 216.2,120.3 216.2,129.0 208.7,133.3 201.1,129.0 201.1,120.3" stroke="#2C363B" stroke-width="3" fill="none" stroke-linejoin="round"/><polygon points="229.3,116.0 236.9,120.3 236.9,129.0 229.3,133.3 221.8,129.0 221.8,120.3" stroke="#2C363B" stroke-width="3" fill="none" stroke-linejoin="round"/><polygon points="208.7,136.7 216.2,141.0 216.2,149.7 208.7,154.0 201.1,149.7 201.1,141.0" stroke="#2C363B" stroke-width="3" fill="none" stroke-linejoin="round"/><rect x="14" y="182" width="74" height="74" rx="10" fill="#f8f9fd" stroke="#c3cae0" stroke-width="1.5"/><polygon points="67.3,202.7 67.3,235.3 34.7,235.3 34.7,202.7" stroke="#2C363B" stroke-width="4" fill="none" stroke-linejoin="round"/><rect x="98" y="182" width="74" height="74" rx="10" fill="#f8f9fd" stroke="#c3cae0" stroke-width="1.5"/><polygon points="130.8,212.9 130.8,225.1 118.5,225.1 118.5,212.9" stroke="#2C363B" stroke-width="3" fill="none" stroke-linejoin="round"/><polygon points="151.5,212.9 151.5,225.1 139.2,225.1 139.2,212.9" stroke="#2C363B" stroke-width="3" fill="none" stroke-linejoin="round"/><rect x="185.0" y="185.0" width="68" height="68" rx="12" fill="#fff3bf" stroke="#f0b429" stroke-width="2"/><text x="219.0" y="219.0" font-size="37" fill="#b07908" text-anchor="middle" font-weight="bold" dominant-baseline="middle">?</text></svg>