<svg xmlns="http://www.w3.org/2000/svg" viewBox="0 0 360 120" width="360" height="120" font-family="Verdana,Arial,sans-serif"><polygon points="55.0,26.4 63.9,47.8 87.0,49.6 69.4,64.7 74.7,87.2 55.0,75.1 35.3,87.2 40.6,64.7 23.0,49.6 46.1,47.8" stroke="#2C363B" stroke-width="4" fill="none" stroke-linejoin="round"/><polygon points="140.0,32.0 147.4,49.8 166.6,51.3 152.0,63.9 156.5,82.7 140.0,72.6 123.5,82.7 128.0,63.9 113.4,51.3 132.6,49.8" stroke="#2C363B" stroke-width="4" fill="none" stroke-linejoin="round"/><polygon points="225.0,37.6 230.9,51.8 246.3,53.1 234.6,63.1 238.2,78.1 225.0,70.1 211.8,78.1 215.4,63.1 203.7,53.1 219.1,51.8" stroke="#2C363B" stroke-width="4" fill="none" stroke-linejoin="round"/><rect x="285" y="30" width="60" height="60" rx="12" fill="#fff3bf" stroke="#f0b429" stroke-width="2"/><text x="315" y="60" font-size="33" fill="#b07908" text-anchor="middle" font-weight="bold" dominant-baseline="middle">?</text></svg>