<svg xmlns="http://www.w3.org/2000/svg" viewBox="0 0 160 120" width="160" height="120" font-family="Verdana,Arial,sans-serif"><polygon points="54.8,24.2 64.0,29.5 64.0,40.1 54.8,45.4 45.6,40.1 45.6,29.5" stroke="#2C363B" stroke-width="3" fill="none" stroke-linejoin="round"/><polygon points="80.0,24.2 89.2,29.5 89.2,40.1 80.0,45.4 70.8,40.1 70.8,29.5" stroke="#2C363B" stroke-width="3" fill="none" stroke-linejoin="round"/><polygon points="105.2,24.2 114.4,29.5 114.4,40.1 105.2,45.4 96.0,40.1 96.0,29.5" stroke="#2C363B" stroke-width="3" fill="none" stroke-linejoin="round"/><polygon points="54.8,49.4 64.0,54.7 64.0,65.3 54.8,70.6 45.6,65.3 45.6,54.7" stroke="#2C363B" stroke-width="3" fill="none" stroke-linejoin="round"/><polygon points="80.0,49.4 89.2,54.7 89.2,65.3 80.0,70.6 70.8,65.3 70.8,54.7" stroke="#2C363B" stroke-width="3" fill="none" stroke-linejoin="round"/><polygon points="105.2,49.4 114.4,54.7 114.4,65.3 105.2,70.6 96.0,65.3 96.0,54.7" stroke="#2C363B" stroke-width="3" fill="none" stroke-linejoin="round"/><polygon points="54.8,74.6 64.0,79.9 64.0,90.5 54.8,95.8 45.6,90.5 45.6,79.9" stroke="#2C363B" stroke-width="3" fill="none" stroke-linejoin="round"/></svg>