<svg xmlns="http://www.w3.org/2000/svg" viewBox="0 0 360 120" width="360" height="120" font-family="Verdana,Arial,sans-serif"><polygon points="42.4,36.8 51.6,42.1 51.6,52.7 42.4,58.0 33.2,52.7 33.2,42.1" stroke="#2C363B" stroke-width="3" fill="none" stroke-linejoin="round"/><polygon points="67.6,36.8 76.8,42.1 76.8,52.7 67.6,58.0 58.4,52.7 58.4,42.1" stroke="#2C363B" stroke-width="3" fill="none" stroke-linejoin="round"/><polygon points="42.4,62.0 51.6,67.3 51.6,77.9 42.4,83.2 33.2,77.9 33.2,67.3" stroke="#2C363B" stroke-width="3" fill="none" stroke-linejoin="round"/><polygon points="127.4,36.8 136.6,42.1 136.6,52.7 127.4,58.0 118.2,52.7 118.2,42.1" stroke="#2C363B" stroke-width="3" fill="none" stroke-linejoin="round"/><polygon points="152.6,36.8 161.8,42.1 161.8,52.7 152.6,58.0 143.4,52.7 143.4,42.1" stroke="#2C363B" stroke-width="3" fill="none" stroke-linejoin="round"/><polygon points="127.4,62.0 136.6,67.3 136.6,77.9 127.4,83.2 118.2,77.9 118.2,67.3" stroke="#2C363B" stroke-width="3" fill="none" stroke-linejoin="round"/><polygon points="152.6,62.0 161.8,67.3 161.8,77.9 152.6,83.2 143.4,77.9 143.4,67.3" stroke="#2C363B" stroke-width="3" fill="none" stroke-linejoin="round"/><polygon points="208.2,44.5 214.3,48.1 214.3,55.1 208.2,58.7 202.1,55.1 202.1,48.1" stroke="#2C363B" stroke-width="3" fill="none" stroke-linejoin="round"/><polygon points="225.0,44.5 231.1,48.1 231.1,55.1 225.0,58.7 218.9,55.1 218.9,48.1" stroke="#2C363B" stroke-width="3" fill="none" stroke-linejoin="round"/><polygon points="241.8,44.5 247.9,48.1 247.9,55.1 241.8,58.7 235.7,55.1 235.7,48.1" stroke="#2C363B" stroke-width="3" fill="none" stroke-linejoin="round"/><polygon points="208.2,61.3 214.3,64.9 214.3,71.9 208.2,75.5 202.1,71.9 202.1,64.9" stroke="#2C363B" stroke-width="3" fill="none" stroke-linejoin="round"/><polygon points="225.0,61.3 231.1,64.9 231.1,71.9 225.0,75.5 218.9,71.9 218.9,64.9" stroke="#2C363B" stroke-width="3" fill="none" stroke-linejoin="round"/><rect x="285" y="30" width="60" height="60" rx="12" fill="#fff3bf" stroke="#f0b429" stroke-width="2"/><text x="315" y="60" font-size="33" fill="#b07908" text-anchor="middle" font-weight="bold" dominant-baseline="middle">?</text></svg>