<svg xmlns="http://www.w3.org/2000/svg" viewBox="0 0 160 120" width="160" height="120" font-family="Verdana,Arial,sans-serif"><polygon points="54.8,36.8 64.0,42.1 64.0,52.7 54.8,58.0 45.6,52.7 45.6,42.1" stroke="#2C363B" stroke-width="3" fill="none" stroke-linejoin="round"/><polygon points="80.0,36.8 89.2,42.1 89.2,52.7 80.0,58.0 70.8,52.7 70.8,42.1" stroke="#2C363B" stroke-width="3" fill="none" stroke-linejoin="round"/><polygon points="105.2,36.8 114.4,42.1 114.4,52.7 105.2,58.0 96.0,52.7 96.0,42.1" stroke="#2C363B" stroke-width="3" fill="none" stroke-linejoin="round"/><polygon points="54.8,62.0 64.0,67.3 64.0,77.9 54.8,83.2 45.6,77.9 45.6,67.3" stroke="#2C363B" stroke-width="3" fill="none" stroke-linejoin="round"/><polygon points="80.0,62.0 89.2,67.3 89.2,77.9 80.0,83.2 70.8,77.9 70.8,67.3" stroke="#2C363B" stroke-width="3" fill="none" stroke-linejoin="round"/><polygon points="105.2,62.0 114.4,67.3 114.4,77.9 105.2,83.2 96.0,77.9 96.0,67.3" stroke="#2C363B" stroke-width="3" fill="none" stroke-linejoin="round"/></svg>