<svg xmlns="http://www.w3.org/2000/svg" viewBox="0 0 360 120" width="360" height="120" font-family="Verdana,Arial,sans-serif"><polygon points="42.4,49.4 51.6,65.3 33.2,65.3" stroke="#3b5bdb" stroke-width="3" fill="none" stroke-linejoin="round"/><polygon points="67.6,49.4 76.8,65.3 58.4,65.3" stroke="#3b5bdb" stroke-width="3" fill="none" stroke-linejoin="round"/><polygon points="127.4,36.8 136.6,52.7 118.2,52.7" stroke="#3b5bdb" stroke-width="3" fill="none" stroke-linejoin="round"/><polygon points="152.6,36.8 161.8,52.7 143.4,52.7" stroke="#3b5bdb" stroke-width="3" fill="none" stroke-linejoin="round"/><polygon points="127.4,62.0 136.6,77.9 118.2,77.9" stroke="#3b5bdb" stroke-width="3" fill="none" stroke-linejoin="round"/><polygon points="212.4,36.8 221.6,52.7 203.2,52.7" stroke="#3b5bdb" stroke-width="3" fill="none" stroke-linejoin="round"/><polygon points="237.6,36.8 246.8,52.7 228.4,52.7" stroke="#3b5bdb" stroke-width="3" fill="none" stroke-linejoin="round"/><polygon points="212.4,62.0 221.6,77.9 203.2,77.9" stroke="#3b5bdb" stroke-width="3" fill="none" stroke-linejoin="round"/><polygon points="237.6,62.0 246.8,77.9 228.4,77.9" stroke="#3b5bdb" stroke-width="3" fill="none" stroke-linejoin="round"/><rect x="285" y="30" width="60" height="60" rx="12" fill="#fff3bf" stroke="#f0b429" stroke-width="2"/><text x="315" y="60" font-size="33" fill="#b07908" text-anchor="middle" font-weight="bold" dominant-baseline="middle">?</text></svg>