<svg xmlns="http://www.w3.org/2000/svg" viewBox="0 0 270 270" width="270" height="270" font-family="Verdana,Arial,sans-serif"><rect x="14" y="14" width="74" height="74" rx="10" fill="#f8f9fd" stroke="#c3cae0" stroke-width="1.5"/><polygon points="51.0,28.0 72.9,43.9 64.5,69.6 37.5,69.6 29.1,43.9" stroke="#2C363B" stroke-width="4" fill="none" stroke-linejoin="round"/><rect x="98" y="14" width="74" height="74" rx="10" fill="#f8f9fd" stroke="#c3cae0" stroke-width="1.5"/><polygon points="135.0,28.0 154.9,62.5 115.1,62.5" stroke="#2C363B" stroke-width="4" fill="none" stroke-linejoin="round"/><rect x="182" y="14" width="74" height="74" rx="10" fill="#f8f9fd" stroke="#c3cae0" stroke-width="1.5"/><polygon points="235.3,34.7 235.3,67.3 202.7,67.3 202.7,34.7" stroke="#2C363B" stroke-width="4" fill="none" stroke-linejoin="round"/><rect x="14" y="98" width="74" height="74" rx="10" fill="#f8f9fd" stroke="#c3cae0" stroke-width="1.5"/><polygon points="40.6,126.3 48.9,132.3 45.8,142.0 35.5,142.0 32.4,132.3" stroke="#2C363B" stroke-width="3" fill="none" stroke-linejoin="round"/><polygon points="61.3,126.3 69.6,132.3 66.5,142.0 56.2,142.0 53.1,132.3" stroke="#2C363B" stroke-width="3" fill="none" stroke-linejoin="round"/><rect x="98" y="98" width="74" height="74" rx="10" fill="#f8f9fd" stroke="#c3cae0" stroke-width="1.5"/><polygon points="124.7,126.3 132.2,139.3 117.1,139.3" stroke="#2C363B" stroke-width="3" fill="none" stroke-linejoin="round"/><polygon points="145.3,126.3 152.9,139.3 137.8,139.3" stroke="#2C363B" stroke-width="3" fill="none" stroke-linejoin="round"/><rect x="182" y="98" width="74" height="74" rx="10" fill="#f8f9fd" stroke="#c3cae0" stroke-width="1.5"/><polygon points="214.8,128.9 214.8,141.1 202.5,141.1 202.5,128.9" stroke="#2C363B" stroke-width="3" fill="none" stroke-linejoin="round"/><polygon points="235.5,128.9 235.5,141.1 223.2,141.1 223.2,128.9" stroke="#2C363B" stroke-width="3" fill="none" stroke-linejoin="round"/><rect x="14" y="182" width="74" height="74" rx="10" fill="#f8f9fd" stroke="#c3cae0" stroke-width="1.5"/><polygon points="40.6,200.0 48.9,206.0 45.8,215.7 35.5,215.7 32.4,206.0" stroke="#2C363B" stroke-width="3" fill="none" stroke-linejoin="round"/><polygon points="61.3,200.0 69.6,206.0 66.5,215.7 56.2,215.7 53.1,206.0" stroke="#2C363B" stroke-width="3" fill="none" stroke-linejoin="round"/><polygon points="40.6,220.7 48.9,226.7 45.8,236.4 35.5,236.4 32.4,226.7" stroke="#2C363B" stroke-width="3" fill="none" stroke-linejoin="round"/><rect x="98" y="182" width="74" height="74" rx="10" fill="#f8f9fd" stroke="#c3cae0" stroke-width="1.5"/><polygon points="124.7,200.0 132.2,213.0 117.1,213.0" stroke="#2C363B" stroke-width="3" fill="none" stroke-linejoin="round"/><polygon points="145.3,200.0 152.9,213.0 137.8,213.0" stroke="#2C363B" stroke-width="3" fill="none" stroke-linejoin="round"/><polygon points="124.7,220.7 132.2,233.7 117.1,233.7" stroke="#2C363B" stroke-width="3" fill="none" stroke-linejoin="round"/><rect x="185.0" y="185.0" width="68" height="68" rx="12" fill="#fff3bf" stroke="#f0b429" stroke-width="2"/><text x="219.0" y="219.0" font-size="37" fill="#b07908" text-anchor="middle" font-weight="bold" dominant-baseline="middle">?</text></svg>