<svg xmlns="http://www.w3.org/2000/svg" viewBox="0 0 360 120" width="360" height="120" font-family="Verdana,Arial,sans-serif"><g transform="rotate(0 42.4 60.0)"><rect x="31.816" y="49.416" width="21.168" height="21.168" rx="3" stroke="#2C363B" stroke-width="3" fill="none"/></g><g transform="rotate(0 67.6 60.0)"><rect x="57.01599999999999" y="49.416" width="21.168" height="21.168" rx="3" stroke="#2C363B" stroke-width="3" fill="none"/></g><g transform="rotate(0 127.4 47.4)"><rect x="116.816" y="36.816" width="21.168" height="21.168" rx="3" stroke="#2C363B" stroke-width="3" fill="none"/></g><g transform="rotate(0 152.6 47.4)"><rect x="142.016" y="36.816" width="21.168" height="21.168" rx="3" stroke="#2C363B" stroke-width="3" fill="none"/></g><g transform="rotate(0 127.4 72.6)"><rect x="116.816" y="62.01599999999999" width="21.168" height="21.168" rx="3" stroke="#2C363B" stroke-width="3" fill="none"/></g><g transform="rotate(0 212.4 47.4)"><rect x="201.816" y="36.816" width="21.168" height="21.168" rx="3" stroke="#2C363B" stroke-width="3" fill="none"/></g><g transform="rotate(0 237.6 47.4)"><rect x="227.016" y="36.816" width="21.168" height="21.168" rx="3" stroke="#2C363B" stroke-width="3" fill="none"/></g><g transform="rotate(0 212.4 72.6)"><rect x="201.816" y="62.01599999999999" width="21.168" height="21.168" rx="3" stroke="#2C363B" stroke-width="3" fill="none"/></g><g transform="rotate(0 237.6 72.6)"><rect x="227.016" y="62.01599999999999" width="21.168" height="21.168" rx="3" stroke="#2C363B" stroke-width="3" fill="none"/></g><rect x="285" y="30" width="60" height="60" rx="12" fill="#fff3bf" stroke="#f0b429" stroke-width="2"/><text x="315" y="60" font-size="33" fill="#b07908" text-anchor="middle" font-weight="bold" dominant-baseline="middle">?</text></svg>