<svg xmlns="http://www.w3.org/2000/svg" viewBox="0 0 270 270" width="270" height="270" font-family="Verdana,Arial,sans-serif"><rect x="14" y="14" width="74" height="74" rx="10" fill="#f8f9fd" stroke="#c3cae0" stroke-width="1.5"/><polygon points="51.0,38.4 54.3,46.4 63.0,47.1 56.4,52.8 58.4,61.2 51.0,56.7 43.6,61.2 45.6,52.8 39.0,47.1 47.7,46.4" stroke="#2C363B" stroke-width="4" fill="none" stroke-linejoin="round"/><rect x="98" y="14" width="74" height="74" rx="10" fill="#f8f9fd" stroke="#c3cae0" stroke-width="1.5"/><polygon points="135.0,32.6 139.9,44.3 152.5,45.3 142.9,53.6 145.8,65.9 135.0,59.3 124.2,65.9 127.1,53.6 117.5,45.3 130.1,44.3" stroke="#2C363B" stroke-width="4" fill="none" stroke-linejoin="round"/><rect x="182" y="14" width="74" height="74" rx="10" fill="#f8f9fd" stroke="#c3cae0" stroke-width="1.5"/><polygon points="219.0,25.7 225.7,41.8 243.1,43.2 229.8,54.5 233.9,71.5 219.0,62.4 204.1,71.5 208.2,54.5 194.9,43.2 212.3,41.8" stroke="#2C363B" stroke-width="4" fill="none" stroke-linejoin="round"/><rect x="14" y="98" width="74" height="74" rx="10" fill="#f8f9fd" stroke="#c3cae0" stroke-width="1.5"/><circle cx="51.0" cy="135.0" r="12.65" stroke="#2C363B" stroke-width="4" fill="none"/><rect x="98" y="98" width="74" height="74" rx="10" fill="#f8f9fd" stroke="#c3cae0" stroke-width="1.5"/><circle cx="135.0" cy="135.0" r="18.400000000000002" stroke="#2C363B" stroke-width="4" fill="none"/><rect x="182" y="98" width="74" height="74" rx="10" fill="#f8f9fd" stroke="#c3cae0" stroke-width="1.5"/><circle cx="219.0" cy="135.0" r="25.3" stroke="#2C363B" stroke-width="4" fill="none"/><rect x="14" y="182" width="74" height="74" rx="10" fill="#f8f9fd" stroke="#c3cae0" stroke-width="1.5"/><polygon points="51.0,206.3 62.0,212.7 62.0,225.3 51.0,231.7 40.0,225.3 40.0,212.7" stroke="#2C363B" stroke-width="4" fill="none" stroke-linejoin="round"/><rect x="98" y="182" width="74" height="74" rx="10" fill="#f8f9fd" stroke="#c3cae0" stroke-width="1.5"/><polygon points="135.0,200.6 150.9,209.8 150.9,228.2 135.0,237.4 119.1,228.2 119.1,209.8" stroke="#2C363B" stroke-width="4" fill="none" stroke-linejoin="round"/><rect x="185.0" y="185.0" width="68" height="68" rx="12" fill="#fff3bf" stroke="#f0b429" stroke-width="2"/><text x="219.0" y="219.0" font-size="37" fill="#b07908" text-anchor="middle" font-weight="bold" dominant-baseline="middle">?</text></svg>