<svg xmlns="http://www.w3.org/2000/svg" viewBox="0 0 360 120" width="360" height="120" font-family="Verdana,Arial,sans-serif"><polygon points="42.4,49.4 45.2,56.1 52.5,56.7 46.9,61.5 48.6,68.6 42.4,64.8 36.2,68.6 37.9,61.5 32.3,56.7 39.6,56.1" stroke="#2C363B" stroke-width="3" fill="none" stroke-linejoin="round"/><polygon points="67.6,49.4 70.4,56.1 77.7,56.7 72.1,61.5 73.8,68.6 67.6,64.8 61.4,68.6 63.1,61.5 57.5,56.7 64.8,56.1" stroke="#2C363B" stroke-width="3" fill="none" stroke-linejoin="round"/><polygon points="127.4,36.8 130.2,43.5 137.5,44.1 131.9,48.9 133.6,56.0 127.4,52.2 121.2,56.0 122.9,48.9 117.3,44.1 124.6,43.5" stroke="#2C363B" stroke-width="3" fill="none" stroke-linejoin="round"/><polygon points="152.6,36.8 155.4,43.5 162.7,44.1 157.1,48.9 158.8,56.0 152.6,52.2 146.4,56.0 148.1,48.9 142.5,44.1 149.8,43.5" stroke="#2C363B" stroke-width="3" fill="none" stroke-linejoin="round"/><polygon points="127.4,62.0 130.2,68.7 137.5,69.3 131.9,74.1 133.6,81.2 127.4,77.4 121.2,81.2 122.9,74.1 117.3,69.3 124.6,68.7" stroke="#2C363B" stroke-width="3" fill="none" stroke-linejoin="round"/><polygon points="212.4,36.8 215.2,43.5 222.5,44.1 216.9,48.9 218.6,56.0 212.4,52.2 206.2,56.0 207.9,48.9 202.3,44.1 209.6,43.5" stroke="#2C363B" stroke-width="3" fill="none" stroke-linejoin="round"/><polygon points="237.6,36.8 240.4,43.5 247.7,44.1 242.1,48.9 243.8,56.0 237.6,52.2 231.4,56.0 233.1,48.9 227.5,44.1 234.8,43.5" stroke="#2C363B" stroke-width="3" fill="none" stroke-linejoin="round"/><polygon points="212.4,62.0 215.2,68.7 222.5,69.3 216.9,74.1 218.6,81.2 212.4,77.4 206.2,81.2 207.9,74.1 202.3,69.3 209.6,68.7" stroke="#2C363B" stroke-width="3" fill="none" stroke-linejoin="round"/><polygon points="237.6,62.0 240.4,68.7 247.7,69.3 242.1,74.1 243.8,81.2 237.6,77.4 231.4,81.2 233.1,74.1 227.5,69.3 234.8,68.7" stroke="#2C363B" stroke-width="3" fill="none" stroke-linejoin="round"/><rect x="285" y="30" width="60" height="60" rx="12" fill="#fff3bf" stroke="#f0b429" stroke-width="2"/><text x="315" y="60" font-size="33" fill="#b07908" text-anchor="middle" font-weight="bold" dominant-baseline="middle">?</text></svg>