<svg xmlns="http://www.w3.org/2000/svg" viewBox="0 0 270 270" width="270" height="270" font-family="Verdana,Arial,sans-serif"><rect x="14" y="14" width="74" height="74" rx="10" fill="#f8f9fd" stroke="#c3cae0" stroke-width="1.5"/><polygon points="67.3,34.7 67.3,67.3 34.7,67.3 34.7,34.7" stroke="#2C363B" stroke-width="4" fill="none" stroke-linejoin="round"/><rect x="98" y="14" width="74" height="74" rx="10" fill="#f8f9fd" stroke="#c3cae0" stroke-width="1.5"/><polygon points="130.8,44.9 130.8,57.1 118.5,57.1 118.5,44.9" stroke="#2C363B" stroke-width="3" fill="none" stroke-linejoin="round"/><polygon points="151.5,44.9 151.5,57.1 139.2,57.1 139.2,44.9" stroke="#2C363B" stroke-width="3" fill="none" stroke-linejoin="round"/><rect x="182" y="14" width="74" height="74" rx="10" fill="#f8f9fd" stroke="#c3cae0" stroke-width="1.5"/><polygon points="214.8,34.5 214.8,46.8 202.5,46.8 202.5,34.5" stroke="#2C363B" stroke-width="3" fill="none" stroke-linejoin="round"/><polygon points="235.5,34.5 235.5,46.8 223.2,46.8 223.2,34.5" stroke="#2C363B" stroke-width="3" fill="none" stroke-linejoin="round"/><polygon points="214.8,55.2 214.8,67.5 202.5,67.5 202.5,55.2" stroke="#2C363B" stroke-width="3" fill="none" stroke-linejoin="round"/><rect x="14" y="98" width="74" height="74" rx="10" fill="#f8f9fd" stroke="#c3cae0" stroke-width="1.5"/><polygon points="51.0,112.0 72.9,127.9 64.5,153.6 37.5,153.6 29.1,127.9" stroke="#2C363B" stroke-width="4" fill="none" stroke-linejoin="round"/><rect x="98" y="98" width="74" height="74" rx="10" fill="#f8f9fd" stroke="#c3cae0" stroke-width="1.5"/><polygon points="124.7,126.3 132.9,132.3 129.8,142.0 119.5,142.0 116.4,132.3" stroke="#2C363B" stroke-width="3" fill="none" stroke-linejoin="round"/><polygon points="145.3,126.3 153.6,132.3 150.5,142.0 140.2,142.0 137.1,132.3" stroke="#2C363B" stroke-width="3" fill="none" stroke-linejoin="round"/><rect x="182" y="98" width="74" height="74" rx="10" fill="#f8f9fd" stroke="#c3cae0" stroke-width="1.5"/><polygon points="208.7,116.0 216.9,122.0 213.8,131.7 203.5,131.7 200.4,122.0" stroke="#2C363B" stroke-width="3" fill="none" stroke-linejoin="round"/><polygon points="229.3,116.0 237.6,122.0 234.5,131.7 224.2,131.7 221.1,122.0" stroke="#2C363B" stroke-width="3" fill="none" stroke-linejoin="round"/><polygon points="208.7,136.7 216.9,142.7 213.8,152.4 203.5,152.4 200.4,142.7" stroke="#2C363B" stroke-width="3" fill="none" stroke-linejoin="round"/><rect x="14" y="182" width="74" height="74" rx="10" fill="#f8f9fd" stroke="#c3cae0" stroke-width="1.5"/><polygon points="51.0,196.0 70.9,207.5 70.9,230.5 51.0,242.0 31.1,230.5 31.1,207.5" stroke="#2C363B" stroke-width="4" fill="none" stroke-linejoin="round"/><rect x="98" y="182" width="74" height="74" rx="10" fill="#f8f9fd" stroke="#c3cae0" stroke-width="1.5"/><polygon points="124.7,210.3 132.2,214.7 132.2,223.3 124.7,227.7 117.1,223.3 117.1,214.7" stroke="#2C363B" stroke-width="3" fill="none" stroke-linejoin="round"/><polygon points="145.3,210.3 152.9,214.7 152.9,223.3 145.3,227.7 137.8,223.3 137.8,214.7" stroke="#2C363B" stroke-width="3" fill="none" stroke-linejoin="round"/><rect x="185.0" y="185.0" width="68" height="68" rx="12" fill="#fff3bf" stroke="#f0b429" stroke-width="2"/><text x="219.0" y="219.0" font-size="37" fill="#b07908" text-anchor="middle" font-weight="bold" dominant-baseline="middle">?</text></svg>