<svg xmlns="http://www.w3.org/2000/svg" viewBox="0 0 270 270" width="270" height="270" font-family="Verdana,Arial,sans-serif"><rect x="14" y="14" width="74" height="74" rx="10" fill="#f8f9fd" stroke="#c3cae0" stroke-width="1.5"/><polygon points="51.0,38.4 62.0,44.7 62.0,57.3 51.0,63.6 40.0,57.3 40.0,44.7" stroke="#2C363B" stroke-width="4" fill="none" stroke-linejoin="round"/><rect x="98" y="14" width="74" height="74" rx="10" fill="#f8f9fd" stroke="#c3cae0" stroke-width="1.5"/><polygon points="124.7,42.3 132.2,46.7 132.2,55.3 124.7,59.7 117.1,55.3 117.1,46.7" stroke="#2C363B" stroke-width="3" fill="none" stroke-linejoin="round"/><polygon points="145.3,42.3 152.9,46.7 152.9,55.3 145.3,59.7 137.8,55.3 137.8,46.7" stroke="#2C363B" stroke-width="3" fill="none" stroke-linejoin="round"/><rect x="182" y="14" width="74" height="74" rx="10" fill="#f8f9fd" stroke="#c3cae0" stroke-width="1.5"/><polygon points="208.7,32.0 216.2,36.3 216.2,45.0 208.7,49.3 201.1,45.0 201.1,36.3" stroke="#2C363B" stroke-width="3" fill="none" stroke-linejoin="round"/><polygon points="229.3,32.0 236.9,36.3 236.9,45.0 229.3,49.3 221.8,45.0 221.8,36.3" stroke="#2C363B" stroke-width="3" fill="none" stroke-linejoin="round"/><polygon points="208.7,52.7 216.2,57.0 216.2,65.7 208.7,70.0 201.1,65.7 201.1,57.0" stroke="#2C363B" stroke-width="3" fill="none" stroke-linejoin="round"/><rect x="14" y="98" width="74" height="74" rx="10" fill="#f8f9fd" stroke="#c3cae0" stroke-width="1.5"/><polygon points="51.0,116.6 66.9,125.8 66.9,144.2 51.0,153.4 35.1,144.2 35.1,125.8" stroke="#2C363B" stroke-width="4" fill="none" stroke-linejoin="round"/><rect x="98" y="98" width="74" height="74" rx="10" fill="#f8f9fd" stroke="#c3cae0" stroke-width="1.5"/><polygon points="124.7,126.3 132.2,130.7 132.2,139.3 124.7,143.7 117.1,139.3 117.1,130.7" stroke="#2C363B" stroke-width="3" fill="none" stroke-linejoin="round"/><polygon points="145.3,126.3 152.9,130.7 152.9,139.3 145.3,143.7 137.8,139.3 137.8,130.7" stroke="#2C363B" stroke-width="3" fill="none" stroke-linejoin="round"/><rect x="182" y="98" width="74" height="74" rx="10" fill="#f8f9fd" stroke="#c3cae0" stroke-width="1.5"/><polygon points="208.7,116.0 216.2,120.3 216.2,129.0 208.7,133.3 201.1,129.0 201.1,120.3" stroke="#2C363B" stroke-width="3" fill="none" stroke-linejoin="round"/><polygon points="229.3,116.0 236.9,120.3 236.9,129.0 229.3,133.3 221.8,129.0 221.8,120.3" stroke="#2C363B" stroke-width="3" fill="none" stroke-linejoin="round"/><polygon points="208.7,136.7 216.2,141.0 216.2,149.7 208.7,154.0 201.1,149.7 201.1,141.0" stroke="#2C363B" stroke-width="3" fill="none" stroke-linejoin="round"/><rect x="14" y="182" width="74" height="74" rx="10" fill="#f8f9fd" stroke="#c3cae0" stroke-width="1.5"/><polygon points="51.0,193.7 72.9,206.3 72.9,231.7 51.0,244.3 29.1,231.7 29.1,206.3" stroke="#2C363B" stroke-width="4" fill="none" stroke-linejoin="round"/><rect x="98" y="182" width="74" height="74" rx="10" fill="#f8f9fd" stroke="#c3cae0" stroke-width="1.5"/><polygon points="124.7,210.3 132.2,214.7 132.2,223.3 124.7,227.7 117.1,223.3 117.1,214.7" stroke="#2C363B" stroke-width="3" fill="none" stroke-linejoin="round"/><polygon points="145.3,210.3 152.9,214.7 152.9,223.3 145.3,227.7 137.8,223.3 137.8,214.7" stroke="#2C363B" stroke-width="3" fill="none" stroke-linejoin="round"/><rect x="185.0" y="185.0" width="68" height="68" rx="12" fill="#fff3bf" stroke="#f0b429" stroke-width="2"/><text x="219.0" y="219.0" font-size="37" fill="#b07908" text-anchor="middle" font-weight="bold" dominant-baseline="middle">?</text></svg>