<svg xmlns="http://www.w3.org/2000/svg" viewBox="0 0 360 120" width="360" height="120" font-family="Verdana,Arial,sans-serif"><polygon points="55.0,32.0 62.4,49.8 81.6,51.3 67.0,63.9 71.5,82.7 55.0,72.6 38.5,82.7 43.0,63.9 28.4,51.3 47.6,49.8" stroke="#3b5bdb" stroke-width="4" fill="none" stroke-linejoin="round"/><polygon points="127.4,49.4 130.2,56.1 137.5,56.7 131.9,61.5 133.6,68.6 127.4,64.8 121.2,68.6 122.9,61.5 117.3,56.7 124.6,56.1" stroke="#3b5bdb" stroke-width="3" fill="none" stroke-linejoin="round"/><polygon points="152.6,49.4 155.4,56.1 162.7,56.7 157.1,61.5 158.8,68.6 152.6,64.8 146.4,68.6 148.1,61.5 142.5,56.7 149.8,56.1" stroke="#3b5bdb" stroke-width="3" fill="none" stroke-linejoin="round"/><polygon points="212.4,36.8 215.2,43.5 222.5,44.1 216.9,48.9 218.6,56.0 212.4,52.2 206.2,56.0 207.9,48.9 202.3,44.1 209.6,43.5" stroke="#3b5bdb" stroke-width="3" fill="none" stroke-linejoin="round"/><polygon points="237.6,36.8 240.4,43.5 247.7,44.1 242.1,48.9 243.8,56.0 237.6,52.2 231.4,56.0 233.1,48.9 227.5,44.1 234.8,43.5" stroke="#3b5bdb" stroke-width="3" fill="none" stroke-linejoin="round"/><polygon points="212.4,62.0 215.2,68.7 222.5,69.3 216.9,74.1 218.6,81.2 212.4,77.4 206.2,81.2 207.9,74.1 202.3,69.3 209.6,68.7" stroke="#3b5bdb" stroke-width="3" fill="none" stroke-linejoin="round"/><rect x="285" y="30" width="60" height="60" rx="12" fill="#fff3bf" stroke="#f0b429" stroke-width="2"/><text x="315" y="60" font-size="33" fill="#b07908" text-anchor="middle" font-weight="bold" dominant-baseline="middle">?</text></svg>