<svg xmlns="http://www.w3.org/2000/svg" viewBox="0 0 270 270" width="270" height="270" font-family="Verdana,Arial,sans-serif"><rect x="14" y="14" width="74" height="74" rx="10" fill="#f8f9fd" stroke="#c3cae0" stroke-width="1.5"/><polygon points="51.0,28.0 70.9,39.5 70.9,62.5 51.0,74.0 31.1,62.5 31.1,39.5" stroke="#2C363B" stroke-width="4" fill="none" stroke-linejoin="round"/><rect x="98" y="14" width="74" height="74" rx="10" fill="#f8f9fd" stroke="#c3cae0" stroke-width="1.5"/><polygon points="124.7,42.3 132.2,46.7 132.2,55.3 124.7,59.7 117.1,55.3 117.1,46.7" stroke="#2C363B" stroke-width="3" fill="none" stroke-linejoin="round"/><polygon points="145.3,42.3 152.9,46.7 152.9,55.3 145.3,59.7 137.8,55.3 137.8,46.7" stroke="#2C363B" stroke-width="3" fill="none" stroke-linejoin="round"/><rect x="182" y="14" width="74" height="74" rx="10" fill="#f8f9fd" stroke="#c3cae0" stroke-width="1.5"/><polygon points="208.7,32.0 216.2,36.3 216.2,45.0 208.7,49.3 201.1,45.0 201.1,36.3" stroke="#2C363B" stroke-width="3" fill="none" stroke-linejoin="round"/><polygon points="229.3,32.0 236.9,36.3 236.9,45.0 229.3,49.3 221.8,45.0 221.8,36.3" stroke="#2C363B" stroke-width="3" fill="none" stroke-linejoin="round"/><polygon points="208.7,52.7 216.2,57.0 216.2,65.7 208.7,70.0 201.1,65.7 201.1,57.0" stroke="#2C363B" stroke-width="3" fill="none" stroke-linejoin="round"/><rect x="14" y="98" width="74" height="74" rx="10" fill="#f8f9fd" stroke="#c3cae0" stroke-width="1.5"/><g transform="rotate(0 51.0 135.0)"><rect x="28.0" y="112.0" width="46.0" height="46.0" rx="3" stroke="#2C363B" stroke-width="4" fill="none"/></g><rect x="98" y="98" width="74" height="74" rx="10" fill="#f8f9fd" stroke="#c3cae0" stroke-width="1.5"/><g transform="rotate(0 124.65 135.0)"><rect x="115.956" y="126.306" width="17.387999999999998" height="17.387999999999998" rx="3" stroke="#2C363B" stroke-width="3" fill="none"/></g><g transform="rotate(0 145.35 135.0)"><rect x="136.656" y="126.306" width="17.387999999999998" height="17.387999999999998" rx="3" stroke="#2C363B" stroke-width="3" fill="none"/></g><rect x="182" y="98" width="74" height="74" rx="10" fill="#f8f9fd" stroke="#c3cae0" stroke-width="1.5"/><g transform="rotate(0 208.65 124.65)"><rect x="199.95600000000002" y="115.956" width="17.387999999999998" height="17.387999999999998" rx="3" stroke="#2C363B" stroke-width="3" fill="none"/></g><g transform="rotate(0 229.35 124.65)"><rect x="220.656" y="115.956" width="17.387999999999998" height="17.387999999999998" rx="3" stroke="#2C363B" stroke-width="3" fill="none"/></g><g transform="rotate(0 208.65 145.35)"><rect x="199.95600000000002" y="136.656" width="17.387999999999998" height="17.387999999999998" rx="3" stroke="#2C363B" stroke-width="3" fill="none"/></g><rect x="14" y="182" width="74" height="74" rx="10" fill="#f8f9fd" stroke="#c3cae0" stroke-width="1.5"/><polygon points="51.0,196.0 57.1,210.6 72.9,211.9 60.8,222.2 64.5,237.6 51.0,229.3 37.5,237.6 41.2,222.2 29.1,211.9 44.9,210.6" stroke="#2C363B" stroke-width="4" fill="none" stroke-linejoin="round"/><rect x="98" y="182" width="74" height="74" rx="10" fill="#f8f9fd" stroke="#c3cae0" stroke-width="1.5"/><polygon points="124.7,210.3 126.9,215.8 132.9,216.3 128.4,220.2 129.8,226.0 124.7,222.9 119.5,226.0 120.9,220.2 116.4,216.3 122.4,215.8" stroke="#2C363B" stroke-width="3" fill="none" stroke-linejoin="round"/><polygon points="145.3,210.3 147.6,215.8 153.6,216.3 149.1,220.2 150.5,226.0 145.3,222.9 140.2,226.0 141.6,220.2 137.1,216.3 143.1,215.8" stroke="#2C363B" stroke-width="3" fill="none" stroke-linejoin="round"/><rect x="185.0" y="185.0" width="68" height="68" rx="12" fill="#fff3bf" stroke="#f0b429" stroke-width="2"/><text x="219.0" y="219.0" font-size="37" fill="#b07908" text-anchor="middle" font-weight="bold" dominant-baseline="middle">?</text></svg>