<svg xmlns="http://www.w3.org/2000/svg" viewBox="0 0 360 120" width="360" height="120" font-family="Verdana,Arial,sans-serif"><g transform="rotate(0 42.4 47.4)"><rect x="31.816" y="36.816" width="21.168" height="21.168" rx="3" stroke="#3b5bdb" stroke-width="3" fill="none"/></g><g transform="rotate(0 67.6 47.4)"><rect x="57.01599999999999" y="36.816" width="21.168" height="21.168" rx="3" stroke="#3b5bdb" stroke-width="3" fill="none"/></g><g transform="rotate(0 42.4 72.6)"><rect x="31.816" y="62.01599999999999" width="21.168" height="21.168" rx="3" stroke="#3b5bdb" stroke-width="3" fill="none"/></g><g transform="rotate(0 127.4 47.4)"><rect x="116.816" y="36.816" width="21.168" height="21.168" rx="3" stroke="#3b5bdb" stroke-width="3" fill="none"/></g><g transform="rotate(0 152.6 47.4)"><rect x="142.016" y="36.816" width="21.168" height="21.168" rx="3" stroke="#3b5bdb" stroke-width="3" fill="none"/></g><g transform="rotate(0 127.4 72.6)"><rect x="116.816" y="62.01599999999999" width="21.168" height="21.168" rx="3" stroke="#3b5bdb" stroke-width="3" fill="none"/></g><g transform="rotate(0 152.6 72.6)"><rect x="142.016" y="62.01599999999999" width="21.168" height="21.168" rx="3" stroke="#3b5bdb" stroke-width="3" fill="none"/></g><g transform="rotate(0 208.2 51.6)"><rect x="201.14399999999998" y="44.544000000000004" width="14.112" height="14.112" rx="3" stroke="#3b5bdb" stroke-width="3" fill="none"/></g><g transform="rotate(0 225.0 51.6)"><rect x="217.944" y="44.544000000000004" width="14.112" height="14.112" rx="3" stroke="#3b5bdb" stroke-width="3" fill="none"/></g><g transform="rotate(0 241.79999999999998 51.6)"><rect x="234.74399999999997" y="44.544000000000004" width="14.112" height="14.112" rx="3" stroke="#3b5bdb" stroke-width="3" fill="none"/></g><g transform="rotate(0 208.2 68.4)"><rect x="201.14399999999998" y="61.34400000000001" width="14.112" height="14.112" rx="3" stroke="#3b5bdb" stroke-width="3" fill="none"/></g><g transform="rotate(0 225.0 68.4)"><rect x="217.944" y="61.34400000000001" width="14.112" height="14.112" rx="3" stroke="#3b5bdb" stroke-width="3" fill="none"/></g><rect x="285" y="30" width="60" height="60" rx="12" fill="#fff3bf" stroke="#f0b429" stroke-width="2"/><text x="315" y="60" font-size="33" fill="#b07908" text-anchor="middle" font-weight="bold" dominant-baseline="middle">?</text></svg>