<svg xmlns="http://www.w3.org/2000/svg" viewBox="0 0 100 100" width="100" height="100">
  <rect width="100" height="100" rx="24" fill="#222A2E"></rect>
  <g fill="#E2961A">
    <circle cx="50" cy="19" r="11"></circle><circle cx="37" cy="21" r="10"></circle><circle cx="63" cy="21" r="10"></circle>
    <circle cx="27" cy="27" r="10"></circle><circle cx="73" cy="27" r="10"></circle><circle cx="50" cy="25" r="12"></circle>
    <circle cx="21" cy="37" r="10"></circle><circle cx="79" cy="37" r="10"></circle><circle cx="34" cy="31" r="9"></circle><circle cx="66" cy="31" r="9"></circle>
    <circle cx="17" cy="49" r="9"></circle><circle cx="83" cy="49" r="9"></circle>
    <circle cx="19" cy="60" r="8"></circle><circle cx="81" cy="60" r="8"></circle>
    <circle cx="23" cy="69" r="6.5"></circle><circle cx="77" cy="69" r="6.5"></circle>
  </g>
  <ellipse cx="50" cy="60" rx="20.5" ry="23" fill="#222A2E"></ellipse>
  <circle cx="29.5" cy="60" r="4.2" fill="#E2961A"></circle><circle cx="70.5" cy="60" r="4.2" fill="#E2961A"></circle>
  <g fill="#E2961A">
    <rect x="36.5" y="50" width="11" height="4.2" rx="2.1" transform="rotate(-7 42 52)"></rect>
    <rect x="52.5" y="50" width="11" height="4.2" rx="2.1" transform="rotate(7 58 52)"></rect>
    <circle cx="42" cy="58.5" r="2.4"></circle><circle cx="58" cy="58.5" r="2.4"></circle>
    <path d="M50 70 Q41 67.5 35 69.5 Q31 71 32.5 75.5 Q34 79 37.5 77 Q42 74.5 46 73 Q49 72.2 50 73.4 Q51 72.2 54 73 Q58 74.5 62.5 77 Q66 79 67.5 75.5 Q69 71 65 69.5 Q59 67.5 50 70 Z"></path>
    <ellipse cx="50" cy="72" rx="5" ry="3.4"></ellipse>
  </g>
  <path d="M50 60 L49 67 Q50 68.5 51.4 67.4" stroke="#E2961A" stroke-width="2" fill="none" stroke-linecap="round"></path>
</svg>