<svg xmlns="http://www.w3.org/2000/svg" viewBox="0 0 400 540" width="400" height="540" font-family="Verdana,Arial,sans-serif"><rect x="0" y="0" width="400" height="540" fill="#ffffff"/><text x="200.0" y="40" font-size="20" fill="#3b5bdb" text-anchor="middle" font-weight="bold" dominant-baseline="middle">Find the missing piece</text><rect x="99" y="70" width="62" height="62" rx="10" fill="#f8f9fd" stroke="#c3cae0" stroke-width="1.5"/><polygon points="130.0,82.0 146.5,110.5 113.5,110.5" stroke="#e8590c" stroke-width="4" fill="none" stroke-linejoin="round"/><rect x="169" y="70" width="62" height="62" rx="10" fill="#f8f9fd" stroke="#c3cae0" stroke-width="1.5"/><polygon points="191.4,93.8 197.7,104.6 185.2,104.6" stroke="#e8590c" stroke-width="3" fill="none" stroke-linejoin="round"/><polygon points="208.5,93.8 214.8,104.6 202.3,104.6" stroke="#e8590c" stroke-width="3" fill="none" stroke-linejoin="round"/><rect x="239" y="70" width="62" height="62" rx="10" fill="#f8f9fd" stroke="#c3cae0" stroke-width="1.5"/><polygon points="261.4,85.3 267.7,96.0 255.2,96.0" stroke="#e8590c" stroke-width="3" fill="none" stroke-linejoin="round"/><polygon points="278.6,85.3 284.8,96.0 272.3,96.0" stroke="#e8590c" stroke-width="3" fill="none" stroke-linejoin="round"/><polygon points="261.4,102.4 267.7,113.1 255.2,113.1" stroke="#e8590c" stroke-width="3" fill="none" stroke-linejoin="round"/><rect x="99" y="140" width="62" height="62" rx="10" fill="#f8f9fd" stroke="#c3cae0" stroke-width="1.5"/><polygon points="130.0,152.0 146.5,180.5 113.5,180.5" stroke="#5f3dc4" stroke-width="4" fill="none" stroke-linejoin="round"/><rect x="169" y="140" width="62" height="62" rx="10" fill="#f8f9fd" stroke="#c3cae0" stroke-width="1.5"/><polygon points="191.4,163.8 197.7,174.6 185.2,174.6" stroke="#5f3dc4" stroke-width="3" fill="none" stroke-linejoin="round"/><polygon points="208.5,163.8 214.8,174.6 202.3,174.6" stroke="#5f3dc4" stroke-width="3" fill="none" stroke-linejoin="round"/><rect x="239" y="140" width="62" height="62" rx="10" fill="#f8f9fd" stroke="#c3cae0" stroke-width="1.5"/><polygon points="261.4,155.3 267.7,166.0 255.2,166.0" stroke="#5f3dc4" stroke-width="3" fill="none" stroke-linejoin="round"/><polygon points="278.6,155.3 284.8,166.0 272.3,166.0" stroke="#5f3dc4" stroke-width="3" fill="none" stroke-linejoin="round"/><polygon points="261.4,172.4 267.7,183.1 255.2,183.1" stroke="#5f3dc4" stroke-width="3" fill="none" stroke-linejoin="round"/><rect x="99" y="210" width="62" height="62" rx="10" fill="#f8f9fd" stroke="#c3cae0" stroke-width="1.5"/><polygon points="130.0,222.0 146.5,250.5 113.5,250.5" stroke="#1f2933" stroke-width="4" fill="none" stroke-linejoin="round"/><rect x="169" y="210" width="62" height="62" rx="10" fill="#f8f9fd" stroke="#c3cae0" stroke-width="1.5"/><polygon points="191.4,233.8 197.7,244.6 185.2,244.6" stroke="#1f2933" stroke-width="3" fill="none" stroke-linejoin="round"/><polygon points="208.5,233.8 214.8,244.6 202.3,244.6" stroke="#1f2933" stroke-width="3" fill="none" stroke-linejoin="round"/><rect x="240.0" y="211.0" width="60" height="60" rx="12" fill="#fff3bf" stroke="#f0b429" stroke-width="2"/><text x="270.0" y="241.0" font-size="33" fill="#b07908" text-anchor="middle" font-weight="bold" dominant-baseline="middle">?</text><rect x="30" y="330" width="165" height="95" rx="12" fill="#f1f3f9" stroke="#c3cae0" stroke-width="2"/><text x="46" y="348" font-size="18" fill="#3b5bdb" text-anchor="middle" font-weight="bold" dominant-baseline="middle">A</text><polygon points="99.0,352.7 108.8,369.7 89.2,369.7" stroke="#1f2933" stroke-width="3" fill="none" stroke-linejoin="round"/><polygon points="126.0,352.7 135.8,369.7 116.2,369.7" stroke="#1f2933" stroke-width="3" fill="none" stroke-linejoin="round"/><polygon points="99.0,379.7 108.8,396.7 89.2,396.7" stroke="#1f2933" stroke-width="3" fill="none" stroke-linejoin="round"/><rect x="205" y="330" width="165" height="95" rx="12" fill="#f1f3f9" stroke="#c3cae0" stroke-width="2"/><text x="221" y="348" font-size="18" fill="#3b5bdb" text-anchor="middle" font-weight="bold" dominant-baseline="middle">B</text><polygon points="287.5,347.5 313.5,392.5 261.5,392.5" stroke="#e8590c" stroke-width="4" fill="none" stroke-linejoin="round"/><rect x="30" y="435" width="165" height="95" rx="12" fill="#f1f3f9" stroke="#c3cae0" stroke-width="2"/><text x="46" y="453" font-size="18" fill="#3b5bdb" text-anchor="middle" font-weight="bold" dominant-baseline="middle">C</text><polygon points="99.0,457.7 108.8,474.7 89.2,474.7" stroke="#5f3dc4" stroke-width="3" fill="none" stroke-linejoin="round"/><polygon points="126.0,457.7 135.8,474.7 116.2,474.7" stroke="#5f3dc4" stroke-width="3" fill="none" stroke-linejoin="round"/><polygon points="99.0,484.7 108.8,501.7 89.2,501.7" stroke="#5f3dc4" stroke-width="3" fill="none" stroke-linejoin="round"/><rect x="205" y="435" width="165" height="95" rx="12" fill="#f1f3f9" stroke="#c3cae0" stroke-width="2"/><text x="221" y="453" font-size="18" fill="#3b5bdb" text-anchor="middle" font-weight="bold" dominant-baseline="middle">D</text><polygon points="274.0,471.2 283.8,488.2 264.2,488.2" stroke="#1f2933" stroke-width="3" fill="none" stroke-linejoin="round"/><polygon points="301.0,471.2 310.8,488.2 291.2,488.2" stroke="#1f2933" stroke-width="3" fill="none" stroke-linejoin="round"/></svg>