<svg xmlns="http://www.w3.org/2000/svg" viewBox="0 0 400 540" width="400" height="540" font-family="Verdana,Arial,sans-serif"><rect x="0" y="0" width="400" height="540" fill="#ffffff"/><text x="200.0" y="40" font-size="20" fill="#3b5bdb" text-anchor="middle" font-weight="bold" dominant-baseline="middle">Find the missing piece</text><rect x="99" y="70" width="62" height="62" rx="10" fill="#f8f9fd" stroke="#c3cae0" stroke-width="1.5"/><polygon points="130.0,82.0 148.1,95.1 141.2,116.4 118.8,116.4 111.9,95.1" stroke="#e8590c" stroke-width="4" fill="none" stroke-linejoin="round"/><rect x="169" y="70" width="62" height="62" rx="10" fill="#f8f9fd" stroke="#c3cae0" stroke-width="1.5"/><polygon points="191.4,93.8 198.3,98.8 195.7,106.8 187.2,106.8 184.6,98.8" stroke="#e8590c" stroke-width="3" fill="none" stroke-linejoin="round"/><polygon points="208.5,93.8 215.4,98.8 212.8,106.8 204.3,106.8 201.7,98.8" stroke="#e8590c" stroke-width="3" fill="none" stroke-linejoin="round"/><rect x="239" y="70" width="62" height="62" rx="10" fill="#f8f9fd" stroke="#c3cae0" stroke-width="1.5"/><polygon points="261.4,85.3 268.3,90.2 265.7,98.3 257.2,98.3 254.6,90.2" stroke="#e8590c" stroke-width="3" fill="none" stroke-linejoin="round"/><polygon points="278.6,85.3 285.4,90.2 282.8,98.3 274.3,98.3 271.7,90.2" stroke="#e8590c" stroke-width="3" fill="none" stroke-linejoin="round"/><polygon points="261.4,102.4 268.3,107.3 265.7,115.4 257.2,115.4 254.6,107.3" stroke="#e8590c" stroke-width="3" fill="none" stroke-linejoin="round"/><rect x="99" y="140" width="62" height="62" rx="10" fill="#f8f9fd" stroke="#c3cae0" stroke-width="1.5"/><polygon points="149.0,171.0 135.9,189.1 114.6,182.2 114.6,159.8 135.9,152.9" stroke="#e8590c" stroke-width="4" fill="none" stroke-linejoin="round"/><rect x="169" y="140" width="62" height="62" rx="10" fill="#f8f9fd" stroke="#c3cae0" stroke-width="1.5"/><polygon points="198.6,171.0 193.7,177.8 185.6,175.2 185.6,166.8 193.7,164.2" stroke="#e8590c" stroke-width="3" fill="none" stroke-linejoin="round"/><polygon points="215.7,171.0 210.8,177.8 202.7,175.2 202.7,166.8 210.8,164.2" stroke="#e8590c" stroke-width="3" fill="none" stroke-linejoin="round"/><rect x="239" y="140" width="62" height="62" rx="10" fill="#f8f9fd" stroke="#c3cae0" stroke-width="1.5"/><polygon points="268.6,162.4 263.7,169.3 255.6,166.7 255.6,158.2 263.7,155.6" stroke="#e8590c" stroke-width="3" fill="none" stroke-linejoin="round"/><polygon points="285.7,162.4 280.8,169.3 272.7,166.7 272.7,158.2 280.8,155.6" stroke="#e8590c" stroke-width="3" fill="none" stroke-linejoin="round"/><polygon points="268.6,179.5 263.7,186.4 255.6,183.8 255.6,175.3 263.7,172.7" stroke="#e8590c" stroke-width="3" fill="none" stroke-linejoin="round"/><rect x="99" y="210" width="62" height="62" rx="10" fill="#f8f9fd" stroke="#c3cae0" stroke-width="1.5"/><polygon points="130.0,260.0 111.9,246.9 118.8,225.6 141.2,225.6 148.1,246.9" stroke="#e8590c" stroke-width="4" fill="none" stroke-linejoin="round"/><rect x="169" y="210" width="62" height="62" rx="10" fill="#f8f9fd" stroke="#c3cae0" stroke-width="1.5"/><polygon points="191.4,248.2 184.6,243.2 187.2,235.2 195.7,235.2 198.3,243.2" stroke="#e8590c" stroke-width="3" fill="none" stroke-linejoin="round"/><polygon points="208.5,248.2 201.7,243.2 204.3,235.2 212.8,235.2 215.4,243.2" stroke="#e8590c" stroke-width="3" fill="none" stroke-linejoin="round"/><rect x="240.0" y="211.0" width="60" height="60" rx="12" fill="#fff3bf" stroke="#f0b429" stroke-width="2"/><text x="270.0" y="241.0" font-size="33" fill="#b07908" text-anchor="middle" font-weight="bold" dominant-baseline="middle">?</text><rect x="30" y="330" width="165" height="95" rx="12" fill="#f1f3f9" stroke="#c3cae0" stroke-width="2"/><text x="46" y="348" font-size="18" fill="#3b5bdb" text-anchor="middle" font-weight="bold" dominant-baseline="middle">A</text><polygon points="99.0,375.3 88.2,367.5 92.3,354.8 105.7,354.8 109.8,367.5" stroke="#e8590c" stroke-width="3" fill="none" stroke-linejoin="round"/><polygon points="126.0,375.3 115.2,367.5 119.3,354.8 132.7,354.8 136.8,367.5" stroke="#e8590c" stroke-width="3" fill="none" stroke-linejoin="round"/><polygon points="99.0,402.3 88.2,394.5 92.3,381.8 105.7,381.8 109.8,394.5" stroke="#e8590c" stroke-width="3" fill="none" stroke-linejoin="round"/><rect x="205" y="330" width="165" height="95" rx="12" fill="#f1f3f9" stroke="#c3cae0" stroke-width="2"/><text x="221" y="348" font-size="18" fill="#3b5bdb" text-anchor="middle" font-weight="bold" dominant-baseline="middle">B</text><polygon points="287.5,347.5 316.0,368.2 305.1,401.8 269.9,401.8 259.0,368.2" stroke="#e8590c" stroke-width="4" fill="none" stroke-linejoin="round"/><rect x="30" y="435" width="165" height="95" rx="12" fill="#f1f3f9" stroke="#c3cae0" stroke-width="2"/><text x="46" y="453" font-size="18" fill="#3b5bdb" text-anchor="middle" font-weight="bold" dominant-baseline="middle">C</text><polygon points="112.5,512.5 84.0,491.8 94.9,458.2 130.1,458.2 141.0,491.8" stroke="#e8590c" stroke-width="4" fill="none" stroke-linejoin="round"/><rect x="205" y="435" width="165" height="95" rx="12" fill="#f1f3f9" stroke="#c3cae0" stroke-width="2"/><text x="221" y="453" font-size="18" fill="#3b5bdb" text-anchor="middle" font-weight="bold" dominant-baseline="middle">D</text><polygon points="274.0,457.7 284.8,465.5 280.7,478.2 267.3,478.2 263.2,465.5" stroke="#e8590c" stroke-width="3" fill="none" stroke-linejoin="round"/><polygon points="301.0,457.7 311.8,465.5 307.7,478.2 294.3,478.2 290.2,465.5" stroke="#e8590c" stroke-width="3" fill="none" stroke-linejoin="round"/><polygon points="274.0,484.7 284.8,492.5 280.7,505.2 267.3,505.2 263.2,492.5" stroke="#e8590c" stroke-width="3" fill="none" stroke-linejoin="round"/></svg>