<svg xmlns="http://www.w3.org/2000/svg" viewBox="0 0 400 540" width="400" height="540" font-family="Verdana,Arial,sans-serif"><rect x="0" y="0" width="400" height="540" fill="#ffffff"/><text x="200.0" y="40" font-size="20" fill="#3b5bdb" text-anchor="middle" font-weight="bold" dominant-baseline="middle">Find the missing piece</text><rect x="99" y="70" width="62" height="62" rx="10" fill="#f8f9fd" stroke="#c3cae0" stroke-width="1.5"/><circle cx="130.0" cy="101.0" r="10.450000000000001" stroke="#1f2933" stroke-width="4" fill="none"/><rect x="169" y="70" width="62" height="62" rx="10" fill="#f8f9fd" stroke="#c3cae0" stroke-width="1.5"/><circle cx="191.45" cy="101.0" r="7.182" stroke="#1f2933" stroke-width="3" fill="none"/><circle cx="208.54999999999998" cy="101.0" r="7.182" stroke="#1f2933" stroke-width="3" fill="none"/><rect x="239" y="70" width="62" height="62" rx="10" fill="#f8f9fd" stroke="#c3cae0" stroke-width="1.5"/><circle cx="261.45" cy="92.45" r="7.182" stroke="#1f2933" stroke-width="3" fill="none"/><circle cx="278.55" cy="92.45" r="7.182" stroke="#1f2933" stroke-width="3" fill="none"/><circle cx="261.45" cy="109.55000000000001" r="7.182" stroke="#1f2933" stroke-width="3" fill="none"/><rect x="99" y="140" width="62" height="62" rx="10" fill="#f8f9fd" stroke="#c3cae0" stroke-width="1.5"/><circle cx="130.0" cy="171.0" r="15.200000000000001" stroke="#1f2933" stroke-width="4" fill="none"/><rect x="169" y="140" width="62" height="62" rx="10" fill="#f8f9fd" stroke="#c3cae0" stroke-width="1.5"/><circle cx="191.45" cy="171.0" r="7.182" stroke="#1f2933" stroke-width="3" fill="none"/><circle cx="208.54999999999998" cy="171.0" r="7.182" stroke="#1f2933" stroke-width="3" fill="none"/><rect x="239" y="140" width="62" height="62" rx="10" fill="#f8f9fd" stroke="#c3cae0" stroke-width="1.5"/><circle cx="261.45" cy="162.45" r="7.182" stroke="#1f2933" stroke-width="3" fill="none"/><circle cx="278.55" cy="162.45" r="7.182" stroke="#1f2933" stroke-width="3" fill="none"/><circle cx="261.45" cy="179.54999999999998" r="7.182" stroke="#1f2933" stroke-width="3" fill="none"/><rect x="99" y="210" width="62" height="62" rx="10" fill="#f8f9fd" stroke="#c3cae0" stroke-width="1.5"/><circle cx="130.0" cy="241.0" r="20.900000000000002" stroke="#1f2933" stroke-width="4" fill="none"/><rect x="169" y="210" width="62" height="62" rx="10" fill="#f8f9fd" stroke="#c3cae0" stroke-width="1.5"/><circle cx="191.45" cy="241.0" r="7.182" stroke="#1f2933" stroke-width="3" fill="none"/><circle cx="208.54999999999998" cy="241.0" r="7.182" stroke="#1f2933" stroke-width="3" fill="none"/><rect x="240.0" y="211.0" width="60" height="60" rx="12" fill="#fff3bf" stroke="#f0b429" stroke-width="2"/><text x="270.0" y="241.0" font-size="33" fill="#b07908" text-anchor="middle" font-weight="bold" dominant-baseline="middle">?</text><rect x="30" y="330" width="165" height="95" rx="12" fill="#f1f3f9" stroke="#c3cae0" stroke-width="2"/><text x="46" y="348" font-size="18" fill="#3b5bdb" text-anchor="middle" font-weight="bold" dominant-baseline="middle">A</text><circle cx="99.0" cy="364.0" r="11.34" stroke="#1f2933" stroke-width="3" fill="none"/><circle cx="126.0" cy="364.0" r="11.34" stroke="#1f2933" stroke-width="3" fill="none"/><circle cx="99.0" cy="391.0" r="11.34" stroke="#1f2933" stroke-width="3" fill="none"/><rect x="205" y="330" width="165" height="95" rx="12" fill="#f1f3f9" stroke="#c3cae0" stroke-width="2"/><text x="221" y="348" font-size="18" fill="#3b5bdb" text-anchor="middle" font-weight="bold" dominant-baseline="middle">B</text><circle cx="274.0" cy="364.0" r="11.34" stroke="#1f2933" stroke-width="3" fill="none"/><circle cx="301.0" cy="364.0" r="11.34" stroke="#1f2933" stroke-width="3" fill="none"/><circle cx="274.0" cy="391.0" r="11.34" stroke="#1f2933" stroke-width="3" fill="none"/><rect x="30" y="435" width="165" height="95" rx="12" fill="#f1f3f9" stroke="#c3cae0" stroke-width="2"/><text x="46" y="453" font-size="18" fill="#3b5bdb" text-anchor="middle" font-weight="bold" dominant-baseline="middle">C</text><circle cx="99.0" cy="482.5" r="11.34" stroke="#1f2933" stroke-width="3" fill="none"/><circle cx="126.0" cy="482.5" r="11.34" stroke="#1f2933" stroke-width="3" fill="none"/><rect x="205" y="435" width="165" height="95" rx="12" fill="#f1f3f9" stroke="#c3cae0" stroke-width="2"/><text x="221" y="453" font-size="18" fill="#3b5bdb" text-anchor="middle" font-weight="bold" dominant-baseline="middle">D</text><circle cx="287.5" cy="482.5" r="33.0" stroke="#1f2933" stroke-width="4" fill="none"/></svg>