<svg xmlns="http://www.w3.org/2000/svg" viewBox="0 0 400 540" width="400" height="540" font-family="Verdana,Arial,sans-serif"><rect x="0" y="0" width="400" height="540" fill="#ffffff"/><text x="200.0" y="40" font-size="20" fill="#3b5bdb" text-anchor="middle" font-weight="bold" dominant-baseline="middle">Find the missing piece</text><rect x="99" y="70" width="62" height="62" rx="10" fill="#f8f9fd" stroke="#c3cae0" stroke-width="1.5"/><circle cx="130.0" cy="101.0" r="19.0" stroke="#c92a2a" stroke-width="4" fill="none"/><rect x="169" y="70" width="62" height="62" rx="10" fill="#f8f9fd" stroke="#c3cae0" stroke-width="1.5"/><circle cx="191.45" cy="101.0" r="7.182" stroke="#c92a2a" stroke-width="3" fill="none"/><circle cx="208.54999999999998" cy="101.0" r="7.182" stroke="#c92a2a" stroke-width="3" fill="none"/><rect x="239" y="70" width="62" height="62" rx="10" fill="#f8f9fd" stroke="#c3cae0" stroke-width="1.5"/><circle cx="261.45" cy="92.45" r="7.182" stroke="#c92a2a" stroke-width="3" fill="none"/><circle cx="278.55" cy="92.45" r="7.182" stroke="#c92a2a" stroke-width="3" fill="none"/><circle cx="261.45" cy="109.55000000000001" r="7.182" stroke="#c92a2a" stroke-width="3" fill="none"/><rect x="99" y="140" width="62" height="62" rx="10" fill="#f8f9fd" stroke="#c3cae0" stroke-width="1.5"/><polygon points="130.0,152.0 135.0,164.1 148.1,165.1 138.1,173.6 141.2,186.4 130.0,179.6 118.8,186.4 121.9,173.6 111.9,165.1 125.0,164.1" stroke="#c92a2a" stroke-width="4" fill="none" stroke-linejoin="round"/><rect x="169" y="140" width="62" height="62" rx="10" fill="#f8f9fd" stroke="#c3cae0" stroke-width="1.5"/><polygon points="191.4,163.8 193.3,168.4 198.3,168.8 194.5,172.0 195.7,176.8 191.4,174.2 187.2,176.8 188.4,172.0 184.6,168.8 189.6,168.4" stroke="#c92a2a" stroke-width="3" fill="none" stroke-linejoin="round"/><polygon points="208.5,163.8 210.4,168.4 215.4,168.8 211.6,172.0 212.8,176.8 208.5,174.2 204.3,176.8 205.5,172.0 201.7,168.8 206.7,168.4" stroke="#c92a2a" stroke-width="3" fill="none" stroke-linejoin="round"/><rect x="239" y="140" width="62" height="62" rx="10" fill="#f8f9fd" stroke="#c3cae0" stroke-width="1.5"/><polygon points="261.4,155.3 263.3,159.8 268.3,160.2 264.5,163.4 265.7,168.3 261.4,165.7 257.2,168.3 258.4,163.4 254.6,160.2 259.6,159.8" stroke="#c92a2a" stroke-width="3" fill="none" stroke-linejoin="round"/><polygon points="278.6,155.3 280.4,159.8 285.4,160.2 281.6,163.4 282.8,168.3 278.6,165.7 274.3,168.3 275.5,163.4 271.7,160.2 276.7,159.8" stroke="#c92a2a" stroke-width="3" fill="none" stroke-linejoin="round"/><polygon points="261.4,172.4 263.3,176.9 268.3,177.3 264.5,180.5 265.7,185.4 261.4,182.8 257.2,185.4 258.4,180.5 254.6,177.3 259.6,176.9" stroke="#c92a2a" stroke-width="3" fill="none" stroke-linejoin="round"/><rect x="99" y="210" width="62" height="62" rx="10" fill="#f8f9fd" stroke="#c3cae0" stroke-width="1.5"/><g transform="rotate(0 130.0 241.0)"><rect x="111.0" y="222.0" width="38.0" height="38.0" rx="3" stroke="#c92a2a" stroke-width="4" fill="none"/></g><rect x="169" y="210" width="62" height="62" rx="10" fill="#f8f9fd" stroke="#c3cae0" stroke-width="1.5"/><g transform="rotate(0 191.45 241.0)"><rect x="184.268" y="233.818" width="14.364" height="14.364" rx="3" stroke="#c92a2a" stroke-width="3" fill="none"/></g><g transform="rotate(0 208.54999999999998 241.0)"><rect x="201.368" y="233.818" width="14.364" height="14.364" rx="3" stroke="#c92a2a" stroke-width="3" fill="none"/></g><rect x="240.0" y="211.0" width="60" height="60" rx="12" fill="#fff3bf" stroke="#f0b429" stroke-width="2"/><text x="270.0" y="241.0" font-size="33" fill="#b07908" text-anchor="middle" font-weight="bold" dominant-baseline="middle">?</text><rect x="30" y="330" width="165" height="95" rx="12" fill="#f1f3f9" stroke="#c3cae0" stroke-width="2"/><text x="46" y="348" font-size="18" fill="#3b5bdb" text-anchor="middle" font-weight="bold" dominant-baseline="middle">A</text><g transform="rotate(0 99.0 377.5)"><rect x="87.66" y="366.16" width="22.68" height="22.68" rx="3" stroke="#c92a2a" stroke-width="3" fill="none"/></g><g transform="rotate(0 126.0 377.5)"><rect x="114.66" y="366.16" width="22.68" height="22.68" rx="3" stroke="#c92a2a" stroke-width="3" fill="none"/></g><rect x="205" y="330" width="165" height="95" rx="12" fill="#f1f3f9" stroke="#c3cae0" stroke-width="2"/><text x="221" y="348" font-size="18" fill="#3b5bdb" text-anchor="middle" font-weight="bold" dominant-baseline="middle">B</text><g transform="rotate(0 274.0 364.0)"><rect x="262.66" y="352.66" width="22.68" height="22.68" rx="3" stroke="#c92a2a" stroke-width="3" fill="none"/></g><g transform="rotate(0 301.0 364.0)"><rect x="289.66" y="352.66" width="22.68" height="22.68" rx="3" stroke="#c92a2a" stroke-width="3" fill="none"/></g><g transform="rotate(0 274.0 391.0)"><rect x="262.66" y="379.66" width="22.68" height="22.68" rx="3" stroke="#c92a2a" stroke-width="3" fill="none"/></g><rect x="30" y="435" width="165" height="95" rx="12" fill="#f1f3f9" stroke="#c3cae0" stroke-width="2"/><text x="46" y="453" font-size="18" fill="#3b5bdb" text-anchor="middle" font-weight="bold" dominant-baseline="middle">C</text><circle cx="112.5" cy="482.5" r="30.0" stroke="#c92a2a" stroke-width="4" fill="none"/><rect x="205" y="435" width="165" height="95" rx="12" fill="#f1f3f9" stroke="#c3cae0" stroke-width="2"/><text x="221" y="453" font-size="18" fill="#3b5bdb" text-anchor="middle" font-weight="bold" dominant-baseline="middle">D</text><circle cx="274.0" cy="469.0" r="11.34" stroke="#c92a2a" stroke-width="3" fill="none"/><circle cx="301.0" cy="469.0" r="11.34" stroke="#c92a2a" stroke-width="3" fill="none"/><circle cx="274.0" cy="496.0" r="11.34" stroke="#c92a2a" stroke-width="3" fill="none"/></svg>