<svg xmlns="http://www.w3.org/2000/svg" viewBox="0 0 400 540" width="400" height="540" font-family="Verdana,Arial,sans-serif"><rect x="0" y="0" width="400" height="540" fill="#ffffff"/><text x="200.0" y="40" font-size="20" fill="#3b5bdb" text-anchor="middle" font-weight="bold" dominant-baseline="middle">Find the missing piece</text><rect x="99" y="70" width="62" height="62" rx="10" fill="#f8f9fd" stroke="#c3cae0" stroke-width="1.5"/><polygon points="130.0,90.5 139.9,97.8 136.1,109.5 123.9,109.5 120.1,97.8" stroke="#5f3dc4" stroke-width="4" fill="none" stroke-linejoin="round"/><rect x="169" y="70" width="62" height="62" rx="10" fill="#f8f9fd" stroke="#c3cae0" stroke-width="1.5"/><polygon points="200.0,90.5 209.9,97.8 206.1,109.5 193.9,109.5 190.1,97.8" stroke="#1f2933" stroke-width="4" fill="none" stroke-linejoin="round"/><rect x="239" y="70" width="62" height="62" rx="10" fill="#f8f9fd" stroke="#c3cae0" stroke-width="1.5"/><polygon points="270.0,90.5 279.9,97.8 276.1,109.5 263.9,109.5 260.1,97.8" stroke="#1c7ed6" stroke-width="4" fill="none" stroke-linejoin="round"/><rect x="99" y="140" width="62" height="62" rx="10" fill="#f8f9fd" stroke="#c3cae0" stroke-width="1.5"/><polygon points="130.0,155.8 144.5,166.3 138.9,183.3 121.1,183.3 115.5,166.3" stroke="#5f3dc4" stroke-width="4" fill="none" stroke-linejoin="round"/><rect x="169" y="140" width="62" height="62" rx="10" fill="#f8f9fd" stroke="#c3cae0" stroke-width="1.5"/><polygon points="200.0,155.8 214.5,166.3 208.9,183.3 191.1,183.3 185.5,166.3" stroke="#1f2933" stroke-width="4" fill="none" stroke-linejoin="round"/><rect x="239" y="140" width="62" height="62" rx="10" fill="#f8f9fd" stroke="#c3cae0" stroke-width="1.5"/><polygon points="270.0,155.8 284.5,166.3 278.9,183.3 261.1,183.3 255.5,166.3" stroke="#1c7ed6" stroke-width="4" fill="none" stroke-linejoin="round"/><rect x="99" y="210" width="62" height="62" rx="10" fill="#f8f9fd" stroke="#c3cae0" stroke-width="1.5"/><polygon points="130.0,220.1 149.9,234.5 142.3,257.9 117.7,257.9 110.1,234.5" stroke="#5f3dc4" stroke-width="4" fill="none" stroke-linejoin="round"/><rect x="169" y="210" width="62" height="62" rx="10" fill="#f8f9fd" stroke="#c3cae0" stroke-width="1.5"/><polygon points="200.0,220.1 219.9,234.5 212.3,257.9 187.7,257.9 180.1,234.5" stroke="#1f2933" stroke-width="4" fill="none" stroke-linejoin="round"/><rect x="240.0" y="211.0" width="60" height="60" rx="12" fill="#fff3bf" stroke="#f0b429" stroke-width="2"/><text x="270.0" y="241.0" font-size="33" fill="#b07908" text-anchor="middle" font-weight="bold" dominant-baseline="middle">?</text><rect x="30" y="330" width="165" height="95" rx="12" fill="#f1f3f9" stroke="#c3cae0" stroke-width="2"/><text x="46" y="348" font-size="18" fill="#3b5bdb" text-anchor="middle" font-weight="bold" dominant-baseline="middle">A</text><polygon points="112.5,344.5 143.9,367.3 131.9,404.2 93.1,404.2 81.1,367.3" stroke="#1f2933" stroke-width="4" fill="none" stroke-linejoin="round"/><rect x="205" y="330" width="165" height="95" rx="12" fill="#f1f3f9" stroke="#c3cae0" stroke-width="2"/><text x="221" y="348" font-size="18" fill="#3b5bdb" text-anchor="middle" font-weight="bold" dominant-baseline="middle">B</text><polygon points="287.5,361.0 303.2,372.4 297.2,390.8 277.8,390.8 271.8,372.4" stroke="#5f3dc4" stroke-width="4" fill="none" stroke-linejoin="round"/><rect x="30" y="435" width="165" height="95" rx="12" fill="#f1f3f9" stroke="#c3cae0" stroke-width="2"/><text x="46" y="453" font-size="18" fill="#3b5bdb" text-anchor="middle" font-weight="bold" dominant-baseline="middle">C</text><polygon points="112.5,449.5 143.9,472.3 131.9,509.2 93.1,509.2 81.1,472.3" stroke="#1c7ed6" stroke-width="4" fill="none" stroke-linejoin="round"/><rect x="205" y="435" width="165" height="95" rx="12" fill="#f1f3f9" stroke="#c3cae0" stroke-width="2"/><text x="221" y="453" font-size="18" fill="#3b5bdb" text-anchor="middle" font-weight="bold" dominant-baseline="middle">D</text><polygon points="287.5,449.5 318.9,472.3 306.9,509.2 268.1,509.2 256.1,472.3" stroke="#5f3dc4" stroke-width="4" fill="none" stroke-linejoin="round"/></svg>