<svg xmlns="http://www.w3.org/2000/svg" viewBox="0 0 400 540" width="400" height="540" font-family="Verdana,Arial,sans-serif"><rect x="0" y="0" width="400" height="540" fill="#ffffff"/><text x="200.0" y="40" font-size="20" fill="#3b5bdb" text-anchor="middle" font-weight="bold" dominant-baseline="middle">Find the missing piece</text><rect x="99" y="70" width="62" height="62" rx="10" fill="#f8f9fd" stroke="#c3cae0" stroke-width="1.5"/><polygon points="130.0,82.0 146.5,91.5 146.5,110.5 130.0,120.0 113.5,110.5 113.5,91.5" stroke="#1c7ed6" stroke-width="4" fill="none" stroke-linejoin="round"/><rect x="169" y="70" width="62" height="62" rx="10" fill="#f8f9fd" stroke="#c3cae0" stroke-width="1.5"/><polygon points="200.0,82.0 216.5,91.5 216.5,110.5 200.0,120.0 183.5,110.5 183.5,91.5" stroke="#1f2933" stroke-width="4" fill="none" stroke-linejoin="round"/><rect x="239" y="70" width="62" height="62" rx="10" fill="#f8f9fd" stroke="#c3cae0" stroke-width="1.5"/><polygon points="270.0,82.0 286.5,91.5 286.5,110.5 270.0,120.0 253.5,110.5 253.5,91.5" stroke="#c92a2a" stroke-width="4" fill="none" stroke-linejoin="round"/><rect x="99" y="140" width="62" height="62" rx="10" fill="#f8f9fd" stroke="#c3cae0" stroke-width="1.5"/><g transform="rotate(0 130.0 171.0)"><rect x="111.0" y="152.0" width="38.0" height="38.0" rx="3" stroke="#1c7ed6" stroke-width="4" fill="none"/></g><rect x="169" y="140" width="62" height="62" rx="10" fill="#f8f9fd" stroke="#c3cae0" stroke-width="1.5"/><g transform="rotate(0 200.0 171.0)"><rect x="181.0" y="152.0" width="38.0" height="38.0" rx="3" stroke="#1f2933" stroke-width="4" fill="none"/></g><rect x="239" y="140" width="62" height="62" rx="10" fill="#f8f9fd" stroke="#c3cae0" stroke-width="1.5"/><g transform="rotate(0 270.0 171.0)"><rect x="251.0" y="152.0" width="38.0" height="38.0" rx="3" stroke="#c92a2a" stroke-width="4" fill="none"/></g><rect x="99" y="210" width="62" height="62" rx="10" fill="#f8f9fd" stroke="#c3cae0" stroke-width="1.5"/><polygon points="130.0,222.0 148.1,235.1 141.2,256.4 118.8,256.4 111.9,235.1" stroke="#1c7ed6" stroke-width="4" fill="none" stroke-linejoin="round"/><rect x="169" y="210" width="62" height="62" rx="10" fill="#f8f9fd" stroke="#c3cae0" stroke-width="1.5"/><polygon points="200.0,222.0 218.1,235.1 211.2,256.4 188.8,256.4 181.9,235.1" stroke="#1f2933" stroke-width="4" fill="none" stroke-linejoin="round"/><rect x="240.0" y="211.0" width="60" height="60" rx="12" fill="#fff3bf" stroke="#f0b429" stroke-width="2"/><text x="270.0" y="241.0" font-size="33" fill="#b07908" text-anchor="middle" font-weight="bold" dominant-baseline="middle">?</text><rect x="30" y="330" width="165" height="95" rx="12" fill="#f1f3f9" stroke="#c3cae0" stroke-width="2"/><text x="46" y="348" font-size="18" fill="#3b5bdb" text-anchor="middle" font-weight="bold" dominant-baseline="middle">A</text><g transform="rotate(0 112.5 377.5)"><rect x="82.5" y="347.5" width="60.0" height="60.0" rx="3" stroke="#c92a2a" stroke-width="4" fill="none"/></g><rect x="205" y="330" width="165" height="95" rx="12" fill="#f1f3f9" stroke="#c3cae0" stroke-width="2"/><text x="221" y="348" font-size="18" fill="#3b5bdb" text-anchor="middle" font-weight="bold" dominant-baseline="middle">B</text><polygon points="287.5,347.5 316.0,368.2 305.1,401.8 269.9,401.8 259.0,368.2" stroke="#1c7ed6" stroke-width="4" fill="none" stroke-linejoin="round"/><rect x="30" y="435" width="165" height="95" rx="12" fill="#f1f3f9" stroke="#c3cae0" stroke-width="2"/><text x="46" y="453" font-size="18" fill="#3b5bdb" text-anchor="middle" font-weight="bold" dominant-baseline="middle">C</text><polygon points="112.5,452.5 138.5,467.5 138.5,497.5 112.5,512.5 86.5,497.5 86.5,467.5" stroke="#1c7ed6" stroke-width="4" fill="none" stroke-linejoin="round"/><rect x="205" y="435" width="165" height="95" rx="12" fill="#f1f3f9" stroke="#c3cae0" stroke-width="2"/><text x="221" y="453" font-size="18" fill="#3b5bdb" text-anchor="middle" font-weight="bold" dominant-baseline="middle">D</text><polygon points="287.5,452.5 316.0,473.2 305.1,506.8 269.9,506.8 259.0,473.2" stroke="#c92a2a" stroke-width="4" fill="none" stroke-linejoin="round"/></svg>