<svg xmlns="http://www.w3.org/2000/svg" viewBox="0 0 400 540" width="400" height="540" font-family="Verdana,Arial,sans-serif"><rect x="0" y="0" width="400" height="540" fill="#ffffff"/><text x="200.0" y="40" font-size="20" fill="#3b5bdb" text-anchor="middle" font-weight="bold" dominant-baseline="middle">Find the missing piece</text><rect x="99" y="70" width="62" height="62" rx="10" fill="#f8f9fd" stroke="#c3cae0" stroke-width="1.5"/><polygon points="130.0,82.0 135.0,94.1 148.1,95.1 138.1,103.6 141.2,116.4 130.0,109.5 118.8,116.4 121.9,103.6 111.9,95.1 125.0,94.1" stroke="#1f2933" stroke-width="4" fill="none" stroke-linejoin="round"/><rect x="169" y="70" width="62" height="62" rx="10" fill="#f8f9fd" stroke="#c3cae0" stroke-width="1.5"/><polygon points="200.0,82.0 216.5,110.5 183.5,110.5" stroke="#1f2933" stroke-width="4" fill="none" stroke-linejoin="round"/><rect x="239" y="70" width="62" height="62" rx="10" fill="#f8f9fd" stroke="#c3cae0" stroke-width="1.5"/><polygon points="270.0,82.0 286.5,91.5 286.5,110.5 270.0,120.0 253.5,110.5 253.5,91.5" stroke="#1f2933" stroke-width="4" fill="none" stroke-linejoin="round"/><rect x="99" y="140" width="62" height="62" rx="10" fill="#f8f9fd" stroke="#c3cae0" stroke-width="1.5"/><polygon points="121.5,163.8 123.3,168.4 128.3,168.8 124.5,172.0 125.7,176.8 121.5,174.2 117.2,176.8 118.4,172.0 114.6,168.8 119.6,168.4" stroke="#1f2933" stroke-width="3" fill="none" stroke-linejoin="round"/><polygon points="138.6,163.8 140.4,168.4 145.4,168.8 141.6,172.0 142.8,176.8 138.6,174.2 134.3,176.8 135.5,172.0 131.7,168.8 136.7,168.4" stroke="#1f2933" stroke-width="3" fill="none" stroke-linejoin="round"/><rect x="169" y="140" width="62" height="62" rx="10" fill="#f8f9fd" stroke="#c3cae0" stroke-width="1.5"/><polygon points="191.4,163.8 197.7,174.6 185.2,174.6" stroke="#1f2933" stroke-width="3" fill="none" stroke-linejoin="round"/><polygon points="208.5,163.8 214.8,174.6 202.3,174.6" stroke="#1f2933" stroke-width="3" fill="none" stroke-linejoin="round"/><rect x="239" y="140" width="62" height="62" rx="10" fill="#f8f9fd" stroke="#c3cae0" stroke-width="1.5"/><polygon points="261.4,163.8 267.7,167.4 267.7,174.6 261.4,178.2 255.2,174.6 255.2,167.4" stroke="#1f2933" stroke-width="3" fill="none" stroke-linejoin="round"/><polygon points="278.6,163.8 284.8,167.4 284.8,174.6 278.6,178.2 272.3,174.6 272.3,167.4" stroke="#1f2933" stroke-width="3" fill="none" stroke-linejoin="round"/><rect x="99" y="210" width="62" height="62" rx="10" fill="#f8f9fd" stroke="#c3cae0" stroke-width="1.5"/><polygon points="121.5,225.3 123.3,229.8 128.3,230.2 124.5,233.4 125.7,238.3 121.5,235.7 117.2,238.3 118.4,233.4 114.6,230.2 119.6,229.8" stroke="#1f2933" stroke-width="3" fill="none" stroke-linejoin="round"/><polygon points="138.6,225.3 140.4,229.8 145.4,230.2 141.6,233.4 142.8,238.3 138.6,235.7 134.3,238.3 135.5,233.4 131.7,230.2 136.7,229.8" stroke="#1f2933" stroke-width="3" fill="none" stroke-linejoin="round"/><polygon points="121.5,242.4 123.3,246.9 128.3,247.3 124.5,250.5 125.7,255.4 121.5,252.8 117.2,255.4 118.4,250.5 114.6,247.3 119.6,246.9" stroke="#1f2933" stroke-width="3" fill="none" stroke-linejoin="round"/><rect x="169" y="210" width="62" height="62" rx="10" fill="#f8f9fd" stroke="#c3cae0" stroke-width="1.5"/><polygon points="191.4,225.3 197.7,236.0 185.2,236.0" stroke="#1f2933" stroke-width="3" fill="none" stroke-linejoin="round"/><polygon points="208.5,225.3 214.8,236.0 202.3,236.0" stroke="#1f2933" stroke-width="3" fill="none" stroke-linejoin="round"/><polygon points="191.4,242.4 197.7,253.1 185.2,253.1" stroke="#1f2933" stroke-width="3" fill="none" stroke-linejoin="round"/><rect x="240.0" y="211.0" width="60" height="60" rx="12" fill="#fff3bf" stroke="#f0b429" stroke-width="2"/><text x="270.0" y="241.0" font-size="33" fill="#b07908" text-anchor="middle" font-weight="bold" dominant-baseline="middle">?</text><rect x="30" y="330" width="165" height="95" rx="12" fill="#f1f3f9" stroke="#c3cae0" stroke-width="2"/><text x="46" y="348" font-size="18" fill="#3b5bdb" text-anchor="middle" font-weight="bold" dominant-baseline="middle">A</text><polygon points="99.0,352.7 108.8,369.7 89.2,369.7" stroke="#1f2933" stroke-width="3" fill="none" stroke-linejoin="round"/><polygon points="126.0,352.7 135.8,369.7 116.2,369.7" stroke="#1f2933" stroke-width="3" fill="none" stroke-linejoin="round"/><polygon points="99.0,379.7 108.8,396.7 89.2,396.7" stroke="#1f2933" stroke-width="3" fill="none" stroke-linejoin="round"/><rect x="205" y="330" width="165" height="95" rx="12" fill="#f1f3f9" stroke="#c3cae0" stroke-width="2"/><text x="221" y="348" font-size="18" fill="#3b5bdb" text-anchor="middle" font-weight="bold" dominant-baseline="middle">B</text><polygon points="287.5,347.5 295.4,366.6 316.0,368.2 300.3,381.7 305.1,401.8 287.5,391.0 269.9,401.8 274.7,381.7 259.0,368.2 279.6,366.6" stroke="#1f2933" stroke-width="4" fill="none" stroke-linejoin="round"/><rect x="30" y="435" width="165" height="95" rx="12" fill="#f1f3f9" stroke="#c3cae0" stroke-width="2"/><text x="46" y="453" font-size="18" fill="#3b5bdb" text-anchor="middle" font-weight="bold" dominant-baseline="middle">C</text><polygon points="99.0,457.7 108.8,463.3 108.8,474.7 99.0,480.3 89.2,474.7 89.2,463.3" stroke="#1f2933" stroke-width="3" fill="none" stroke-linejoin="round"/><polygon points="126.0,457.7 135.8,463.3 135.8,474.7 126.0,480.3 116.2,474.7 116.2,463.3" stroke="#1f2933" stroke-width="3" fill="none" stroke-linejoin="round"/><polygon points="99.0,484.7 108.8,490.3 108.8,501.7 99.0,507.3 89.2,501.7 89.2,490.3" stroke="#1f2933" stroke-width="3" fill="none" stroke-linejoin="round"/><rect x="205" y="435" width="165" height="95" rx="12" fill="#f1f3f9" stroke="#c3cae0" stroke-width="2"/><text x="221" y="453" font-size="18" fill="#3b5bdb" text-anchor="middle" font-weight="bold" dominant-baseline="middle">D</text><polygon points="274.0,471.2 283.8,476.8 283.8,488.2 274.0,493.8 264.2,488.2 264.2,476.8" stroke="#1f2933" stroke-width="3" fill="none" stroke-linejoin="round"/><polygon points="301.0,471.2 310.8,476.8 310.8,488.2 301.0,493.8 291.2,488.2 291.2,476.8" stroke="#1f2933" stroke-width="3" fill="none" stroke-linejoin="round"/></svg>