<svg xmlns="http://www.w3.org/2000/svg" viewBox="0 0 400 540" width="400" height="540" font-family="Verdana,Arial,sans-serif"><rect x="0" y="0" width="400" height="540" fill="#ffffff"/><text x="200.0" y="40" font-size="20" fill="#3b5bdb" text-anchor="middle" font-weight="bold" dominant-baseline="middle">Find the missing piece</text><rect x="99" y="70" width="62" height="62" rx="10" fill="#f8f9fd" stroke="#c3cae0" stroke-width="1.5"/><g transform="rotate(0 130.0 101.0)"><rect x="119.55" y="90.55" width="20.900000000000002" height="20.900000000000002" rx="3" stroke="#c92a2a" stroke-width="4" fill="none"/></g><rect x="169" y="70" width="62" height="62" rx="10" fill="#f8f9fd" stroke="#c3cae0" stroke-width="1.5"/><polygon points="200.0,90.5 209.0,106.2 191.0,106.2" stroke="#c92a2a" stroke-width="4" fill="none" stroke-linejoin="round"/><rect x="239" y="70" width="62" height="62" rx="10" fill="#f8f9fd" stroke="#c3cae0" stroke-width="1.5"/><polygon points="277.4,93.6 277.4,108.4 262.6,108.4 262.6,93.6" stroke="#c92a2a" stroke-width="4" fill="none" stroke-linejoin="round"/><rect x="99" y="140" width="62" height="62" rx="10" fill="#f8f9fd" stroke="#c3cae0" stroke-width="1.5"/><g transform="rotate(0 130.0 171.0)"><rect x="114.8" y="155.8" width="30.400000000000002" height="30.400000000000002" rx="3" stroke="#c92a2a" stroke-width="4" fill="none"/></g><rect x="169" y="140" width="62" height="62" rx="10" fill="#f8f9fd" stroke="#c3cae0" stroke-width="1.5"/><polygon points="200.0,155.8 213.2,178.6 186.8,178.6" stroke="#c92a2a" stroke-width="4" fill="none" stroke-linejoin="round"/><rect x="239" y="140" width="62" height="62" rx="10" fill="#f8f9fd" stroke="#c3cae0" stroke-width="1.5"/><polygon points="280.7,160.3 280.7,181.7 259.3,181.7 259.3,160.3" stroke="#c92a2a" stroke-width="4" fill="none" stroke-linejoin="round"/><rect x="99" y="210" width="62" height="62" rx="10" fill="#f8f9fd" stroke="#c3cae0" stroke-width="1.5"/><g transform="rotate(0 130.0 241.0)"><rect x="109.1" y="220.1" width="41.800000000000004" height="41.800000000000004" rx="3" stroke="#c92a2a" stroke-width="4" fill="none"/></g><rect x="169" y="210" width="62" height="62" rx="10" fill="#f8f9fd" stroke="#c3cae0" stroke-width="1.5"/><polygon points="200.0,220.1 218.1,251.4 181.9,251.4" stroke="#c92a2a" stroke-width="4" fill="none" stroke-linejoin="round"/><rect x="240.0" y="211.0" width="60" height="60" rx="12" fill="#fff3bf" stroke="#f0b429" stroke-width="2"/><text x="270.0" y="241.0" font-size="33" fill="#b07908" text-anchor="middle" font-weight="bold" dominant-baseline="middle">?</text><rect x="30" y="330" width="165" height="95" rx="12" fill="#f1f3f9" stroke="#c3cae0" stroke-width="2"/><text x="46" y="348" font-size="18" fill="#3b5bdb" text-anchor="middle" font-weight="bold" dominant-baseline="middle">A</text><polygon points="112.5,344.5 141.1,394.0 83.9,394.0" stroke="#c92a2a" stroke-width="4" fill="none" stroke-linejoin="round"/><rect x="205" y="330" width="165" height="95" rx="12" fill="#f1f3f9" stroke="#c3cae0" stroke-width="2"/><text x="221" y="348" font-size="18" fill="#3b5bdb" text-anchor="middle" font-weight="bold" dominant-baseline="middle">B</text><g transform="rotate(0 287.5 377.5)"><rect x="271.0" y="361.0" width="33.0" height="33.0" rx="3" stroke="#c92a2a" stroke-width="4" fill="none"/></g><rect x="30" y="435" width="165" height="95" rx="12" fill="#f1f3f9" stroke="#c3cae0" stroke-width="2"/><text x="46" y="453" font-size="18" fill="#3b5bdb" text-anchor="middle" font-weight="bold" dominant-baseline="middle">C</text><g transform="rotate(0 112.5 482.5)"><rect x="79.5" y="449.5" width="66.0" height="66.0" rx="3" stroke="#c92a2a" stroke-width="4" fill="none"/></g><rect x="205" y="435" width="165" height="95" rx="12" fill="#f1f3f9" stroke="#c3cae0" stroke-width="2"/><text x="221" y="453" font-size="18" fill="#3b5bdb" text-anchor="middle" font-weight="bold" dominant-baseline="middle">D</text><polygon points="310.8,459.2 310.8,505.8 264.2,505.8 264.2,459.2" stroke="#c92a2a" stroke-width="4" fill="none" stroke-linejoin="round"/></svg>