<svg xmlns="http://www.w3.org/2000/svg" viewBox="0 0 400 540" width="400" height="540" font-family="Verdana,Arial,sans-serif"><rect x="0" y="0" width="400" height="540" fill="#ffffff"/><text x="200.0" y="40" font-size="20" fill="#3b5bdb" text-anchor="middle" font-weight="bold" dominant-baseline="middle">Find the missing piece</text><rect x="99" y="70" width="62" height="62" rx="10" fill="#f8f9fd" stroke="#c3cae0" stroke-width="1.5"/><polygon points="130.0,82.0 135.0,94.1 148.1,95.1 138.1,103.6 141.2,116.4 130.0,109.5 118.8,116.4 121.9,103.6 111.9,95.1 125.0,94.1" stroke="#1c7ed6" stroke-width="4" fill="none" stroke-linejoin="round"/><rect x="169" y="70" width="62" height="62" rx="10" fill="#f8f9fd" stroke="#c3cae0" stroke-width="1.5"/><polygon points="219.0,101.0 206.9,106.0 205.9,119.1 197.4,109.1 184.6,112.2 191.4,101.0 184.6,89.8 197.4,92.9 205.9,82.9 206.9,96.0" stroke="#1c7ed6" stroke-width="4" fill="none" stroke-linejoin="round"/><rect x="239" y="70" width="62" height="62" rx="10" fill="#f8f9fd" stroke="#c3cae0" stroke-width="1.5"/><polygon points="270.0,120.0 265.0,107.9 251.9,106.9 261.9,98.4 258.8,85.6 270.0,92.5 281.2,85.6 278.1,98.4 288.1,106.9 275.0,107.9" stroke="#1c7ed6" stroke-width="4" fill="none" stroke-linejoin="round"/><rect x="99" y="140" width="62" height="62" rx="10" fill="#f8f9fd" stroke="#c3cae0" stroke-width="1.5"/><polygon points="130.0,152.0 135.0,164.1 148.1,165.1 138.1,173.6 141.2,186.4 130.0,179.6 118.8,186.4 121.9,173.6 111.9,165.1 125.0,164.1" stroke="#c92a2a" stroke-width="4" fill="none" stroke-linejoin="round"/><rect x="169" y="140" width="62" height="62" rx="10" fill="#f8f9fd" stroke="#c3cae0" stroke-width="1.5"/><polygon points="219.0,171.0 206.9,176.0 205.9,189.1 197.4,179.1 184.6,182.2 191.4,171.0 184.6,159.8 197.4,162.9 205.9,152.9 206.9,166.0" stroke="#c92a2a" stroke-width="4" fill="none" stroke-linejoin="round"/><rect x="239" y="140" width="62" height="62" rx="10" fill="#f8f9fd" stroke="#c3cae0" stroke-width="1.5"/><polygon points="270.0,190.0 265.0,177.9 251.9,176.9 261.9,168.4 258.8,155.6 270.0,162.4 281.2,155.6 278.1,168.4 288.1,176.9 275.0,177.9" stroke="#c92a2a" stroke-width="4" fill="none" stroke-linejoin="round"/><rect x="99" y="210" width="62" height="62" rx="10" fill="#f8f9fd" stroke="#c3cae0" stroke-width="1.5"/><polygon points="130.0,222.0 135.0,234.1 148.1,235.1 138.1,243.6 141.2,256.4 130.0,249.6 118.8,256.4 121.9,243.6 111.9,235.1 125.0,234.1" stroke="#5f3dc4" stroke-width="4" fill="none" stroke-linejoin="round"/><rect x="169" y="210" width="62" height="62" rx="10" fill="#f8f9fd" stroke="#c3cae0" stroke-width="1.5"/><polygon points="219.0,241.0 206.9,246.0 205.9,259.1 197.4,249.1 184.6,252.2 191.4,241.0 184.6,229.8 197.4,232.9 205.9,222.9 206.9,236.0" stroke="#5f3dc4" stroke-width="4" fill="none" stroke-linejoin="round"/><rect x="240.0" y="211.0" width="60" height="60" rx="12" fill="#fff3bf" stroke="#f0b429" stroke-width="2"/><text x="270.0" y="241.0" font-size="33" fill="#b07908" text-anchor="middle" font-weight="bold" dominant-baseline="middle">?</text><rect x="30" y="330" width="165" height="95" rx="12" fill="#f1f3f9" stroke="#c3cae0" stroke-width="2"/><text x="46" y="348" font-size="18" fill="#3b5bdb" text-anchor="middle" font-weight="bold" dominant-baseline="middle">A</text><polygon points="112.5,407.5 104.6,388.4 84.0,386.8 99.7,373.3 94.9,353.2 112.5,364.0 130.1,353.2 125.3,373.3 141.0,386.8 120.4,388.4" stroke="#1c7ed6" stroke-width="4" fill="none" stroke-linejoin="round"/><rect x="205" y="330" width="165" height="95" rx="12" fill="#f1f3f9" stroke="#c3cae0" stroke-width="2"/><text x="221" y="348" font-size="18" fill="#3b5bdb" text-anchor="middle" font-weight="bold" dominant-baseline="middle">B</text><polygon points="287.5,407.5 279.6,388.4 259.0,386.8 274.7,373.3 269.9,353.2 287.5,364.0 305.1,353.2 300.3,373.3 316.0,386.8 295.4,388.4" stroke="#c92a2a" stroke-width="4" fill="none" stroke-linejoin="round"/><rect x="30" y="435" width="165" height="95" rx="12" fill="#f1f3f9" stroke="#c3cae0" stroke-width="2"/><text x="46" y="453" font-size="18" fill="#3b5bdb" text-anchor="middle" font-weight="bold" dominant-baseline="middle">C</text><polygon points="112.5,512.5 104.6,493.4 84.0,491.8 99.7,478.3 94.9,458.2 112.5,469.0 130.1,458.2 125.3,478.3 141.0,491.8 120.4,493.4" stroke="#5f3dc4" stroke-width="4" fill="none" stroke-linejoin="round"/><rect x="205" y="435" width="165" height="95" rx="12" fill="#f1f3f9" stroke="#c3cae0" stroke-width="2"/><text x="221" y="453" font-size="18" fill="#3b5bdb" text-anchor="middle" font-weight="bold" dominant-baseline="middle">D</text><polygon points="287.5,452.5 295.4,471.6 316.0,473.2 300.3,486.7 305.1,506.8 287.5,496.0 269.9,506.8 274.7,486.7 259.0,473.2 279.6,471.6" stroke="#5f3dc4" stroke-width="4" fill="none" stroke-linejoin="round"/></svg>