<svg xmlns="http://www.w3.org/2000/svg" viewBox="0 0 400 540" width="400" height="540" font-family="Verdana,Arial,sans-serif"><rect x="0" y="0" width="400" height="540" fill="#ffffff"/><text x="200.0" y="40" font-size="20" fill="#3b5bdb" text-anchor="middle" font-weight="bold" dominant-baseline="middle">Find the missing piece</text><rect x="99" y="70" width="62" height="62" rx="10" fill="#f8f9fd" stroke="#c3cae0" stroke-width="1.5"/><polygon points="130.0,82.0 146.5,110.5 113.5,110.5" stroke="#1c7ed6" stroke-width="4" fill="none" stroke-linejoin="round"/><rect x="169" y="70" width="62" height="62" rx="10" fill="#f8f9fd" stroke="#c3cae0" stroke-width="1.5"/><polygon points="191.4,93.8 197.7,104.6 185.2,104.6" stroke="#1c7ed6" stroke-width="3" fill="none" stroke-linejoin="round"/><polygon points="208.5,93.8 214.8,104.6 202.3,104.6" stroke="#1c7ed6" stroke-width="3" fill="none" stroke-linejoin="round"/><rect x="239" y="70" width="62" height="62" rx="10" fill="#f8f9fd" stroke="#c3cae0" stroke-width="1.5"/><polygon points="261.4,85.3 267.7,96.0 255.2,96.0" stroke="#1c7ed6" stroke-width="3" fill="none" stroke-linejoin="round"/><polygon points="278.6,85.3 284.8,96.0 272.3,96.0" stroke="#1c7ed6" stroke-width="3" fill="none" stroke-linejoin="round"/><polygon points="261.4,102.4 267.7,113.1 255.2,113.1" stroke="#1c7ed6" stroke-width="3" fill="none" stroke-linejoin="round"/><rect x="99" y="140" width="62" height="62" rx="10" fill="#f8f9fd" stroke="#c3cae0" stroke-width="1.5"/><circle cx="130.0" cy="171.0" r="19.0" stroke="#1c7ed6" stroke-width="4" fill="none"/><rect x="169" y="140" width="62" height="62" rx="10" fill="#f8f9fd" stroke="#c3cae0" stroke-width="1.5"/><circle cx="191.45" cy="171.0" r="7.182" stroke="#1c7ed6" stroke-width="3" fill="none"/><circle cx="208.54999999999998" cy="171.0" r="7.182" stroke="#1c7ed6" stroke-width="3" fill="none"/><rect x="239" y="140" width="62" height="62" rx="10" fill="#f8f9fd" stroke="#c3cae0" stroke-width="1.5"/><circle cx="261.45" cy="162.45" r="7.182" stroke="#1c7ed6" stroke-width="3" fill="none"/><circle cx="278.55" cy="162.45" r="7.182" stroke="#1c7ed6" stroke-width="3" fill="none"/><circle cx="261.45" cy="179.54999999999998" r="7.182" stroke="#1c7ed6" stroke-width="3" fill="none"/><rect x="99" y="210" width="62" height="62" rx="10" fill="#f8f9fd" stroke="#c3cae0" stroke-width="1.5"/><polygon points="130.0,222.0 146.5,231.5 146.5,250.5 130.0,260.0 113.5,250.5 113.5,231.5" stroke="#1c7ed6" stroke-width="4" fill="none" stroke-linejoin="round"/><rect x="169" y="210" width="62" height="62" rx="10" fill="#f8f9fd" stroke="#c3cae0" stroke-width="1.5"/><polygon points="191.4,233.8 197.7,237.4 197.7,244.6 191.4,248.2 185.2,244.6 185.2,237.4" stroke="#1c7ed6" stroke-width="3" fill="none" stroke-linejoin="round"/><polygon points="208.5,233.8 214.8,237.4 214.8,244.6 208.5,248.2 202.3,244.6 202.3,237.4" stroke="#1c7ed6" stroke-width="3" fill="none" stroke-linejoin="round"/><rect x="240.0" y="211.0" width="60" height="60" rx="12" fill="#fff3bf" stroke="#f0b429" stroke-width="2"/><text x="270.0" y="241.0" font-size="33" fill="#b07908" text-anchor="middle" font-weight="bold" dominant-baseline="middle">?</text><rect x="30" y="330" width="165" height="95" rx="12" fill="#f1f3f9" stroke="#c3cae0" stroke-width="2"/><text x="46" y="348" font-size="18" fill="#3b5bdb" text-anchor="middle" font-weight="bold" dominant-baseline="middle">A</text><polygon points="112.5,347.5 138.5,362.5 138.5,392.5 112.5,407.5 86.5,392.5 86.5,362.5" stroke="#1c7ed6" stroke-width="4" fill="none" stroke-linejoin="round"/><rect x="205" y="330" width="165" height="95" rx="12" fill="#f1f3f9" stroke="#c3cae0" stroke-width="2"/><text x="221" y="348" font-size="18" fill="#3b5bdb" text-anchor="middle" font-weight="bold" dominant-baseline="middle">B</text><circle cx="274.0" cy="364.0" r="11.34" stroke="#1c7ed6" stroke-width="3" fill="none"/><circle cx="301.0" cy="364.0" r="11.34" stroke="#1c7ed6" stroke-width="3" fill="none"/><circle cx="274.0" cy="391.0" r="11.34" stroke="#1c7ed6" stroke-width="3" fill="none"/><rect x="30" y="435" width="165" height="95" rx="12" fill="#f1f3f9" stroke="#c3cae0" stroke-width="2"/><text x="46" y="453" font-size="18" fill="#3b5bdb" text-anchor="middle" font-weight="bold" dominant-baseline="middle">C</text><polygon points="99.0,457.7 108.8,463.3 108.8,474.7 99.0,480.3 89.2,474.7 89.2,463.3" stroke="#1c7ed6" stroke-width="3" fill="none" stroke-linejoin="round"/><polygon points="126.0,457.7 135.8,463.3 135.8,474.7 126.0,480.3 116.2,474.7 116.2,463.3" stroke="#1c7ed6" stroke-width="3" fill="none" stroke-linejoin="round"/><polygon points="99.0,484.7 108.8,490.3 108.8,501.7 99.0,507.3 89.2,501.7 89.2,490.3" stroke="#1c7ed6" stroke-width="3" fill="none" stroke-linejoin="round"/><rect x="205" y="435" width="165" height="95" rx="12" fill="#f1f3f9" stroke="#c3cae0" stroke-width="2"/><text x="221" y="453" font-size="18" fill="#3b5bdb" text-anchor="middle" font-weight="bold" dominant-baseline="middle">D</text><polygon points="274.0,457.7 283.8,474.7 264.2,474.7" stroke="#1c7ed6" stroke-width="3" fill="none" stroke-linejoin="round"/><polygon points="301.0,457.7 310.8,474.7 291.2,474.7" stroke="#1c7ed6" stroke-width="3" fill="none" stroke-linejoin="round"/><polygon points="274.0,484.7 283.8,501.7 264.2,501.7" stroke="#1c7ed6" stroke-width="3" fill="none" stroke-linejoin="round"/></svg>