<svg xmlns="http://www.w3.org/2000/svg" viewBox="0 0 400 540" width="400" height="540" font-family="Verdana,Arial,sans-serif"><rect x="0" y="0" width="400" height="540" fill="#ffffff"/><text x="200.0" y="40" font-size="20" fill="#3b5bdb" text-anchor="middle" font-weight="bold" dominant-baseline="middle">Find the missing piece</text><rect x="99" y="70" width="62" height="62" rx="10" fill="#f8f9fd" stroke="#c3cae0" stroke-width="1.5"/><polygon points="130.0,90.5 139.0,106.2 121.0,106.2" stroke="#5f3dc4" stroke-width="4" fill="none" stroke-linejoin="round"/><rect x="169" y="70" width="62" height="62" rx="10" fill="#f8f9fd" stroke="#c3cae0" stroke-width="1.5"/><polygon points="200.0,85.8 213.2,108.6 186.8,108.6" stroke="#5f3dc4" stroke-width="4" fill="none" stroke-linejoin="round"/><rect x="239" y="70" width="62" height="62" rx="10" fill="#f8f9fd" stroke="#c3cae0" stroke-width="1.5"/><polygon points="270.0,80.1 288.1,111.5 251.9,111.5" stroke="#5f3dc4" stroke-width="4" fill="none" stroke-linejoin="round"/><rect x="99" y="140" width="62" height="62" rx="10" fill="#f8f9fd" stroke="#c3cae0" stroke-width="1.5"/><polygon points="121.5,163.8 127.7,174.6 115.2,174.6" stroke="#5f3dc4" stroke-width="3" fill="none" stroke-linejoin="round"/><polygon points="138.6,163.8 144.8,174.6 132.3,174.6" stroke="#5f3dc4" stroke-width="3" fill="none" stroke-linejoin="round"/><rect x="169" y="140" width="62" height="62" rx="10" fill="#f8f9fd" stroke="#c3cae0" stroke-width="1.5"/><polygon points="191.4,163.8 197.7,174.6 185.2,174.6" stroke="#5f3dc4" stroke-width="3" fill="none" stroke-linejoin="round"/><polygon points="208.5,163.8 214.8,174.6 202.3,174.6" stroke="#5f3dc4" stroke-width="3" fill="none" stroke-linejoin="round"/><rect x="239" y="140" width="62" height="62" rx="10" fill="#f8f9fd" stroke="#c3cae0" stroke-width="1.5"/><polygon points="261.4,163.8 267.7,174.6 255.2,174.6" stroke="#5f3dc4" stroke-width="3" fill="none" stroke-linejoin="round"/><polygon points="278.6,163.8 284.8,174.6 272.3,174.6" stroke="#5f3dc4" stroke-width="3" fill="none" stroke-linejoin="round"/><rect x="99" y="210" width="62" height="62" rx="10" fill="#f8f9fd" stroke="#c3cae0" stroke-width="1.5"/><polygon points="121.5,225.3 127.7,236.0 115.2,236.0" stroke="#5f3dc4" stroke-width="3" fill="none" stroke-linejoin="round"/><polygon points="138.6,225.3 144.8,236.0 132.3,236.0" stroke="#5f3dc4" stroke-width="3" fill="none" stroke-linejoin="round"/><polygon points="121.5,242.4 127.7,253.1 115.2,253.1" stroke="#5f3dc4" stroke-width="3" fill="none" stroke-linejoin="round"/><rect x="169" y="210" width="62" height="62" rx="10" fill="#f8f9fd" stroke="#c3cae0" stroke-width="1.5"/><polygon points="191.4,225.3 197.7,236.0 185.2,236.0" stroke="#5f3dc4" stroke-width="3" fill="none" stroke-linejoin="round"/><polygon points="208.5,225.3 214.8,236.0 202.3,236.0" stroke="#5f3dc4" stroke-width="3" fill="none" stroke-linejoin="round"/><polygon points="191.4,242.4 197.7,253.1 185.2,253.1" stroke="#5f3dc4" stroke-width="3" fill="none" stroke-linejoin="round"/><rect x="240.0" y="211.0" width="60" height="60" rx="12" fill="#fff3bf" stroke="#f0b429" stroke-width="2"/><text x="270.0" y="241.0" font-size="33" fill="#b07908" text-anchor="middle" font-weight="bold" dominant-baseline="middle">?</text><rect x="30" y="330" width="165" height="95" rx="12" fill="#f1f3f9" stroke="#c3cae0" stroke-width="2"/><text x="46" y="348" font-size="18" fill="#3b5bdb" text-anchor="middle" font-weight="bold" dominant-baseline="middle">A</text><polygon points="112.5,361.0 126.8,385.8 98.2,385.8" stroke="#5f3dc4" stroke-width="4" fill="none" stroke-linejoin="round"/><rect x="205" y="330" width="165" height="95" rx="12" fill="#f1f3f9" stroke="#c3cae0" stroke-width="2"/><text x="221" y="348" font-size="18" fill="#3b5bdb" text-anchor="middle" font-weight="bold" dominant-baseline="middle">B</text><polygon points="274.0,366.2 283.8,383.2 264.2,383.2" stroke="#5f3dc4" stroke-width="3" fill="none" stroke-linejoin="round"/><polygon points="301.0,366.2 310.8,383.2 291.2,383.2" stroke="#5f3dc4" stroke-width="3" fill="none" stroke-linejoin="round"/><rect x="30" y="435" width="165" height="95" rx="12" fill="#f1f3f9" stroke="#c3cae0" stroke-width="2"/><text x="46" y="453" font-size="18" fill="#3b5bdb" text-anchor="middle" font-weight="bold" dominant-baseline="middle">C</text><polygon points="112.5,449.5 141.1,499.0 83.9,499.0" stroke="#5f3dc4" stroke-width="4" fill="none" stroke-linejoin="round"/><rect x="205" y="435" width="165" height="95" rx="12" fill="#f1f3f9" stroke="#c3cae0" stroke-width="2"/><text x="221" y="453" font-size="18" fill="#3b5bdb" text-anchor="middle" font-weight="bold" dominant-baseline="middle">D</text><polygon points="274.0,457.7 283.8,474.7 264.2,474.7" stroke="#5f3dc4" stroke-width="3" fill="none" stroke-linejoin="round"/><polygon points="301.0,457.7 310.8,474.7 291.2,474.7" stroke="#5f3dc4" stroke-width="3" fill="none" stroke-linejoin="round"/><polygon points="274.0,484.7 283.8,501.7 264.2,501.7" stroke="#5f3dc4" stroke-width="3" fill="none" stroke-linejoin="round"/></svg>