<svg xmlns="http://www.w3.org/2000/svg" viewBox="0 0 400 540" width="400" height="540" font-family="Verdana,Arial,sans-serif"><rect x="0" y="0" width="400" height="540" fill="#ffffff"/><text x="200.0" y="40" font-size="20" fill="#3b5bdb" text-anchor="middle" font-weight="bold" dominant-baseline="middle">Find the missing piece</text><rect x="99" y="70" width="62" height="62" rx="10" fill="#f8f9fd" stroke="#c3cae0" stroke-width="1.5"/><g transform="rotate(0 130.0 101.0)"><line x1="119.55" y1="101.0" x2="140.45" y2="101.0" stroke="#1c7ed6" stroke-width="4" stroke-linecap="round"/><polyline points="130.45,92.0 140.45,101.0 130.45,110.0" stroke="#1c7ed6" stroke-width="4" fill="none" stroke-linecap="round" stroke-linejoin="round"/></g><rect x="169" y="70" width="62" height="62" rx="10" fill="#f8f9fd" stroke="#c3cae0" stroke-width="1.5"/><g transform="rotate(90 200.0 101.0)"><line x1="189.55" y1="101.0" x2="210.45" y2="101.0" stroke="#1c7ed6" stroke-width="4" stroke-linecap="round"/><polyline points="200.45,92.0 210.45,101.0 200.45,110.0" stroke="#1c7ed6" stroke-width="4" fill="none" stroke-linecap="round" stroke-linejoin="round"/></g><rect x="239" y="70" width="62" height="62" rx="10" fill="#f8f9fd" stroke="#c3cae0" stroke-width="1.5"/><g transform="rotate(180 270.0 101.0)"><line x1="259.55" y1="101.0" x2="280.45" y2="101.0" stroke="#1c7ed6" stroke-width="4" stroke-linecap="round"/><polyline points="270.45,92.0 280.45,101.0 270.45,110.0" stroke="#1c7ed6" stroke-width="4" fill="none" stroke-linecap="round" stroke-linejoin="round"/></g><rect x="99" y="140" width="62" height="62" rx="10" fill="#f8f9fd" stroke="#c3cae0" stroke-width="1.5"/><g transform="rotate(0 130.0 171.0)"><line x1="114.8" y1="171.0" x2="145.2" y2="171.0" stroke="#1c7ed6" stroke-width="4" stroke-linecap="round"/><polyline points="135.2,162.0 145.2,171.0 135.2,180.0" stroke="#1c7ed6" stroke-width="4" fill="none" stroke-linecap="round" stroke-linejoin="round"/></g><rect x="169" y="140" width="62" height="62" rx="10" fill="#f8f9fd" stroke="#c3cae0" stroke-width="1.5"/><g transform="rotate(90 200.0 171.0)"><line x1="184.8" y1="171.0" x2="215.2" y2="171.0" stroke="#1c7ed6" stroke-width="4" stroke-linecap="round"/><polyline points="205.2,162.0 215.2,171.0 205.2,180.0" stroke="#1c7ed6" stroke-width="4" fill="none" stroke-linecap="round" stroke-linejoin="round"/></g><rect x="239" y="140" width="62" height="62" rx="10" fill="#f8f9fd" stroke="#c3cae0" stroke-width="1.5"/><g transform="rotate(180 270.0 171.0)"><line x1="254.8" y1="171.0" x2="285.2" y2="171.0" stroke="#1c7ed6" stroke-width="4" stroke-linecap="round"/><polyline points="275.2,162.0 285.2,171.0 275.2,180.0" stroke="#1c7ed6" stroke-width="4" fill="none" stroke-linecap="round" stroke-linejoin="round"/></g><rect x="99" y="210" width="62" height="62" rx="10" fill="#f8f9fd" stroke="#c3cae0" stroke-width="1.5"/><g transform="rotate(0 130.0 241.0)"><line x1="109.1" y1="241.0" x2="150.9" y2="241.0" stroke="#1c7ed6" stroke-width="4" stroke-linecap="round"/><polyline points="140.9,232.0 150.9,241.0 140.9,250.0" stroke="#1c7ed6" stroke-width="4" fill="none" stroke-linecap="round" stroke-linejoin="round"/></g><rect x="169" y="210" width="62" height="62" rx="10" fill="#f8f9fd" stroke="#c3cae0" stroke-width="1.5"/><g transform="rotate(90 200.0 241.0)"><line x1="179.1" y1="241.0" x2="220.9" y2="241.0" stroke="#1c7ed6" stroke-width="4" stroke-linecap="round"/><polyline points="210.9,232.0 220.9,241.0 210.9,250.0" stroke="#1c7ed6" stroke-width="4" fill="none" stroke-linecap="round" stroke-linejoin="round"/></g><rect x="240.0" y="211.0" width="60" height="60" rx="12" fill="#fff3bf" stroke="#f0b429" stroke-width="2"/><text x="270.0" y="241.0" font-size="33" fill="#b07908" text-anchor="middle" font-weight="bold" dominant-baseline="middle">?</text><rect x="30" y="330" width="165" height="95" rx="12" fill="#f1f3f9" stroke="#c3cae0" stroke-width="2"/><text x="46" y="348" font-size="18" fill="#3b5bdb" text-anchor="middle" font-weight="bold" dominant-baseline="middle">A</text><g transform="rotate(180 112.5 377.5)"><line x1="88.5" y1="377.5" x2="136.5" y2="377.5" stroke="#1c7ed6" stroke-width="4" stroke-linecap="round"/><polyline points="126.5,368.5 136.5,377.5 126.5,386.5" stroke="#1c7ed6" stroke-width="4" fill="none" stroke-linecap="round" stroke-linejoin="round"/></g><rect x="205" y="330" width="165" height="95" rx="12" fill="#f1f3f9" stroke="#c3cae0" stroke-width="2"/><text x="221" y="348" font-size="18" fill="#3b5bdb" text-anchor="middle" font-weight="bold" dominant-baseline="middle">B</text><g transform="rotate(180 287.5 377.5)"><line x1="254.5" y1="377.5" x2="320.5" y2="377.5" stroke="#1c7ed6" stroke-width="4" stroke-linecap="round"/><polyline points="310.5,368.5 320.5,377.5 310.5,386.5" stroke="#1c7ed6" stroke-width="4" fill="none" stroke-linecap="round" stroke-linejoin="round"/></g><rect x="30" y="435" width="165" height="95" rx="12" fill="#f1f3f9" stroke="#c3cae0" stroke-width="2"/><text x="46" y="453" font-size="18" fill="#3b5bdb" text-anchor="middle" font-weight="bold" dominant-baseline="middle">C</text><g transform="rotate(90 112.5 482.5)"><line x1="79.5" y1="482.5" x2="145.5" y2="482.5" stroke="#1c7ed6" stroke-width="4" stroke-linecap="round"/><polyline points="135.5,473.5 145.5,482.5 135.5,491.5" stroke="#1c7ed6" stroke-width="4" fill="none" stroke-linecap="round" stroke-linejoin="round"/></g><rect x="205" y="435" width="165" height="95" rx="12" fill="#f1f3f9" stroke="#c3cae0" stroke-width="2"/><text x="221" y="453" font-size="18" fill="#3b5bdb" text-anchor="middle" font-weight="bold" dominant-baseline="middle">D</text><g transform="rotate(0 287.5 482.5)"><line x1="271.0" y1="482.5" x2="304.0" y2="482.5" stroke="#1c7ed6" stroke-width="4" stroke-linecap="round"/><polyline points="294.0,473.5 304.0,482.5 294.0,491.5" stroke="#1c7ed6" stroke-width="4" fill="none" stroke-linecap="round" stroke-linejoin="round"/></g></svg>