<svg xmlns="http://www.w3.org/2000/svg" viewBox="0 0 400 540" width="400" height="540" font-family="Verdana,Arial,sans-serif"><rect x="0" y="0" width="400" height="540" fill="#ffffff"/><text x="200.0" y="40" font-size="20" fill="#3b5bdb" text-anchor="middle" font-weight="bold" dominant-baseline="middle">Find the missing piece</text><rect x="99" y="70" width="62" height="62" rx="10" fill="#f8f9fd" stroke="#c3cae0" stroke-width="1.5"/><polygon points="143.4,87.6 143.4,114.4 116.6,114.4 116.6,87.6" stroke="#c92a2a" stroke-width="4" fill="none" stroke-linejoin="round"/><rect x="169" y="70" width="62" height="62" rx="10" fill="#f8f9fd" stroke="#c3cae0" stroke-width="1.5"/><polygon points="196.5,95.9 196.5,106.1 186.4,106.1 186.4,95.9" stroke="#c92a2a" stroke-width="3" fill="none" stroke-linejoin="round"/><polygon points="213.6,95.9 213.6,106.1 203.5,106.1 203.5,95.9" stroke="#c92a2a" stroke-width="3" fill="none" stroke-linejoin="round"/><rect x="239" y="70" width="62" height="62" rx="10" fill="#f8f9fd" stroke="#c3cae0" stroke-width="1.5"/><polygon points="266.5,87.4 266.5,97.5 256.4,97.5 256.4,87.4" stroke="#c92a2a" stroke-width="3" fill="none" stroke-linejoin="round"/><polygon points="283.6,87.4 283.6,97.5 273.5,97.5 273.5,87.4" stroke="#c92a2a" stroke-width="3" fill="none" stroke-linejoin="round"/><polygon points="266.5,104.5 266.5,114.6 256.4,114.6 256.4,104.5" stroke="#c92a2a" stroke-width="3" fill="none" stroke-linejoin="round"/><rect x="99" y="140" width="62" height="62" rx="10" fill="#f8f9fd" stroke="#c3cae0" stroke-width="1.5"/><polygon points="143.4,157.6 143.4,184.4 116.6,184.4 116.6,157.6" stroke="#e8590c" stroke-width="4" fill="none" stroke-linejoin="round"/><rect x="169" y="140" width="62" height="62" rx="10" fill="#f8f9fd" stroke="#c3cae0" stroke-width="1.5"/><polygon points="196.5,165.9 196.5,176.1 186.4,176.1 186.4,165.9" stroke="#e8590c" stroke-width="3" fill="none" stroke-linejoin="round"/><polygon points="213.6,165.9 213.6,176.1 203.5,176.1 203.5,165.9" stroke="#e8590c" stroke-width="3" fill="none" stroke-linejoin="round"/><rect x="239" y="140" width="62" height="62" rx="10" fill="#f8f9fd" stroke="#c3cae0" stroke-width="1.5"/><polygon points="266.5,157.4 266.5,167.5 256.4,167.5 256.4,157.4" stroke="#e8590c" stroke-width="3" fill="none" stroke-linejoin="round"/><polygon points="283.6,157.4 283.6,167.5 273.5,167.5 273.5,157.4" stroke="#e8590c" stroke-width="3" fill="none" stroke-linejoin="round"/><polygon points="266.5,174.5 266.5,184.6 256.4,184.6 256.4,174.5" stroke="#e8590c" stroke-width="3" fill="none" stroke-linejoin="round"/><rect x="99" y="210" width="62" height="62" rx="10" fill="#f8f9fd" stroke="#c3cae0" stroke-width="1.5"/><polygon points="143.4,227.6 143.4,254.4 116.6,254.4 116.6,227.6" stroke="#1f2933" stroke-width="4" fill="none" stroke-linejoin="round"/><rect x="169" y="210" width="62" height="62" rx="10" fill="#f8f9fd" stroke="#c3cae0" stroke-width="1.5"/><polygon points="196.5,235.9 196.5,246.1 186.4,246.1 186.4,235.9" stroke="#1f2933" stroke-width="3" fill="none" stroke-linejoin="round"/><polygon points="213.6,235.9 213.6,246.1 203.5,246.1 203.5,235.9" stroke="#1f2933" stroke-width="3" fill="none" stroke-linejoin="round"/><rect x="240.0" y="211.0" width="60" height="60" rx="12" fill="#fff3bf" stroke="#f0b429" stroke-width="2"/><text x="270.0" y="241.0" font-size="33" fill="#b07908" text-anchor="middle" font-weight="bold" dominant-baseline="middle">?</text><rect x="30" y="330" width="165" height="95" rx="12" fill="#f1f3f9" stroke="#c3cae0" stroke-width="2"/><text x="46" y="348" font-size="18" fill="#3b5bdb" text-anchor="middle" font-weight="bold" dominant-baseline="middle">A</text><polygon points="107.0,356.0 107.0,372.0 91.0,372.0 91.0,356.0" stroke="#e8590c" stroke-width="3" fill="none" stroke-linejoin="round"/><polygon points="134.0,356.0 134.0,372.0 118.0,372.0 118.0,356.0" stroke="#e8590c" stroke-width="3" fill="none" stroke-linejoin="round"/><polygon points="107.0,383.0 107.0,399.0 91.0,399.0 91.0,383.0" stroke="#e8590c" stroke-width="3" fill="none" stroke-linejoin="round"/><rect x="205" y="330" width="165" height="95" rx="12" fill="#f1f3f9" stroke="#c3cae0" stroke-width="2"/><text x="221" y="348" font-size="18" fill="#3b5bdb" text-anchor="middle" font-weight="bold" dominant-baseline="middle">B</text><polygon points="308.7,356.3 308.7,398.7 266.3,398.7 266.3,356.3" stroke="#c92a2a" stroke-width="4" fill="none" stroke-linejoin="round"/><rect x="30" y="435" width="165" height="95" rx="12" fill="#f1f3f9" stroke="#c3cae0" stroke-width="2"/><text x="46" y="453" font-size="18" fill="#3b5bdb" text-anchor="middle" font-weight="bold" dominant-baseline="middle">C</text><polygon points="107.0,461.0 107.0,477.0 91.0,477.0 91.0,461.0" stroke="#1f2933" stroke-width="3" fill="none" stroke-linejoin="round"/><polygon points="134.0,461.0 134.0,477.0 118.0,477.0 118.0,461.0" stroke="#1f2933" stroke-width="3" fill="none" stroke-linejoin="round"/><polygon points="107.0,488.0 107.0,504.0 91.0,504.0 91.0,488.0" stroke="#1f2933" stroke-width="3" fill="none" stroke-linejoin="round"/><rect x="205" y="435" width="165" height="95" rx="12" fill="#f1f3f9" stroke="#c3cae0" stroke-width="2"/><text x="221" y="453" font-size="18" fill="#3b5bdb" text-anchor="middle" font-weight="bold" dominant-baseline="middle">D</text><polygon points="282.0,461.0 282.0,477.0 266.0,477.0 266.0,461.0" stroke="#c92a2a" stroke-width="3" fill="none" stroke-linejoin="round"/><polygon points="309.0,461.0 309.0,477.0 293.0,477.0 293.0,461.0" stroke="#c92a2a" stroke-width="3" fill="none" stroke-linejoin="round"/><polygon points="282.0,488.0 282.0,504.0 266.0,504.0 266.0,488.0" stroke="#c92a2a" stroke-width="3" fill="none" stroke-linejoin="round"/></svg>