<svg xmlns="http://www.w3.org/2000/svg" viewBox="0 0 400 540" width="400" height="540" font-family="Verdana,Arial,sans-serif"><rect x="0" y="0" width="400" height="540" fill="#ffffff"/><text x="200.0" y="40" font-size="20" fill="#3b5bdb" text-anchor="middle" font-weight="bold" dominant-baseline="middle">Find the missing piece</text><rect x="99" y="70" width="62" height="62" rx="10" fill="#f8f9fd" stroke="#c3cae0" stroke-width="1.5"/><polygon points="130.0,82.0 135.0,94.1 148.1,95.1 138.1,103.6 141.2,116.4 130.0,109.5 118.8,116.4 121.9,103.6 111.9,95.1 125.0,94.1" stroke="#c92a2a" stroke-width="4" fill="none" stroke-linejoin="round"/><rect x="169" y="70" width="62" height="62" rx="10" fill="#f8f9fd" stroke="#c3cae0" stroke-width="1.5"/><polygon points="200.0,82.0 205.0,94.1 218.1,95.1 208.1,103.6 211.2,116.4 200.0,109.5 188.8,116.4 191.9,103.6 181.9,95.1 195.0,94.1" stroke="#1f2933" stroke-width="4" fill="none" stroke-linejoin="round"/><rect x="239" y="70" width="62" height="62" rx="10" fill="#f8f9fd" stroke="#c3cae0" stroke-width="1.5"/><polygon points="270.0,82.0 275.0,94.1 288.1,95.1 278.1,103.6 281.2,116.4 270.0,109.5 258.8,116.4 261.9,103.6 251.9,95.1 265.0,94.1" stroke="#e8590c" stroke-width="4" fill="none" stroke-linejoin="round"/><rect x="99" y="140" width="62" height="62" rx="10" fill="#f8f9fd" stroke="#c3cae0" stroke-width="1.5"/><polygon points="149.0,171.0 136.9,176.0 135.9,189.1 127.4,179.1 114.6,182.2 121.5,171.0 114.6,159.8 127.4,162.9 135.9,152.9 136.9,166.0" stroke="#c92a2a" stroke-width="4" fill="none" stroke-linejoin="round"/><rect x="169" y="140" width="62" height="62" rx="10" fill="#f8f9fd" stroke="#c3cae0" stroke-width="1.5"/><polygon points="219.0,171.0 206.9,176.0 205.9,189.1 197.4,179.1 184.6,182.2 191.4,171.0 184.6,159.8 197.4,162.9 205.9,152.9 206.9,166.0" stroke="#1f2933" stroke-width="4" fill="none" stroke-linejoin="round"/><rect x="239" y="140" width="62" height="62" rx="10" fill="#f8f9fd" stroke="#c3cae0" stroke-width="1.5"/><polygon points="289.0,171.0 276.9,176.0 275.9,189.1 267.4,179.1 254.6,182.2 261.4,171.0 254.6,159.8 267.4,162.9 275.9,152.9 276.9,166.0" stroke="#e8590c" stroke-width="4" fill="none" stroke-linejoin="round"/><rect x="99" y="210" width="62" height="62" rx="10" fill="#f8f9fd" stroke="#c3cae0" stroke-width="1.5"/><polygon points="130.0,260.0 125.0,247.9 111.9,246.9 121.9,238.4 118.8,225.6 130.0,232.4 141.2,225.6 138.1,238.4 148.1,246.9 135.0,247.9" stroke="#c92a2a" stroke-width="4" fill="none" stroke-linejoin="round"/><rect x="169" y="210" width="62" height="62" rx="10" fill="#f8f9fd" stroke="#c3cae0" stroke-width="1.5"/><polygon points="200.0,260.0 195.0,247.9 181.9,246.9 191.9,238.4 188.8,225.6 200.0,232.4 211.2,225.6 208.1,238.4 218.1,246.9 205.0,247.9" stroke="#1f2933" stroke-width="4" fill="none" stroke-linejoin="round"/><rect x="240.0" y="211.0" width="60" height="60" rx="12" fill="#fff3bf" stroke="#f0b429" stroke-width="2"/><text x="270.0" y="241.0" font-size="33" fill="#b07908" text-anchor="middle" font-weight="bold" dominant-baseline="middle">?</text><rect x="30" y="330" width="165" height="95" rx="12" fill="#f1f3f9" stroke="#c3cae0" stroke-width="2"/><text x="46" y="348" font-size="18" fill="#3b5bdb" text-anchor="middle" font-weight="bold" dominant-baseline="middle">A</text><polygon points="112.5,407.5 104.6,388.4 84.0,386.8 99.7,373.3 94.9,353.2 112.5,364.0 130.1,353.2 125.3,373.3 141.0,386.8 120.4,388.4" stroke="#e8590c" stroke-width="4" fill="none" stroke-linejoin="round"/><rect x="205" y="330" width="165" height="95" rx="12" fill="#f1f3f9" stroke="#c3cae0" stroke-width="2"/><text x="221" y="348" font-size="18" fill="#3b5bdb" text-anchor="middle" font-weight="bold" dominant-baseline="middle">B</text><polygon points="287.5,347.5 295.4,366.6 316.0,368.2 300.3,381.7 305.1,401.8 287.5,391.0 269.9,401.8 274.7,381.7 259.0,368.2 279.6,366.6" stroke="#e8590c" stroke-width="4" fill="none" stroke-linejoin="round"/><rect x="30" y="435" width="165" height="95" rx="12" fill="#f1f3f9" stroke="#c3cae0" stroke-width="2"/><text x="46" y="453" font-size="18" fill="#3b5bdb" text-anchor="middle" font-weight="bold" dominant-baseline="middle">C</text><polygon points="112.5,452.5 120.4,471.6 141.0,473.2 125.3,486.7 130.1,506.8 112.5,496.0 94.9,506.8 99.7,486.7 84.0,473.2 104.6,471.6" stroke="#c92a2a" stroke-width="4" fill="none" stroke-linejoin="round"/><rect x="205" y="435" width="165" height="95" rx="12" fill="#f1f3f9" stroke="#c3cae0" stroke-width="2"/><text x="221" y="453" font-size="18" fill="#3b5bdb" text-anchor="middle" font-weight="bold" dominant-baseline="middle">D</text><polygon points="287.5,512.5 279.6,493.4 259.0,491.8 274.7,478.3 269.9,458.2 287.5,469.0 305.1,458.2 300.3,478.3 316.0,491.8 295.4,493.4" stroke="#c92a2a" stroke-width="4" fill="none" stroke-linejoin="round"/></svg>