<svg xmlns="http://www.w3.org/2000/svg" viewBox="0 0 400 540" width="400" height="540" font-family="Verdana,Arial,sans-serif"><rect x="0" y="0" width="400" height="540" fill="#ffffff"/><text x="200.0" y="40" font-size="20" fill="#3b5bdb" text-anchor="middle" font-weight="bold" dominant-baseline="middle">Find the missing piece</text><rect x="99" y="70" width="62" height="62" rx="10" fill="#f8f9fd" stroke="#c3cae0" stroke-width="1.5"/><polygon points="130.0,90.5 139.0,95.8 139.0,106.2 130.0,111.5 121.0,106.2 121.0,95.8" stroke="#e8590c" stroke-width="4" fill="none" stroke-linejoin="round"/><rect x="169" y="70" width="62" height="62" rx="10" fill="#f8f9fd" stroke="#c3cae0" stroke-width="1.5"/><polygon points="200.0,85.8 213.2,93.4 213.2,108.6 200.0,116.2 186.8,108.6 186.8,93.4" stroke="#e8590c" stroke-width="4" fill="none" stroke-linejoin="round"/><rect x="239" y="70" width="62" height="62" rx="10" fill="#f8f9fd" stroke="#c3cae0" stroke-width="1.5"/><polygon points="270.0,80.1 288.1,90.5 288.1,111.5 270.0,121.9 251.9,111.5 251.9,90.5" stroke="#e8590c" stroke-width="4" fill="none" stroke-linejoin="round"/><rect x="99" y="140" width="62" height="62" rx="10" fill="#f8f9fd" stroke="#c3cae0" stroke-width="1.5"/><polygon points="130.0,160.6 139.0,165.8 139.0,176.2 130.0,181.4 121.0,176.2 121.0,165.8" stroke="#5f3dc4" stroke-width="4" fill="none" stroke-linejoin="round"/><rect x="169" y="140" width="62" height="62" rx="10" fill="#f8f9fd" stroke="#c3cae0" stroke-width="1.5"/><polygon points="200.0,155.8 213.2,163.4 213.2,178.6 200.0,186.2 186.8,178.6 186.8,163.4" stroke="#5f3dc4" stroke-width="4" fill="none" stroke-linejoin="round"/><rect x="239" y="140" width="62" height="62" rx="10" fill="#f8f9fd" stroke="#c3cae0" stroke-width="1.5"/><polygon points="270.0,150.1 288.1,160.6 288.1,181.4 270.0,191.9 251.9,181.4 251.9,160.6" stroke="#5f3dc4" stroke-width="4" fill="none" stroke-linejoin="round"/><rect x="99" y="210" width="62" height="62" rx="10" fill="#f8f9fd" stroke="#c3cae0" stroke-width="1.5"/><polygon points="130.0,230.6 139.0,235.8 139.0,246.2 130.0,251.4 121.0,246.2 121.0,235.8" stroke="#1f2933" stroke-width="4" fill="none" stroke-linejoin="round"/><rect x="169" y="210" width="62" height="62" rx="10" fill="#f8f9fd" stroke="#c3cae0" stroke-width="1.5"/><polygon points="200.0,225.8 213.2,233.4 213.2,248.6 200.0,256.2 186.8,248.6 186.8,233.4" stroke="#1f2933" stroke-width="4" fill="none" stroke-linejoin="round"/><rect x="240.0" y="211.0" width="60" height="60" rx="12" fill="#fff3bf" stroke="#f0b429" stroke-width="2"/><text x="270.0" y="241.0" font-size="33" fill="#b07908" text-anchor="middle" font-weight="bold" dominant-baseline="middle">?</text><rect x="30" y="330" width="165" height="95" rx="12" fill="#f1f3f9" stroke="#c3cae0" stroke-width="2"/><text x="46" y="348" font-size="18" fill="#3b5bdb" text-anchor="middle" font-weight="bold" dominant-baseline="middle">A</text><polygon points="112.5,344.5 141.1,361.0 141.1,394.0 112.5,410.5 83.9,394.0 83.9,361.0" stroke="#5f3dc4" stroke-width="4" fill="none" stroke-linejoin="round"/><rect x="205" y="330" width="165" height="95" rx="12" fill="#f1f3f9" stroke="#c3cae0" stroke-width="2"/><text x="221" y="348" font-size="18" fill="#3b5bdb" text-anchor="middle" font-weight="bold" dominant-baseline="middle">B</text><polygon points="287.5,353.5 308.3,365.5 308.3,389.5 287.5,401.5 266.7,389.5 266.7,365.5" stroke="#1f2933" stroke-width="4" fill="none" stroke-linejoin="round"/><rect x="30" y="435" width="165" height="95" rx="12" fill="#f1f3f9" stroke="#c3cae0" stroke-width="2"/><text x="46" y="453" font-size="18" fill="#3b5bdb" text-anchor="middle" font-weight="bold" dominant-baseline="middle">C</text><polygon points="112.5,449.5 141.1,466.0 141.1,499.0 112.5,515.5 83.9,499.0 83.9,466.0" stroke="#1f2933" stroke-width="4" fill="none" stroke-linejoin="round"/><rect x="205" y="435" width="165" height="95" rx="12" fill="#f1f3f9" stroke="#c3cae0" stroke-width="2"/><text x="221" y="453" font-size="18" fill="#3b5bdb" text-anchor="middle" font-weight="bold" dominant-baseline="middle">D</text><polygon points="287.5,466.0 301.8,474.2 301.8,490.8 287.5,499.0 273.2,490.8 273.2,474.2" stroke="#e8590c" stroke-width="4" fill="none" stroke-linejoin="round"/></svg>