<svg xmlns="http://www.w3.org/2000/svg" viewBox="0 0 400 540" width="400" height="540" font-family="Verdana,Arial,sans-serif"><rect x="0" y="0" width="400" height="540" fill="#ffffff"/><text x="200.0" y="40" font-size="20" fill="#3b5bdb" text-anchor="middle" font-weight="bold" dominant-baseline="middle">Find the missing piece</text><rect x="99" y="70" width="62" height="62" rx="10" fill="#f8f9fd" stroke="#c3cae0" stroke-width="1.5"/><polygon points="130.0,82.0 135.0,94.1 148.1,95.1 138.1,103.6 141.2,116.4 130.0,109.5 118.8,116.4 121.9,103.6 111.9,95.1 125.0,94.1" stroke="#c92a2a" stroke-width="4" fill="none" stroke-linejoin="round"/><rect x="169" y="70" width="62" height="62" rx="10" fill="#f8f9fd" stroke="#c3cae0" stroke-width="1.5"/><polygon points="219.0,101.0 206.9,106.0 205.9,119.1 197.4,109.1 184.6,112.2 191.4,101.0 184.6,89.8 197.4,92.9 205.9,82.9 206.9,96.0" stroke="#c92a2a" stroke-width="4" fill="none" stroke-linejoin="round"/><rect x="239" y="70" width="62" height="62" rx="10" fill="#f8f9fd" stroke="#c3cae0" stroke-width="1.5"/><polygon points="270.0,120.0 265.0,107.9 251.9,106.9 261.9,98.4 258.8,85.6 270.0,92.5 281.2,85.6 278.1,98.4 288.1,106.9 275.0,107.9" stroke="#c92a2a" stroke-width="4" fill="none" stroke-linejoin="round"/><rect x="99" y="140" width="62" height="62" rx="10" fill="#f8f9fd" stroke="#c3cae0" stroke-width="1.5"/><polygon points="121.5,163.8 123.3,168.4 128.3,168.8 124.5,172.0 125.7,176.8 121.5,174.2 117.2,176.8 118.4,172.0 114.6,168.8 119.6,168.4" stroke="#c92a2a" stroke-width="3" fill="none" stroke-linejoin="round"/><polygon points="138.6,163.8 140.4,168.4 145.4,168.8 141.6,172.0 142.8,176.8 138.6,174.2 134.3,176.8 135.5,172.0 131.7,168.8 136.7,168.4" stroke="#c92a2a" stroke-width="3" fill="none" stroke-linejoin="round"/><rect x="169" y="140" width="62" height="62" rx="10" fill="#f8f9fd" stroke="#c3cae0" stroke-width="1.5"/><polygon points="198.6,171.0 194.1,172.9 193.7,177.8 190.5,174.1 185.6,175.2 188.2,171.0 185.6,166.8 190.5,167.9 193.7,164.2 194.1,169.1" stroke="#c92a2a" stroke-width="3" fill="none" stroke-linejoin="round"/><polygon points="215.7,171.0 211.2,172.9 210.8,177.8 207.6,174.1 202.7,175.2 205.3,171.0 202.7,166.8 207.6,167.9 210.8,164.2 211.2,169.1" stroke="#c92a2a" stroke-width="3" fill="none" stroke-linejoin="round"/><rect x="239" y="140" width="62" height="62" rx="10" fill="#f8f9fd" stroke="#c3cae0" stroke-width="1.5"/><polygon points="261.4,178.2 259.6,173.6 254.6,173.2 258.4,170.0 257.2,165.2 261.4,167.8 265.7,165.2 264.5,170.0 268.3,173.2 263.3,173.6" stroke="#c92a2a" stroke-width="3" fill="none" stroke-linejoin="round"/><polygon points="278.6,178.2 276.7,173.6 271.7,173.2 275.5,170.0 274.3,165.2 278.6,167.8 282.8,165.2 281.6,170.0 285.4,173.2 280.4,173.6" stroke="#c92a2a" stroke-width="3" fill="none" stroke-linejoin="round"/><rect x="99" y="210" width="62" height="62" rx="10" fill="#f8f9fd" stroke="#c3cae0" stroke-width="1.5"/><polygon points="121.5,225.3 123.3,229.8 128.3,230.2 124.5,233.4 125.7,238.3 121.5,235.7 117.2,238.3 118.4,233.4 114.6,230.2 119.6,229.8" stroke="#c92a2a" stroke-width="3" fill="none" stroke-linejoin="round"/><polygon points="138.6,225.3 140.4,229.8 145.4,230.2 141.6,233.4 142.8,238.3 138.6,235.7 134.3,238.3 135.5,233.4 131.7,230.2 136.7,229.8" stroke="#c92a2a" stroke-width="3" fill="none" stroke-linejoin="round"/><polygon points="121.5,242.4 123.3,246.9 128.3,247.3 124.5,250.5 125.7,255.4 121.5,252.8 117.2,255.4 118.4,250.5 114.6,247.3 119.6,246.9" stroke="#c92a2a" stroke-width="3" fill="none" stroke-linejoin="round"/><rect x="169" y="210" width="62" height="62" rx="10" fill="#f8f9fd" stroke="#c3cae0" stroke-width="1.5"/><polygon points="198.6,232.4 194.1,234.3 193.7,239.3 190.5,235.5 185.6,236.7 188.2,232.4 185.6,228.2 190.5,229.4 193.7,225.6 194.1,230.6" stroke="#c92a2a" stroke-width="3" fill="none" stroke-linejoin="round"/><polygon points="215.7,232.4 211.2,234.3 210.8,239.3 207.6,235.5 202.7,236.7 205.3,232.4 202.7,228.2 207.6,229.4 210.8,225.6 211.2,230.6" stroke="#c92a2a" stroke-width="3" fill="none" stroke-linejoin="round"/><polygon points="198.6,249.5 194.1,251.4 193.7,256.4 190.5,252.6 185.6,253.8 188.2,249.5 185.6,245.3 190.5,246.5 193.7,242.7 194.1,247.7" stroke="#c92a2a" stroke-width="3" fill="none" stroke-linejoin="round"/><rect x="240.0" y="211.0" width="60" height="60" rx="12" fill="#fff3bf" stroke="#f0b429" stroke-width="2"/><text x="270.0" y="241.0" font-size="33" fill="#b07908" text-anchor="middle" font-weight="bold" dominant-baseline="middle">?</text><rect x="30" y="330" width="165" height="95" rx="12" fill="#f1f3f9" stroke="#c3cae0" stroke-width="2"/><text x="46" y="348" font-size="18" fill="#3b5bdb" text-anchor="middle" font-weight="bold" dominant-baseline="middle">A</text><polygon points="110.3,364.0 103.1,367.0 102.5,374.8 97.4,368.9 89.8,370.7 93.9,364.0 89.8,357.3 97.4,359.1 102.5,353.2 103.1,361.0" stroke="#c92a2a" stroke-width="3" fill="none" stroke-linejoin="round"/><polygon points="137.3,364.0 130.1,367.0 129.5,374.8 124.4,368.9 116.8,370.7 120.9,364.0 116.8,357.3 124.4,359.1 129.5,353.2 130.1,361.0" stroke="#c92a2a" stroke-width="3" fill="none" stroke-linejoin="round"/><polygon points="110.3,391.0 103.1,394.0 102.5,401.8 97.4,395.9 89.8,397.7 93.9,391.0 89.8,384.3 97.4,386.1 102.5,380.2 103.1,388.0" stroke="#c92a2a" stroke-width="3" fill="none" stroke-linejoin="round"/><rect x="205" y="330" width="165" height="95" rx="12" fill="#f1f3f9" stroke="#c3cae0" stroke-width="2"/><text x="221" y="348" font-size="18" fill="#3b5bdb" text-anchor="middle" font-weight="bold" dominant-baseline="middle">B</text><polygon points="274.0,352.7 277.0,359.9 284.8,360.5 278.9,365.6 280.7,373.2 274.0,369.1 267.3,373.2 269.1,365.6 263.2,360.5 271.0,359.9" stroke="#c92a2a" stroke-width="3" fill="none" stroke-linejoin="round"/><polygon points="301.0,352.7 304.0,359.9 311.8,360.5 305.9,365.6 307.7,373.2 301.0,369.1 294.3,373.2 296.1,365.6 290.2,360.5 298.0,359.9" stroke="#c92a2a" stroke-width="3" fill="none" stroke-linejoin="round"/><polygon points="274.0,379.7 277.0,386.9 284.8,387.5 278.9,392.6 280.7,400.2 274.0,396.1 267.3,400.2 269.1,392.6 263.2,387.5 271.0,386.9" stroke="#c92a2a" stroke-width="3" fill="none" stroke-linejoin="round"/><rect x="30" y="435" width="165" height="95" rx="12" fill="#f1f3f9" stroke="#c3cae0" stroke-width="2"/><text x="46" y="453" font-size="18" fill="#3b5bdb" text-anchor="middle" font-weight="bold" dominant-baseline="middle">C</text><polygon points="112.5,512.5 104.6,493.4 84.0,491.8 99.7,478.3 94.9,458.2 112.5,469.0 130.1,458.2 125.3,478.3 141.0,491.8 120.4,493.4" stroke="#c92a2a" stroke-width="4" fill="none" stroke-linejoin="round"/><rect x="205" y="435" width="165" height="95" rx="12" fill="#f1f3f9" stroke="#c3cae0" stroke-width="2"/><text x="221" y="453" font-size="18" fill="#3b5bdb" text-anchor="middle" font-weight="bold" dominant-baseline="middle">D</text><polygon points="274.0,480.3 271.0,473.1 263.2,472.5 269.1,467.4 267.3,459.8 274.0,463.9 280.7,459.8 278.9,467.4 284.8,472.5 277.0,473.1" stroke="#c92a2a" stroke-width="3" fill="none" stroke-linejoin="round"/><polygon points="301.0,480.3 298.0,473.1 290.2,472.5 296.1,467.4 294.3,459.8 301.0,463.9 307.7,459.8 305.9,467.4 311.8,472.5 304.0,473.1" stroke="#c92a2a" stroke-width="3" fill="none" stroke-linejoin="round"/><polygon points="274.0,507.3 271.0,500.1 263.2,499.5 269.1,494.4 267.3,486.8 274.0,490.9 280.7,486.8 278.9,494.4 284.8,499.5 277.0,500.1" stroke="#c92a2a" stroke-width="3" fill="none" stroke-linejoin="round"/></svg>