<svg xmlns="http://www.w3.org/2000/svg" viewBox="0 0 400 540" width="400" height="540" font-family="Verdana,Arial,sans-serif"><rect x="0" y="0" width="400" height="540" fill="#ffffff"/><text x="200.0" y="40" font-size="20" fill="#3b5bdb" text-anchor="middle" font-weight="bold" dominant-baseline="middle">Find the missing piece</text><rect x="99" y="70" width="62" height="62" rx="10" fill="#f8f9fd" stroke="#c3cae0" stroke-width="1.5"/><polygon points="130.0,82.0 148.1,95.1 141.2,116.4 118.8,116.4 111.9,95.1" stroke="#1f2933" stroke-width="4" fill="none" stroke-linejoin="round"/><rect x="169" y="70" width="62" height="62" rx="10" fill="#f8f9fd" stroke="#c3cae0" stroke-width="1.5"/><polygon points="219.0,101.0 205.9,119.1 184.6,112.2 184.6,89.8 205.9,82.9" stroke="#1f2933" stroke-width="4" fill="none" stroke-linejoin="round"/><rect x="239" y="70" width="62" height="62" rx="10" fill="#f8f9fd" stroke="#c3cae0" stroke-width="1.5"/><polygon points="270.0,120.0 251.9,106.9 258.8,85.6 281.2,85.6 288.1,106.9" stroke="#1f2933" stroke-width="4" fill="none" stroke-linejoin="round"/><rect x="99" y="140" width="62" height="62" rx="10" fill="#f8f9fd" stroke="#c3cae0" stroke-width="1.5"/><polygon points="121.5,163.8 128.3,168.8 125.7,176.8 117.2,176.8 114.6,168.8" stroke="#1f2933" stroke-width="3" fill="none" stroke-linejoin="round"/><polygon points="138.6,163.8 145.4,168.8 142.8,176.8 134.3,176.8 131.7,168.8" stroke="#1f2933" stroke-width="3" fill="none" stroke-linejoin="round"/><rect x="169" y="140" width="62" height="62" rx="10" fill="#f8f9fd" stroke="#c3cae0" stroke-width="1.5"/><polygon points="198.6,171.0 193.7,177.8 185.6,175.2 185.6,166.8 193.7,164.2" stroke="#1f2933" stroke-width="3" fill="none" stroke-linejoin="round"/><polygon points="215.7,171.0 210.8,177.8 202.7,175.2 202.7,166.8 210.8,164.2" stroke="#1f2933" stroke-width="3" fill="none" stroke-linejoin="round"/><rect x="239" y="140" width="62" height="62" rx="10" fill="#f8f9fd" stroke="#c3cae0" stroke-width="1.5"/><polygon points="261.4,178.2 254.6,173.2 257.2,165.2 265.7,165.2 268.3,173.2" stroke="#1f2933" stroke-width="3" fill="none" stroke-linejoin="round"/><polygon points="278.6,178.2 271.7,173.2 274.3,165.2 282.8,165.2 285.4,173.2" stroke="#1f2933" stroke-width="3" fill="none" stroke-linejoin="round"/><rect x="99" y="210" width="62" height="62" rx="10" fill="#f8f9fd" stroke="#c3cae0" stroke-width="1.5"/><polygon points="121.5,225.3 128.3,230.2 125.7,238.3 117.2,238.3 114.6,230.2" stroke="#1f2933" stroke-width="3" fill="none" stroke-linejoin="round"/><polygon points="138.6,225.3 145.4,230.2 142.8,238.3 134.3,238.3 131.7,230.2" stroke="#1f2933" stroke-width="3" fill="none" stroke-linejoin="round"/><polygon points="121.5,242.4 128.3,247.3 125.7,255.4 117.2,255.4 114.6,247.3" stroke="#1f2933" stroke-width="3" fill="none" stroke-linejoin="round"/><rect x="169" y="210" width="62" height="62" rx="10" fill="#f8f9fd" stroke="#c3cae0" stroke-width="1.5"/><polygon points="198.6,232.4 193.7,239.3 185.6,236.7 185.6,228.2 193.7,225.6" stroke="#1f2933" stroke-width="3" fill="none" stroke-linejoin="round"/><polygon points="215.7,232.4 210.8,239.3 202.7,236.7 202.7,228.2 210.8,225.6" stroke="#1f2933" stroke-width="3" fill="none" stroke-linejoin="round"/><polygon points="198.6,249.5 193.7,256.4 185.6,253.8 185.6,245.3 193.7,242.7" stroke="#1f2933" stroke-width="3" fill="none" stroke-linejoin="round"/><rect x="240.0" y="211.0" width="60" height="60" rx="12" fill="#fff3bf" stroke="#f0b429" stroke-width="2"/><text x="270.0" y="241.0" font-size="33" fill="#b07908" text-anchor="middle" font-weight="bold" dominant-baseline="middle">?</text><rect x="30" y="330" width="165" height="95" rx="12" fill="#f1f3f9" stroke="#c3cae0" stroke-width="2"/><text x="46" y="348" font-size="18" fill="#3b5bdb" text-anchor="middle" font-weight="bold" dominant-baseline="middle">A</text><polygon points="99.0,388.8 88.2,381.0 92.3,368.3 105.7,368.3 109.8,381.0" stroke="#1f2933" stroke-width="3" fill="none" stroke-linejoin="round"/><polygon points="126.0,388.8 115.2,381.0 119.3,368.3 132.7,368.3 136.8,381.0" stroke="#1f2933" stroke-width="3" fill="none" stroke-linejoin="round"/><rect x="205" y="330" width="165" height="95" rx="12" fill="#f1f3f9" stroke="#c3cae0" stroke-width="2"/><text x="221" y="348" font-size="18" fill="#3b5bdb" text-anchor="middle" font-weight="bold" dominant-baseline="middle">B</text><polygon points="274.0,375.3 263.2,367.5 267.3,354.8 280.7,354.8 284.8,367.5" stroke="#1f2933" stroke-width="3" fill="none" stroke-linejoin="round"/><polygon points="301.0,375.3 290.2,367.5 294.3,354.8 307.7,354.8 311.8,367.5" stroke="#1f2933" stroke-width="3" fill="none" stroke-linejoin="round"/><polygon points="274.0,402.3 263.2,394.5 267.3,381.8 280.7,381.8 284.8,394.5" stroke="#1f2933" stroke-width="3" fill="none" stroke-linejoin="round"/><rect x="30" y="435" width="165" height="95" rx="12" fill="#f1f3f9" stroke="#c3cae0" stroke-width="2"/><text x="46" y="453" font-size="18" fill="#3b5bdb" text-anchor="middle" font-weight="bold" dominant-baseline="middle">C</text><polygon points="110.3,469.0 102.5,479.8 89.8,475.7 89.8,462.3 102.5,458.2" stroke="#1f2933" stroke-width="3" fill="none" stroke-linejoin="round"/><polygon points="137.3,469.0 129.5,479.8 116.8,475.7 116.8,462.3 129.5,458.2" stroke="#1f2933" stroke-width="3" fill="none" stroke-linejoin="round"/><polygon points="110.3,496.0 102.5,506.8 89.8,502.7 89.8,489.3 102.5,485.2" stroke="#1f2933" stroke-width="3" fill="none" stroke-linejoin="round"/><rect x="205" y="435" width="165" height="95" rx="12" fill="#f1f3f9" stroke="#c3cae0" stroke-width="2"/><text x="221" y="453" font-size="18" fill="#3b5bdb" text-anchor="middle" font-weight="bold" dominant-baseline="middle">D</text><polygon points="287.5,512.5 259.0,491.8 269.9,458.2 305.1,458.2 316.0,491.8" stroke="#1f2933" stroke-width="4" fill="none" stroke-linejoin="round"/></svg>