<svg xmlns="http://www.w3.org/2000/svg" viewBox="0 0 400 540" width="400" height="540" font-family="Verdana,Arial,sans-serif"><rect x="0" y="0" width="400" height="540" fill="#ffffff"/><text x="200.0" y="40" font-size="20" fill="#3b5bdb" text-anchor="middle" font-weight="bold" dominant-baseline="middle">Which letter comes next?</text><rect x="35.0" y="150" width="48" height="48" rx="12" fill="#f1f3f9" stroke="#c3cae0" stroke-width="2"/><text x="59.0" y="174" font-size="22" fill="#1f2933" text-anchor="middle" font-weight="bold" dominant-baseline="middle">D</text><rect x="91.0" y="150" width="48" height="48" rx="12" fill="#f1f3f9" stroke="#c3cae0" stroke-width="2"/><text x="115.0" y="174" font-size="22" fill="#1f2933" text-anchor="middle" font-weight="bold" dominant-baseline="middle">G</text><rect x="147.0" y="150" width="48" height="48" rx="12" fill="#f1f3f9" stroke="#c3cae0" stroke-width="2"/><text x="171.0" y="174" font-size="22" fill="#1f2933" text-anchor="middle" font-weight="bold" dominant-baseline="middle">J</text><rect x="203.0" y="150" width="48" height="48" rx="12" fill="#f1f3f9" stroke="#c3cae0" stroke-width="2"/><text x="227.0" y="174" font-size="22" fill="#1f2933" text-anchor="middle" font-weight="bold" dominant-baseline="middle">M</text><rect x="259.0" y="150" width="48" height="48" rx="12" fill="#f1f3f9" stroke="#c3cae0" stroke-width="2"/><text x="283.0" y="174" font-size="22" fill="#1f2933" text-anchor="middle" font-weight="bold" dominant-baseline="middle">P</text><rect x="317.0" y="150" width="48" height="48" rx="12" fill="#fff3bf" stroke="#f0b429" stroke-width="2"/><text x="341.0" y="174" font-size="24" fill="#b07908" text-anchor="middle" font-weight="bold" dominant-baseline="middle">?</text><rect x="30" y="330" width="165" height="95" rx="12" fill="#f1f3f9" stroke="#c3cae0" stroke-width="2"/><text x="46" y="348" font-size="18" fill="#3b5bdb" text-anchor="middle" font-weight="bold" dominant-baseline="middle">A</text><text x="126.5" y="377.5" font-size="26" fill="#1f2933" text-anchor="middle" font-weight="bold" dominant-baseline="middle">P</text><rect x="205" y="330" width="165" height="95" rx="12" fill="#f1f3f9" stroke="#c3cae0" stroke-width="2"/><text x="221" y="348" font-size="18" fill="#3b5bdb" text-anchor="middle" font-weight="bold" dominant-baseline="middle">B</text><text x="301.5" y="377.5" font-size="26" fill="#1f2933" text-anchor="middle" font-weight="bold" dominant-baseline="middle">V</text><rect x="30" y="435" width="165" height="95" rx="12" fill="#f1f3f9" stroke="#c3cae0" stroke-width="2"/><text x="46" y="453" font-size="18" fill="#3b5bdb" text-anchor="middle" font-weight="bold" dominant-baseline="middle">C</text><text x="126.5" y="482.5" font-size="26" fill="#1f2933" text-anchor="middle" font-weight="bold" dominant-baseline="middle">U</text><rect x="205" y="435" width="165" height="95" rx="12" fill="#f1f3f9" stroke="#c3cae0" stroke-width="2"/><text x="221" y="453" font-size="18" fill="#3b5bdb" text-anchor="middle" font-weight="bold" dominant-baseline="middle">D</text><text x="301.5" y="482.5" font-size="26" fill="#1f2933" text-anchor="middle" font-weight="bold" dominant-baseline="middle">S</text></svg>