<svg xmlns="http://www.w3.org/2000/svg" viewBox="0 0 400 540" width="400" height="540" font-family="Verdana,Arial,sans-serif"><rect x="0" y="0" width="400" height="540" fill="#ffffff"/><text x="200.0" y="40" font-size="20" fill="#3b5bdb" text-anchor="middle" font-weight="bold" dominant-baseline="middle">A is to B as C is to ?</text><g transform="rotate(0 85 120)"><rect x="55.0" y="90.0" width="60.0" height="60.0" rx="3" stroke="#c92a2a" stroke-width="4" fill="none"/></g><g transform="rotate(0 200 120)"><line x1="176" y1="120" x2="224" y2="120" stroke="#828ba3" stroke-width="4" stroke-linecap="round"/><polyline points="214,111 224,120 214,129" stroke="#828ba3" stroke-width="4" fill="none" stroke-linecap="round" stroke-linejoin="round"/></g><g transform="rotate(0 305 120)"><rect x="288.5" y="103.5" width="33.0" height="33.0" rx="3" stroke="#c92a2a" stroke-width="4" fill="none"/></g><text x="85" y="168" font-size="13" fill="#828ba3" text-anchor="middle" font-weight="normal" dominant-baseline="middle">A</text><text x="305" y="168" font-size="13" fill="#828ba3" text-anchor="middle" font-weight="normal" dominant-baseline="middle">B</text><polygon points="106.2,213.8 106.2,256.2 63.8,256.2 63.8,213.8" stroke="#2b8a3e" stroke-width="4" fill="none" stroke-linejoin="round"/><g transform="rotate(0 200 235)"><line x1="176" y1="235" x2="224" y2="235" stroke="#828ba3" stroke-width="4" stroke-linecap="round"/><polyline points="214,226 224,235 214,244" stroke="#828ba3" stroke-width="4" fill="none" stroke-linecap="round" stroke-linejoin="round"/></g><rect x="275" y="205" width="60" height="60" rx="12" fill="#fff3bf" stroke="#f0b429" stroke-width="2"/><text x="305" y="235" font-size="33" fill="#b07908" text-anchor="middle" font-weight="bold" dominant-baseline="middle">?</text><text x="85" y="283" font-size="13" fill="#828ba3" text-anchor="middle" font-weight="normal" dominant-baseline="middle">C</text><rect x="30" y="330" width="165" height="95" rx="12" fill="#f1f3f9" stroke="#c3cae0" stroke-width="2"/><text x="46" y="348" font-size="18" fill="#3b5bdb" text-anchor="middle" font-weight="bold" dominant-baseline="middle">A</text><polygon points="133.7,356.3 133.7,398.7 91.3,398.7 91.3,356.3" stroke="#2b8a3e" stroke-width="4" fill="none" stroke-linejoin="round"/><rect x="205" y="330" width="165" height="95" rx="12" fill="#f1f3f9" stroke="#c3cae0" stroke-width="2"/><text x="221" y="348" font-size="18" fill="#3b5bdb" text-anchor="middle" font-weight="bold" dominant-baseline="middle">B</text><polygon points="315.1,349.9 315.1,405.1 259.9,405.1 259.9,349.9" stroke="#2b8a3e" stroke-width="4" fill="none" stroke-linejoin="round"/><rect x="30" y="435" width="165" height="95" rx="12" fill="#f1f3f9" stroke="#c3cae0" stroke-width="2"/><text x="46" y="453" font-size="18" fill="#3b5bdb" text-anchor="middle" font-weight="bold" dominant-baseline="middle">C</text><polygon points="129.5,465.5 129.5,499.5 95.5,499.5 95.5,465.5" stroke="#2b8a3e" stroke-width="4" fill="none" stroke-linejoin="round"/><rect x="205" y="435" width="165" height="95" rx="12" fill="#f1f3f9" stroke="#c3cae0" stroke-width="2"/><text x="221" y="453" font-size="18" fill="#3b5bdb" text-anchor="middle" font-weight="bold" dominant-baseline="middle">D</text><polygon points="299.2,470.8 299.2,494.2 275.8,494.2 275.8,470.8" stroke="#2b8a3e" stroke-width="4" fill="none" stroke-linejoin="round"/></svg>