<svg xmlns="http://www.w3.org/2000/svg" viewBox="0 0 400 540" width="400" height="540" font-family="Verdana,Arial,sans-serif"><rect x="0" y="0" width="400" height="540" fill="#ffffff"/><text x="200.0" y="40" font-size="20" fill="#3b5bdb" text-anchor="middle" font-weight="bold" dominant-baseline="middle">A is to B as C is to ?</text><polygon points="85.0,90.0 113.5,110.7 102.6,144.3 67.4,144.3 56.5,110.7" stroke="#e8590c" stroke-width="4" fill="none" stroke-linejoin="round"/><g transform="rotate(0 200 120)"><line x1="176" y1="120" x2="224" y2="120" stroke="#828ba3" stroke-width="4" stroke-linecap="round"/><polyline points="214,111 224,120 214,129" stroke="#828ba3" stroke-width="4" fill="none" stroke-linecap="round" stroke-linejoin="round"/></g><polygon points="305.0,90.0 333.5,110.7 322.6,144.3 287.4,144.3 276.5,110.7" stroke="#e8590c" stroke-width="4" fill="#e8590c" stroke-linejoin="round"/><text x="85" y="168" font-size="13" fill="#828ba3" text-anchor="middle" font-weight="normal" dominant-baseline="middle">A</text><text x="305" y="168" font-size="13" fill="#828ba3" text-anchor="middle" font-weight="normal" dominant-baseline="middle">B</text><polygon points="85.0,205.0 92.9,224.1 113.5,225.7 97.8,239.2 102.6,259.3 85.0,248.5 67.4,259.3 72.2,239.2 56.5,225.7 77.1,224.1" stroke="#5f3dc4" stroke-width="4" fill="none" stroke-linejoin="round"/><g transform="rotate(0 200 235)"><line x1="176" y1="235" x2="224" y2="235" stroke="#828ba3" stroke-width="4" stroke-linecap="round"/><polyline points="214,226 224,235 214,244" stroke="#828ba3" stroke-width="4" fill="none" stroke-linecap="round" stroke-linejoin="round"/></g><rect x="275" y="205" width="60" height="60" rx="12" fill="#fff3bf" stroke="#f0b429" stroke-width="2"/><text x="305" y="235" font-size="33" fill="#b07908" text-anchor="middle" font-weight="bold" dominant-baseline="middle">?</text><text x="85" y="283" font-size="13" fill="#828ba3" text-anchor="middle" font-weight="normal" dominant-baseline="middle">C</text><rect x="30" y="330" width="165" height="95" rx="12" fill="#f1f3f9" stroke="#c3cae0" stroke-width="2"/><text x="46" y="348" font-size="18" fill="#3b5bdb" text-anchor="middle" font-weight="bold" dominant-baseline="middle">A</text><polygon points="112.5,347.5 120.4,366.6 141.0,368.2 125.3,381.7 130.1,401.8 112.5,391.0 94.9,401.8 99.7,381.7 84.0,368.2 104.6,366.6" stroke="#5f3dc4" stroke-width="4" fill="none" stroke-linejoin="round"/><rect x="205" y="330" width="165" height="95" rx="12" fill="#f1f3f9" stroke="#c3cae0" stroke-width="2"/><text x="221" y="348" font-size="18" fill="#3b5bdb" text-anchor="middle" font-weight="bold" dominant-baseline="middle">B</text><polygon points="317.5,377.5 298.4,385.4 296.8,406.0 283.3,390.3 263.2,395.1 274.0,377.5 263.2,359.9 283.3,364.7 296.8,349.0 298.4,369.6" stroke="#5f3dc4" stroke-width="4" fill="none" stroke-linejoin="round"/><rect x="30" y="435" width="165" height="95" rx="12" fill="#f1f3f9" stroke="#c3cae0" stroke-width="2"/><text x="46" y="453" font-size="18" fill="#3b5bdb" text-anchor="middle" font-weight="bold" dominant-baseline="middle">C</text><polygon points="112.5,452.5 120.4,471.6 141.0,473.2 125.3,486.7 130.1,506.8 112.5,496.0 94.9,506.8 99.7,486.7 84.0,473.2 104.6,471.6" stroke="#5f3dc4" stroke-width="4" fill="#5f3dc4" stroke-linejoin="round"/><rect x="205" y="435" width="165" height="95" rx="12" fill="#f1f3f9" stroke="#c3cae0" stroke-width="2"/><text x="221" y="453" font-size="18" fill="#3b5bdb" text-anchor="middle" font-weight="bold" dominant-baseline="middle">D</text><polygon points="287.5,452.5 295.4,471.6 316.0,473.2 300.3,486.7 305.1,506.8 287.5,496.0 269.9,506.8 274.7,486.7 259.0,473.2 279.6,471.6" stroke="#e8590c" stroke-width="4" fill="none" stroke-linejoin="round"/></svg>