<svg xmlns="http://www.w3.org/2000/svg" viewBox="0 0 400 540" width="400" height="540" font-family="Verdana,Arial,sans-serif"><rect x="0" y="0" width="400" height="540" fill="#ffffff"/><text x="200.0" y="40" font-size="20" fill="#3b5bdb" text-anchor="middle" font-weight="bold" dominant-baseline="middle">A is to B as C is to ?</text><polygon points="106.2,98.8 106.2,141.2 63.8,141.2 63.8,98.8" stroke="#1c7ed6" stroke-width="4" fill="none" stroke-linejoin="round"/><g transform="rotate(0 200 120)"><line x1="176" y1="120" x2="224" y2="120" stroke="#828ba3" stroke-width="4" stroke-linecap="round"/><polyline points="214,111 224,120 214,129" stroke="#828ba3" stroke-width="4" fill="none" stroke-linecap="round" stroke-linejoin="round"/></g><polygon points="338.9,86.1 338.9,153.9 271.1,153.9 271.1,86.1" stroke="#1c7ed6" stroke-width="4" fill="none" stroke-linejoin="round"/><text x="85" y="168" font-size="13" fill="#828ba3" text-anchor="middle" font-weight="normal" dominant-baseline="middle">A</text><text x="305" y="168" font-size="13" fill="#828ba3" text-anchor="middle" font-weight="normal" dominant-baseline="middle">B</text><polygon points="85.0,205.0 113.5,225.7 102.6,259.3 67.4,259.3 56.5,225.7" stroke="#5f3dc4" stroke-width="4" fill="none" stroke-linejoin="round"/><g transform="rotate(0 200 235)"><line x1="176" y1="235" x2="224" y2="235" stroke="#828ba3" stroke-width="4" stroke-linecap="round"/><polyline points="214,226 224,235 214,244" stroke="#828ba3" stroke-width="4" fill="none" stroke-linecap="round" stroke-linejoin="round"/></g><rect x="275" y="205" width="60" height="60" rx="12" fill="#fff3bf" stroke="#f0b429" stroke-width="2"/><text x="305" y="235" font-size="33" fill="#b07908" text-anchor="middle" font-weight="bold" dominant-baseline="middle">?</text><text x="85" y="283" font-size="13" fill="#828ba3" text-anchor="middle" font-weight="normal" dominant-baseline="middle">C</text><rect x="30" y="330" width="165" height="95" rx="12" fill="#f1f3f9" stroke="#c3cae0" stroke-width="2"/><text x="46" y="348" font-size="18" fill="#3b5bdb" text-anchor="middle" font-weight="bold" dominant-baseline="middle">A</text><polygon points="112.5,361.0 128.2,372.4 122.2,390.8 102.8,390.8 96.8,372.4" stroke="#5f3dc4" stroke-width="4" fill="none" stroke-linejoin="round"/><rect x="205" y="330" width="165" height="95" rx="12" fill="#f1f3f9" stroke="#c3cae0" stroke-width="2"/><text x="221" y="348" font-size="18" fill="#3b5bdb" text-anchor="middle" font-weight="bold" dominant-baseline="middle">B</text><polygon points="287.5,338.5 324.6,365.4 310.4,409.1 264.6,409.1 250.4,365.4" stroke="#5f3dc4" stroke-width="4" fill="none" stroke-linejoin="round"/><rect x="30" y="435" width="165" height="95" rx="12" fill="#f1f3f9" stroke="#c3cae0" stroke-width="2"/><text x="46" y="453" font-size="18" fill="#3b5bdb" text-anchor="middle" font-weight="bold" dominant-baseline="middle">C</text><polygon points="112.5,434.5 158.2,467.7 140.7,521.3 84.3,521.3 66.8,467.7" stroke="#5f3dc4" stroke-width="4" fill="none" stroke-linejoin="round"/><rect x="205" y="435" width="165" height="95" rx="12" fill="#f1f3f9" stroke="#c3cae0" stroke-width="2"/><text x="221" y="453" font-size="18" fill="#3b5bdb" text-anchor="middle" font-weight="bold" dominant-baseline="middle">D</text><polygon points="287.5,452.5 316.0,473.2 305.1,506.8 269.9,506.8 259.0,473.2" stroke="#5f3dc4" stroke-width="4" fill="none" stroke-linejoin="round"/></svg>