<svg xmlns="http://www.w3.org/2000/svg" viewBox="0 0 400 540" width="400" height="540" font-family="Verdana,Arial,sans-serif"><rect x="0" y="0" width="400" height="540" fill="#ffffff"/><text x="200.0" y="40" font-size="20" fill="#3b5bdb" text-anchor="middle" font-weight="bold" dominant-baseline="middle">A is to B as C is to ?</text><polygon points="85.0,90.0 92.9,109.1 113.5,110.7 97.8,124.2 102.6,144.3 85.0,133.5 67.4,144.3 72.2,124.2 56.5,110.7 77.1,109.1" stroke="#1f2933" stroke-width="4" fill="none" stroke-linejoin="round"/><g transform="rotate(0 200 120)"><line x1="176" y1="120" x2="224" y2="120" stroke="#828ba3" stroke-width="4" stroke-linecap="round"/><polyline points="214,111 224,120 214,129" stroke="#828ba3" stroke-width="4" fill="none" stroke-linecap="round" stroke-linejoin="round"/></g><polygon points="305.0,103.5 309.4,114.0 320.7,114.9 312.1,122.3 314.7,133.3 305.0,127.4 295.3,133.3 297.9,122.3 289.3,114.9 300.6,114.0" stroke="#1f2933" stroke-width="4" fill="none" stroke-linejoin="round"/><text x="85" y="168" font-size="13" fill="#828ba3" text-anchor="middle" font-weight="normal" dominant-baseline="middle">A</text><text x="305" y="168" font-size="13" fill="#828ba3" text-anchor="middle" font-weight="normal" dominant-baseline="middle">B</text><polygon points="85.0,205.0 111.0,220.0 111.0,250.0 85.0,265.0 59.0,250.0 59.0,220.0" stroke="#5f3dc4" stroke-width="4" fill="none" stroke-linejoin="round"/><g transform="rotate(0 200 235)"><line x1="176" y1="235" x2="224" y2="235" stroke="#828ba3" stroke-width="4" stroke-linecap="round"/><polyline points="214,226 224,235 214,244" stroke="#828ba3" stroke-width="4" fill="none" stroke-linecap="round" stroke-linejoin="round"/></g><rect x="275" y="205" width="60" height="60" rx="12" fill="#fff3bf" stroke="#f0b429" stroke-width="2"/><text x="305" y="235" font-size="33" fill="#b07908" text-anchor="middle" font-weight="bold" dominant-baseline="middle">?</text><text x="85" y="283" font-size="13" fill="#828ba3" text-anchor="middle" font-weight="normal" dominant-baseline="middle">C</text><rect x="30" y="330" width="165" height="95" rx="12" fill="#f1f3f9" stroke="#c3cae0" stroke-width="2"/><text x="46" y="348" font-size="18" fill="#3b5bdb" text-anchor="middle" font-weight="bold" dominant-baseline="middle">A</text><polygon points="112.5,353.5 133.3,365.5 133.3,389.5 112.5,401.5 91.7,389.5 91.7,365.5" stroke="#5f3dc4" stroke-width="4" fill="none" stroke-linejoin="round"/><rect x="205" y="330" width="165" height="95" rx="12" fill="#f1f3f9" stroke="#c3cae0" stroke-width="2"/><text x="221" y="348" font-size="18" fill="#3b5bdb" text-anchor="middle" font-weight="bold" dominant-baseline="middle">B</text><polygon points="287.5,361.0 301.8,369.2 301.8,385.8 287.5,394.0 273.2,385.8 273.2,369.2" stroke="#5f3dc4" stroke-width="4" fill="none" stroke-linejoin="round"/><rect x="30" y="435" width="165" height="95" rx="12" fill="#f1f3f9" stroke="#c3cae0" stroke-width="2"/><text x="46" y="453" font-size="18" fill="#3b5bdb" text-anchor="middle" font-weight="bold" dominant-baseline="middle">C</text><polygon points="112.5,452.5 138.5,467.5 138.5,497.5 112.5,512.5 86.5,497.5 86.5,467.5" stroke="#5f3dc4" stroke-width="4" fill="none" stroke-linejoin="round"/><rect x="205" y="435" width="165" height="95" rx="12" fill="#f1f3f9" stroke="#c3cae0" stroke-width="2"/><text x="221" y="453" font-size="18" fill="#3b5bdb" text-anchor="middle" font-weight="bold" dominant-baseline="middle">D</text><polygon points="287.5,434.5 329.1,458.5 329.1,506.5 287.5,530.5 245.9,506.5 245.9,458.5" stroke="#5f3dc4" stroke-width="4" fill="none" stroke-linejoin="round"/></svg>