<svg xmlns="http://www.w3.org/2000/svg" viewBox="0 0 400 540" width="400" height="540" font-family="Verdana,Arial,sans-serif"><rect x="0" y="0" width="400" height="540" fill="#ffffff"/><text x="200.0" y="40" font-size="20" fill="#3b5bdb" text-anchor="middle" font-weight="bold" dominant-baseline="middle">A is to B as C is to ?</text><polygon points="85.0,90.0 111.0,135.0 59.0,135.0" stroke="#2b8a3e" stroke-width="4" fill="none" stroke-linejoin="round"/><g transform="rotate(0 200 120)"><line x1="176" y1="120" x2="224" y2="120" stroke="#828ba3" stroke-width="4" stroke-linecap="round"/><polyline points="214,111 224,120 214,129" stroke="#828ba3" stroke-width="4" fill="none" stroke-linecap="round" stroke-linejoin="round"/></g><polygon points="305.0,90.0 331.0,135.0 279.0,135.0" stroke="#1f2933" stroke-width="4" fill="none" stroke-linejoin="round"/><text x="85" y="168" font-size="13" fill="#828ba3" text-anchor="middle" font-weight="normal" dominant-baseline="middle">A</text><text x="305" y="168" font-size="13" fill="#828ba3" text-anchor="middle" font-weight="normal" dominant-baseline="middle">B</text><g transform="rotate(0 85 235)"><rect x="55.0" y="205.0" width="60.0" height="60.0" rx="3" stroke="#e8590c" stroke-width="4" fill="none"/></g><g transform="rotate(0 200 235)"><line x1="176" y1="235" x2="224" y2="235" stroke="#828ba3" stroke-width="4" stroke-linecap="round"/><polyline points="214,226 224,235 214,244" stroke="#828ba3" stroke-width="4" fill="none" stroke-linecap="round" stroke-linejoin="round"/></g><rect x="275" y="205" width="60" height="60" rx="12" fill="#fff3bf" stroke="#f0b429" stroke-width="2"/><text x="305" y="235" font-size="33" fill="#b07908" text-anchor="middle" font-weight="bold" dominant-baseline="middle">?</text><text x="85" y="283" font-size="13" fill="#828ba3" text-anchor="middle" font-weight="normal" dominant-baseline="middle">C</text><rect x="30" y="330" width="165" height="95" rx="12" fill="#f1f3f9" stroke="#c3cae0" stroke-width="2"/><text x="46" y="348" font-size="18" fill="#3b5bdb" text-anchor="middle" font-weight="bold" dominant-baseline="middle">A</text><g transform="rotate(0 112.5 377.5)"><rect x="82.5" y="347.5" width="60.0" height="60.0" rx="3" stroke="#e8590c" stroke-width="4" fill="none"/></g><rect x="205" y="330" width="165" height="95" rx="12" fill="#f1f3f9" stroke="#c3cae0" stroke-width="2"/><text x="221" y="348" font-size="18" fill="#3b5bdb" text-anchor="middle" font-weight="bold" dominant-baseline="middle">B</text><g transform="rotate(0 287.5 377.5)"><rect x="257.5" y="347.5" width="60.0" height="60.0" rx="3" stroke="#5f3dc4" stroke-width="4" fill="none"/></g><rect x="30" y="435" width="165" height="95" rx="12" fill="#f1f3f9" stroke="#c3cae0" stroke-width="2"/><text x="46" y="453" font-size="18" fill="#3b5bdb" text-anchor="middle" font-weight="bold" dominant-baseline="middle">C</text><g transform="rotate(0 112.5 482.5)"><rect x="82.5" y="452.5" width="60.0" height="60.0" rx="3" stroke="#1f2933" stroke-width="4" fill="none"/></g><rect x="205" y="435" width="165" height="95" rx="12" fill="#f1f3f9" stroke="#c3cae0" stroke-width="2"/><text x="221" y="453" font-size="18" fill="#3b5bdb" text-anchor="middle" font-weight="bold" dominant-baseline="middle">D</text><g transform="rotate(0 287.5 482.5)"><rect x="257.5" y="452.5" width="60.0" height="60.0" rx="3" stroke="#1c7ed6" stroke-width="4" fill="none"/></g></svg>