<svg xmlns="http://www.w3.org/2000/svg" viewBox="0 0 400 540" width="400" height="540" font-family="Verdana,Arial,sans-serif"><rect x="0" y="0" width="400" height="540" fill="#ffffff"/><text x="200.0" y="40" font-size="17" fill="#3b5bdb" text-anchor="middle" font-weight="bold" dominant-baseline="middle">Which one is the odd one out?</text><text x="200.0" y="120" font-size="14" fill="#828ba3" text-anchor="middle" font-weight="normal" dominant-baseline="middle">Compare the four shapes below.</text><rect x="30" y="330" width="165" height="95" rx="12" fill="#f1f3f9" stroke="#c3cae0" stroke-width="2"/><text x="46" y="348" font-size="18" fill="#3b5bdb" text-anchor="middle" font-weight="bold" dominant-baseline="middle">A</text><polygon points="152.8,367.9 138.6,381.0 143.7,399.6 126.9,390.1 110.8,400.7 114.7,381.8 99.6,369.8 118.7,367.6 125.5,349.5 133.5,367.1" stroke="#1f2933" stroke-width="4" fill="none" stroke-linejoin="round"/><rect x="205" y="330" width="165" height="95" rx="12" fill="#f1f3f9" stroke="#c3cae0" stroke-width="2"/><text x="221" y="348" font-size="18" fill="#3b5bdb" text-anchor="middle" font-weight="bold" dominant-baseline="middle">B</text><polygon points="315.5,353.3 313.0,372.4 328.9,383.3 309.9,386.9 304.4,405.3 295.2,388.4 275.9,388.9 289.2,374.9 282.8,356.7 300.2,365.0" stroke="#1f2933" stroke-width="4" fill="none" stroke-linejoin="round"/><rect x="30" y="435" width="165" height="95" rx="12" fill="#f1f3f9" stroke="#c3cae0" stroke-width="2"/><text x="46" y="453" font-size="18" fill="#3b5bdb" text-anchor="middle" font-weight="bold" dominant-baseline="middle">C</text><polygon points="140.5,458.3 138.0,477.4 153.9,488.3 134.9,491.9 129.4,510.3 120.2,493.4 100.9,493.9 114.2,479.9 107.8,461.7 125.2,470.0" stroke="#1f2933" stroke-width="4" fill="none" stroke-linejoin="round"/><rect x="205" y="435" width="165" height="95" rx="12" fill="#f1f3f9" stroke="#c3cae0" stroke-width="2"/><text x="221" y="453" font-size="18" fill="#3b5bdb" text-anchor="middle" font-weight="bold" dominant-baseline="middle">D</text><polygon points="315.5,458.3 313.0,477.4 328.9,488.3 309.9,491.9 304.4,510.3 295.2,493.4 275.9,493.9 289.2,479.9 282.8,461.7 300.2,470.0" stroke="#1f2933" stroke-width="4" fill="none" stroke-linejoin="round"/></svg>