<svg xmlns="http://www.w3.org/2000/svg" viewBox="0 0 400 540" width="400" height="540" font-family="Verdana,Arial,sans-serif"><rect x="0" y="0" width="400" height="540" fill="#ffffff"/><text x="200.0" y="40" font-size="17" fill="#3b5bdb" text-anchor="middle" font-weight="bold" dominant-baseline="middle">Which one is the odd one out?</text><text x="200.0" y="120" font-size="13" fill="#828ba3" text-anchor="middle" font-weight="normal" dominant-baseline="middle">Three are alike — find the different one.</text><rect x="30" y="330" width="165" height="95" rx="12" fill="#f1f3f9" stroke="#c3cae0" stroke-width="2"/><text x="46" y="348" font-size="18" fill="#3b5bdb" text-anchor="middle" font-weight="bold" dominant-baseline="middle">A</text><g transform="rotate(20 112.5 377.5)"><rect x="82.5" y="347.5" width="60.0" height="60.0" rx="3" stroke="#2b8a3e" stroke-width="4" fill="none"/></g><rect x="205" y="330" width="165" height="95" rx="12" fill="#f1f3f9" stroke="#c3cae0" stroke-width="2"/><text x="221" y="348" font-size="18" fill="#3b5bdb" text-anchor="middle" font-weight="bold" dominant-baseline="middle">B</text><g transform="rotate(20 287.5 377.5)"><rect x="257.5" y="347.5" width="60.0" height="60.0" rx="3" stroke="#2b8a3e" stroke-width="4" fill="none"/></g><rect x="30" y="435" width="165" height="95" rx="12" fill="#f1f3f9" stroke="#c3cae0" stroke-width="2"/><text x="46" y="453" font-size="18" fill="#3b5bdb" text-anchor="middle" font-weight="bold" dominant-baseline="middle">C</text><g transform="rotate(20 112.5 482.5)"><rect x="96.0" y="466.0" width="33.0" height="33.0" rx="3" stroke="#2b8a3e" stroke-width="4" fill="none"/></g><rect x="205" y="435" width="165" height="95" rx="12" fill="#f1f3f9" stroke="#c3cae0" stroke-width="2"/><text x="221" y="453" font-size="18" fill="#3b5bdb" text-anchor="middle" font-weight="bold" dominant-baseline="middle">D</text><g transform="rotate(20 287.5 482.5)"><rect x="257.5" y="452.5" width="60.0" height="60.0" rx="3" stroke="#2b8a3e" stroke-width="4" fill="none"/></g></svg>