<svg xmlns="http://www.w3.org/2000/svg" viewBox="0 0 400 540" width="400" height="540" font-family="Verdana,Arial,sans-serif"><rect x="0" y="0" width="400" height="540" fill="#ffffff"/><text x="200.0" y="40" font-size="17" fill="#3b5bdb" text-anchor="middle" font-weight="bold" dominant-baseline="middle">Which one is the odd one out?</text><text x="200.0" y="120" font-size="14" fill="#828ba3" text-anchor="middle" font-weight="normal" dominant-baseline="middle">Compare the four shapes below.</text><rect x="30" y="330" width="165" height="95" rx="12" fill="#f1f3f9" stroke="#c3cae0" stroke-width="2"/><text x="46" y="348" font-size="18" fill="#3b5bdb" text-anchor="middle" font-weight="bold" dominant-baseline="middle">A</text><polygon points="126.5,349.5 150.7,363.5 150.7,391.5 126.5,405.5 102.3,391.5 102.3,363.5" stroke="#5f3dc4" stroke-width="4" fill="none" stroke-linejoin="round"/><rect x="205" y="330" width="165" height="95" rx="12" fill="#f1f3f9" stroke="#c3cae0" stroke-width="2"/><text x="221" y="348" font-size="18" fill="#3b5bdb" text-anchor="middle" font-weight="bold" dominant-baseline="middle">B</text><polygon points="301.5,349.5 325.7,363.5 325.7,391.5 301.5,405.5 277.3,391.5 277.3,363.5" stroke="#5f3dc4" stroke-width="4" fill="none" stroke-linejoin="round"/><rect x="30" y="435" width="165" height="95" rx="12" fill="#f1f3f9" stroke="#c3cae0" stroke-width="2"/><text x="46" y="453" font-size="18" fill="#3b5bdb" text-anchor="middle" font-weight="bold" dominant-baseline="middle">C</text><polygon points="126.5,454.5 150.7,468.5 150.7,496.5 126.5,510.5 102.3,496.5 102.3,468.5" stroke="#5f3dc4" stroke-width="4" fill="none" stroke-linejoin="round"/><rect x="205" y="435" width="165" height="95" rx="12" fill="#f1f3f9" stroke="#c3cae0" stroke-width="2"/><text x="221" y="453" font-size="18" fill="#3b5bdb" text-anchor="middle" font-weight="bold" dominant-baseline="middle">D</text><polygon points="301.5,454.5 325.7,468.5 325.7,496.5 301.5,510.5 277.3,496.5 277.3,468.5" stroke="#5f3dc4" stroke-width="4" fill="#5f3dc4" stroke-linejoin="round"/></svg>