<svg xmlns="http://www.w3.org/2000/svg" viewBox="0 0 400 540" width="400" height="540" font-family="Verdana,Arial,sans-serif"><rect x="0" y="0" width="400" height="540" fill="#ffffff"/><text x="200.0" y="40" font-size="17" fill="#3b5bdb" text-anchor="middle" font-weight="bold" dominant-baseline="middle">Which one is the odd one out?</text><text x="200.0" y="120" font-size="13" fill="#828ba3" text-anchor="middle" font-weight="normal" dominant-baseline="middle">Three are alike — find the different one.</text><rect x="30" y="330" width="165" height="95" rx="12" fill="#f1f3f9" stroke="#c3cae0" stroke-width="2"/><text x="46" y="348" font-size="18" fill="#3b5bdb" text-anchor="middle" font-weight="bold" dominant-baseline="middle">A</text><polygon points="122.8,349.3 123.7,370.0 142.5,378.5 123.1,385.8 120.8,406.3 107.9,390.2 87.6,394.3 99.0,377.0 88.9,359.0 108.8,364.5" stroke="#2b8a3e" stroke-width="4" fill="none" stroke-linejoin="round"/><rect x="205" y="330" width="165" height="95" rx="12" fill="#f1f3f9" stroke="#c3cae0" stroke-width="2"/><text x="221" y="348" font-size="18" fill="#3b5bdb" text-anchor="middle" font-weight="bold" dominant-baseline="middle">B</text><polygon points="297.8,349.3 298.7,370.0 317.5,378.5 298.1,385.8 295.8,406.3 282.9,390.2 262.6,394.3 274.0,377.0 263.9,359.0 283.8,364.5" stroke="#5f3dc4" stroke-width="4" fill="none" stroke-linejoin="round"/><rect x="30" y="435" width="165" height="95" rx="12" fill="#f1f3f9" stroke="#c3cae0" stroke-width="2"/><text x="46" y="453" font-size="18" fill="#3b5bdb" text-anchor="middle" font-weight="bold" dominant-baseline="middle">C</text><polygon points="122.8,454.3 123.7,475.0 142.5,483.5 123.1,490.8 120.8,511.3 107.9,495.2 87.6,499.3 99.0,482.0 88.9,464.0 108.8,469.5" stroke="#2b8a3e" stroke-width="4" fill="none" stroke-linejoin="round"/><rect x="205" y="435" width="165" height="95" rx="12" fill="#f1f3f9" stroke="#c3cae0" stroke-width="2"/><text x="221" y="453" font-size="18" fill="#3b5bdb" text-anchor="middle" font-weight="bold" dominant-baseline="middle">D</text><polygon points="297.8,454.3 298.7,475.0 317.5,483.5 298.1,490.8 295.8,511.3 282.9,495.2 262.6,499.3 274.0,482.0 263.9,464.0 283.8,469.5" stroke="#2b8a3e" stroke-width="4" fill="none" stroke-linejoin="round"/></svg>