<svg xmlns="http://www.w3.org/2000/svg" viewBox="0 0 400 540" width="400" height="540" font-family="Verdana,Arial,sans-serif"><rect x="0" y="0" width="400" height="540" fill="#ffffff"/><text x="200.0" y="40" font-size="17" fill="#3b5bdb" text-anchor="middle" font-weight="bold" dominant-baseline="middle">Which one is the odd one out?</text><text x="200.0" y="120" font-size="13" fill="#828ba3" text-anchor="middle" font-weight="normal" dominant-baseline="middle">Three are alike — find the different one.</text><rect x="30" y="330" width="165" height="95" rx="12" fill="#f1f3f9" stroke="#c3cae0" stroke-width="2"/><text x="46" y="348" font-size="18" fill="#3b5bdb" text-anchor="middle" font-weight="bold" dominant-baseline="middle">A</text><polygon points="112.5,347.5 138.5,362.5 138.5,392.5 112.5,407.5 86.5,392.5 86.5,362.5" stroke="#1f2933" stroke-width="4" fill="none" stroke-linejoin="round"/><rect x="205" y="330" width="165" height="95" rx="12" fill="#f1f3f9" stroke="#c3cae0" stroke-width="2"/><text x="221" y="348" font-size="18" fill="#3b5bdb" text-anchor="middle" font-weight="bold" dominant-baseline="middle">B</text><polygon points="287.5,347.5 295.4,366.6 316.0,368.2 300.3,381.7 305.1,401.8 287.5,391.0 269.9,401.8 274.7,381.7 259.0,368.2 279.6,366.6" stroke="#1f2933" stroke-width="4" fill="none" stroke-linejoin="round"/><rect x="30" y="435" width="165" height="95" rx="12" fill="#f1f3f9" stroke="#c3cae0" stroke-width="2"/><text x="46" y="453" font-size="18" fill="#3b5bdb" text-anchor="middle" font-weight="bold" dominant-baseline="middle">C</text><polygon points="112.5,452.5 120.4,471.6 141.0,473.2 125.3,486.7 130.1,506.8 112.5,496.0 94.9,506.8 99.7,486.7 84.0,473.2 104.6,471.6" stroke="#1f2933" stroke-width="4" fill="none" stroke-linejoin="round"/><rect x="205" y="435" width="165" height="95" rx="12" fill="#f1f3f9" stroke="#c3cae0" stroke-width="2"/><text x="221" y="453" font-size="18" fill="#3b5bdb" text-anchor="middle" font-weight="bold" dominant-baseline="middle">D</text><polygon points="287.5,452.5 295.4,471.6 316.0,473.2 300.3,486.7 305.1,506.8 287.5,496.0 269.9,506.8 274.7,486.7 259.0,473.2 279.6,471.6" stroke="#1f2933" stroke-width="4" fill="none" stroke-linejoin="round"/></svg>