<svg xmlns="http://www.w3.org/2000/svg" viewBox="0 0 400 540" width="400" height="540" font-family="Verdana,Arial,sans-serif"><rect x="0" y="0" width="400" height="540" fill="#ffffff"/><text x="200.0" y="40" font-size="17" fill="#3b5bdb" text-anchor="middle" font-weight="bold" dominant-baseline="middle">Which shape completes the pattern?</text><rect x="46" y="141" width="68" height="68" rx="12" fill="none" stroke="#1f2933" stroke-width="3"/><circle cx="69.0" cy="164.0" r="6" fill="#1f2933"/><circle cx="91.0" cy="164.0" r="6" fill="#1f2933"/><circle cx="69.0" cy="186.0" r="6" fill="#1f2933"/><rect x="141" y="141" width="68" height="68" rx="12" fill="none" stroke="#1f2933" stroke-width="3"/><circle cx="164.0" cy="164.0" r="6" fill="#1f2933"/><circle cx="186.0" cy="164.0" r="6" fill="#1f2933"/><circle cx="164.0" cy="186.0" r="6" fill="#1f2933"/><circle cx="186.0" cy="186.0" r="6" fill="#1f2933"/><rect x="236" y="141" width="68" height="68" rx="12" fill="none" stroke="#1f2933" stroke-width="3"/><circle cx="255.3" cy="164.0" r="6" fill="#1f2933"/><circle cx="270.0" cy="164.0" r="6" fill="#1f2933"/><circle cx="284.7" cy="164.0" r="6" fill="#1f2933"/><circle cx="255.3" cy="186.0" r="6" fill="#1f2933"/><circle cx="270.0" cy="186.0" r="6" fill="#1f2933"/><rect x="296" y="141" width="68" height="68" rx="12" fill="#fff3bf" stroke="#f0b429" stroke-width="2"/><text x="330" y="175" font-size="28" fill="#b07908" text-anchor="middle" font-weight="bold" dominant-baseline="middle">?</text><rect x="30" y="330" width="165" height="95" rx="12" fill="#f1f3f9" stroke="#c3cae0" stroke-width="2"/><text x="46" y="348" font-size="18" fill="#3b5bdb" text-anchor="middle" font-weight="bold" dominant-baseline="middle">A</text><rect x="96.5" y="347.5" width="60" height="60" rx="12" fill="none" stroke="#1f2933" stroke-width="3"/><circle cx="114.5" cy="365.5" r="6" fill="#1f2933"/><circle cx="126.5" cy="365.5" r="6" fill="#1f2933"/><circle cx="138.5" cy="365.5" r="6" fill="#1f2933"/><circle cx="114.5" cy="377.5" r="6" fill="#1f2933"/><circle cx="126.5" cy="377.5" r="6" fill="#1f2933"/><circle cx="138.5" cy="377.5" r="6" fill="#1f2933"/><circle cx="114.5" cy="389.5" r="6" fill="#1f2933"/><circle cx="126.5" cy="389.5" r="6" fill="#1f2933"/><rect x="205" y="330" width="165" height="95" rx="12" fill="#f1f3f9" stroke="#c3cae0" stroke-width="2"/><text x="221" y="348" font-size="18" fill="#3b5bdb" text-anchor="middle" font-weight="bold" dominant-baseline="middle">B</text><rect x="271.5" y="347.5" width="60" height="60" rx="12" fill="none" stroke="#1f2933" stroke-width="3"/><circle cx="289.5" cy="368.5" r="6" fill="#1f2933"/><circle cx="301.5" cy="368.5" r="6" fill="#1f2933"/><circle cx="313.5" cy="368.5" r="6" fill="#1f2933"/><circle cx="289.5" cy="386.5" r="6" fill="#1f2933"/><circle cx="301.5" cy="386.5" r="6" fill="#1f2933"/><circle cx="313.5" cy="386.5" r="6" fill="#1f2933"/><rect x="30" y="435" width="165" height="95" rx="12" fill="#f1f3f9" stroke="#c3cae0" stroke-width="2"/><text x="46" y="453" font-size="18" fill="#3b5bdb" text-anchor="middle" font-weight="bold" dominant-baseline="middle">C</text><rect x="96.5" y="452.5" width="60" height="60" rx="12" fill="none" stroke="#1f2933" stroke-width="3"/><circle cx="114.5" cy="470.5" r="6" fill="#1f2933"/><circle cx="126.5" cy="470.5" r="6" fill="#1f2933"/><circle cx="138.5" cy="470.5" r="6" fill="#1f2933"/><circle cx="114.5" cy="482.5" r="6" fill="#1f2933"/><circle cx="126.5" cy="482.5" r="6" fill="#1f2933"/><circle cx="138.5" cy="482.5" r="6" fill="#1f2933"/><circle cx="114.5" cy="494.5" r="6" fill="#1f2933"/><rect x="205" y="435" width="165" height="95" rx="12" fill="#f1f3f9" stroke="#c3cae0" stroke-width="2"/><text x="221" y="453" font-size="18" fill="#3b5bdb" text-anchor="middle" font-weight="bold" dominant-baseline="middle">D</text><rect x="271.5" y="452.5" width="60" height="60" rx="12" fill="none" stroke="#1f2933" stroke-width="3"/><circle cx="289.5" cy="473.5" r="6" fill="#1f2933"/><circle cx="301.5" cy="473.5" r="6" fill="#1f2933"/><circle cx="313.5" cy="473.5" r="6" fill="#1f2933"/><circle cx="289.5" cy="491.5" r="6" fill="#1f2933"/><circle cx="301.5" cy="491.5" r="6" fill="#1f2933"/></svg>