<svg xmlns="http://www.w3.org/2000/svg" viewBox="0 0 400 540" width="400" height="540" font-family="Verdana,Arial,sans-serif"><rect x="0" y="0" width="400" height="540" fill="#ffffff"/><text x="200.0" y="40" font-size="17" fill="#3b5bdb" text-anchor="middle" font-weight="bold" dominant-baseline="middle">Which shape completes the pattern?</text><polygon points="67.4,156.8 76.6,172.7 58.2,172.7" stroke="#3b5bdb" stroke-width="3" fill="none" stroke-linejoin="round"/><polygon points="92.6,156.8 101.8,172.7 83.4,172.7" stroke="#3b5bdb" stroke-width="3" fill="none" stroke-linejoin="round"/><polygon points="67.4,182.0 76.6,197.9 58.2,197.9" stroke="#3b5bdb" stroke-width="3" fill="none" stroke-linejoin="round"/><polygon points="162.4,156.8 171.6,172.7 153.2,172.7" stroke="#3b5bdb" stroke-width="3" fill="none" stroke-linejoin="round"/><polygon points="187.6,156.8 196.8,172.7 178.4,172.7" stroke="#3b5bdb" stroke-width="3" fill="none" stroke-linejoin="round"/><polygon points="162.4,182.0 171.6,197.9 153.2,197.9" stroke="#3b5bdb" stroke-width="3" fill="none" stroke-linejoin="round"/><polygon points="187.6,182.0 196.8,197.9 178.4,197.9" stroke="#3b5bdb" stroke-width="3" fill="none" stroke-linejoin="round"/><polygon points="253.2,164.5 259.3,175.1 247.1,175.1" stroke="#3b5bdb" stroke-width="3" fill="none" stroke-linejoin="round"/><polygon points="270.0,164.5 276.1,175.1 263.9,175.1" stroke="#3b5bdb" stroke-width="3" fill="none" stroke-linejoin="round"/><polygon points="286.8,164.5 292.9,175.1 280.7,175.1" stroke="#3b5bdb" stroke-width="3" fill="none" stroke-linejoin="round"/><polygon points="253.2,181.3 259.3,191.9 247.1,191.9" stroke="#3b5bdb" stroke-width="3" fill="none" stroke-linejoin="round"/><polygon points="270.0,181.3 276.1,191.9 263.9,191.9" stroke="#3b5bdb" stroke-width="3" fill="none" stroke-linejoin="round"/><rect x="303" y="148" width="64" height="64" rx="12" fill="#fff3bf" stroke="#f0b429" stroke-width="2"/><text x="335" y="180" font-size="35" fill="#b07908" text-anchor="middle" font-weight="bold" dominant-baseline="middle">?</text><rect x="30" y="330" width="165" height="95" rx="12" fill="#f1f3f9" stroke="#c3cae0" stroke-width="2"/><text x="46" y="348" font-size="18" fill="#3b5bdb" text-anchor="middle" font-weight="bold" dominant-baseline="middle">A</text><polygon points="94.5,360.9 101.0,372.3 88.0,372.3" stroke="#3b5bdb" stroke-width="3" fill="none" stroke-linejoin="round"/><polygon points="112.5,360.9 119.0,372.3 106.0,372.3" stroke="#3b5bdb" stroke-width="3" fill="none" stroke-linejoin="round"/><polygon points="130.5,360.9 137.0,372.3 124.0,372.3" stroke="#3b5bdb" stroke-width="3" fill="none" stroke-linejoin="round"/><polygon points="94.5,378.9 101.0,390.3 88.0,390.3" stroke="#3b5bdb" stroke-width="3" fill="none" stroke-linejoin="round"/><polygon points="112.5,378.9 119.0,390.3 106.0,390.3" stroke="#3b5bdb" stroke-width="3" fill="none" stroke-linejoin="round"/><rect x="205" y="330" width="165" height="95" rx="12" fill="#f1f3f9" stroke="#c3cae0" stroke-width="2"/><text x="221" y="348" font-size="18" fill="#3b5bdb" text-anchor="middle" font-weight="bold" dominant-baseline="middle">B</text><polygon points="269.5,360.9 276.0,372.3 263.0,372.3" stroke="#3b5bdb" stroke-width="3" fill="none" stroke-linejoin="round"/><polygon points="287.5,360.9 294.0,372.3 281.0,372.3" stroke="#3b5bdb" stroke-width="3" fill="none" stroke-linejoin="round"/><polygon points="305.5,360.9 312.0,372.3 299.0,372.3" stroke="#3b5bdb" stroke-width="3" fill="none" stroke-linejoin="round"/><polygon points="269.5,378.9 276.0,390.3 263.0,390.3" stroke="#3b5bdb" stroke-width="3" fill="none" stroke-linejoin="round"/><polygon points="287.5,378.9 294.0,390.3 281.0,390.3" stroke="#3b5bdb" stroke-width="3" fill="none" stroke-linejoin="round"/><polygon points="305.5,378.9 312.0,390.3 299.0,390.3" stroke="#3b5bdb" stroke-width="3" fill="none" stroke-linejoin="round"/><rect x="30" y="435" width="165" height="95" rx="12" fill="#f1f3f9" stroke="#c3cae0" stroke-width="2"/><text x="46" y="453" font-size="18" fill="#3b5bdb" text-anchor="middle" font-weight="bold" dominant-baseline="middle">C</text><polygon points="94.5,456.9 101.0,468.3 88.0,468.3" stroke="#3b5bdb" stroke-width="3" fill="none" stroke-linejoin="round"/><polygon points="112.5,456.9 119.0,468.3 106.0,468.3" stroke="#3b5bdb" stroke-width="3" fill="none" stroke-linejoin="round"/><polygon points="130.5,456.9 137.0,468.3 124.0,468.3" stroke="#3b5bdb" stroke-width="3" fill="none" stroke-linejoin="round"/><polygon points="94.5,474.9 101.0,486.3 88.0,486.3" stroke="#3b5bdb" stroke-width="3" fill="none" stroke-linejoin="round"/><polygon points="112.5,474.9 119.0,486.3 106.0,486.3" stroke="#3b5bdb" stroke-width="3" fill="none" stroke-linejoin="round"/><polygon points="130.5,474.9 137.0,486.3 124.0,486.3" stroke="#3b5bdb" stroke-width="3" fill="none" stroke-linejoin="round"/><polygon points="94.5,492.9 101.0,504.3 88.0,504.3" stroke="#3b5bdb" stroke-width="3" fill="none" stroke-linejoin="round"/><rect x="205" y="435" width="165" height="95" rx="12" fill="#f1f3f9" stroke="#c3cae0" stroke-width="2"/><text x="221" y="453" font-size="18" fill="#3b5bdb" text-anchor="middle" font-weight="bold" dominant-baseline="middle">D</text><polygon points="274.0,457.7 283.8,474.7 264.2,474.7" stroke="#3b5bdb" stroke-width="3" fill="none" stroke-linejoin="round"/><polygon points="301.0,457.7 310.8,474.7 291.2,474.7" stroke="#3b5bdb" stroke-width="3" fill="none" stroke-linejoin="round"/><polygon points="274.0,484.7 283.8,501.7 264.2,501.7" stroke="#3b5bdb" stroke-width="3" fill="none" stroke-linejoin="round"/><polygon points="301.0,484.7 310.8,501.7 291.2,501.7" stroke="#3b5bdb" stroke-width="3" fill="none" stroke-linejoin="round"/></svg>