<svg xmlns="http://www.w3.org/2000/svg" viewBox="0 0 400 540" width="400" height="540" font-family="Verdana,Arial,sans-serif"><rect x="0" y="0" width="400" height="540" fill="#ffffff"/><text x="200.0" y="40" font-size="17" fill="#3b5bdb" text-anchor="middle" font-weight="bold" dominant-baseline="middle">Which shape completes the pattern?</text><polygon points="80.0,152.0 104.2,194.0 55.8,194.0" stroke="#3b5bdb" stroke-width="4" fill="none" stroke-linejoin="round"/><g transform="rotate(0 175 180)"><rect x="147.0" y="152.0" width="56.0" height="56.0" rx="3" stroke="#3b5bdb" stroke-width="4" fill="none"/></g><polygon points="270.0,152.0 296.6,171.3 286.5,202.7 253.5,202.7 243.4,171.3" stroke="#3b5bdb" stroke-width="4" fill="none" stroke-linejoin="round"/><rect x="303" y="148" width="64" height="64" rx="12" fill="#fff3bf" stroke="#f0b429" stroke-width="2"/><text x="335" y="180" font-size="35" fill="#b07908" text-anchor="middle" font-weight="bold" dominant-baseline="middle">?</text><rect x="30" y="330" width="165" height="95" rx="12" fill="#f1f3f9" stroke="#c3cae0" stroke-width="2"/><text x="46" y="348" font-size="18" fill="#3b5bdb" text-anchor="middle" font-weight="bold" dominant-baseline="middle">A</text><g transform="rotate(0 112.5 377.5)"><rect x="82.5" y="347.5" width="60.0" height="60.0" rx="3" stroke="#3b5bdb" stroke-width="4" fill="none"/></g><rect x="205" y="330" width="165" height="95" rx="12" fill="#f1f3f9" stroke="#c3cae0" stroke-width="2"/><text x="221" y="348" font-size="18" fill="#3b5bdb" text-anchor="middle" font-weight="bold" dominant-baseline="middle">B</text><polygon points="287.5,347.5 313.5,362.5 313.5,392.5 287.5,407.5 261.5,392.5 261.5,362.5" stroke="#3b5bdb" stroke-width="4" fill="none" stroke-linejoin="round"/><rect x="30" y="435" width="165" height="95" rx="12" fill="#f1f3f9" stroke="#c3cae0" stroke-width="2"/><text x="46" y="453" font-size="18" fill="#3b5bdb" text-anchor="middle" font-weight="bold" dominant-baseline="middle">C</text><polygon points="112.5,452.5 141.0,473.2 130.1,506.8 94.9,506.8 84.0,473.2" stroke="#3b5bdb" stroke-width="4" fill="none" stroke-linejoin="round"/><rect x="205" y="435" width="165" height="95" rx="12" fill="#f1f3f9" stroke="#c3cae0" stroke-width="2"/><text x="221" y="453" font-size="18" fill="#3b5bdb" text-anchor="middle" font-weight="bold" dominant-baseline="middle">D</text><polygon points="287.5,452.5 313.5,497.5 261.5,497.5" stroke="#3b5bdb" stroke-width="4" fill="none" stroke-linejoin="round"/></svg>