<svg xmlns="http://www.w3.org/2000/svg" viewBox="0 0 400 540" width="400" height="540" font-family="Verdana,Arial,sans-serif"><rect x="0" y="0" width="400" height="540" fill="#ffffff"/><text x="200.0" y="40" font-size="17" fill="#3b5bdb" text-anchor="middle" font-weight="bold" dominant-baseline="middle">Which shape completes the pattern?</text><g transform="rotate(0 80 180)"><line x1="52.0" y1="180" x2="108.0" y2="180" stroke="#3b5bdb" stroke-width="4" stroke-linecap="round"/><polyline points="98.0,171 108.0,180 98.0,189" stroke="#3b5bdb" stroke-width="4" fill="none" stroke-linecap="round" stroke-linejoin="round"/></g><g transform="rotate(90 175 180)"><line x1="147.0" y1="180" x2="203.0" y2="180" stroke="#3b5bdb" stroke-width="4" stroke-linecap="round"/><polyline points="193.0,171 203.0,180 193.0,189" stroke="#3b5bdb" stroke-width="4" fill="none" stroke-linecap="round" stroke-linejoin="round"/></g><g transform="rotate(180 270 180)"><line x1="242.0" y1="180" x2="298.0" y2="180" stroke="#3b5bdb" stroke-width="4" stroke-linecap="round"/><polyline points="288.0,171 298.0,180 288.0,189" stroke="#3b5bdb" stroke-width="4" fill="none" stroke-linecap="round" stroke-linejoin="round"/></g><rect x="303" y="148" width="64" height="64" rx="12" fill="#fff3bf" stroke="#f0b429" stroke-width="2"/><text x="335" y="180" font-size="35" fill="#b07908" text-anchor="middle" font-weight="bold" dominant-baseline="middle">?</text><rect x="30" y="330" width="165" height="95" rx="12" fill="#f1f3f9" stroke="#c3cae0" stroke-width="2"/><text x="46" y="348" font-size="18" fill="#3b5bdb" text-anchor="middle" font-weight="bold" dominant-baseline="middle">A</text><g transform="rotate(270 112.5 377.5)"><line x1="82.5" y1="377.5" x2="142.5" y2="377.5" stroke="#3b5bdb" stroke-width="4" stroke-linecap="round"/><polyline points="132.5,368.5 142.5,377.5 132.5,386.5" stroke="#3b5bdb" stroke-width="4" fill="none" stroke-linecap="round" stroke-linejoin="round"/></g><rect x="205" y="330" width="165" height="95" rx="12" fill="#f1f3f9" stroke="#c3cae0" stroke-width="2"/><text x="221" y="348" font-size="18" fill="#3b5bdb" text-anchor="middle" font-weight="bold" dominant-baseline="middle">B</text><g transform="rotate(90 287.5 377.5)"><line x1="257.5" y1="377.5" x2="317.5" y2="377.5" stroke="#3b5bdb" stroke-width="4" stroke-linecap="round"/><polyline points="307.5,368.5 317.5,377.5 307.5,386.5" stroke="#3b5bdb" stroke-width="4" fill="none" stroke-linecap="round" stroke-linejoin="round"/></g><rect x="30" y="435" width="165" height="95" rx="12" fill="#f1f3f9" stroke="#c3cae0" stroke-width="2"/><text x="46" y="453" font-size="18" fill="#3b5bdb" text-anchor="middle" font-weight="bold" dominant-baseline="middle">C</text><g transform="rotate(0 112.5 482.5)"><line x1="82.5" y1="482.5" x2="142.5" y2="482.5" stroke="#3b5bdb" stroke-width="4" stroke-linecap="round"/><polyline points="132.5,473.5 142.5,482.5 132.5,491.5" stroke="#3b5bdb" stroke-width="4" fill="none" stroke-linecap="round" stroke-linejoin="round"/></g><rect x="205" y="435" width="165" height="95" rx="12" fill="#f1f3f9" stroke="#c3cae0" stroke-width="2"/><text x="221" y="453" font-size="18" fill="#3b5bdb" text-anchor="middle" font-weight="bold" dominant-baseline="middle">D</text><g transform="rotate(180 287.5 482.5)"><line x1="257.5" y1="482.5" x2="317.5" y2="482.5" stroke="#3b5bdb" stroke-width="4" stroke-linecap="round"/><polyline points="307.5,473.5 317.5,482.5 307.5,491.5" stroke="#3b5bdb" stroke-width="4" fill="none" stroke-linecap="round" stroke-linejoin="round"/></g></svg>