<svg xmlns="http://www.w3.org/2000/svg" viewBox="0 0 400 540" width="400" height="540" font-family="Verdana,Arial,sans-serif"><rect x="0" y="0" width="400" height="540" fill="#ffffff"/><text x="200.0" y="40" font-size="17" fill="#3b5bdb" text-anchor="middle" font-weight="bold" dominant-baseline="middle">Which shape completes the pattern?</text><g transform="rotate(0 80 180)"><rect x="52.0" y="152.0" width="56.0" height="56.0" rx="3" stroke="#3b5bdb" stroke-width="4" fill="none"/></g><g transform="rotate(0 162.4 180.0)"><rect x="151.816" y="169.416" width="21.168" height="21.168" rx="3" stroke="#3b5bdb" stroke-width="3" fill="none"/></g><g transform="rotate(0 187.6 180.0)"><rect x="177.016" y="169.416" width="21.168" height="21.168" rx="3" stroke="#3b5bdb" stroke-width="3" fill="none"/></g><g transform="rotate(0 257.4 167.4)"><rect x="246.81599999999997" y="156.816" width="21.168" height="21.168" rx="3" stroke="#3b5bdb" stroke-width="3" fill="none"/></g><g transform="rotate(0 282.59999999999997 167.4)"><rect x="272.01599999999996" y="156.816" width="21.168" height="21.168" rx="3" stroke="#3b5bdb" stroke-width="3" fill="none"/></g><g transform="rotate(0 257.4 192.6)"><rect x="246.81599999999997" y="182.016" width="21.168" height="21.168" rx="3" stroke="#3b5bdb" stroke-width="3" fill="none"/></g><rect x="303" y="148" width="64" height="64" rx="12" fill="#fff3bf" stroke="#f0b429" stroke-width="2"/><text x="335" y="180" font-size="35" fill="#b07908" text-anchor="middle" font-weight="bold" dominant-baseline="middle">?</text><rect x="30" y="330" width="165" height="95" rx="12" fill="#f1f3f9" stroke="#c3cae0" stroke-width="2"/><text x="46" y="348" font-size="18" fill="#3b5bdb" text-anchor="middle" font-weight="bold" dominant-baseline="middle">A</text><g transform="rotate(0 94.5 368.5)"><rect x="86.94" y="360.94" width="15.12" height="15.12" rx="3" stroke="#3b5bdb" stroke-width="3" fill="none"/></g><g transform="rotate(0 112.5 368.5)"><rect x="104.94" y="360.94" width="15.12" height="15.12" rx="3" stroke="#3b5bdb" stroke-width="3" fill="none"/></g><g transform="rotate(0 130.5 368.5)"><rect x="122.94" y="360.94" width="15.12" height="15.12" rx="3" stroke="#3b5bdb" stroke-width="3" fill="none"/></g><g transform="rotate(0 94.5 386.5)"><rect x="86.94" y="378.94" width="15.12" height="15.12" rx="3" stroke="#3b5bdb" stroke-width="3" fill="none"/></g><g transform="rotate(0 112.5 386.5)"><rect x="104.94" y="378.94" width="15.12" height="15.12" rx="3" stroke="#3b5bdb" stroke-width="3" fill="none"/></g><rect x="205" y="330" width="165" height="95" rx="12" fill="#f1f3f9" stroke="#c3cae0" stroke-width="2"/><text x="221" y="348" font-size="18" fill="#3b5bdb" text-anchor="middle" font-weight="bold" dominant-baseline="middle">B</text><g transform="rotate(0 274.0 377.5)"><rect x="262.66" y="366.16" width="22.68" height="22.68" rx="3" stroke="#3b5bdb" stroke-width="3" fill="none"/></g><g transform="rotate(0 301.0 377.5)"><rect x="289.66" y="366.16" width="22.68" height="22.68" rx="3" stroke="#3b5bdb" stroke-width="3" fill="none"/></g><rect x="30" y="435" width="165" height="95" rx="12" fill="#f1f3f9" stroke="#c3cae0" stroke-width="2"/><text x="46" y="453" font-size="18" fill="#3b5bdb" text-anchor="middle" font-weight="bold" dominant-baseline="middle">C</text><g transform="rotate(0 99.0 469.0)"><rect x="87.66" y="457.66" width="22.68" height="22.68" rx="3" stroke="#3b5bdb" stroke-width="3" fill="none"/></g><g transform="rotate(0 126.0 469.0)"><rect x="114.66" y="457.66" width="22.68" height="22.68" rx="3" stroke="#3b5bdb" stroke-width="3" fill="none"/></g><g transform="rotate(0 99.0 496.0)"><rect x="87.66" y="484.66" width="22.68" height="22.68" rx="3" stroke="#3b5bdb" stroke-width="3" fill="none"/></g><rect x="205" y="435" width="165" height="95" rx="12" fill="#f1f3f9" stroke="#c3cae0" stroke-width="2"/><text x="221" y="453" font-size="18" fill="#3b5bdb" text-anchor="middle" font-weight="bold" dominant-baseline="middle">D</text><g transform="rotate(0 274.0 469.0)"><rect x="262.66" y="457.66" width="22.68" height="22.68" rx="3" stroke="#3b5bdb" stroke-width="3" fill="none"/></g><g transform="rotate(0 301.0 469.0)"><rect x="289.66" y="457.66" width="22.68" height="22.68" rx="3" stroke="#3b5bdb" stroke-width="3" fill="none"/></g><g transform="rotate(0 274.0 496.0)"><rect x="262.66" y="484.66" width="22.68" height="22.68" rx="3" stroke="#3b5bdb" stroke-width="3" fill="none"/></g><g transform="rotate(0 301.0 496.0)"><rect x="289.66" y="484.66" width="22.68" height="22.68" rx="3" stroke="#3b5bdb" stroke-width="3" fill="none"/></g></svg>