<svg xmlns="http://www.w3.org/2000/svg" viewBox="0 0 400 540" width="400" height="540" font-family="Verdana,Arial,sans-serif"><rect x="0" y="0" width="400" height="540" fill="#ffffff"/><text x="200.0" y="40" font-size="17" fill="#3b5bdb" text-anchor="middle" font-weight="bold" dominant-baseline="middle">Which shape completes the pattern?</text><polygon points="80.0,147.0 104.2,189.0 55.8,189.0" stroke="#3b5bdb" stroke-width="4" fill="none" stroke-linejoin="round"/><g transform="rotate(0 175 175)"><rect x="147" y="147" width="56" height="56" rx="4" stroke="#3b5bdb" stroke-width="4" fill="none"/></g><polygon points="270.0,147.0 296.6,166.3 286.5,197.7 253.5,197.7 243.4,166.3" stroke="#3b5bdb" stroke-width="4" fill="none" stroke-linejoin="round"/><rect x="296" y="141" width="68" height="68" rx="12" fill="#fff3bf" stroke="#f0b429" stroke-width="2"/><text x="330" y="175" font-size="28" fill="#b07908" text-anchor="middle" font-weight="bold" dominant-baseline="middle">?</text><rect x="30" y="330" width="165" height="95" rx="12" fill="#f1f3f9" stroke="#c3cae0" stroke-width="2"/><text x="46" y="348" font-size="18" fill="#3b5bdb" text-anchor="middle" font-weight="bold" dominant-baseline="middle">A</text><polygon points="126.5,349.5 150.7,363.5 150.7,391.5 126.5,405.5 102.3,391.5 102.3,363.5" stroke="#3b5bdb" stroke-width="4" fill="none" stroke-linejoin="round"/><rect x="205" y="330" width="165" height="95" rx="12" fill="#f1f3f9" stroke="#c3cae0" stroke-width="2"/><text x="221" y="348" font-size="18" fill="#3b5bdb" text-anchor="middle" font-weight="bold" dominant-baseline="middle">B</text><polygon points="301.5,349.5 328.1,368.8 318.0,400.2 285.0,400.2 274.9,368.8" stroke="#3b5bdb" stroke-width="4" fill="none" stroke-linejoin="round"/><rect x="30" y="435" width="165" height="95" rx="12" fill="#f1f3f9" stroke="#c3cae0" stroke-width="2"/><text x="46" y="453" font-size="18" fill="#3b5bdb" text-anchor="middle" font-weight="bold" dominant-baseline="middle">C</text><polygon points="126.5,454.5 133.9,472.3 153.1,473.8 138.5,486.4 143.0,505.2 126.5,495.1 110.0,505.2 114.5,486.4 99.9,473.8 119.1,472.3" stroke="#3b5bdb" stroke-width="4" fill="none" stroke-linejoin="round"/><rect x="205" y="435" width="165" height="95" rx="12" fill="#f1f3f9" stroke="#c3cae0" stroke-width="2"/><text x="221" y="453" font-size="18" fill="#3b5bdb" text-anchor="middle" font-weight="bold" dominant-baseline="middle">D</text><g transform="rotate(0 301.5 482.5)"><rect x="273.5" y="454.5" width="56" height="56" rx="4" stroke="#3b5bdb" stroke-width="4" fill="none"/></g></svg>