<svg xmlns="http://www.w3.org/2000/svg" viewBox="0 0 400 540" width="400" height="540" font-family="Verdana,Arial,sans-serif"><rect x="0" y="0" width="400" height="540" fill="#ffffff"/><text x="200.0" y="40" font-size="17" fill="#3b5bdb" text-anchor="middle" font-weight="bold" dominant-baseline="middle">Which shape completes the pattern?</text><circle cx="67.4" cy="180.0" r="10.584" stroke="#3b5bdb" stroke-width="3" fill="none"/><circle cx="92.60000000000001" cy="180.0" r="10.584" stroke="#3b5bdb" stroke-width="3" fill="none"/><circle cx="162.4" cy="167.4" r="10.584" stroke="#3b5bdb" stroke-width="3" fill="none"/><circle cx="187.6" cy="167.4" r="10.584" stroke="#3b5bdb" stroke-width="3" fill="none"/><circle cx="162.4" cy="192.6" r="10.584" stroke="#3b5bdb" stroke-width="3" fill="none"/><circle cx="257.4" cy="167.4" r="10.584" stroke="#3b5bdb" stroke-width="3" fill="none"/><circle cx="282.59999999999997" cy="167.4" r="10.584" stroke="#3b5bdb" stroke-width="3" fill="none"/><circle cx="257.4" cy="192.6" r="10.584" stroke="#3b5bdb" stroke-width="3" fill="none"/><circle cx="282.59999999999997" cy="192.6" r="10.584" stroke="#3b5bdb" stroke-width="3" fill="none"/><rect x="303" y="148" width="64" height="64" rx="12" fill="#fff3bf" stroke="#f0b429" stroke-width="2"/><text x="335" y="180" font-size="35" fill="#b07908" text-anchor="middle" font-weight="bold" dominant-baseline="middle">?</text><rect x="30" y="330" width="165" height="95" rx="12" fill="#f1f3f9" stroke="#c3cae0" stroke-width="2"/><text x="46" y="348" font-size="18" fill="#3b5bdb" text-anchor="middle" font-weight="bold" dominant-baseline="middle">A</text><circle cx="94.5" cy="368.5" r="7.56" stroke="#3b5bdb" stroke-width="3" fill="none"/><circle cx="112.5" cy="368.5" r="7.56" stroke="#3b5bdb" stroke-width="3" fill="none"/><circle cx="130.5" cy="368.5" r="7.56" stroke="#3b5bdb" stroke-width="3" fill="none"/><circle cx="94.5" cy="386.5" r="7.56" stroke="#3b5bdb" stroke-width="3" fill="none"/><circle cx="112.5" cy="386.5" r="7.56" stroke="#3b5bdb" stroke-width="3" fill="none"/><circle cx="130.5" cy="386.5" r="7.56" stroke="#3b5bdb" stroke-width="3" fill="none"/><rect x="205" y="330" width="165" height="95" rx="12" fill="#f1f3f9" stroke="#c3cae0" stroke-width="2"/><text x="221" y="348" font-size="18" fill="#3b5bdb" text-anchor="middle" font-weight="bold" dominant-baseline="middle">B</text><circle cx="274.0" cy="364.0" r="11.34" stroke="#3b5bdb" stroke-width="3" fill="none"/><circle cx="301.0" cy="364.0" r="11.34" stroke="#3b5bdb" stroke-width="3" fill="none"/><circle cx="274.0" cy="391.0" r="11.34" stroke="#3b5bdb" stroke-width="3" fill="none"/><rect x="30" y="435" width="165" height="95" rx="12" fill="#f1f3f9" stroke="#c3cae0" stroke-width="2"/><text x="46" y="453" font-size="18" fill="#3b5bdb" text-anchor="middle" font-weight="bold" dominant-baseline="middle">C</text><circle cx="94.5" cy="473.5" r="7.56" stroke="#3b5bdb" stroke-width="3" fill="none"/><circle cx="112.5" cy="473.5" r="7.56" stroke="#3b5bdb" stroke-width="3" fill="none"/><circle cx="130.5" cy="473.5" r="7.56" stroke="#3b5bdb" stroke-width="3" fill="none"/><circle cx="94.5" cy="491.5" r="7.56" stroke="#3b5bdb" stroke-width="3" fill="none"/><circle cx="112.5" cy="491.5" r="7.56" stroke="#3b5bdb" stroke-width="3" fill="none"/><rect x="205" y="435" width="165" height="95" rx="12" fill="#f1f3f9" stroke="#c3cae0" stroke-width="2"/><text x="221" y="453" font-size="18" fill="#3b5bdb" text-anchor="middle" font-weight="bold" dominant-baseline="middle">D</text><circle cx="274.0" cy="469.0" r="11.34" stroke="#3b5bdb" stroke-width="3" fill="none"/><circle cx="301.0" cy="469.0" r="11.34" stroke="#3b5bdb" stroke-width="3" fill="none"/><circle cx="274.0" cy="496.0" r="11.34" stroke="#3b5bdb" stroke-width="3" fill="none"/><circle cx="301.0" cy="496.0" r="11.34" stroke="#3b5bdb" stroke-width="3" fill="none"/></svg>