<svg xmlns="http://www.w3.org/2000/svg" viewBox="0 0 400 540" width="400" height="540" font-family="Verdana,Arial,sans-serif"><rect x="0" y="0" width="400" height="540" fill="#ffffff"/><text x="200.0" y="40" font-size="17" fill="#3b5bdb" text-anchor="middle" font-weight="bold" dominant-baseline="middle">Which shape completes the pattern?</text><g transform="rotate(0 80 180)"><rect x="46.4" y="146.4" width="67.2" height="67.2" rx="3" stroke="#3b5bdb" stroke-width="4" fill="none"/></g><g transform="rotate(0 175 180)"><rect x="147.0" y="152.0" width="56.0" height="56.0" rx="3" stroke="#3b5bdb" stroke-width="4" fill="none"/></g><g transform="rotate(0 270 180)"><rect x="247.6" y="157.6" width="44.800000000000004" height="44.800000000000004" rx="3" stroke="#3b5bdb" stroke-width="4" fill="none"/></g><rect x="303" y="148" width="64" height="64" rx="12" fill="#fff3bf" stroke="#f0b429" stroke-width="2"/><text x="335" y="180" font-size="35" fill="#b07908" text-anchor="middle" font-weight="bold" dominant-baseline="middle">?</text><rect x="30" y="330" width="165" height="95" rx="12" fill="#f1f3f9" stroke="#c3cae0" stroke-width="2"/><text x="46" y="348" font-size="18" fill="#3b5bdb" text-anchor="middle" font-weight="bold" dominant-baseline="middle">A</text><g transform="rotate(0 112.5 377.5)"><rect x="94.5" y="359.5" width="36.0" height="36.0" rx="3" stroke="#3b5bdb" stroke-width="4" fill="none"/></g><rect x="205" y="330" width="165" height="95" rx="12" fill="#f1f3f9" stroke="#c3cae0" stroke-width="2"/><text x="221" y="348" font-size="18" fill="#3b5bdb" text-anchor="middle" font-weight="bold" dominant-baseline="middle">B</text><g transform="rotate(0 287.5 377.5)"><rect x="257.5" y="347.5" width="60.0" height="60.0" rx="3" stroke="#3b5bdb" stroke-width="4" fill="none"/></g><rect x="30" y="435" width="165" height="95" rx="12" fill="#f1f3f9" stroke="#c3cae0" stroke-width="2"/><text x="46" y="453" font-size="18" fill="#3b5bdb" text-anchor="middle" font-weight="bold" dominant-baseline="middle">C</text><g transform="rotate(0 112.5 482.5)"><rect x="88.5" y="458.5" width="48.0" height="48.0" rx="3" stroke="#3b5bdb" stroke-width="4" fill="none"/></g><rect x="205" y="435" width="165" height="95" rx="12" fill="#f1f3f9" stroke="#c3cae0" stroke-width="2"/><text x="221" y="453" font-size="18" fill="#3b5bdb" text-anchor="middle" font-weight="bold" dominant-baseline="middle">D</text><g transform="rotate(0 287.5 482.5)"><rect x="274.0" y="469.0" width="27.0" height="27.0" rx="3" stroke="#3b5bdb" stroke-width="4" fill="none"/></g></svg>