<svg xmlns="http://www.w3.org/2000/svg" viewBox="0 0 400 540" width="400" height="540" font-family="Verdana,Arial,sans-serif"><rect x="0" y="0" width="400" height="540" fill="#ffffff"/><text x="200.0" y="40" font-size="17" fill="#3b5bdb" text-anchor="middle" font-weight="bold" dominant-baseline="middle">Which shape completes the pattern?</text><polygon points="80.0,146.4 109.1,196.8 50.9,196.8" stroke="#3b5bdb" stroke-width="4" fill="none" stroke-linejoin="round"/><polygon points="175.0,152.0 199.2,194.0 150.8,194.0" stroke="#3b5bdb" stroke-width="4" fill="none" stroke-linejoin="round"/><polygon points="270.0,157.6 289.4,191.2 250.6,191.2" stroke="#3b5bdb" stroke-width="4" fill="none" stroke-linejoin="round"/><rect x="303" y="148" width="64" height="64" rx="12" fill="#fff3bf" stroke="#f0b429" stroke-width="2"/><text x="335" y="180" font-size="35" fill="#b07908" text-anchor="middle" font-weight="bold" dominant-baseline="middle">?</text><rect x="30" y="330" width="165" height="95" rx="12" fill="#f1f3f9" stroke="#c3cae0" stroke-width="2"/><text x="46" y="348" font-size="18" fill="#3b5bdb" text-anchor="middle" font-weight="bold" dominant-baseline="middle">A</text><polygon points="112.5,353.5 133.3,389.5 91.7,389.5" stroke="#3b5bdb" stroke-width="4" fill="none" stroke-linejoin="round"/><rect x="205" y="330" width="165" height="95" rx="12" fill="#f1f3f9" stroke="#c3cae0" stroke-width="2"/><text x="221" y="348" font-size="18" fill="#3b5bdb" text-anchor="middle" font-weight="bold" dominant-baseline="middle">B</text><polygon points="287.5,347.5 313.5,392.5 261.5,392.5" stroke="#3b5bdb" stroke-width="4" fill="none" stroke-linejoin="round"/><rect x="30" y="435" width="165" height="95" rx="12" fill="#f1f3f9" stroke="#c3cae0" stroke-width="2"/><text x="46" y="453" font-size="18" fill="#3b5bdb" text-anchor="middle" font-weight="bold" dominant-baseline="middle">C</text><polygon points="112.5,469.0 124.2,489.2 100.8,489.2" stroke="#3b5bdb" stroke-width="4" fill="none" stroke-linejoin="round"/><rect x="205" y="435" width="165" height="95" rx="12" fill="#f1f3f9" stroke="#c3cae0" stroke-width="2"/><text x="221" y="453" font-size="18" fill="#3b5bdb" text-anchor="middle" font-weight="bold" dominant-baseline="middle">D</text><polygon points="287.5,464.5 303.1,491.5 271.9,491.5" stroke="#3b5bdb" stroke-width="4" fill="none" stroke-linejoin="round"/></svg>