<svg xmlns="http://www.w3.org/2000/svg" viewBox="0 0 400 540" width="400" height="540" font-family="Verdana,Arial,sans-serif"><rect x="0" y="0" width="400" height="540" fill="#ffffff"/><text x="200.0" y="40" font-size="17" fill="#3b5bdb" text-anchor="middle" font-weight="bold" dominant-baseline="middle">Which shape completes the pattern?</text><polygon points="80.0,146.4 109.1,163.2 109.1,196.8 80.0,213.6 50.9,196.8 50.9,163.2" stroke="#3b5bdb" stroke-width="4" fill="none" stroke-linejoin="round"/><polygon points="175.0,152.0 199.2,166.0 199.2,194.0 175.0,208.0 150.8,194.0 150.8,166.0" stroke="#3b5bdb" stroke-width="4" fill="none" stroke-linejoin="round"/><polygon points="270.0,157.6 289.4,168.8 289.4,191.2 270.0,202.4 250.6,191.2 250.6,168.8" stroke="#3b5bdb" stroke-width="4" fill="none" stroke-linejoin="round"/><rect x="303" y="148" width="64" height="64" rx="12" fill="#fff3bf" stroke="#f0b429" stroke-width="2"/><text x="335" y="180" font-size="35" fill="#b07908" text-anchor="middle" font-weight="bold" dominant-baseline="middle">?</text><rect x="30" y="330" width="165" height="95" rx="12" fill="#f1f3f9" stroke="#c3cae0" stroke-width="2"/><text x="46" y="348" font-size="18" fill="#3b5bdb" text-anchor="middle" font-weight="bold" dominant-baseline="middle">A</text><polygon points="112.5,347.5 138.5,362.5 138.5,392.5 112.5,407.5 86.5,392.5 86.5,362.5" stroke="#3b5bdb" stroke-width="4" fill="none" stroke-linejoin="round"/><rect x="205" y="330" width="165" height="95" rx="12" fill="#f1f3f9" stroke="#c3cae0" stroke-width="2"/><text x="221" y="348" font-size="18" fill="#3b5bdb" text-anchor="middle" font-weight="bold" dominant-baseline="middle">B</text><polygon points="287.5,364.0 299.2,370.8 299.2,384.2 287.5,391.0 275.8,384.2 275.8,370.8" stroke="#3b5bdb" stroke-width="4" fill="none" stroke-linejoin="round"/><rect x="30" y="435" width="165" height="95" rx="12" fill="#f1f3f9" stroke="#c3cae0" stroke-width="2"/><text x="46" y="453" font-size="18" fill="#3b5bdb" text-anchor="middle" font-weight="bold" dominant-baseline="middle">C</text><polygon points="112.5,464.5 128.1,473.5 128.1,491.5 112.5,500.5 96.9,491.5 96.9,473.5" stroke="#3b5bdb" stroke-width="4" fill="none" stroke-linejoin="round"/><rect x="205" y="435" width="165" height="95" rx="12" fill="#f1f3f9" stroke="#c3cae0" stroke-width="2"/><text x="221" y="453" font-size="18" fill="#3b5bdb" text-anchor="middle" font-weight="bold" dominant-baseline="middle">D</text><polygon points="287.5,458.5 308.3,470.5 308.3,494.5 287.5,506.5 266.7,494.5 266.7,470.5" stroke="#3b5bdb" stroke-width="4" fill="none" stroke-linejoin="round"/></svg>