<svg xmlns="http://www.w3.org/2000/svg" viewBox="0 0 400 540" width="400" height="540" font-family="Verdana,Arial,sans-serif"><rect x="0" y="0" width="400" height="540" fill="#ffffff"/><text x="200.0" y="40" font-size="17" fill="#3b5bdb" text-anchor="middle" font-weight="bold" dominant-baseline="middle">Which shape completes the pattern?</text><g transform="rotate(45 80 175)"><line x1="52" y1="175" x2="108" y2="175" stroke="#3b5bdb" stroke-width="4" stroke-linecap="round"/><polyline points="96,165 108,175 96,185" stroke="#3b5bdb" stroke-width="4" fill="none" stroke-linecap="round" stroke-linejoin="round"/></g><g transform="rotate(90 175 175)"><line x1="147" y1="175" x2="203" y2="175" stroke="#3b5bdb" stroke-width="4" stroke-linecap="round"/><polyline points="191,165 203,175 191,185" stroke="#3b5bdb" stroke-width="4" fill="none" stroke-linecap="round" stroke-linejoin="round"/></g><g transform="rotate(135 270 175)"><line x1="242" y1="175" x2="298" y2="175" stroke="#3b5bdb" stroke-width="4" stroke-linecap="round"/><polyline points="286,165 298,175 286,185" stroke="#3b5bdb" stroke-width="4" fill="none" stroke-linecap="round" stroke-linejoin="round"/></g><rect x="296" y="141" width="68" height="68" rx="12" fill="#fff3bf" stroke="#f0b429" stroke-width="2"/><text x="330" y="175" font-size="28" fill="#b07908" text-anchor="middle" font-weight="bold" dominant-baseline="middle">?</text><rect x="30" y="330" width="165" height="95" rx="12" fill="#f1f3f9" stroke="#c3cae0" stroke-width="2"/><text x="46" y="348" font-size="18" fill="#3b5bdb" text-anchor="middle" font-weight="bold" dominant-baseline="middle">A</text><g transform="rotate(180 126.5 377.5)"><line x1="98.5" y1="377.5" x2="154.5" y2="377.5" stroke="#3b5bdb" stroke-width="4" stroke-linecap="round"/><polyline points="142.5,367.5 154.5,377.5 142.5,387.5" stroke="#3b5bdb" stroke-width="4" fill="none" stroke-linecap="round" stroke-linejoin="round"/></g><rect x="205" y="330" width="165" height="95" rx="12" fill="#f1f3f9" stroke="#c3cae0" stroke-width="2"/><text x="221" y="348" font-size="18" fill="#3b5bdb" text-anchor="middle" font-weight="bold" dominant-baseline="middle">B</text><g transform="rotate(270 301.5 377.5)"><line x1="273.5" y1="377.5" x2="329.5" y2="377.5" stroke="#3b5bdb" stroke-width="4" stroke-linecap="round"/><polyline points="317.5,367.5 329.5,377.5 317.5,387.5" stroke="#3b5bdb" stroke-width="4" fill="none" stroke-linecap="round" stroke-linejoin="round"/></g><rect x="30" y="435" width="165" height="95" rx="12" fill="#f1f3f9" stroke="#c3cae0" stroke-width="2"/><text x="46" y="453" font-size="18" fill="#3b5bdb" text-anchor="middle" font-weight="bold" dominant-baseline="middle">C</text><g transform="rotate(225 126.5 482.5)"><line x1="98.5" y1="482.5" x2="154.5" y2="482.5" stroke="#3b5bdb" stroke-width="4" stroke-linecap="round"/><polyline points="142.5,472.5 154.5,482.5 142.5,492.5" stroke="#3b5bdb" stroke-width="4" fill="none" stroke-linecap="round" stroke-linejoin="round"/></g><rect x="205" y="435" width="165" height="95" rx="12" fill="#f1f3f9" stroke="#c3cae0" stroke-width="2"/><text x="221" y="453" font-size="18" fill="#3b5bdb" text-anchor="middle" font-weight="bold" dominant-baseline="middle">D</text><g transform="rotate(135 301.5 482.5)"><line x1="273.5" y1="482.5" x2="329.5" y2="482.5" stroke="#3b5bdb" stroke-width="4" stroke-linecap="round"/><polyline points="317.5,472.5 329.5,482.5 317.5,492.5" stroke="#3b5bdb" stroke-width="4" fill="none" stroke-linecap="round" stroke-linejoin="round"/></g></svg>